<svg id="Capa_1" enable-background="new 0 0 512 512" height="512" viewBox="0 0 512 512" width="512" xmlns="http://www.w3.org/2000/svg"><g><g><path d="m226.633 453.266c-60.536 0-117.448-23.574-160.254-66.379-42.805-42.806-66.379-99.718-66.379-160.254s23.574-117.448 66.379-160.254c42.805-42.805 99.718-66.379 160.254-66.379 115.141 0 211.923 86.127 225.123 200.339l1.124 10.367c.453 4.179-2.567 7.934-6.747 8.388-4.176.454-7.934-2.568-8.388-6.747l-1.117-10.313c-12.307-106.477-102.588-186.811-209.995-186.811-116.572 0-211.41 94.838-211.41 211.41s94.838 211.409 211.41 211.409c10.73 0 21.507-.811 32.031-2.41 4.154-.63 8.037 2.225 8.669 6.382.631 4.156-2.226 8.037-6.382 8.669-11.278 1.714-22.825 2.583-34.318 2.583z" fill="#60b9fe"/></g><path d="m263.489 230.932c-4.622-2.747-9.478-4.943-14.481-6.589h-11.919l-33.583 34.653v25.133l8.883 24.05 10.211 7.092c5.102-.941 10.414-.087 15.134 2.57 13.677 7.699 37.544 13.595 57.426-20.552 16.905-29.035-7.445-51.959-31.671-66.357z" fill="#ffdda8"/><path d="m213.457 302.081c-19.634-33.721 7.438-60.519 35.551-77.738-7.229-2.379-14.767-3.603-22.375-3.603-12.873 0-25.555 3.475-36.856 10.192-24.226 14.398-48.576 37.322-31.67 66.356 19.888 34.156 43.764 28.247 57.438 20.544 2.246-1.265 4.627-2.115 7.055-2.562-3.101-3.701-6.16-8.065-9.143-13.189z" fill="#ffd086"/><path d="m469.257 202.059h-20.699c-2.306 3.261-4.661 6.423-4.661 6.423v10.524l9.028 15.609 9.505 5.928 15.044-23.448c4.169-6.499-.497-15.036-8.217-15.036z" fill="#60b9fe"/><path d="m428.765 296.16h-32.311l-53.982 52.882s-5.443 64.952-4.751 73.578 9.318 42.117 13.885 46.684 57.34 37.043 57.34 37.043l19.819 2.472c47.789-11.771 83.235-54.907 83.235-106.33 0-51.422-35.446-94.559-83.235-106.329z" fill="#73d578"/><g fill="#ffdda8"><path d="m149.458 198.641c-.947-8.342-4.872-15.429-10.233-19.741h-5.309s-10.987 21.304-9.934 22.145c1.054.841 2.5 11.243 4.314 13.019s12.751 9.126 12.751 9.126c6.076-5.241 9.553-14.495 8.411-24.549z"/><path d="m198.602 129.416-14.197 3.711s-6.343 10.656-6.85 12.94-.254 16.238 0 18.521 14.716 20.551 14.716 21.312 8.768 3.287 8.769 3.287c9.377-5.925 15.049-18.777 13.446-32.896-1.361-11.98-7.623-21.901-15.884-26.875z"/><path d="m278.344 129.417c.062 2.378-9.45 2.442-9.45 2.442s-8.373 5.836-10.467 7.358.318 19.536 0 21.82c-.318 2.283 6.387 26.133 6.387 26.133l11.093 2.019c8.261-4.974 14.522-14.894 15.883-26.876 1.603-14.119-4.07-26.971-13.446-32.896z"/><path d="m337.721 178.899-12.751 3.703s-3.81 11.417-4.314 16.238 5.07 21.059 4.314 21.9c-.757.842 10.929 2.448 10.929 2.448 5.362-4.312 9.286-11.4 10.233-19.741 1.142-10.054-2.335-19.307-8.411-24.548z"/></g><path d="m447.386 217.094c-4.169-6.498.497-15.035 8.217-15.035h-37.067c-7.72 0-12.386 8.537-8.217 15.035l25.36 39.528c3.842 5.988 12.593 5.988 16.435 0l10.316-16.079z" fill="#1ca8ff"/><path d="m185.156 162.312c-1.604-14.119 4.069-26.971 13.446-32.896-4.379-2.637-9.32-3.885-14.392-3.309-14.638 1.662-24.817 17.872-22.735 36.205s15.637 31.847 30.275 30.185c3.365-.382 6.49-1.541 9.289-3.309-8.26-4.974-14.522-14.894-15.883-26.876z" fill="#ffd086"/><path d="m130.813 203.448c-1.142-10.054 2.335-19.308 8.412-24.548-4.047-3.255-8.912-4.931-13.94-4.36-11.688 1.327-19.815 14.27-18.153 28.908 1.663 14.638 12.485 25.429 24.173 24.101 3.66-.416 6.971-1.971 9.741-4.36-5.361-4.312-9.285-11.4-10.233-19.741z" fill="#ffd086"/><path d="m262.461 156.292c1.361-11.981 7.622-21.902 15.883-26.876-2.799-1.769-5.924-2.927-9.289-3.309-14.638-1.662-28.193 11.852-30.275 30.185s8.096 34.543 22.735 36.205c5.072.576 10.012-.673 14.392-3.309-9.377-5.925-15.05-18.777-13.446-32.896z" fill="#ffd086"/><path d="m327.488 198.641c.947-8.342 4.872-15.429 10.233-19.741-2.771-2.389-6.081-3.944-9.741-4.36-11.688-1.327-22.51 9.463-24.173 24.101s6.465 27.581 18.152 28.908c5.028.571 9.893-1.105 13.94-4.36-6.076-5.24-9.553-14.494-8.411-24.548z" fill="#ffd086"/><path d="m345.531 402.489c0-51.422 35.445-94.559 83.235-106.329-8.419-2.074-17.218-3.181-26.276-3.181-60.481 0-109.511 49.03-109.511 109.511s49.03 109.511 109.511 109.511c9.059 0 17.857-1.108 26.276-3.181-47.789-11.772-83.235-54.908-83.235-106.331z" fill="#4bce5b"/><g><path d="m393.785 447.403h-36.073c-2.831 0-5.428-1.571-6.741-4.078-1.314-2.507-1.129-5.536.482-7.864l30.567-44.183c2.445-3.533 2.835-7.74 1.072-11.544-1.807-3.898-5.373-6.468-9.54-6.876-6.243-.608-11.901 3.719-12.895 9.854-.672 4.15-4.583 6.968-8.731 6.296-4.15-.672-6.968-4.581-6.296-8.731 2.277-14.046 15.205-23.959 29.404-22.57 9.451.924 17.831 6.911 21.869 15.624 4.031 8.695 3.147 18.642-2.364 26.607l-22.305 32.241h21.551c4.204 0 7.612 3.408 7.612 7.612s-3.408 7.612-7.612 7.612z" fill="#dbedff"/></g><g><path d="m451.145 447.403c-4.204 0-7.612-3.408-7.612-7.612v-14.104h-31.383c-2.872 0-5.499-1.616-6.794-4.18s-1.037-5.637.668-7.949l38.995-52.889c1.951-2.648 5.38-3.741 8.504-2.714 3.123 1.027 5.234 3.943 5.234 7.231v45.277h5.614c4.204 0 7.612 3.408 7.612 7.612s-3.408 7.612-7.612 7.612h-5.614v14.104c0 4.204-3.408 7.612-7.612 7.612zm-23.926-36.939h16.315v-22.128z" fill="#dbedff"/></g></g></svg>