<svg id="Capa_1" enable-background="new 0 0 512 512" height="512" viewBox="0 0 512 512" width="512" xmlns="http://www.w3.org/2000/svg"><g><path d="m251.317 375.207-35.542-37.454-6.829-1.491-38.54 148.145v15.502l45.948 11.503c10.446 2.615 21.034-3.733 23.649-14.179l15.997-63.897 6.649-17.436z" fill="#60b9fe"/><path d="m170.407 499.909 40.843-163.144-33.889-7.401-9.324 8.39-33.326 133.12c-2.615 10.446 3.733 21.034 14.179 23.649z" fill="#1ca8ff"/><path d="m377.288 470.873-33.326-133.12-14.157-8.39h-19.618l-33.546 31.798 34.264 134.063 7.565 10.473 44.64-11.175c10.446-2.615 16.794-13.203 14.178-23.649z" fill="#60b9fe"/><path d="m281.204 356.836-13.404 12.705s-14.938 0-17.307 0-7.996 9.857-7.996 9.857l29.499 117.835c2.615 10.446 13.203 16.794 23.649 14.179l22.825-5.714z" fill="#1ca8ff"/><path d="m434.878 161.958-20.003-20.003c-7.661-7.661-11.965-18.051-11.965-28.885v-28.288c0-22.561-18.289-40.85-40.85-40.85h-28.288c-10.834 0-21.224-4.303-28.885-11.964l-20.002-20.003c-15.953-15.953-41.818-15.953-57.771 0l-20.002 20.002c-7.069 7.069-16.463 11.271-26.384 11.879l-14.402 4.276-8.089 25.765v247.751l22.491 16.202c9.921.608 19.315 4.81 26.384 11.879l20.002 20.002c15.953 15.953 41.817 15.953 57.77 0l20.003-20.003c7.661-7.661 18.051-11.965 28.885-11.965h28.288c22.561 0 40.85-18.289 40.85-40.85v-28.288c0-10.834 4.304-21.224 11.965-28.885l20.003-20.003c15.953-15.952 15.953-41.816 0-57.769z" fill="#ff9ba1"/><g><path d="m166.945 305.76v-30.65c0-11.739-4.663-22.997-12.964-31.297l-21.673-21.673c-17.285-17.285-17.285-45.309 0-62.594l21.673-21.673c8.301-8.3 12.964-19.559 12.964-31.297v-30.65c0-12.63 5.299-24.015 13.784-32.079-.831.051-1.664.086-2.502.086h-28.287c-22.561 0-40.85 18.289-40.85 40.85v28.288c0 10.834-4.304 21.224-11.965 28.885l-20.003 20.003c-15.953 15.953-15.953 41.818 0 57.77l20.003 20.003c7.661 7.661 11.965 18.051 11.965 28.885v28.288c0 22.561 18.289 40.85 40.85 40.85h28.288c.837 0 1.67.035 2.501.086-8.486-8.066-13.784-19.451-13.784-32.081z" fill="#ff7f87"/></g><path d="m411.295 185.541-.001-.001-20.002-20.003c-14.015-14.015-21.732-32.648-21.732-52.467v-28.288c0-4.135-3.363-7.499-7.499-7.499h-28.288c-19.82 0-38.454-7.718-52.468-21.731l-20.003-20.004c-1.814-1.815-3.884-2.196-5.301-2.196-1.418 0-3.487.381-5.302 2.196l-20.003 20.002c-9.435 9.435-20.967 16.001-33.541 19.294l-1.812 2.295v48.075l-49.106 65.628 39.147 50.955 9.787 45.843 2.032 19.213c12.554 3.298 24.068 9.858 33.491 19.28l20.003 20.004c1.815 1.815 3.885 2.196 5.302 2.196s3.487-.381 5.301-2.196l20.002-20.002c14.017-14.015 32.65-21.733 52.469-21.733h28.288c4.135 0 7.499-3.364 7.499-7.499v-28.288c0-19.819 7.718-38.452 21.732-52.467l20.002-20.003c1.816-1.816 2.197-3.886 2.197-5.302s-.379-3.487-2.194-5.302z" fill="#ff636e"/><g><path d="m200.013 305.078v-30.468c0-21.348-8.314-41.419-23.408-56.512l-21.545-21.545c-1.955-1.955-2.365-4.184-2.365-5.71s.41-3.755 2.367-5.712l21.541-21.542c15.096-15.094 23.41-35.164 23.41-56.513v-30.468c0-.956.176-1.869.482-2.721-7.114 2.228-14.6 3.396-22.268 3.396h-28.288c-4.134 0-7.499 3.364-7.499 7.499v28.288c0 19.821-7.719 38.455-21.735 52.469l-20 20.001c-1.816 1.816-2.197 3.886-2.197 5.303s.381 3.486 2.196 5.301l20.003 20.004c14.014 14.013 21.732 32.647 21.732 52.468v28.288c0 4.135 3.364 7.499 7.499 7.499h28.288c7.668 0 15.154 1.168 22.268 3.396-.305-.852-.481-1.765-.481-2.721z" fill="#ff4654"/></g><path d="m288.97 189.268c-4.135-2.458-8.479-4.421-12.954-5.894h-10.663l-30.042 30.999v22.483l7.946 21.514 9.134 6.344c4.564-.842 9.316-.078 13.538 2.299 12.235 6.887 33.585 12.161 51.371-18.385 15.124-25.974-6.659-46.481-28.33-59.36z" fill="#ffe02f"/><path d="m244.213 252.914c-17.564-30.165 6.654-54.137 31.802-69.541-6.466-2.128-13.21-3.223-20.016-3.223-11.516 0-22.86 3.109-32.97 9.117-21.671 12.88-43.454 33.386-28.331 59.359 17.791 30.555 39.149 25.268 51.382 18.378 2.009-1.131 4.139-1.892 6.311-2.292-2.772-3.31-5.509-7.214-8.178-11.798z" fill="#fbc700"/><path d="m187.458 161.961h-5.335l-7.383 15.278s1.294 14.079 2.622 14.766c1.327.687 7.079 7.383 7.079 7.383l4.615 1.671c5.256-4.729 8.241-12.866 7.237-21.699-.829-7.295-4.203-13.519-8.835-17.399z" fill="#ffe02f"/><path d="m180.221 183.66c-1.003-8.833 1.982-16.97 7.237-21.699-3.682-3.084-8.159-4.687-12.789-4.161-10.455 1.188-17.725 12.765-16.238 25.86s11.169 22.747 21.624 21.56c3.403-.386 6.465-1.879 9.001-4.161-4.633-3.879-8.007-10.103-8.835-17.399z" fill="#fbc700"/><path d="m248.756 141.477c-1.2-10.568-6.665-19.34-13.902-23.848h-3.969l-9.615 15.141s-.172 13.392 0 15.109 1.887 14.079 3.776 16.14 4.122 4.293 4.122 4.293l7.861 2.4c8.208-5.385 13.144-16.756 11.727-29.235z" fill="#ffe02f"/><path d="m223.127 146.862c-1.417-12.478 3.519-23.85 11.727-29.234-3.993-2.488-8.524-3.683-13.18-3.154-13.095 1.487-22.2 15.988-20.337 32.388s13.988 28.489 27.082 27.002c3.131-.356 6.03-1.462 8.61-3.154-7.237-4.508-12.702-13.279-13.902-23.848z" fill="#fbc700"/><path d="m298.936 117.629h-5.725s-8.928 14.282-9.272 15.827c-.343 1.545-.343 14.594 0 19.058s3.091 9.959 4.121 12.706 8.7 5.49 8.701 5.49c7.237-4.509 12.702-13.28 13.902-23.848 1.418-12.478-3.519-23.85-11.727-29.233z" fill="#ffe02f"/><path d="m346.332 161.961h-3.843s-5.494 5.998-5.838 8.749c-.343 2.751-2.995 8.761-2.013 14.598.983 5.838 1.841 10.645 2.356 11.847s7.74 3.903 7.74 3.903c4.632-3.879 8.006-10.103 8.835-17.399 1.004-8.831-1.981-16.968-7.237-21.698z" fill="#ffe02f"/><g fill="#fbc700"><path d="m285.034 141.477c1.2-10.568 6.665-19.34 13.902-23.848-2.58-1.692-5.479-2.798-8.61-3.154-13.095-1.487-25.22 10.602-27.082 27.002-1.863 16.4 7.243 30.901 20.337 32.388 4.656.529 9.187-.666 13.18-3.154-8.208-5.384-13.144-16.756-11.727-29.234z"/><path d="m337.498 179.36c.829-7.295 4.202-13.519 8.835-17.399-2.536-2.282-5.598-3.774-9.001-4.161-10.455-1.187-20.137 8.465-21.624 21.56s5.783 24.673 16.238 25.86c4.63.526 9.107-1.077 12.789-4.161-5.256-4.729-8.24-12.866-7.237-21.699z"/></g></g></svg>