<svg id="Capa_1" enable-background="new 0 0 512 512" height="512" viewBox="0 0 512 512" width="512" xmlns="http://www.w3.org/2000/svg"><g><path d="m346.856 241.075c-11.395-7.403-23.365-13.319-35.698-17.755h-.001-29.383l-82.786 93.378v67.725l21.898 64.806 25.172 19.111c12.578-2.537 25.673-.233 37.306 6.925 33.715 20.745 92.552 36.633 141.564-55.381 41.676-78.238-18.352-140.011-78.072-178.809z" fill="#dbedff"/><path d="m223.519 432.799c-48.401-90.867 18.337-163.079 87.639-209.479-17.82-6.412-36.404-9.708-55.157-9.708-31.735 0-62.997 9.364-90.857 27.463-59.72 38.798-119.747 100.57-78.072 178.809 49.028 92.04 107.884 76.116 141.594 55.361 5.536-3.408 11.406-5.698 17.392-6.905-7.643-9.974-15.185-21.734-22.539-35.541z" fill="#b5dcff"/><path d="m320.044 326.803h-35.713c-2.94 0-5.323-2.383-5.323-5.323v-35.713c0-2.939-2.383-5.322-5.322-5.322h-8.517c-2.204 1.249-3.893 2.242-3.893 2.242v42.41h-29.72c-.972 1.044-2.347 1.707-3.886 1.707h-9.852l-2.3 2.156v39.147l3.737 4.712h8.415c2.004 0 3.728 1.121 4.637 2.757h29.313v38.117l5.67 5.484h6.396c2.94 0 5.322-2.383 5.322-5.323v-35.713c0-2.94 2.383-5.323 5.323-5.323h35.713c2.94 0 5.322-2.383 5.322-5.323v-35.37c0-2.939-2.383-5.322-5.322-5.322z" fill="#8896e0"/><g fill="#6b7ed9"><path d="m219.257 367.496v-35.37c0-2.94 2.383-5.323 5.323-5.323h-32.623c-2.94 0-5.322 2.383-5.322 5.323v35.37c0 2.94 2.383 5.323 5.322 5.323h32.623c-2.94-.001-5.323-2.384-5.323-5.323z"/><path d="m265.615 321.48v-35.713c0-2.939 2.383-5.322 5.323-5.322h-32.623c-2.94 0-5.322 2.383-5.322 5.322v35.713c0 2.94-2.383 5.323-5.323 5.323h32.623c2.939 0 5.322-2.383 5.322-5.323z"/><path d="m265.615 413.854v-35.713c0-2.94-2.383-5.323-5.323-5.323h-32.622c2.94 0 5.323 2.383 5.323 5.323v35.713c0 2.94 2.383 5.323 5.322 5.323h32.623c-2.94 0-5.323-2.383-5.323-5.323z"/></g><g fill="#dbedff"><path d="m489.998 131.205h-15.129l-28.845 45.544s9.249 35.61 9.26 36.863c.011 1.254 30.6 17.795 30.601 17.796 13.375-8.76 23.412-25.221 25.654-44.962 2.656-23.389-6.378-44.75-21.541-55.241z"/><path d="m363.023 26.076h-14.353l-23.304 29.626s-10.692 39.147-10.692 43.268 6.318 27.899 7.537 32.235c1.219 4.337 16.443 20.304 16.443 20.304l18.944 6.505c19.507-9.764 34.621-32.12 37.734-59.532 3.627-31.94-10.151-60.862-32.309-72.406z"/><path d="m230.024 85.608c-3.113-27.412-18.227-49.768-37.734-59.532h-18.944s-19.382 32.716-19.897 36.322-2.575 24.725 0 42.238 8.757 38.31 13.908 42.334 12.362 7.115 12.362 7.115l17.996 3.93c22.158-11.545 35.936-40.466 32.309-72.407z"/><path d="m90.97 176.167c-2.242-19.742-12.279-36.202-25.654-44.962h-13.34s-16.494 29.233-17.261 36.101-.767 18.2 4.899 30.562 13.392 25.452 13.392 25.452l16.423 8.088c15.163-10.491 24.197-31.852 21.541-55.241z"/></g><path d="m159.982 98.482c-3.628-31.941 10.151-60.862 32.308-72.406-8.391-4.2-17.59-6.085-27.006-5.015-31.302 3.555-53.068 38.218-48.616 77.422s33.437 68.103 64.739 64.548c5.799-.659 11.269-2.39 16.307-5.015-19.506-9.766-34.619-32.122-37.732-59.534z" fill="#b5dcff"/><path d="m43.775 186.446c-2.656-23.39 6.378-44.75 21.541-55.241-7.832-5.13-16.807-7.624-26.037-6.576-24.993 2.839-42.372 30.515-38.817 61.817s26.698 54.376 51.691 51.538c6.318-.718 12.146-3.027 17.276-6.576-13.375-8.76-23.412-25.22-25.654-44.962z" fill="#b5dcff"/><path d="m325.29 85.608c3.113-27.412 18.227-49.768 37.734-59.532-5.039-2.625-10.508-4.357-16.308-5.015-31.302-3.555-60.287 25.344-64.739 64.548s17.314 73.867 48.616 77.422c9.415 1.069 18.614-.815 27.006-5.015-22.159-11.546-35.937-40.468-32.309-72.408z" fill="#b5dcff"/><path d="m464.344 176.167c2.242-19.742 12.279-36.202 25.654-44.962-5.13-3.549-10.958-5.858-17.276-6.576-24.993-2.839-48.136 20.236-51.691 51.538s13.824 58.979 38.817 61.817c9.23 1.048 18.205-1.446 26.037-6.576-15.163-10.491-24.198-31.852-21.541-55.241z" fill="#b5dcff"/></g></svg>