<svg id="Capa_1" enable-background="new 0 0 512 512" height="512" viewBox="0 0 512 512" width="512" xmlns="http://www.w3.org/2000/svg"><g><path d="m316.941 20.258c-11.479 0-66.595 0-99.09 0-9.531 2.65-19.589 5.274-19.589 5.274l-18.286 14.68 1.957 16.738c3.268-3.547 7.935-5.787 13.126-5.787h121.882c9.852 0 17.868 8.016 17.868 17.868v48.588l3.153 6.638h24.272l3.481-6.638v-48.587c0-26.894-21.879-48.774-48.774-48.774z" fill="#dbedff"/><g><path d="m183.17 55.731c5.806-20.447 24.633-35.472 46.915-35.472-16.981 0-30.813 0-35.026 0-26.894 0-48.774 21.88-48.774 48.774v48.588l3.324 4.062h23.413l4.168-4.062v-48.589c.001-5.285 2.321-10.027 5.98-13.301z" fill="#b5dcff"/></g><path d="m483.327 117.62h-427.998l-14.121 12.476v348.204l19.019 13.442h423.1c15.836 0 28.673-12.838 28.673-28.673v-316.775c0-15.836-12.838-28.674-28.673-28.674z" fill="#ff636e"/><path d="m45.328 463.068v-316.774c0-15.836 12.838-28.674 28.674-28.674h-45.328c-15.836 0-28.674 12.838-28.674 28.674v316.774c0 15.836 12.838 28.673 28.674 28.673h45.328c-15.836.001-28.674-12.837-28.674-28.673z" fill="#ff4654"/><path d="m457.817 183.8h-366.889l-8.047 5.532v253.427l8.368 7.776h366.568c7.166 0 12.975-5.809 12.975-12.975v-240.785c0-7.166-5.809-12.975-12.975-12.975z" fill="#60b9fe"/><path d="m86.536 437.559v-240.784c0-7.166 5.809-12.975 12.975-12.975h-45.328c-7.166 0-12.975 5.809-12.975 12.975v240.784c0 7.166 5.809 12.975 12.975 12.975h45.328c-7.166 0-12.975-5.809-12.975-12.975z" fill="#1ca8ff"/><path d="m137.271 95.719h-10.024l-6.377 5.275v36.057l6.29 6.057h10.111c4.978 0 9.014-4.036 9.014-9.014v-29.36c0-4.98-4.036-9.015-9.014-9.015z" fill="#ff9ba1"/><path d="m123.363 134.093v-29.36c0-4.978 4.036-9.014 9.014-9.014h-33.223c-4.978 0-9.014 4.036-9.014 9.014v29.36c0 4.978 4.036 9.014 9.014 9.014h33.224c-4.979 0-9.015-4.035-9.015-9.014z" fill="#ff7f87"/><path d="m412.846 95.719h-9.899l-6.889 4.674v37.258l6.681 5.456h10.106c4.978 0 9.014-4.036 9.014-9.014v-29.36c.001-4.979-4.034-9.014-9.013-9.014z" fill="#ff9ba1"/><path d="m398.939 134.093v-29.36c0-4.978 4.036-9.014 9.014-9.014h-33.224c-4.978 0-9.014 4.036-9.014 9.014v29.36c0 4.978 4.036 9.014 9.014 9.014h33.224c-4.978 0-9.014-4.035-9.014-9.014z" fill="#ff7f87"/><path d="m339.369 295.32h-53.654c-3.096 0-5.767-1.793-7.051-4.393h-38.55l-4.636 3.227h-5.087c-1.196.735-2.599 1.166-4.106 1.166h-12.701l-5.664 2.44v36.7l6.484 4.554h11.88c2.525 0 4.766 1.194 6.206 3.043h40.975l4.726 2.52c.985-3.221 3.98-5.564 7.523-5.564h53.654c4.345 0 7.868-3.522 7.868-7.868v-27.959c0-4.344-3.522-7.866-7.867-7.866z" fill="#dbedff"/><g fill="#b5dcff"><path d="m278.664 290.927c-.518-1.049-.817-2.226-.817-3.475v-53.654c0-4.345-3.522-7.868-7.868-7.868h-27.959c-4.345 0-7.868 3.522-7.868 7.868v53.654c0 4.345-3.522 7.868-7.868 7.868h45.328c3.098 0 5.768-1.793 7.052-4.393z"/><path d="m210.092 331.146v-27.959c0-4.345 3.522-7.868 7.868-7.868h-45.328c-4.345 0-7.868 3.522-7.868 7.868v27.959c0 4.345 3.522 7.868 7.868 7.868h45.328c-4.346 0-7.868-3.522-7.868-7.868z"/><path d="m271.613 339.014h-45.328c4.345 0 7.868 3.523 7.868 7.868v53.654c0 4.345 3.522 7.868 7.868 7.868h27.959c4.345 0 7.868-3.522 7.868-7.868v-53.654c0-1.249.299-2.426.817-3.475-1.285-2.6-3.955-4.393-7.052-4.393z"/></g></g></svg>