<svg id="Capa_1" enable-background="new 0 0 512.001 512.001" height="512" viewBox="0 0 512.001 512.001" width="512" xmlns="http://www.w3.org/2000/svg"><g><path d="m308.65 0h-73.959c-3.719 2.013-6.725 3.652-6.725 3.652l-7.646 10.989v123.108h106.459l6.31-2.922v-110.388c.001-13.497-10.941-24.439-24.439-24.439z" fill="#dbedff"/><path d="m224.12 24.439c0-13.497 10.942-24.439 24.44-24.439h-45.209c-13.498 0-24.439 10.942-24.439 24.439v110.387l7.505 2.922h45.209l-7.505-2.922v-110.387z" fill="#b5dcff"/><path d="m134.827 178.911h-79.817l-8.357 6.055-6.181 9.958v122.593l5.838 7.555 12.151 8.017h76.365l6.261-4.755v-144.742z" fill="#dbedff"/><path d="m45.209 308.65v-105.3c0-13.498 10.942-24.439 24.439-24.439h-45.209c-13.497 0-24.439 10.942-24.439 24.439v105.3c0 13.498 10.942 24.439 24.439 24.439h45.209c-13.497 0-24.439-10.941-24.439-24.439z" fill="#b5dcff"/><path d="m328.239 374.006h-107.919v124.31l9.707 8.585 11.247 5.1h67.376c13.498 0 24.439-10.942 24.439-24.439v-110.388z" fill="#dbedff"/><path d="m224.12 487.562v-110.388l10.767-3.168h-45.209l-10.767 3.168v110.388c0 13.497 10.942 24.439 24.439 24.439h45.209c-13.497 0-24.439-10.942-24.439-24.439z" fill="#b5dcff"/><path d="m487.561 178.911h-110.388l-4.551 8.287v139.591l4.551 6.301h110.387c13.498 0 24.439-10.942 24.439-24.439v-105.3c.002-13.498-10.94-24.44-24.438-24.44z" fill="#dbedff"/><path d="m297.175 30.906h-43.673l-4.435 2.966v91.258h46.291l6.826-5.142v-84.074c0-2.766-2.243-5.008-5.009-5.008z" fill="#8896e0"/><path d="m255.026 35.914c0-2.766 2.242-5.009 5.009-5.009h-45.209c-2.766 0-5.009 2.242-5.009 5.009v84.073l5.169 5.142h45.209l-5.169-5.142z" fill="#6b7ed9"/><path d="m119.987 209.817h-43.946c-1.594 1.71-2.946 3.104-2.946 3.104v83.553l2.807 5.71h44.085l7.965-5.71v-77.855z" fill="#8896e0"/><path d="m76.115 297.175v-82.35c0-2.766 2.242-5.009 5.009-5.009h-45.21c-2.766 0-5.009 2.242-5.009 5.009v82.35c0 2.766 2.242 5.009 5.009 5.009h45.209c-2.766 0-5.008-2.243-5.008-5.009z" fill="#6b7ed9"/><path d="m476.086 209.817h-84.073l-4.968 6.977v74.454s4.968 10.936 4.968 10.936h84.073c2.766 0 5.009-2.242 5.009-5.009v-82.35c0-2.766-2.243-5.008-5.009-5.008z" fill="#8896e0"/><path d="m294.929 387.742h-45.862v89.111l7.15 4.242h40.957c2.766 0 5.009-2.242 5.009-5.008v-84.073z" fill="#8896e0"/><path d="m255.026 476.087v-84.073l5.04-4.272h-45.209l-5.04 4.272v84.073c0 2.766 2.242 5.008 5.009 5.008h45.209c-2.767 0-5.009-2.242-5.009-5.008z" fill="#6b7ed9"/><path d="m292.567 117.102h-18.585s-64.458 37.13-64.165 38.16-40.585 59.464-43.371 65.093-2.457 42.047 0 68.317 15.994 55.115 26.224 66.447 39.839 23.694 43.578 25.24c3.739 1.545 56.32 14.54 56.32 14.54 61.596-16.173 107.035-72.227 107.035-138.899 0-66.671-45.439-122.725-107.036-138.898z" fill="#ff636e"/><path d="m185.532 256c0-66.672 45.439-122.725 107.035-138.898-11.676-3.066-23.93-4.705-36.567-4.705-79.31 0-143.603 64.293-143.603 143.603s64.293 143.603 143.603 143.603c12.638 0 24.892-1.639 36.567-4.705-61.597-16.172-107.035-72.226-107.035-138.898z" fill="#ff4654"/><path d="m287.48 261.18c-3.948-2.346-8.095-4.221-12.368-5.628h-10.182l-28.683 29.598v21.466l7.587 20.541 8.721 6.057c4.358-.804 8.895-.074 12.926 2.195 11.681 6.576 32.067 11.611 49.049-17.554 14.439-24.798-6.359-44.377-27.05-56.675z" fill="#ffdda8"/><path d="m244.746 321.949c-16.77-28.801 6.353-51.69 30.365-66.397-6.174-2.032-12.613-3.077-19.111-3.077-10.995 0-21.827 2.968-31.48 8.705-20.692 12.297-41.489 31.877-27.05 56.676 16.987 29.173 37.379 24.126 49.059 17.547 1.918-1.08 3.952-1.806 6.026-2.189-2.648-3.161-5.261-6.888-7.809-11.265z" fill="#ffd086"/><g fill="#ffdda8"><path d="m189.846 216.704h-5.749s-8.327 14.62-8.327 16.337-1.791 8.242 1.079 13.049 5.683 7.383 5.683 7.383l8.871 1.127c5.216-4.469 8.204-12.391 7.226-21.001-.811-7.146-4.181-13.215-8.783-16.895z"/><path d="m248.837 197.429c-1.164-10.254-6.532-18.742-13.609-22.982h-6.059s-13.564 16.872-13.221 19.104 3.422 14.186 4.373 19.369c.95 5.183 5.308 8.961 6.306 9.819.997.858 10.684 2.813 10.684 2.813 8.034-5.048 12.898-16.043 11.526-28.123z"/><path d="m296.913 174.447h-4.346s-12.885 9.145-12.645 11.206c.24 2.06-3.306 12.019-2.134 19.745s4.263 11.16 5.808 13.564 4.636 3.949 4.636 3.949l6.598 2.641c7.077-4.24 12.444-12.727 13.609-22.982 1.372-12.079-3.492-23.074-11.526-28.123z"/><path d="m342.295 216.704h-4.269s-8.585 11.873-8.928 15.135-.858 10.13 0 12.706c.859 2.575 5.151 7.93 5.151 7.93l6.489 2.125c4.601-3.68 7.972-9.748 8.784-16.895.977-8.61-2.012-16.531-7.227-21.001z"/></g><path d="m223.702 202.571c-1.372-12.08 3.492-23.075 11.526-28.124-3.73-2.234-7.934-3.29-12.249-2.8-12.503 1.42-21.196 15.265-19.418 30.923 1.778 15.659 13.355 27.201 25.858 25.781 2.857-.324 5.512-1.304 7.891-2.8-7.076-4.238-12.444-12.726-13.608-22.98z" fill="#ffd086"/><path d="m182.62 237.705c-.978-8.61 2.011-16.532 7.226-21.001-3.448-2.758-7.587-4.176-11.863-3.69-9.983 1.134-16.924 12.188-15.504 24.691s10.664 21.719 20.646 20.585c3.108-.353 5.92-1.669 8.278-3.69-4.601-3.679-7.971-9.748-8.783-16.895z" fill="#ffd086"/><path d="m283.304 197.429c1.165-10.254 6.532-18.742 13.609-22.982-2.38-1.495-5.035-2.475-7.892-2.8-12.503-1.42-24.08 10.123-25.858 25.781-1.778 15.659 6.915 29.504 19.418 30.923 4.315.49 8.519-.565 12.249-2.8-8.034-5.047-12.898-16.042-11.526-28.122z" fill="#ffd086"/><path d="m333.511 233.6c.812-7.147 4.182-13.216 8.784-16.895-2.358-2.021-5.17-3.337-8.278-3.69-9.983-1.134-19.226 8.083-20.646 20.585-1.42 12.503 5.521 23.557 15.504 24.691 4.276.486 8.415-.932 11.863-3.69-5.216-4.47-8.205-12.391-7.227-21.001z" fill="#ffd086"/></g></svg>