<svg id="Capa_1" enable-background="new 0 0 512 512" height="512" viewBox="0 0 512 512" width="512" xmlns="http://www.w3.org/2000/svg"><g><path d="m327.959 71.974h-29.687l-6.905-5.503h-59.762l-23.049 14.68-12.867 14.68s.091 9.937.111 18.801h169.01l2.964-3.557c-.393-21.66-18.062-39.101-39.815-39.101z" fill="#dbedff"/><path d="m237.028 71.974h29.687l6.169-5.503h-52.987l-6.169 5.503h-29.687c-21.754 0-39.423 17.441-39.816 39.101l3.41 3.557h52.987l-3.41-3.557c.393-21.66 18.062-39.101 39.816-39.101z" fill="#b5dcff"/><path d="m367.106 111.059h-181.75l-10.787 4.604-10.044 17.513v34.597h220.718l12.511-5.172v-20.897c-.001-16.925-13.722-30.645-30.648-30.645z" fill="#ff636e"/><path d="m167.234 141.705c0-16.925 13.721-30.646 30.646-30.646h-52.987c-16.925 0-30.646 13.721-30.646 30.646v20.897l7.61 5.172h52.987l-7.61-5.172z" fill="#ff4654"/><path d="m387.303 451.762h-222.779v30.119l3.863 15.896 9.1 9.615 9.768 4.608h179.851c16.926 0 30.647-13.721 30.647-30.646v-20.897z" fill="#ff636e"/><path d="m167.234 481.354v-20.897l12.418-8.695h-52.987l-12.418 8.695v20.897c0 16.925 13.721 30.646 30.646 30.646h52.987c-16.926 0-30.646-13.721-30.646-30.646z" fill="#ff4654"/><path d="m164.524 162.602h233.229v297.855h-233.229z" fill="#ffe02f"/><path d="m114.247 162.602h52.987v297.855h-52.987z" fill="#fbc700"/><path d="m266.216 250.764h-10.216l-9.833 19.826 10.431 22.137h11.332l3.267-2.393c5.196-4.347 8.502-10.877 8.502-18.182 0-9.43-5.509-17.573-13.483-21.388z" fill="#7b6c79"/><path d="m252.733 272.152c0-9.43 5.508-17.573 13.483-21.388-3.094-1.48-6.558-2.311-10.216-2.311-13.089 0-23.699 10.61-23.699 23.699 0 7.304 3.306 13.834 8.502 18.182l6.008 2.393h20.432l-6.008-2.393c-5.196-4.348-8.502-10.878-8.502-18.182z" fill="#665e68"/><path d="m268.791 289.474-5.858 1.536-4.661 1.073-13.006 10.302-7.598 7.984v13.521 14.551s6.696 16.869 6.825 18.157 17.642 12.51 17.642 12.51h6.656c16.837-5.405 29.026-21.185 29.026-39.817s-12.189-34.412-29.026-39.817z" fill="#938493"/><path d="m239.765 329.291c0-18.633 12.189-34.412 29.026-39.817-4.032-1.295-8.329-2.001-12.792-2.001-23.095 0-41.817 18.723-41.817 41.818s18.722 41.818 41.817 41.818c4.463 0 8.759-.706 12.792-2.001-16.837-5.405-29.026-21.184-29.026-39.817z" fill="#7b6c79"/><path d="m335.522 232.006c-43.848-43.847-115.196-43.848-159.046 0-43.849 43.849-43.849 115.197 0 159.047 21.925 21.924 50.724 32.887 79.523 32.887s57.599-10.963 79.523-32.887c21.242-21.242 32.94-49.483 32.94-79.524 0-30.04-11.698-58.282-32.94-79.523zm-10.926 10.928c18.323 18.322 28.414 42.683 28.414 68.595 0 23.32-8.177 45.381-23.167 62.917l-136.738-136.739c18.064-15.411 40.468-23.142 62.895-23.142 24.839 0 49.686 9.459 68.596 28.369zm-137.192 137.191c-35.983-35.983-37.707-93.418-5.226-131.491l136.717 136.717c-38.073 32.481-95.508 30.759-131.491-5.226z" fill="#ff636e"/><path d="m298.271 0h-40.054l-8.445 4.918v57.175l9.211 9.881h39.288c7.625 0 13.806-6.181 13.806-13.806v-44.362c0-7.625-6.181-13.806-13.806-13.806z" fill="#8896e0"/><path d="m252.909 58.168v-44.362c0-7.625 6.181-13.806 13.806-13.806h-52.987c-7.625 0-13.806 6.181-13.806 13.806v44.363c0 7.625 6.181 13.806 13.806 13.806h52.987c-7.625-.001-13.806-6.182-13.806-13.807z" fill="#6b7ed9"/></g></svg>