<svg id="Capa_1" enable-background="new 0 0 512 512" height="512" viewBox="0 0 512 512" width="512" xmlns="http://www.w3.org/2000/svg"><g><path d="m445.634 77.831c12.158-2.894 35.676-8.701 35.676-8.701l23.18 11.16h6.387c1.165-1.659 1.537-3.884.574-6.03-7.343-16.359-24.645-41.723-59.328-32.86l-6.611 2.017-4.378 16.697 4.121 17.225z" fill="#ffe02f"/><path d="m179.892 352.262-19.456-8.226-98.674 59.884-14.316 11.356.63 11.109c3.096 2.074 5.519 5.134 6.739 8.844 3.591 10.922 13.527 24.216 40.937 19.19 34.281-6.285 72.522-67.125 88.208-94.598z" fill="#ff636e"/><g><path d="m58.811 412.474c41.072-20.051 81.472-45.282 109.014-63.56l3.301-.359-21.689-9.171h-29.982l-11.047.375c-24.822 13.934-61.131 33.017-97.686 47.608-14.432 5.761-14.254 26.365.294 31.823 6.927 2.599 15.869 4.316 27.399 4.267 3.525-.015 6.867 1.055 9.662 2.927 1.088-5.662 4.612-10.922 10.734-13.91z" fill="#ff4654"/></g><path d="m451.198 68.957-5.951 3.516-.085 4.487.091.38 9.014 11.621 10.628 2.979s19.675-12.986 39.814-9.146c2.577.491 4.867-.653 6.166-2.504-12.287-12.85-32.783-25.601-59.677-11.333z" fill="#fbc700"/><g><path d="m371.212 477.698c-3.227 0-6.237-2.037-7.322-5.265l-24.849-73.867c-1.361-4.044.815-8.426 4.86-9.786 4.041-1.361 8.426.815 9.786 4.86l24.849 73.867c1.361 4.044-.815 8.426-4.86 9.786-.816.275-1.647.405-2.464.405z" fill="#665e68"/></g><g><path d="m367.695 479.81c-2.218 0-4.435-.153-6.626-.461-4.226-.594-7.17-4.501-6.577-8.727.594-4.226 4.496-7.168 8.726-6.577 4.771.671 9.718.258 14.31-1.195l20.984-6.634c7.045-2.227 14.667-1.856 21.462 1.042l15.884 6.777c3.925 1.675 5.749 6.214 4.074 10.139s-6.216 5.749-10.139 4.074l-15.884-6.777c-3.4-1.451-7.214-1.637-10.74-.522l-20.984 6.634c-4.665 1.478-9.582 2.227-14.49 2.227z" fill="#665e68"/></g><g><path d="m320.478 486.337c-3.227 0-6.237-2.037-7.322-5.265l-27.204-80.867c-1.361-4.044.815-8.426 4.86-9.786 4.04-1.362 8.426.815 9.786 4.86l27.204 80.867c1.361 4.044-.815 8.426-4.859 9.786-.817.275-1.648.405-2.465.405z" fill="#7b6c79"/></g><g><path d="m272.734 496.147c-2.014 0-4.026-.782-5.54-2.341-2.974-3.059-2.905-7.951.154-10.926l4.631-4.503c7.26-7.057 17.525-10.118 27.467-8.184l11.354 2.209c5.307 1.031 10.838.716 15.994-.914l20.984-6.634c7.043-2.227 14.667-1.858 21.462 1.042l15.885 6.777c3.925 1.675 5.749 6.214 4.075 10.139-1.675 3.925-6.217 5.748-10.139 4.074l-15.884-6.777c-3.4-1.451-7.214-1.636-10.739-.522l-20.984 6.634c-7.609 2.405-15.771 2.871-23.603 1.348l-11.354-2.209c-4.975-.968-10.112.563-13.745 4.095l-4.631 4.503c-1.503 1.462-3.446 2.189-5.387 2.189z" fill="#7b6c79"/></g><path d="m361.061 380.289-7.144-39.275-4.901-1.629-33.653 14.251-6.525 9.1 1.136 4.093c1.796 1.728 3.344 3.742 4.547 6.017l11.042 20.887c3.313 6.267 9.82 10.188 16.909 10.188 12.387-.002 21.506-11.595 18.589-23.632z" fill="#1ca8ff"/><path d="m444.915 181.31-.002.001-7.515-10.449-18.415-6.181s-22.407 12.491-23.308 13.135-39.791-19.831-39.791-19.831l-30.257 4.066 2.581 3.06 7.015 49.096-26.385 39.306-15.513 12.551c-13.141 20.212-31.241 48.272-32.22 50.976-1.545 4.268-55.388 40.546-55.388 40.546v7.583c11.254 2.125 23.612 3.494 36.933 3.577 8.861.055 16.996 4.906 21.137 12.74l11.042 20.887c3.313 6.267 9.82 10.188 16.909 10.188 12.386 0 21.506-11.593 18.589-23.631l-1.668-6.882c-2.868-11.838 3.582-24.03 15.058-28.115 67.389-23.991 116.556-71.021 124.158-131.958 1.697-13.607.498-27.401-2.96-40.665z" fill="#60b9fe"/><path d="m256.002 296.263-72.041 33.557-31.674 1.571-4.75 13.32c12.243 6.638 32.272 15.564 58.181 20.457 64.184-33.981 106.221-100.419 106.221-100.419l-8.619-6.771z" fill="#1ca8ff"/><path d="m464.895 91.94c-27.214-17.217-12.774-50.539-12.774-50.539s-9.18-19.155-36.174-24.286h-17.31l-29.876 22.457-16.896 34.194-13.23 55.631v32.721l5.535.414c10.782 2.918 23.908 8.327 34.337 18.365 7.955 7.656 20.842 6.897 27.612-1.823.679-.875 1.35-1.804 2.009-2.793 4.225-6.338 12.284-8.847 19.323-5.936 5.287 2.187 11.463 5.613 17.46 10.968-.076-.293-.146-.587-.224-.88-6.27-23.534-15.359-74.985 20.208-88.493z" fill="#8bcaff"/><path d="m415.947 17.115c-4.172-.793-8.755-1.262-13.81-1.262-57.945 0-80.53 47.578-96.821 103.116-.747 2.548-1.793 5.325-3.097 8.295l3.997 9.344 28.806 25.24 9.148.684c-6.867-98.969 44.506-134.224 71.777-145.417z" fill="#60b9fe"/><path d="m333.908 147.399-27.692-10.791-66.349 33.936-59.017 97.929-4.187 7.986 23.146 8.813 43.955-2.719 41.783-5.495 21.844-8.088c9.97-9.091 18.796-18.198 26.467-26.833 25.269-28.444 22.701-69.291.05-94.738z" fill="#ffe02f"/><path d="m333.908 147.399c-8.587-9.648-20.055-17.086-33.996-20.79-20.618-5.477-40.901-1.76-57.096 8.954-39.851 26.363-74.843 74.426-100.733 117.949l2.782 10.84 33.779 12.861c12.282-22.27 27.717-47.353 46.404-72.527 36.495-49.162 81.47-57.732 108.86-57.287z" fill="#fbc700"/><path d="m178.704 272.565-31.167 59.436-3.232 13.056c73.858-7.717 129.701-44.468 167.634-80.31-60.691 20.602-104.127 17.273-133.235 7.818z" fill="#ff7f87"/><path d="m180.85 273.242c-17.912-5.496-30.627-13.359-38.766-19.731-15.533 26.112-27.789 50.59-35.854 67.768-5.602 11.933 3.372 25.512 16.55 25.183 7.962-.198 15.732-.737 23.311-1.58 5.596-13.758 17.097-40.108 34.759-71.64z" fill="#ff636e"/><g><g><path d="m393.968 96.012c-4.268 0-7.726-3.459-7.726-7.726v-21.892c0-4.267 3.459-7.726 7.726-7.726s7.726 3.459 7.726 7.726v21.892c0 4.267-3.459 7.726-7.726 7.726z" fill="#544e55"/></g></g></g></svg>