<svg id="Capa_1" enable-background="new 0 0 512 512" height="512" viewBox="0 0 512 512" width="512" xmlns="http://www.w3.org/2000/svg"><g><path d="m11.263 397.5c-2.988 3.7-5.465 7.829-7.33 12.279v8.513l23.834 23.437 33.481 2.833 15.968-6.439s12.105-8.732 12.877-10.289c.773-1.558 18.543-27.57 18.543-27.57h292.059l25.411 35.971s26.442 5.666 34.683 8.327c8.242 2.661 35.449 0 35.449 0l7.88-12.105 3.982-22.602c-1.867-4.477-4.356-8.629-7.36-12.35-6.001-7.434-6.004-17.934-.003-25.367 8.024-9.938 12.38-22.958 11.013-37.008-2.515-25.835-24.577-45.717-50.534-45.748-28.425-.034-50.225 22.867-50.926 49.451-.236 8.929-7.351 16.128-16.283 16.128h-276.014c-8.93 0-16.049-7.195-16.283-16.122-.694-26.544-22.426-49.387-50.733-49.457-26.395-.066-48.253 19.609-50.742 45.886-1.325 13.995 3.029 26.961 11.024 36.865 6.001 7.435 6.006 17.935.004 25.367z" fill="#dbedff"/><g><path d="m461.019 440.988c-28.307-.072-50.035-22.915-50.729-49.457-.234-8.927-7.353-16.122-16.283-16.122h-276.016c-8.933 0-16.047 7.199-16.283 16.129-.702 26.576-22.485 49.474-50.906 49.451-20.823-.017-39.133-12.814-46.87-31.21-3.145 7.504-4.544 15.92-3.683 24.744 2.522 25.837 24.593 45.714 50.553 45.735 28.42.023 50.203-22.875 50.906-49.451.236-8.93 7.35-16.129 16.283-16.129h276.016c8.93 0 16.049 7.195 16.283 16.122.694 26.541 22.422 49.384 50.729 49.457 26.395.068 48.255-19.606 50.745-45.884.828-8.739-.559-17.077-3.664-24.519-7.688 18.55-25.922 31.188-47.081 31.134z" fill="#b5dcff"/></g><path d="m304.309 169.324c-6.059-3.601-12.424-6.478-18.981-8.637h-15.623l-44.019 45.421v32.943l11.644 31.523 13.384 9.296c6.688-1.234 13.651-.114 19.836 3.368 17.927 10.091 49.211 17.819 75.272-26.938 22.159-38.057-9.759-68.104-41.513-86.976z" fill="#ffdda8"/><path d="m238.729 262.582c-25.736-44.199 9.75-79.325 46.599-101.895-9.475-3.119-19.356-4.722-29.328-4.722-16.874 0-33.496 4.555-48.31 13.359-31.754 18.872-63.671 48.919-41.512 86.977 26.069 44.77 57.363 37.025 75.287 26.929 2.944-1.658 6.065-2.772 9.247-3.359-4.062-4.853-8.072-10.573-11.983-17.289z" fill="#ffd086"/><g fill="#ffdda8"><path d="m154.844 126.998c-1.293-11.383-6.812-20.991-14.287-26.56l-13.452 3.732s-6.212 20.021-6.073 25.978c.139 5.958 3.765 19.35 6.073 21.067s15.875 8.643 15.875 8.643c8.479-6.725 13.412-19.228 11.864-32.86z"/><path d="m240.078 71.489c-1.832-16.129-10.443-29.402-21.706-35.734 0 0-17.19 1.109-17.19 3.856s-13.049 30.562-10.645 38.117 5.495 16.483 8.585 21.634c3.091 5.151 8.242 8.242 9.272 9.958 1.03 1.717 13.236 5.794 13.236 5.794 12.782-7.523 20.596-24.708 18.448-43.625z"/><path d="m322.956 35.755-16.293 2.826s-20.656 26.024-17.225 33.616 6.38 21.671 7.824 27.165 4.535 7.555 6.595 10.645 15.84 5.107 15.841 5.107c11.263-6.333 19.874-19.605 21.706-35.734 2.149-18.917-5.666-36.102-18.448-43.625z"/><path d="m400.771 100.437s-8.317.298-9.004 2.702-15.244 19.677-12.945 27.009c2.299 7.331 3.322 17.633 6.073 21.41s13.451 8.3 13.452 8.3c7.475-5.569 12.994-15.177 14.287-26.56 1.549-13.632-3.384-26.136-11.863-32.861z"/></g><path d="m199.924 79.38c-2.149-18.917 5.666-36.103 18.448-43.625-5.517-3.102-11.668-4.547-17.977-3.831-19.187 2.179-32.528 23.426-29.799 47.456s20.496 41.744 39.682 39.565c4.083-.464 7.897-1.798 11.351-3.831-11.263-6.332-19.874-19.605-21.705-35.734z" fill="#ffd086"/><path d="m128.694 133.298c-1.548-13.632 3.385-26.136 11.863-32.861-5.124-3.818-11.167-5.738-17.398-5.03-15.32 1.74-25.972 18.704-23.793 37.891s16.365 33.331 31.684 31.591c4.435-.504 8.475-2.29 11.93-5.03-7.474-5.57-12.994-15.177-14.286-26.561z" fill="#ffd086"/><path d="m301.25 71.489c1.832-16.129 10.442-29.402 21.706-35.734-3.455-2.033-7.269-3.367-11.351-3.831-19.187-2.179-36.953 15.535-39.682 39.565s10.613 45.277 29.799 47.456c6.309.716 12.459-.729 17.977-3.831-12.782-7.523-20.597-24.708-18.449-43.625z" fill="#ffd086"/><path d="m386.485 126.998c1.293-11.383 6.812-20.991 14.287-26.56-3.455-2.74-7.495-4.527-11.93-5.03-15.32-1.74-29.506 12.404-31.685 31.591s8.473 36.151 23.793 37.891c6.231.708 12.274-1.213 17.398-5.03-8.479-6.727-13.412-19.23-11.863-32.862z" fill="#ffd086"/></g></svg>