<svg id="Capa_1" enable-background="new 0 0 512 512" height="512" viewBox="0 0 512 512" width="512" xmlns="http://www.w3.org/2000/svg"><g><path d="m286.852 468.963-31.925-27.669-39.923 16.439h-16.998l-17.833-14.735c-5.957-.607-11.455-3.008-15.651-7.204-9.358-9.358-78.959-78.959-88.316-88.316-8.993-8.993-9.853-23.946-2.108-36.656l14.915-24.476-2.525-14.305-35.864-36.565-33.105 106.618.377 16.997c11.357 22.246 29.285 49.649 57.324 77.688 53.301 53.3 104.328 70.1 121.933 74.582 4.005 1.019 8.404.812 12.707-.57l78.413-25.184z" fill="#60b9fe"/><path d="m485.455 0h-233.595c-8.076 4.09-14.278 7.283-14.278 7.283l-6.868 15.796v213.679l23.952 16.998h36.314v19.574l8.667 5.483 20.963-23.269c2.517-2.794 6.101-4.389 9.861-4.389h154.985c14.66 0 26.545-11.885 26.545-26.545 0-6.261 0-193.071 0-198.065-.001-14.66-11.886-26.545-26.546-26.545z" fill="#dbedff"/><g fill="#1ca8ff"><path d="m191.863 456.321c8.993 8.993 23.946 9.853 36.656 2.108l24.476-14.915h4.494l-23.684-20.527h-8.151l-24.476 14.915c-7.412 4.517-15.58 6.085-22.891 4.843 6.575 6.575 11.524 11.524 13.576 13.576z"/><path d="m18.124 358.297 35.61-114.044h5.499l-20.133-20.527h-12.707l-25.184 78.414c-1.382 4.303-1.589 8.702-.57 12.707 2.124 8.344 7.025 24.202 17.257 44.245.076-.265.143-.531.228-.795z"/></g><path d="m300.933 264.427c0-7.33-5.942-13.272-13.272-13.272h-24.038c-14.66 0-26.545-11.885-26.545-26.545v-198.065c0-14.66 11.884-26.545 26.545-26.545h-42.594c-14.66 0-26.545 11.885-26.545 26.545v198.065c0 14.66 11.884 26.545 26.545 26.545h24.038c7.33 0 13.272 5.942 13.272 13.272v25.675c0 12.161 14.994 17.918 23.133 8.884l19.461-21.601z" fill="#b5dcff"/><path d="m128.761 264.545-2.782-10.704-55.013-56.959-32.21 32.578-1.099 5.529 51.356 51.356c4.956 4.956 12.991 4.956 17.947 0z" fill="#1ca8ff"/><g><path d="m37.656 234.99 35.666-35.666-19.801-20.502h-10.484l-21.801 21.801c-4.956 4.956-4.956 12.991 0 17.947z" fill="#0094fd"/></g><path d="m331.157 461.596-56.65-57.837-31.087 30.709-1.013 5.272 51.024 51.024c4.956 4.956 12.991 4.956 17.947 0l21.801-21.801z" fill="#1ca8ff"/><g><path d="m242.406 439.74 34.021-34.02-22.019-22.48h-6.953l-21.801 21.801c-4.956 4.956-4.956 12.991 0 17.947z" fill="#0094fd"/></g><path d="m143.632 231.727-51.356-51.357-6.819 1.854-19.398 19.62 62.701 62.701 14.872-14.872c4.956-4.955 4.956-12.991 0-17.946z" fill="#60b9fe"/><path d="m92.276 180.37-16.42-16.42c-4.956-4.956-12.991-4.956-17.947 0l-14.872 14.872 25.394 25.394z" fill="#1ca8ff"/><path d="m348.05 436.144-51.024-51.024-5.359 1.688-20.446 20.197 61.957 61.958 14.872-14.872c4.956-4.956 4.956-12.991 0-17.947z" fill="#60b9fe"/><path d="m297.026 385.12-16.753-16.753c-4.956-4.956-12.991-4.956-17.946 0l-14.872 14.872 25.726 25.726z" fill="#1ca8ff"/><path d="m386.733 121.116c-4.135-2.457-8.479-4.42-12.954-5.892h-10.663l-30.042 30.987v22.474l7.946 21.505 9.134 6.342c4.564-.842 9.316-.077 13.538 2.298 12.235 6.884 33.585 12.156 51.371-18.378 15.124-25.963-6.659-46.461-28.33-59.336z" fill="#ff636e"/><path d="m341.976 184.738c-17.564-30.153 6.654-54.116 31.802-69.514-6.466-2.128-13.21-3.221-20.016-3.221-11.516 0-22.86 3.107-32.97 9.113-21.671 12.875-43.454 33.373-28.331 59.336 17.791 30.543 39.149 25.259 51.382 18.371 2.009-1.131 4.139-1.891 6.311-2.291-2.773-3.31-5.509-7.212-8.178-11.794z" fill="#ff4654"/><g fill="#ff636e"><path d="m294.055 111.194c-.882-7.769-4.649-14.326-9.751-18.127l-9.181 1.953s-4.233 12.019-4.145 13.564 7.961 25.037 7.961 25.037h7.019c5.787-4.589 9.154-13.123 8.097-22.427z"/><path d="m346.519 73.311c-1.25-11.008-7.127-20.066-14.814-24.388l-8.896.597s-12.77 8.757-13.629 9.443c-.858.687-3.262 16.483-3.091 17.04.172.557 20.089 25.713 20.089 25.713l7.75 1.367c8.724-5.133 14.057-16.861 12.591-29.772z"/><path d="m395.836 48.923-5.443.94-7.211 7.555s-6.524 13.049-6.599 14.594c-.074 1.545-1.128 12.706 0 15.625s11.75 13.392 12.265 13.736c.515.343 4.764 1.711 4.765 1.711 7.687-4.322 13.563-13.38 14.814-24.388 1.465-12.91-3.868-24.638-12.591-29.773z"/><path d="m443.236 93.068-8.883.579-1.951 3.606s-4.921 9.615-5.264 12.019 6.009 20.432 6.353 21.462c.343 1.03 8.092 2.887 8.092 2.887 5.101-3.801 8.868-10.358 9.75-18.127 1.056-9.303-2.311-17.837-8.097-22.426z"/></g><path d="m319.115 78.697c-1.466-12.911 3.867-24.639 12.59-29.773-3.766-2.117-7.963-3.103-12.269-2.614-13.095 1.487-22.2 15.988-20.337 32.388 1.862 16.4 13.988 28.489 27.082 27.002 2.786-.316 5.389-1.227 7.747-2.614-7.686-4.324-13.563-13.382-14.813-24.389z" fill="#ff4654"/><path d="m276.209 115.495c-1.057-9.304 2.31-17.837 8.096-22.427-3.497-2.606-7.621-3.916-11.874-3.433-10.455 1.188-17.725 12.765-16.238 25.86s11.169 22.747 21.624 21.56c3.027-.344 5.784-1.563 8.142-3.433-5.101-3.802-8.868-10.359-9.75-18.127z" fill="#ff4654"/><path d="m381.022 73.311c1.25-11.008 7.127-20.066 14.814-24.388-2.358-1.388-4.961-2.298-7.747-2.614-13.095-1.487-25.22 10.602-27.082 27.002s7.243 30.901 20.337 32.388c4.305.489 8.503-.497 12.269-2.614-8.724-5.135-14.057-16.863-12.591-29.774z" fill="#ff4654"/><path d="m433.486 111.194c.882-7.769 4.649-14.326 9.75-18.127-2.358-1.87-5.115-3.089-8.142-3.433-10.456-1.187-20.137 8.465-21.624 21.56s5.783 24.672 16.238 25.86c4.252.483 8.377-.828 11.874-3.433-5.786-4.59-9.153-13.123-8.096-22.427z" fill="#ff4654"/></g></svg>