<svg id="Capa_1" enable-background="new 0 0 511.999 511.999" height="512" viewBox="0 0 511.999 511.999" width="512" xmlns="http://www.w3.org/2000/svg"><g><path d="m498.607 289.781v-8.274c0-9.191-4.932-17.675-12.919-22.223l-33.095-18.846-3.31 1.999-3.777 6.898h-13.128l-25.483-22.898-1.412-6.522-2.063-2.934v-35.003l3.285-3.285-4-12.953c-3.31-10.718-13.218-18.028-24.435-18.028h-27.202l-6.986 5.442s-1.532 130.796-1.466 215.307h142.894s13.096-3.373 13.096-5.807v-34.672l-3.267-3.046v-31.292z" fill="#ffe02f"/><path d="m351.067 147.713h-38.922l-4.168 4.755v215.994h43.09z" fill="#fbc700"/><path d="m298.383 73.444c-6.876 0-170.829 0-240.009 0l-8.456 6.569v256.336h246.727l15.5-8.365v-240.778c0-7.601-6.161-13.762-13.762-13.762z" fill="#ff636e"/><path d="m53.538 87.206c0-7.601 6.161-13.762 13.762-13.762-21.322 0-36.083 0-38.822 0-7.601 0-13.762 6.161-13.762 13.762v240.777l5.843 8.366h38.821l-5.843-8.366v-240.777z" fill="#ff4654"/><path d="m100.823 327.983h-.013-50.892v38.418h257.029l5.198-3.821v-34.597z" fill="#ffe02f"/><path d="m53.538 327.983h-38.823v34.597l4.469 3.821h38.823l-4.469-3.821z" fill="#fbc700"/><path d="m417.064 212.237-10.359-33.544h-17.755l-7.366 4.945v58.626l6.78 5.965h13.99l3.022-5.836v-16.998l4.331-5.795h6.954l2.427-2.62c-.824-1.5-1.512-3.084-2.024-4.743z" fill="#8896e0"/><path d="m382.903 238.186v-49.448c0-5.547 4.497-10.044 10.044-10.044h-38.822c-5.547 0-10.044 4.497-10.044 10.044v49.448c0 5.547 4.497 10.044 10.044 10.044h38.822c-5.547 0-10.044-4.497-10.044-10.044z" fill="#6b7ed9"/><path d="m498.607 289.781h-25.068c-6.799 0-12.362 5.563-12.362 12.362v13.478c0 6.799 5.563 12.362 12.362 12.362h25.068z" fill="#ff636e"/><g><path d="m377.337 289.266h-18.543c-4.267 0-7.726-3.459-7.726-7.726s3.459-7.726 7.726-7.726h18.543c4.267 0 7.726 3.459 7.726 7.726s-3.459 7.726-7.726 7.726z" fill="#eab900"/></g><path d="m503.94 362.655h-495.881c-4.451 0-8.059 3.608-8.059 8.059v16.773c0 4.451 3.608 8.059 8.059 8.059h495.881c4.451 0 8.059-3.608 8.059-8.059v-16.773c0-4.451-3.608-8.059-8.059-8.059z" fill="#dbedff"/><path d="m114.667 329.733c-21.435 8.338-36.636 29.153-36.636 53.536s15.201 45.199 36.636 53.536c23.831-6.147 41.436-27.785 41.436-53.536s-17.606-47.389-41.436-53.536z" fill="#7b6c79"/><path d="m79.526 383.269c0-24.602 16.074-45.44 38.288-52.612-5.357-1.729-11.066-2.674-16.998-2.674-30.534 0-55.286 24.752-55.286 55.286s24.753 55.286 55.286 55.286c5.932 0 11.641-.945 16.998-2.674-22.214-7.173-38.288-28.011-38.288-52.612z" fill="#665e68"/><path d="m113.007 362.168h-10.035s-9.443 18.827-9.443 19.342 2.232 18.372 2.232 18.372l7.04 4.636 10.207-.148c7.28-4.222 12.19-12.096 12.19-21.101-.001-9.004-4.911-16.878-12.191-21.101z" fill="#dbedff"/><path d="m100.816 383.269c0-9.004 4.911-16.878 12.191-21.101-3.589-2.082-7.751-3.28-12.19-3.28-13.444 0-24.381 10.937-24.381 24.381s10.938 24.381 24.381 24.381c4.439 0 8.601-1.198 12.19-3.28-7.28-4.223-12.191-12.097-12.191-21.101z" fill="#b5dcff"/><path d="m392.903 329.733c-21.435 8.338-36.636 29.153-36.636 53.536s15.201 45.199 36.636 53.536c23.831-6.147 41.436-27.785 41.436-53.536s-17.605-47.389-41.436-53.536z" fill="#7b6c79"/><path d="m357.763 383.269c0-24.602 16.074-45.44 38.288-52.612-5.357-1.729-11.066-2.674-16.998-2.674-30.534 0-55.286 24.752-55.286 55.286s24.753 55.286 55.286 55.286c5.932 0 11.641-.945 16.998-2.674-22.215-7.173-38.288-28.011-38.288-52.612z" fill="#665e68"/><path d="m391.244 362.168h-10.035s-9.443 18.827-9.443 19.342 2.232 18.372 2.232 18.372l7.04 4.636 10.207-.148c7.28-4.222 12.19-12.096 12.19-21.101-.001-9.004-4.912-16.878-12.191-21.101z" fill="#dbedff"/><path d="m379.053 383.269c0-9.004 4.911-16.878 12.191-21.101-3.589-2.082-7.751-3.28-12.19-3.28-13.444 0-24.381 10.937-24.381 24.381s10.938 24.381 24.381 24.381c4.439 0 8.601-1.198 12.19-3.28-7.28-4.223-12.191-12.097-12.191-21.101z" fill="#b5dcff"/><g><path d="m194.556 201.411c-3.379-2.009-6.907-3.666-10.534-4.98h-6.823l-34.782 29.717v20.661l10.54 19.008 9.384 6.536c3.575-.208 7.189.609 10.464 2.452 11.55 6.502 31.707 11.481 48.497-17.356 14.277-24.519-6.287-43.878-26.746-56.038z" fill="#ffe02f"/><path d="m154.681 261.304c-16.349-28.078 5.945-50.433 29.341-64.872-6.617-2.396-13.569-3.627-20.591-3.627-10.872 0-21.582 2.935-31.126 8.607-20.459 12.159-41.023 31.519-26.746 56.039 16.796 28.846 36.959 23.855 48.507 17.35 2.607-1.468 5.428-2.281 8.275-2.446-2.598-3.102-5.16-6.758-7.66-11.051z" fill="#fbc700"/><path d="m107.063 192.058c-.757-6.666-3.774-12.367-7.931-16.049h-3.888l-6.053 15.154 3.436 14.463 4.27 5.096 3.713 1.444c4.718-4.511 7.375-11.99 6.453-20.108z" fill="#ffe02f"/><path d="m92.679 196.118c-.922-8.118 1.735-15.597 6.453-20.108-3.553-3.146-7.935-4.822-12.483-4.305-9.87 1.121-16.734 12.051-15.33 24.413s10.544 21.475 20.414 20.354c3.389-.385 6.41-1.947 8.877-4.305-4.157-3.682-7.174-9.384-7.931-16.049z" fill="#fbc700"/><path d="m156.592 156.294c-1.111-9.781-6.091-17.933-12.723-22.261h-2.757l-8.172 12.135-1.745 17.723s3.581 10.56 3.765 10.835 3.948 5.969 3.948 5.969l7 2.944c7.518-5.182 11.999-15.761 10.684-27.345z" fill="#ffe02f"/><path d="m133.185 161.378c-1.316-11.584 3.166-22.163 10.684-27.345-3.866-2.522-8.292-3.748-12.844-3.231-12.362 1.404-20.958 15.093-19.2 30.576s13.206 26.896 25.567 25.492c3.113-.354 5.986-1.487 8.516-3.231-6.632-4.327-11.612-12.479-12.723-22.261z" fill="#fbc700"/><path d="m204.352 134.034h-3.737l-10.284 13.788v22.222l5.693 12.488 6.29 1.107c6.632-4.327 11.612-12.479 12.723-22.26 1.315-11.585-3.167-22.164-10.685-27.345z" fill="#ffe02f"/><path d="m191.629 156.294c1.111-9.781 6.09-17.933 12.723-22.261-2.53-1.744-5.403-2.878-8.516-3.231-12.362-1.404-23.809 10.009-25.567 25.492s6.837 29.172 19.2 30.576c4.552.517 8.979-.709 12.845-3.231-7.519-5.182-12.001-15.761-10.685-27.345z" fill="#fbc700"/><path d="m249.089 176.01h-2.882l-8.537 13.914 1.512 15.427 3.994 5.372 4.435 1.444c4.157-3.681 7.174-9.383 7.931-16.049.922-8.118-1.735-15.597-6.453-20.108z" fill="#ffe02f"/><path d="m241.158 192.058c.757-6.666 3.774-12.367 7.931-16.049-2.467-2.359-5.488-3.92-8.877-4.305-9.87-1.121-19.01 7.992-20.415 20.354-1.404 12.362 5.46 23.292 15.33 24.413 4.549.517 8.931-1.159 12.483-4.305-4.717-4.51-7.374-11.99-6.452-20.108z" fill="#fbc700"/></g><path d="m440.231 216.982h-2.276c-3.809 2.023-7.773 4.165-7.773 4.165v28.974l8.594 5.064h1.456c6.799 0 12.362-5.563 12.362-12.362v-13.478c-.002-6.8-5.564-12.363-12.363-12.363z" fill="#dbedff"/><path d="m431.045 242.822v-13.478c0-6.26 4.719-11.46 10.774-12.247-.521-.068-1.049-.115-1.588-.115h-26.785c-6.799 0-12.362 5.563-12.362 12.362v13.478c0 6.799 5.563 12.362 12.362 12.362h26.785c.539 0 1.067-.047 1.588-.115-6.055-.787-10.774-5.987-10.774-12.247z" fill="#b5dcff"/></g></svg>