<svg id="Capa_1" enable-background="new 0 0 512 512" height="512" viewBox="0 0 512 512" width="512" xmlns="http://www.w3.org/2000/svg"><g><path d="m99.239 64.926 9.227 47.388 7.211 18.886 11.24 13.339 21.898-37.72 4.112-3.676-13.556-25.855-20.603-29.189-19.529-16.142z" fill="#ff9ba1"/><path d="m441.735 59.604h-12.711l-50.738 77.856 11.076 19.495 8.42 2.651c32.136-27.913 42.154-67.074 43.953-100.002z" fill="#ff9ba1"/><path d="m101.345 33.698-20.351-16.821h-8.921c-.095.479-.178.964-.241 1.457-4.294 33.884-5.221 99.922 42.385 141.271l7.983-6.943 6.329-10.902c-25.86-34.305-29.053-77.712-27.184-108.062z" fill="#ff7f87"/><path d="m99.803 1.279c-12.17-4.435-25.267 3.116-27.729 15.598 21.984 15.916 61.134 48.226 75.718 85.481l1.023 4.461 33.794-30.219v-4.754c-17.647-23.094-48.752-58.158-82.806-70.567z" fill="#ffc365"/><path d="m440.167 18.334c-.063-.493-.146-.978-.241-1.457h-5.236l-34.339 26.415-28.502 32.622-14.354 29.919 6.112 5.794 16.376 28.822c13.146-30.618 37.731-58.661 61.751-80.845.866-15.851-.172-30.259-1.567-41.27z" fill="#ff7f87"/><path d="m412.197 2.319c-34.054 12.408-65.159 47.473-82.806 70.567l.642 7.956 27.135 24.355 7.04-1.8c14.584-37.256 53.733-69.566 75.718-85.481-2.462-12.481-15.559-20.031-27.729-15.597z" fill="#ffd086"/><path d="m465.06 489.447c-18.216-56.937-51.506-104.618-93.862-135.688l-5.53-1.757-17.856 7.359-49.792 18.739h-76.251l-41.569-14.843-40.827 38.193-27.987 53.913-12.534 37.43 5.494 13.392s3.863 2.691 8.156 5.813h43.581l16.942-7.874h169.075l13.818 7.876h92.675c11.709 0 20.035-11.401 16.467-22.553z" fill="#ffd086"/><g><path d="m105.604 489.447c16.131-50.421 44.09-93.573 79.692-124.369l-36.62-13.075-7.874 1.757c-42.357 31.07-75.647 78.751-93.862 135.688-3.568 11.151 4.758 22.552 16.467 22.552h58.664c-11.709 0-20.035-11.401-16.467-22.553z" fill="#ffc365"/></g><path d="m284.288 444.635h-17.174l-46.929 31.518-10.074 24.195 2.547 11.652h143.26c-15.142-33.045-40.907-57.803-71.63-67.365z" fill="#ffeac8"/><path d="m284.288 444.635c-9.049-2.816-18.523-4.328-28.288-4.328-42.92 0-80.317 28.914-99.918 71.693h56.576c15.142-33.045 40.907-57.803 71.63-67.365z" fill="#ffdda8"/><path d="m352.533 359.362-18.543 10.841-43.758 11.332-61.063.515-16.511-4.437 17.026 24.182 26.316 19.23 26.785 6.033c34.533-10.097 63.617-38.327 80.54-68.239z" fill="#ff636e"/><g><path d="m215.25 378.309-41.024-11.025-22.707-9.143-2.843.679c21.149 37.382 61.284 72.17 107.324 72.17 9.201 0 18.16-1.409 26.785-3.931-26.867-7.856-50.427-26.685-67.535-48.75z" fill="#ff4654"/></g><path d="m457.416 253.223c-13.209-4.447-33.961-15.732-42.541-43.729-8.805-28.731-25.641-90.332-71.033-127.368l-6.505 1.943-26.012-15.195-6.519-8.776c-9.457-3.342-19.736-5.734-30.902-6.979l-5.847 5.196h-13.936l-26.499 12.62-39.948 35.885-27.143 52.786s-39.223 80.794-39.12 86.46-2.163 41.722 0 45.843 46.746 46.873 46.746 46.873 13.958 28.898 17.138 26.296c3.181-2.602 16.333 9.57 16.333 9.57l26.181 12.716c16.651 2.41 28.19 2.411 28.19 2.411s65.673 0 109.789-32.731c3.402-2.524 7.24-4.401 11.331-5.504 18.533-4.994 73.173-24.341 89.09-81.793 1.929-6.96-1.947-14.219-8.793-16.524z" fill="#ffdda8"/><path d="m189.381 353.148c-1.125-1.4-2.154-2.861-3.086-4.375-6.899-11.207-15.083-21.604-25.124-30.111-24.104-20.42-29.889-49.908-29.889-49.908-2.012-6.9-1.189-14.633 3.033-21.282 10.503-16.537 23.326-42.725 35.584-83.49 20.242-67.314 66.193-95.384 89.648-105.666h-13.123l-8.329-5.196c-11.166 1.245-21.445 3.638-30.902 6.979l-5.324 6.716-24.467 17.255-9.244-1.943c-45.392 37.035-62.228 98.636-71.033 127.368-8.581 28.001-29.338 39.286-42.547 43.731-6.844 2.303-10.715 9.565-8.787 16.524 15.918 57.455 70.561 76.801 89.093 81.794 4.022 1.084 7.821 2.891 11.162 5.379 26.627 19.829 61.16 27.688 84.361 30.805-19.546-11.224-32.688-24.21-41.026-34.58z" fill="#ffd086"/><path d="m275.917 79.005c0-9.286-.725-18.068-2.012-25.886-5.734-.639-11.689-.993-17.905-.993s-12.171.354-17.905.993c-1.288 7.817-2.012 16.6-2.012 25.886 0 32.62 8.917 59.064 19.917 59.064 11-.001 19.917-26.444 19.917-59.064z" fill="#ffb640"/><path d="m343.842 82.127c-11.177-9.119-24.088-16.746-39.036-22.028.543 32.055 9.48 57.551 20.424 57.551 8.272-.001 15.391-14.572 18.612-35.523z" fill="#ffb640"/><path d="m168.158 82.127c3.221 20.951 10.34 35.522 18.612 35.522 10.944 0 19.88-25.495 20.424-57.551-14.949 5.283-27.859 12.909-39.036 22.029z" fill="#ffb640"/><path d="m320.821 294.104c-4.092-1.15-8.349 1.238-9.526 5.321-.227.789-5.788 19.324-24.828 19.324-17.036 0-21.935-17.936-22.74-21.5v-22.51c0-4.267-3.459-7.726-7.726-7.726s-7.726 3.459-7.726 7.726v22.514c-.816 3.601-5.729 21.496-22.74 21.496-18.999 0-24.577-18.454-24.827-19.318-1.148-4.091-5.387-6.492-9.488-5.362-4.114 1.132-6.532 5.385-5.4 9.499 2.914 10.596 14.966 30.634 39.716 30.634 14.686 0 24.447-7.727 30.466-16.557 6.02 8.829 15.781 16.557 30.467 16.557 24.75 0 36.801-20.039 39.716-30.634 1.124-4.097-1.275-8.312-5.364-9.464z" fill="#ffb640"/><g fill="#ffc365"><path d="m475.907 299.983c-52.596-46.093-124.416-33.806-127.447-33.261-4.2.756-6.992 4.773-6.236 8.972.756 4.2 4.779 6.996 8.972 6.236.669-.121 67.467-11.566 114.527 29.674 3.21 2.813 8.091 2.49 10.903-.719 2.812-3.208 2.49-8.089-.719-10.902z"/><path d="m354.55 295.02c-4.193-.797-8.236 1.956-9.033 6.148-.796 4.192 1.956 8.236 6.148 9.033.456.087 45.886 9.088 69.948 45.678 2.346 3.567 7.137 4.554 10.701 2.211 3.565-2.345 4.555-7.136 2.211-10.701-27.619-42-77.851-51.966-79.975-52.369z"/><path d="m163.54 266.723c-3.031-.546-74.851-12.831-127.447 33.261-3.209 2.812-3.531 7.694-.719 10.903 2.813 3.21 7.695 3.53 10.903.719 46.846-41.054 113.707-29.818 114.532-29.673 4.195.745 8.21-2.04 8.966-6.237.757-4.201-2.035-8.218-6.235-8.973z"/><path d="m157.45 295.02c-2.125.403-52.356 10.369-79.975 52.369-2.345 3.565-1.355 8.356 2.211 10.701 3.567 2.346 8.357 1.352 10.701-2.211 23.951-36.423 69.503-45.592 69.96-45.68 4.186-.802 6.933-4.842 6.137-9.031-.797-4.192-4.84-6.943-9.034-6.148z"/></g><path d="m261.705 236.951-7.297 3.964-5.924 6.954 5.666 19.144 9.014 10.473 7.199 3.676c11.728-6.8 19.868-20.639 19.868-30.364.001-11.975-12.337-13.632-28.526-13.847z" fill="#ff9ba1"/><path d="m253.759 250.798c0-9.268 7.392-12.354 18.236-13.377-4.775-.45-10.216-.502-15.995-.502-18.906 0-34.232.53-34.232 13.878 0 13.349 15.326 34.462 34.232 34.462 5.779 0 11.221-1.979 15.995-5.1-10.844-7.088-18.236-20.093-18.236-29.361z" fill="#ff7f87"/><g><g><g><path d="m183.882 214.966c-4.267 0-7.726-3.459-7.726-7.726v-26.441c0-4.267 3.459-7.726 7.726-7.726s7.726 3.459 7.726 7.726v26.441c.001 4.267-3.458 7.726-7.726 7.726z" fill="#544e55"/></g><g><path d="m328.117 214.966c-4.267 0-7.726-3.459-7.726-7.726v-26.441c0-4.267 3.459-7.726 7.726-7.726s7.726 3.459 7.726 7.726v26.441c0 4.267-3.459 7.726-7.726 7.726z" fill="#544e55"/></g></g></g></g></svg>