<svg id="Capa_1" enable-background="new 0 0 512 512" height="512" viewBox="0 0 512 512" width="512" xmlns="http://www.w3.org/2000/svg"><g><path d="m466.123 108.249h-406.67v392.501h435.573v-360.042z" fill="#dbedff"/><path d="m480.242 3.75h-410.338c-3.98 2.289-7.182 4.165-7.182 4.165l-3.269 9.333v24h434.378l1.195-4.184v-18.53c0-8.165-6.619-14.784-14.784-14.784z" fill="#60b9fe"/><path d="m66.251 108.249h-16.131l-33.146 32.289v360.212h49.277z" fill="#b5dcff"/><path d="m443.355 202.938h-175.688l-8.212 8.312v222.118l8.567 7.411h175.333c6.6 0 12-5.4 12-12v-213.84c0-6.601-5.4-12.001-12-12.001z" fill="#6b7ed9"/><path d="m265.825 428.778v-213.84c0-6.6 5.4-12 12-12h-48.31c-6.6 0-12 5.4-12 12v213.84c0 6.6 5.4 12 12 12h48.31c-6.6.001-12-5.399-12-12z" fill="#4d66d2"/><path d="m31.62 73.499v53.084l12 17.184h5.372c8.211-4.785 13.73-13.684 13.73-23.872v-46.396z" fill="#ff636e"/><path d="m35.111 119.32v-41.955l5.702-3.866h-27.61l-5.703 3.866v41.955c0 15.045 11.795 27.762 26.835 28.175 5.352.147 10.371-1.23 14.657-3.728-8.334-4.912-13.881-14.132-13.881-24.447z" fill="#ff4654"/><path d="m474.956 128.499 7.75 12.25 8.064 3.017c8.211-4.785 13.73-13.684 13.73-23.872v-42.529l-2.669-3.866h-26.875z" fill="#ff636e"/><path d="m476.889 119.32v-45.821h-27.611v45.821c0 15.045 11.796 27.762 26.835 28.175 5.352.147 10.371-1.23 14.657-3.728-8.334-4.912-13.881-14.132-13.881-24.447z" fill="#ff4654"/><path d="m62.722 18.534c0-8.165 6.619-14.784 14.784-14.784h-45.748c-8.165 0-14.784 6.619-14.784 14.784v18.53l4.646 4.184h45.748l-4.646-4.184z" fill="#1ca8ff"/><path d="m39.949 36.75-8.329 7.832v32.783h31.102v-40.615z" fill="#ffe02f"/><path d="m47.299 36.75h-27.611c-6.731 0-12.188 5.457-12.188 12.188v28.427h27.611v-28.427c0-6.731 5.457-12.188 12.188-12.188z" fill="#fbc700"/><path d="m474.956 39.998v37.366h29.544v-28.426c0-6.731-5.457-12.188-12.188-12.188h-15.423z" fill="#ffe02f"/><path d="m449.278 36.75h27.611v40.615h-27.611z" fill="#fbc700"/><path d="m173.954 260h-74.501v240.75h80.365v-236.05z" fill="#6b7ed9"/><path d="m111.263 260h-48.31l-6.308 4.7v236.05h48.31v-236.05z" fill="#4d66d2"/><g><path d="m143.903 383.201c-4.142 0-7.5-3.358-7.5-7.5v-14.63c0-4.142 3.358-7.5 7.5-7.5s7.5 3.358 7.5 7.5v14.63c0 4.142-3.358 7.5-7.5 7.5z" fill="#dbedff"/></g><path d="m167.818 202.938h-58.914l-9.451 16.656v16.656h74.251l6.114-2.431v-18.881c0-6.6-5.4-12-12-12z" fill="#ffe02f"/><path d="m104.955 214.938c0-6.6 5.4-12 12-12h-48.31c-6.6 0-12 5.4-12 12v18.881l3.308 2.431h48.31l-3.308-2.431z" fill="#fbc700"/><g><path d="m504.5 508.25h-497c-4.142 0-7.5-3.358-7.5-7.5s3.358-7.5 7.5-7.5h497c4.142 0 7.5 3.358 7.5 7.5s-3.358 7.5-7.5 7.5z" fill="#73d578"/></g><path d="m99.453 233.819h80.364v30.881h-80.364z" fill="#fbc700"/><path d="m56.645 233.819h48.31v30.881h-48.31z" fill="#eab900"/><path d="m364.787 319.284c-3.556-2.113-7.291-3.802-11.139-5.069h-9.169l-25.833 26.657v19.333l6.833 18.5 7.855 5.456c3.925-.724 8.011-.067 11.641 1.977 10.521 5.922 28.881 10.458 44.175-15.809 13.004-22.335-5.728-39.97-24.363-51.045z" fill="#60b9fe"/><path d="m326.299 374.015c-15.104-25.94 5.722-46.554 27.348-59.8-5.561-1.83-11.36-2.771-17.212-2.771-9.903 0-19.658 2.673-28.352 7.84-18.636 11.076-37.367 28.71-24.362 51.045 15.299 26.275 33.665 21.729 44.184 15.804 1.728-.973 3.559-1.627 5.427-1.971-2.384-2.848-4.738-6.205-7.033-10.147z" fill="#1ca8ff"/><g><path d="m364.629 73.499v56.417l5.447 8.333 3.745 5.517 6.998.036c8.426-4.774 14.1-13.69 14.1-23.908v-46.395z" fill="#ff636e"/><path d="m366.719 119.894v-46.395h-28.199v46.395c0 15.249 12.625 27.611 28.199 27.611 5.138 0 9.951-1.352 14.099-3.703-8.425-4.775-14.099-13.69-14.099-23.908z" fill="#ff4654"/><path d="m366.719 36.75-2.09 2.332v38.283h30.289v-40.615z" fill="#ffe02f"/><path d="m338.52 36.75h28.199v40.615h-28.199z" fill="#fbc700"/></g><g><path d="m253.91 73.499v56.417l5.447 8.333 3.745 5.517 6.998.036c8.426-4.774 14.1-13.69 14.1-23.908v-46.395z" fill="#ff636e"/><path d="m256 119.894v-46.395h-28.199v46.395c0 15.249 12.625 27.611 28.199 27.611 5.138 0 9.951-1.352 14.099-3.703-8.426-4.775-14.099-13.69-14.099-23.908z" fill="#ff4654"/><path d="m256 36.75-2.09 2.332v38.283h30.289v-40.615z" fill="#ffe02f"/><path d="m227.801 36.75h28.199v40.615h-28.199z" fill="#fbc700"/></g><g><path d="m143.191 73.499v56.417l5.447 8.333 3.745 5.517 6.998.036c8.426-4.774 14.1-13.69 14.1-23.908v-46.395z" fill="#ff636e"/><path d="m145.281 119.894v-46.395h-28.199v46.395c0 15.249 12.625 27.611 28.199 27.611 5.138 0 9.951-1.352 14.099-3.703-8.426-4.775-14.099-13.69-14.099-23.908z" fill="#ff4654"/><path d="m145.281 36.75-2.09 2.332v38.283h30.289v-40.615z" fill="#ffe02f"/><path d="m117.082 36.75h28.199v40.615h-28.199z" fill="#fbc700"/></g><g><path d="m87.831 73.499v56.417l5.447 8.333 3.745 5.517 6.998.036c8.426-4.774 14.1-13.69 14.1-23.908v-46.395z" fill="#ffe02f"/><path d="m89.921 119.894v-46.395h-28.199v46.395c0 15.249 12.625 27.611 28.199 27.611 5.138 0 9.951-1.352 14.099-3.703-8.426-4.775-14.099-13.69-14.099-23.908z" fill="#fbc700"/><path d="m89.921 36.75-2.09 2.332v38.283h30.289v-40.615z" fill="#ff636e"/><path d="m61.722 36.75h28.199v40.615h-28.199z" fill="#ff4654"/></g><g><path d="m419.989 73.499v56.417l5.447 8.333 3.745 5.517 6.998.036c8.426-4.774 14.1-13.69 14.1-23.908v-46.395z" fill="#ffe02f"/><path d="m422.079 119.894v-46.395h-28.199v46.395c0 15.249 12.625 27.611 28.199 27.611 5.138 0 9.951-1.352 14.099-3.703-8.426-4.775-14.099-13.69-14.099-23.908z" fill="#fbc700"/><path d="m422.079 36.75-2.09 2.332v38.283h30.289v-40.615z" fill="#ff636e"/><path d="m393.88 36.75h28.199v40.615h-28.199z" fill="#ff4654"/></g><g><path d="m309.269 73.499v56.417l5.447 8.333 3.745 5.517 6.998.036c8.426-4.774 14.1-13.69 14.1-23.908v-46.395z" fill="#ffe02f"/><path d="m311.36 119.894v-46.395h-28.199v46.395c0 15.249 12.625 27.611 28.199 27.611 5.138 0 9.951-1.352 14.099-3.703-8.426-4.775-14.099-13.69-14.099-23.908z" fill="#fbc700"/><path d="m311.36 36.75-2.091 2.332v38.283h30.29v-40.615z" fill="#ff636e"/><path d="m283.161 36.75h28.199v40.615h-28.199z" fill="#ff4654"/></g><g><path d="m198.55 73.499v56.417l5.447 8.333 3.745 5.517 6.998.036c8.426-4.774 14.1-13.69 14.1-23.908v-46.395z" fill="#ffe02f"/><path d="m200.64 119.894v-46.395h-28.199v46.395c0 15.249 12.625 27.611 28.199 27.611 5.138 0 9.951-1.352 14.099-3.703-8.425-4.775-14.099-13.69-14.099-23.908z" fill="#fbc700"/><path d="m200.641 36.75-2.091 2.332v38.283h30.289v-40.615z" fill="#ff636e"/><path d="m172.442 36.75h28.199v40.615h-28.199z" fill="#ff4654"/></g><g fill="#60b9fe"><path d="m282.434 310.764c-.758-6.678-4.004-12.295-8.388-15.564h-3.758l-7.696 13.216s1.529 10.167 1.863 11c.333.833 5.461 7.667 5.461 7.667l5.559 2.942c4.968-3.949 7.867-11.267 6.959-19.261z"/><path d="m329.32 278.188c-1.075-9.466-6.128-17.255-12.739-20.972h-4.793l-7.333 11.367s-1.082 14.167-1.041 15.334 1.874 10.833 1.874 11.333 4.833 5.167 4.833 5.167l8.372 3.373c7.502-4.415 12.088-14.5 10.827-25.602z"/><path d="m373.501 257.216-6.712 1.201s-8.734 11.5-8.367 12.5-1.234 10.667-1.017 13.5 3.384 8.5 3.884 11 3.667 7.667 3.667 7.667l6.633.707c6.61-3.716 11.664-11.506 12.739-20.972 1.26-11.102-3.326-21.188-10.827-25.603z"/><path d="m416.036 295.201h-4.247l-7 10.944s-.333 9.939 0 11.772 1.354 5.333 1.927 7 7.891 5.108 7.891 5.108c4.384-3.269 7.629-8.886 8.388-15.563.908-7.994-1.99-15.312-6.959-19.261z"/></g><path d="m305.755 282.819c-1.261-11.102 3.325-21.188 10.827-25.603-3.238-1.821-6.848-2.669-10.55-2.248-11.26 1.279-19.09 13.748-17.489 27.851 1.602 14.103 12.028 24.499 23.289 23.22 2.396-.272 4.634-1.055 6.662-2.248-6.611-3.717-11.664-11.507-12.739-20.972z" fill="#1ca8ff"/><path d="m267.087 314.462c-.908-7.994 1.99-15.312 6.959-19.261-3.008-2.244-6.548-3.392-10.207-2.976-8.991 1.021-15.243 10.977-13.964 22.238 1.279 11.26 9.604 19.561 18.595 18.54 2.608-.296 4.975-1.363 7.005-2.976-4.384-3.271-7.63-8.887-8.388-15.565z" fill="#1ca8ff"/><path d="m360.762 278.188c1.075-9.466 6.129-17.255 12.739-20.972-2.028-1.193-4.266-1.976-6.662-2.248-11.26-1.279-21.687 9.117-23.289 23.22s6.228 26.572 17.489 27.851c3.702.42 7.312-.428 10.55-2.248-7.502-4.416-12.088-14.501-10.827-25.603z" fill="#1ca8ff"/><path d="m407.648 310.764c.758-6.678 4.004-12.295 8.388-15.564-2.03-1.614-4.397-2.68-7.005-2.976-8.991-1.021-17.316 7.28-18.595 18.54s4.973 21.216 13.964 22.237c3.659.416 7.199-.733 10.207-2.976-4.968-3.949-7.866-11.267-6.959-19.261z" fill="#1ca8ff"/></g></svg>