<svg id="Capa_1" enable-background="new 0 0 512 512" height="512" viewBox="0 0 512 512" width="512" xmlns="http://www.w3.org/2000/svg"><g><path d="m110.729 167.305v286.565h320.871l12.763-6.429v-280.136z" fill="#dbedff"/><path d="m116.588 167.305h-48.952v280.136l9.064 6.429h48.952l-9.064-6.429z" fill="#b5dcff"/><path d="m453.544 121.387h-144.994c-.043.075-.077.149-.121.224l-6.89 4.905h-92.717l-8.341-4.905c-.044-.075-.078-.149-.121-.224h-104.881c-1.966 1.764-3.367 3.006-3.367 3.006v38.931l7.85 9.229h353.582c4.917 0 8.904-3.986 8.904-8.903v-33.36c-.001-4.917-3.987-8.903-8.904-8.903z" fill="#60b9fe"/><g><path d="m98.504 163.649v-33.359c0-4.918 3.986-8.903 8.903-8.903h-48.951c-4.917 0-8.903 3.986-8.903 8.903v33.359c0 4.917 3.986 8.903 8.903 8.903h48.952c-4.917.001-8.904-3.986-8.904-8.903z" fill="#1ca8ff"/></g><g fill="#8896e0"><path d="m156.186 239.329v-15.922c0-5.41-4.385-9.796-9.795-9.796h-25.867c-5.41 0-9.795 4.386-9.795 9.796v15.922c0 5.41 4.385 9.796 9.795 9.796h25.867c5.41 0 9.795-4.386 9.795-9.796z"/><path d="m156.186 309.211v-15.922c0-5.41-4.385-9.796-9.795-9.796h-25.867c-5.41 0-9.795 4.386-9.795 9.796v15.922c0 5.41 4.385 9.796 9.795 9.796h25.867c5.41-.001 9.795-4.386 9.795-9.796z"/><path d="m237.881 239.329v-15.922c0-5.41-4.385-9.796-9.795-9.796h-25.867c-5.41 0-9.795 4.386-9.795 9.796v15.922c0 5.41 4.385 9.796 9.795 9.796h25.867c5.41 0 9.795-4.386 9.795-9.796z"/><path d="m237.881 309.211v-15.922c0-5.41-4.385-9.796-9.795-9.796h-25.867c-5.41 0-9.795 4.386-9.795 9.796v15.922c0 5.41 4.385 9.796 9.795 9.796h25.867c5.41-.001 9.795-4.386 9.795-9.796z"/><path d="m319.576 239.329v-15.922c0-5.41-4.385-9.796-9.795-9.796h-25.867c-5.41 0-9.795 4.386-9.795 9.796v15.922c0 5.41 4.385 9.796 9.795 9.796h25.867c5.41 0 9.795-4.386 9.795-9.796z"/><path d="m319.576 309.211v-15.922c0-5.41-4.385-9.796-9.795-9.796h-25.867c-5.41 0-9.795 4.386-9.795 9.796v15.922c0 5.41 4.385 9.796 9.795 9.796h25.867c5.41-.001 9.795-4.386 9.795-9.796z"/><path d="m401.271 239.329v-15.922c0-5.41-4.385-9.796-9.795-9.796h-25.867c-5.41 0-9.795 4.386-9.795 9.796v15.922c0 5.41 4.385 9.796 9.795 9.796h25.867c5.41 0 9.795-4.386 9.795-9.796z"/><path d="m401.271 309.211v-15.922c0-5.41-4.385-9.796-9.795-9.796h-25.867c-5.41 0-9.795 4.386-9.795 9.796v15.922c0 5.41 4.385 9.796 9.795 9.796h25.867c5.41-.001 9.795-4.386 9.795-9.796z"/></g><path d="m339.656 447.441h104.708v35.446h-104.708z" fill="#ffe02f"/><path d="m110.729 447.441h62.637v35.446h-62.637z" fill="#ffe02f"/><path d="m67.636 447.441h48.951v35.446h-48.951z" fill="#fbc700"/><path d="m309.945 385.362h32.247v97.525h-32.247z" fill="#1ca8ff"/><path d="m198.434 385.362h114.694v97.525h-114.694z" fill="#6b7ed9"/><path d="m248.274 385.362h15.453v97.525h-15.453z" fill="#8896e0"/><path d="m169.807 385.362h32.247v97.525h-32.247z" fill="#1ca8ff"/><path d="m452.96 479.721h-354.818l-1.498 3.166v24.553l6.353 4.56h349.963c4.917 0 8.903-3.986 8.903-8.904v-14.472c.001-4.917-3.985-8.903-8.903-8.903z" fill="#73d578"/><path d="m98.504 503.096v-14.472c0-4.917 3.986-8.904 8.903-8.904h-48.951c-4.917 0-8.903 3.986-8.903 8.904v14.472c0 4.917 3.986 8.904 8.903 8.904h48.952c-4.917 0-8.904-3.986-8.904-8.904z" fill="#4bce5b"/><path d="m285.645 67.85c-3.745-2.226-7.679-4.004-11.732-5.338h-9.657l-27.208 28.075v20.362l7.197 19.485 8.273 5.746c4.134-.763 8.438-.07 12.261 2.082 11.081 6.237 30.418 11.014 46.526-16.651 13.695-23.523-6.033-42.096-25.66-53.761z" fill="#ff636e"/><path d="m245.11 125.494c-15.907-27.32 6.026-49.031 28.803-62.982-5.856-1.928-11.964-2.919-18.128-2.919-10.43 0-20.704 2.815-29.86 8.257-19.627 11.665-39.355 30.237-25.659 53.761 16.113 27.673 35.456 22.885 46.535 16.645 1.819-1.025 3.749-1.713 5.716-2.076-2.512-2.999-4.99-6.535-7.407-10.686z" fill="#ff4654"/><path d="m339.622 42.486-6.059.982s-5.11 6.954-5.367 7.726c-.258.773-2.189 13.392-2.142 13.779.047.386 7.293 14.19 7.293 14.19h4.771c4.617-3.443 8.035-9.359 8.834-16.392.955-8.418-2.098-16.126-7.33-20.285z" fill="#ff636e"/><path d="m294.823 2.48h-7.277s-6.392 13.731-8.604 17.165c-2.213 3.434-3.415 16.913-1.698 19.617s7.508 9.4 7.508 9.4l8.057 2.87c6.962-3.914 12.284-12.118 13.417-22.087 1.327-11.693-3.503-22.315-11.403-26.965z" fill="#ff636e"/><path d="m248.291 24.567c-1.132-9.97-6.455-18.173-13.417-22.087h-8.057s-8.467 18.195-8.638 23.174c-.172 4.979.504 9.017 2.827 13.608 2.323 4.592 3.525 6.309 4.727 7.339s11.154 4.93 11.154 4.93c7.902-4.649 12.732-15.271 11.404-26.964z" fill="#ff636e"/><path d="m198.91 58.878c-.799-7.033-4.217-12.949-8.834-16.392h-5.549s-7.19 13.903-6.514 15.104c.676 1.202.161 8.242 2.393 11.847 2.232 3.606 2.081 5.323 3.616 6.696 1.535 1.374 7.559 3.03 7.559 3.03 5.233-4.159 8.285-11.866 7.329-20.285z" fill="#ff636e"/><path d="m223.472 29.445c-1.328-11.693 3.502-22.315 11.403-26.965-3.41-1.917-7.212-2.811-11.111-2.368-11.859 1.347-20.106 14.48-18.419 29.333s12.668 25.802 24.528 24.455c2.523-.286 4.881-1.111 7.016-2.368-6.963-3.914-12.285-12.118-13.417-22.087z" fill="#ff4654"/><path d="m182.747 62.772c-.956-8.419 2.097-16.127 7.329-20.286-3.169-2.363-6.896-3.572-10.75-3.135-9.469 1.075-16.054 11.561-14.707 23.421 1.347 11.859 10.115 20.602 19.584 19.526 2.747-.312 5.239-1.435 7.377-3.135-4.616-3.442-8.035-9.358-8.833-16.391z" fill="#ff4654"/><path d="m281.406 24.567c1.132-9.97 6.455-18.173 13.417-22.087-2.135-1.257-4.493-2.081-7.016-2.368-11.859-1.347-22.841 9.602-24.528 24.455s6.56 27.986 18.419 29.333c3.899.443 7.701-.45 11.111-2.368-7.901-4.65-12.731-15.272-11.403-26.965z" fill="#ff4654"/><path d="m330.787 58.878c.799-7.033 4.217-12.949 8.834-16.392-2.138-1.7-4.631-2.823-7.378-3.135-9.469-1.075-18.237 7.667-19.584 19.526-1.347 11.86 5.237 22.345 14.707 23.421 3.854.438 7.582-.772 10.75-3.135-5.232-4.159-8.285-11.866-7.329-20.285z" fill="#ff4654"/><path d="m342.193 357.987h-128.443c-2.914 3.255-5.701 6.257-5.701 6.257v21.119l6.492 4.904h127.651c4.917 0 8.904-3.986 8.904-8.904v-14.473c0-4.917-3.986-8.903-8.903-8.903z" fill="#8bcaff"/><path d="m211.079 381.362v-14.472c0-4.917 3.986-8.904 8.903-8.904h-50.175c-4.917 0-8.904 3.986-8.904 8.904v14.472c0 4.917 3.986 8.904 8.904 8.904h50.175c-4.917 0-8.903-3.986-8.903-8.904z" fill="#60b9fe"/></g></svg>