<svg id="Capa_1" enable-background="new 0 0 512 512" height="512" viewBox="0 0 512 512" width="512" xmlns="http://www.w3.org/2000/svg"><g><g><path d="m256.001 316.941c-4.267 0-7.726-3.459-7.726-7.726v-57.005c0-4.267 3.459-7.726 7.726-7.726s7.726 3.459 7.726 7.726v57.004c0 4.268-3.459 7.727-7.726 7.727z" fill="#eab900"/></g><path d="m188.542 129.188h-147.566l-6.513 5.066v90.914l7.521 7.039h146.558l6.373-4.979v-91.429z" fill="#ff636e"/><g fill="#ff4654"><path d="m323.46 232.207h31.138c-14.228-21.276-22.184-66.681-14.684-80.955 2.879-5.48 6.495-13.741 9.942-22.064h-26.396c.344 1.896.533 3.844.533 5.838v91.344c0 1.993-.189 3.942-.533 5.837z"/><path d="m499.638 129.188h-69.384l-1.342 6.096 29.216 11.847 7.469 25.84s-4.121 35.971-4.121 36.744-18.028 14.165-18.028 14.165l-13.194 8.327h69.384c6.799 0 12.362-5.563 12.362-12.362v-78.295c0-6.799-5.562-12.362-12.362-12.362z"/></g><path d="m430.254 129.188h-36.339l-6.612 8.156v85.763l6.612 9.099h36.339c22.147 0 40.268-18.121 40.268-40.268v-22.483c0-22.146-18.12-40.267-40.268-40.267z" fill="#fd2a39"/><path d="m275.832 303.309h-12.105s-33.013 25.393-33.013 27.195 1.288 29.618 3.606 36.314 7.164 18.028 10.559 20.346 30.953 11.793 30.953 11.793c18.748-7.783 31.936-26.261 31.936-47.825s-13.188-40.04-31.936-47.823z" fill="#ffe02f"/><path d="m36.339 219.845v-78.295c0-6.799 5.563-12.362 12.362-12.362h-36.339c-6.799 0-12.362 5.563-12.362 12.362v78.294c0 6.799 5.563 12.362 12.362 12.362h36.339c-6.799.001-12.362-5.562-12.362-12.361z" fill="#ff4654"/><path d="m297.779 125.38h-82.575c-1.105 0-2.003.899-2.003 2.004v106.626c0 1.105.898 2.004 2.003 2.004h82.575c1.105 0 2.005-.899 2.005-2.004v-106.626c0-1.105-.9-2.004-2.005-2.004z" fill="#ff636e"/><path d="m393.915 129.188h-70.455l-6.468 4.293v89.884l6.468 8.842h70.455c22.147 0 40.268-18.121 40.268-40.268v-22.483c0-22.147-18.121-40.268-40.268-40.268z" fill="#ff636e"/><g><path d="m36.339 190.828c-4.267 0-7.726-3.459-7.726-7.726v-4.807c0-4.267 3.459-7.726 7.726-7.726s7.726 3.459 7.726 7.726v4.807c.001 4.266-3.459 7.726-7.726 7.726z" fill="#fd2a39"/></g><g><path d="m74.485 190.828c-4.267 0-7.726-3.459-7.726-7.726v-4.807c0-4.267 3.459-7.726 7.726-7.726s7.726 3.459 7.726 7.726v4.807c0 4.266-3.459 7.726-7.726 7.726z" fill="#fd2a39"/></g><g><path d="m112.631 190.828c-4.267 0-7.726-3.459-7.726-7.726v-4.807c0-4.267 3.459-7.726 7.726-7.726s7.726 3.459 7.726 7.726v4.807c0 4.266-3.459 7.726-7.726 7.726z" fill="#fd2a39"/></g><g><path d="m150.776 190.828c-4.267 0-7.726-3.459-7.726-7.726v-4.807c0-4.267 3.459-7.726 7.726-7.726s7.726 3.459 7.726 7.726v4.807c.001 4.266-3.458 7.726-7.726 7.726z" fill="#fd2a39"/></g><path d="m243.896 351.134c0-21.564 13.188-40.042 31.936-47.825-6.109-2.536-12.805-3.942-19.831-3.942-28.59 0-51.767 23.177-51.767 51.767s23.177 51.767 51.767 51.767c7.026 0 13.722-1.406 19.831-3.942-18.748-7.783-31.936-26.261-31.936-47.825z" fill="#fbc700"/><g><path d="m313.018 358.861h-114.034c-4.267 0-7.726-3.459-7.726-7.726s3.459-7.726 7.726-7.726h114.034c4.267 0 7.726 3.459 7.726 7.726 0 4.266-3.459 7.726-7.726 7.726z" fill="#eab900"/></g><g><path d="m256.001 409.598c-4.267 0-7.726-3.459-7.726-7.726v-23.712c0-4.267 3.459-7.726 7.726-7.726s7.726 3.459 7.726 7.726v23.712c0 4.266-3.459 7.726-7.726 7.726z" fill="#eab900"/></g><g><path d="m292.057 188.424h-37.087c-4.267 0-7.726-3.459-7.726-7.726s3.459-7.726 7.726-7.726h37.087c4.267 0 7.726 3.459 7.726 7.726.001 4.267-3.458 7.726-7.726 7.726z" fill="#b5dcff"/></g><path d="m291.37 102.403h-49.042l-5.949 2.49-14.547 13.135-1.936 11.16 3.183 4.121h68.29c.947 0 1.717.77 1.717 1.717v91.344c0 .947-.771 1.717-1.717 1.717h-68.29l-3.183 7.928s6.439 12.59 7.211 14.393c.773 1.803 8.757 6.954 8.757 6.954l6.957 1.631h48.548c17.988 0 32.623-14.634 32.623-32.623v-91.344c.001-17.989-14.634-32.623-32.622-32.623z" fill="#dbedff"/><g><path d="m223.08 228.086h-2.45c-.947 0-1.716-.77-1.716-1.717v-91.344c0-.947.77-1.717 1.716-1.717h2.45c.896-17.193 15.164-30.906 32.576-30.906h-35.026c-17.988 0-32.622 14.634-32.622 32.623v91.344c0 17.988 14.634 32.623 32.622 32.623h35.026c-17.411 0-31.68-13.713-32.576-30.906z" fill="#b5dcff"/></g></g></svg>