<svg id="Capa_1" enable-background="new 0 0 512.076 512.076" height="512" viewBox="0 0 512.076 512.076" width="512" xmlns="http://www.w3.org/2000/svg"><g><g><path d="m333.228 348.661-8.76-2.125-13.935 4.888s-17.096 21.627-18.082 22.656c-.986 1.03-22.881 9.52-32.411 10.288-9.529.769-34.748-6.711-40.55-10.061-1.549-.895-3.714-3.15-6.054-5.967l-30.721 47.846-4.12 3.115 18.587 8.538 63.867 8.811 54.346-10.794 42.76-17.495 5.883-11.16c-16.329-15.495-25.574-33.395-30.81-48.54z" fill="#dd8858"/><path d="m218.607 373.697c-6.254-4.814-19.333-25.092-19.333-25.092l-20.541-.008c-5.249 15.141-14.509 33.034-30.851 48.514l1.662 8.844 33.667 15.466c16.512-16.883 27.867-33.939 35.396-47.724z" fill="#cb6c35"/><path d="m268.479 322.475-23.351-.01-5.038 2.876c.708 12.796 2.188 39.63 2.188 40.218 0 .773 19.047 26.933 19.047 26.933l13.291.006c16.305-5.366 31.912-17.792 43.748-37.132l.003-6.691z" fill="#b5dcff"/><path d="m264.565 385.464c-15.214-13.284-23.833-35.182-21.741-61.683l-48.186 27.508-1.045 4.025c16.295 26.678 39.769 40.23 62.369 40.239 6.207.003 12.48-1.023 18.655-3.055-3.634-2.018-6.999-4.368-10.052-7.034z" fill="#8bcaff"/><path d="m340.955 272.667-22.526-76.025-26.348-34.581.044-106.564 22.6-32.441-3.958-12.136c-14.953-6.224-30.926-9.796-46.809-10.689l-19.215 5.799s-22.654 18.377-36.353 28.715l11.232 17.367-.045 107.479-30.033 49.361-5.529 19.424c5.17 17.701 11.171 38.343 11.171 38.783 0 .773 7.162 52.027 7.162 52.027l10.836 19.578 19.936 2.416c4.42-3.382 8.26-6.995 11.463-10.392 0 0 20.605.003 22.806.009 10.48 11.134 27.758 24.604 50.053 24.613 25.105.01 30.223-37.553 30.807-63.044z" fill="#dbedff"/><g fill="#b5dcff"><path d="m256.125 0c-18.429-.008-37.231 3.639-54.652 10.874l-.005 13.165 9.032 13.965c17.326-16.436 38.999-29.793 53.46-37.774-2.616-.147-5.229-.229-7.835-.23z"/><path d="m195.694 254.281c-3.526-8.752-6.55-21.083-8.978-35.392l-11.099 38.989-7.732 14.717-4.128 19.694c.562 25.491 5.649 63.059 30.754 63.069 15.487.006 28.555-6.486 38.61-14.18-38.217-11.234-23.697-52.821-37.427-86.897z"/></g><path d="m370.916 66.862-4.29-11.326c-14.032-20.544-33.837-35.449-55.857-44.616-12.615 11.099-28.212 31.278-28.225 63.223l-.029 69.946c-.008 19.873 6.936 39.172 19.85 54.276 6.35 7.427 12.618 18.246 16.051 33.741 8.749 39.49 29.836 60.26 29.836 60.26.339-14.841 4.123-29.389 10.867-42.613 1.044-2.047 2.128-4.252 3.233-6.593l8.499-17.135-6.682-142.167z" fill="#dd8858"/><path d="m171.571 79.656s3.191 40.178 4.418 44.815c1.227 4.636.681 78.809.681 78.809s7.355 25.067 12.794 43.797c1.562-4.663 2.986-9.664 4.178-15.023 3.446-15.491 9.722-26.305 16.079-33.727 12.926-15.094 19.887-34.387 19.895-54.26l.029-69.946c.008-19.353-5.71-34.385-13.019-45.705-8.643 6.731-16.354 12.519-18.072 13.135-4.304 1.543-26.983 38.105-26.983 38.105z" fill="#dd8858"/><path d="m201.473 10.874c-22.027 9.148-41.845 24.037-55.894 44.569l-4.393 13.383 6.826 18.031-6.889 134.045 8.575 22.168c1.104 2.342 2.186 4.548 3.228 6.596 6.733 13.23 10.505 27.782 10.832 42.623 0 0 17.938-17.659 27.618-51.366-10.773-40.577-14.864-116.597-8.101-159.202 2.955-18.614 17.798-36.132 34.993-50.658-5.118-8.642-11.244-15.297-16.795-20.189z" fill="#cb6c35"/><path d="m457.294 491.949c-11.443-24.849-32.976-47.908-59.741-68.977l-16.826-.007-28.507 13.723-27.796 16.986-58.405 6.5-72.467-6.211-36.509-18.371-25.631 19.375-25.425 33.299-.006 14.422 7.435 9.25 331.016.137c10.35.005 17.192-10.723 12.862-20.126z" fill="#dd8858"/><path d="m154.421 446.177c3.266-2.351 6.395-4.746 9.408-7.17l-37.212-18.725-12.27 2.571c-26.783 21.047-48.335 44.088-59.799 68.928-4.338 9.399 2.495 20.133 12.847 20.138l46.019.019c-3.571-7.971-7.319-30.965 41.007-65.761z" fill="#cb6c35"/><path d="m155.223 69.489-14.038-.006-60.807 63.704s-14.968 74.39-11.883 87.157 14.913 58.615 16.457 62.736 16.99 18.55 16.99 18.55l20.663 4.805c38.702-31.492 31.481-144.498 31.505-202.794.004-10.586.52-19.751 1.364-27.667.242-2.263.139-4.435-.251-6.485z" fill="#eaae8e"/><path d="m95.231 145.627c7.817-30.24 33.61-56.37 59.992-76.138-2.706-14.2-19.331-22.483-32.616-13.982-32.105 20.544-70.345 52.078-80.173 90.098-17.717 68.536-8.914 169.143 56.312 169.17 9.445.004 17.306-3.007 23.859-8.339-38.538-25.519-42.026-104.13-27.374-160.809z" fill="#e39b74"/><path d="m403.365 69.592s-3.112 52.396-.023 55.488-3.284 53.355-1.4 62.991c1.885 9.636 5.975 82.781 7.517 91.023s4.958 15.245 8.398 18.699 24.331 8.775 24.331 8.775c38.559-25.487 42.112-104.094 27.508-160.786-8.138-31.589-35.885-58.712-63.44-78.785z" fill="#eaae8e"/><path d="m410.851 103.748c.004-10.586-.504-19.752-1.341-27.668-.24-2.264-.135-4.436.257-6.485-6.783-5.091-13.604-9.767-20.17-13.977-15.194-9.74-34.783 2.492-32.884 20.439.837 7.916 1.346 17.082 1.341 27.668-.028 68.167-10.038 211.152 55.189 211.179 11.284.005 20.879-3.006 28.945-8.337-38.676-31.523-31.361-144.523-31.337-202.819z" fill="#e39b74"/><path d="m252.104 268.47-2.58 9.786-.006 14.07 8.232 22.516 5.276 8.948 10.039 2.699c11.545-10.701 19.417-30.304 19.422-44.281.007-16.676-11.186-20.099-26.466-20.789-6.652 3.209-13.917 7.051-13.917 7.051z" fill="#7b6c79"/><path d="m253.681 282.192c.006-13.976 7.871-18.636 19.412-20.178-5.096-.685-10.905-.766-17.076-.768-20.148-.008-36.481.784-36.489 20.932s16.311 52.021 36.459 52.029c6.171.003 11.982-2.994 17.08-7.718-11.537-10.711-19.392-30.321-19.386-44.297z" fill="#544e55"/><path d="m396.214 413.943c-1.325-.94-2.658-1.876-4-2.808-6.611-4.591-12.457-9.543-17.633-14.707-2.137-2.132-5.451-2.514-7.98-.865-31.584 20.592-70.853 32.316-110.653 32.299-23.549-.01-46.91-4.131-68.6-11.765l-7.332 1.117-16.182 10.982-5.977 13.905 2.355 6.941c29.547 12.455 62.184 19.14 95.718 19.154 51.513.021 100.93-15.689 140.273-43.907 3.544-2.541 3.567-7.822.011-10.346z" fill="#ffe02f"/><path d="m145.32 395.472c-2.527-1.65-5.841-1.271-7.98.859-5.18 5.158-11.03 10.105-17.645 14.691-1.342.931-2.677 1.866-4.002 2.804-3.559 2.52-3.54 7.802.001 10.347 13.723 9.86 28.677 18.191 44.518 24.869 2.991-17.773 18.221-27.699 28.523-32.469-15.478-5.323-30.129-12.423-43.415-21.101z" fill="#fbc700"/></g><g><g><g><path d="m192.379 151.289c-4.267 0-7.726-3.459-7.726-7.726v-26.441c0-4.267 3.459-7.726 7.726-7.726s7.726 3.459 7.726 7.726v26.441c0 4.267-3.459 7.726-7.726 7.726z" fill="#544e55"/></g><g><path d="m319.66 151.289c-4.267 0-7.726-3.459-7.726-7.726v-26.441c0-4.267 3.459-7.726 7.726-7.726s7.726 3.459 7.726 7.726v26.441c0 4.267-3.459 7.726-7.726 7.726z" fill="#544e55"/></g></g></g></g></svg>