<svg id="Capa_1" enable-background="new 0 0 511.999 511.999" height="512" viewBox="0 0 511.999 511.999" width="512" xmlns="http://www.w3.org/2000/svg"><g><path d="m459.039 44.202-13.525-15.064-57.175 1.03s-25.051 19.574-28.236 27.815-14.002 32.966-15.547 39.147-12.108 20.684-16.316 28.33c-1.319 2.396-4.754 6.674-9.515 11.062l24.285 25.251h9.688c18.745-18.319 41.193-32.63 66.128-40.732 9.014-2.928 17.489-7.973 24.651-15.134 16.705-16.703 21.88-40.554 15.562-61.705z" fill="#ff636e"/><path d="m277.122 177.678c-26.896 26.616-60.215 59.241-89.213 87.544h52.426l16.154-7.085 46.647-46.647-1.333-8.765z" fill="#dbedff"/><path d="m193.18 265.222 85.834-85.623-20.822-21.13h-8.077l-99.668 99.668 8.16 7.085z" fill="#b5dcff"/><path d="m273.202 181.555 29.935 29.935 23.617-23.617v-9.186l-25.551-24.963c-8.11 8.123-17.634 17.583-28.001 27.831z" fill="#b5dcff"/><path d="m303.098 155.575-21.211-20.723h-8.154l-23.618 23.617 25.01 25.009z" fill="#8bcaff"/><path d="m120.362 330.982-2.377 24.724-4.963 9.014 3.009 6.322c4.101-2.3 8.833-3.384 13.642-3.187 10.097.413 20.328-3.231 28.038-10.941l98.779-98.779h-61.323c-40.634 39.687-74.805 72.847-74.805 72.847z" fill="#ffe02f"/><path d="m116.03 371.043.825-.825c4.965-4.965 7.398-11.816 7.112-18.831-.413-10.097 3.231-20.328 10.941-28.037l65.374-65.213h-49.835l-45.758 45.758c-7.709 7.709-11.353 17.94-10.941 28.037.286 7.015-2.147 13.866-7.112 18.831l-14.656 14.656c-6.684 6.684-6.684 17.521 0 24.206 6.684 6.684 17.521 6.684 24.205 0l14.656-14.656c1.562-1.561 3.309-2.871 5.189-3.926z" fill="#fbc700"/><path d="m327.361 144.313c18.31-18.773 32.623-41.232 40.748-66.174 3.362-10.32 9.499-19.933 18.412-27.672 20.444-17.752 49.979-19.75 72.518-6.266-3.11-10.413-8.991-20.174-17.681-28.1-23.082-21.052-58.78-21.526-82.368-1.044-8.913 7.739-15.05 17.352-18.412 27.672-8.125 24.942-22.438 47.401-40.748 66.174v7.971l27.531 28.626z" fill="#ff4654"/><path d="m102.846 446.544h-18.675s-11.413 37.765-10.039 40.512 6.343 10.989 10.039 14.766c1.801 1.84 8.918 4.302 15.744 6.344 17.145-9.023 24.351-32.199 11.545-49.789z" fill="#ffe02f"/><path d="m94.231 458.377 8.614-11.833-12.232-16.802c-3.182-4.371-9.702-4.371-12.884 0l-20.847 28.635c-16.242 22.309-.306 53.622 27.289 53.622 7.123 0 13.459-2.098 18.675-5.576-14.994-10-20.664-31.495-8.615-48.046z" fill="#fbc700"/><path d="m354.714 163.788-28.348-28.348c-3.796-.339-6.706-.589-6.706-.589l-18.715 3.486s-3.777 8.523-4.464 10.014c-.687 1.49 0 6.126 0 6.126s.924 2.448 1.802 4.924l30.409 30.409c7.186 7.186 18.836 7.186 26.022 0 7.186-7.185 7.186-18.836 0-26.022z" fill="#ff7f87"/><path d="m306.193 141.29c5.964-5.964 14.797-7.274 22.047-3.976l-30.423-30.423c-7.186-7.186-18.836-7.186-26.022 0s-7.186 18.836 0 26.022l30.423 30.423c-3.299-7.249-1.989-16.082 3.975-22.046z" fill="#ff636e"/></g></svg>