<svg id="Capa_1" enable-background="new 0 0 512 512" height="512" viewBox="0 0 512 512" width="512" xmlns="http://www.w3.org/2000/svg"><g><path d="m262.341 464.187-7.19-24.694-5.379-2.006-41.654 12.019-4.223 5.17 7.12 24.455c2.183 7.498 10.031 11.806 17.529 9.623l24.174-7.038c7.497-2.184 11.806-10.032 9.623-17.529z" fill="#7b6c79"/><path d="m288.183 298.352c-25.614-21.26-24.882-46.589-23.453-56.261l-4.656-3.689-30.71 3.689-20.627 16.208 20.947 70.331 13.914 7.989c8.461-2.131 27.877-7.203 39.45-11.675 13.327-5.149 13.47-19.673 5.135-26.592z" fill="#dbedff"/><path d="m265.691 412.502-44.824-153.95-12.131-4.182-34.377 7.984-4.359-.866 53.502 179.088 10.448 5.914 15.571-4.534c12.599-3.667 19.839-16.855 16.17-29.454z" fill="#60b9fe"/><path d="m224.205 431.227-49.212-169.02-.634.147-40.2-7.984-6.927 3.929 52.209 179.315c3.669 12.6 16.856 19.84 29.456 16.171l27.43-7.986c-5.679-2.865-10.204-7.983-12.122-14.572z" fill="#1ca8ff"/><path d="m286.687 142.165-12.127 50.241 154.722-22.74v-90.428l-5.099-4.998-179.211-29.171-3.27 6.783 24.943 35.027z" fill="#60b9fe"/><g><path d="m274.814 191.355-2.55 10.561-25.503 30.906-1.789 12.485 179.211-29.171 5.099-7.609v-49.095l-5.099 7.609z" fill="#1ca8ff"/></g><path d="m13.343 185.09 57.907 11.561-14.296-51.463 18.543-55.906 27.636-34.34v-9.438l-79.444 12.932c-13.657 2.223-23.689 14.019-23.689 27.857v81.594z" fill="#938493"/><g><path d="m73.094 203.29-3.608-12.989-45.797-7.455c-13.657-2.223-23.689-14.02-23.689-27.857v49.095c0 13.838 10.032 25.634 23.689 27.857l79.445 12.931-4.285-15.828z" fill="#7b6c79"/></g><path d="m472.602 163.299v-81.177l-48.419-7.882v96.176z" fill="#1ca8ff"/><path d="m424.183 216.137 48.419-7.882v-49.095l-48.419 7.882z" fill="#0094fd"/><path d="m195.765 24.546c-51.161 16.238-88.236 64.106-88.236 120.642s37.075 104.404 88.236 120.642c57.454-10.125 101.104-60.285 101.104-120.642s-43.65-110.517-101.104-120.642z" fill="#dbedff"/><path d="m110.61 145.188c0-57.532 39.66-105.792 93.129-118.954-9.413-2.317-19.251-3.555-29.38-3.555-67.66 0-122.509 54.849-122.509 122.509s54.849 122.509 122.509 122.509c10.128 0 19.967-1.238 29.38-3.555-53.469-13.161-93.129-61.422-93.129-118.954z" fill="#b5dcff"/><path d="m203.566 142.534c-3.663-2.177-7.511-3.916-11.476-5.22h-9.446l-26.613 27.455v19.912l7.04 19.054 8.092 5.619c4.043-.746 8.253-.069 11.993 2.036 10.838 6.099 29.752 10.771 45.508-16.283 13.397-23.004-5.9-41.166-25.098-52.573z" fill="#60b9fe"/><path d="m163.917 198.903c-15.559-26.716 5.895-47.947 28.173-61.59-5.728-1.885-11.703-2.854-17.731-2.854-10.202 0-20.251 2.753-29.207 8.075-19.198 11.407-38.495 29.569-25.098 52.572 15.761 27.061 34.681 22.379 45.518 16.277 1.78-1.002 3.667-1.675 5.591-2.03-2.457-2.932-4.882-6.39-7.246-10.45z" fill="#1ca8ff"/><g fill="#60b9fe"><path d="m118.728 133.76c-.781-6.879-4.125-12.666-8.641-16.033l-8.13 1.689s-3.717 16.998-3.67 19.831 3.67 9.787 3.67 9.787l9.602 4.569c5.118-4.069 8.104-11.608 7.169-19.843z"/><path d="m167.029 100.2c-1.108-9.752-6.314-17.776-13.123-21.604s-7.84 2.102-9.213 3.991c-1.374 1.889-8.928 9.615-8.585 15.796s1.943 11.779 4.234 16.191 8.804 9.048 8.638 9.563 6.896 2.438 6.896 2.438c7.727-4.548 12.452-14.938 11.153-26.375z"/><path d="m212.543 78.595s-7.996 1.244-9.85 3.991c-1.855 2.747-9.066 8.749-9.238 19.999s.24 13.825 3.554 17.431 6.54 3.949 6.73 4.636 6.835 1.923 6.835 1.923c6.81-3.828 12.016-11.853 13.123-21.604 1.299-11.438-3.426-21.828-11.154-26.376z"/><path d="m256.363 117.726s-8.835 2.805-9.602 5.381c-.766 2.575-7.291 9.959-5.059 16.483 2.232 6.525 2.734 7.898 5.059 11.332 2.324 3.434 8.129 2.68 8.129 2.68 4.517-3.368 7.861-9.154 8.642-16.033.935-8.235-2.051-15.774-7.169-19.843z"/></g><path d="m142.752 104.971c-1.299-11.437 3.426-21.827 11.154-26.375-3.336-1.876-7.054-2.749-10.868-2.316-11.6 1.318-19.666 14.163-18.016 28.692 1.65 14.528 12.391 25.238 23.992 23.92 2.468-.28 4.774-1.087 6.863-2.316-6.811-3.83-12.017-11.854-13.125-21.605z" fill="#1ca8ff"/><path d="m102.918 137.569c-.935-8.235 2.051-15.774 7.169-19.843-3.099-2.311-6.746-3.494-10.515-3.066-9.262 1.052-15.703 11.309-14.385 22.909 1.317 11.6 9.894 20.151 19.156 19.099 2.687-.305 5.125-1.404 7.216-3.066-4.516-3.368-7.86-9.154-8.641-16.033z" fill="#1ca8ff"/><path d="m199.42 100.2c1.107-9.751 6.313-17.776 13.123-21.604-2.089-1.229-4.395-2.036-6.863-2.316-11.6-1.317-22.342 9.392-23.992 23.921s6.416 27.374 18.016 28.691c3.814.433 7.533-.441 10.869-2.316-7.727-4.549-12.452-14.939-11.153-26.376z" fill="#1ca8ff"/><path d="m247.722 133.76c.781-6.879 4.125-12.666 8.641-16.033-2.091-1.662-4.529-2.761-7.216-3.066-9.262-1.052-17.839 7.499-19.156 19.099-1.318 11.6 5.123 21.857 14.385 22.909 3.77.428 7.416-.755 10.515-3.066-5.119-4.069-8.105-11.608-7.169-19.843z" fill="#1ca8ff"/><path d="m477.787 173.414h31.764l2.449-2.653v-91.386c0-5.755-4.666-10.421-10.421-10.421h-18.555c-5.756 0-10.421 4.666-10.421 10.421v88.237z" fill="#dbedff"/><path d="m501.579 172.327h-18.556c-5.756 0-10.421-4.666-10.421-10.421v49.095c0 5.755 4.666 10.421 10.421 10.421h18.556c5.755 0 10.421-4.666 10.421-10.421v-49.095c0 5.756-4.666 10.421-10.421 10.421z" fill="#b5dcff"/></g></svg>