<svg id="Capa_1" enable-background="new 0 0 512 512" height="512" viewBox="0 0 512 512" width="512" xmlns="http://www.w3.org/2000/svg"><g><path d="m294.096 91.051c-7.132-.041-12.975-5.632-12.975-12.765v-4.811c0-10.796 1.58-21.557 4.979-31.803 1.335-4.025 1.884-8.407 1.465-12.969-.822-8.925-5.427-16.799-12.159-22.033h-16.19l-10.942 38.239s15.156 14.766 15.453 19.917-2.45 14.079-4.51 17.17-26.442 5.838-28.845 10.302c-2.404 4.464-10.77 17.513-10.021 21.977.403 2.401 4.761 13.376 8.81 23.694h86.545l3.899-3.982v-17.282c-.001-14.061-11.466-25.574-25.509-25.654z" fill="#60b9fe"/><path d="m320.804 208.637-4.329-2.332h-68.055l-31.272 11.332-15.674 10.989-12.31 27.128v18.887h184.061l13.074-5.223c-2.541-33.858-31.017-60.781-65.495-60.781z" fill="#dbedff"/><g fill="#b5dcff"><path d=""/><path d="m193.903 269.418c2.539-33.858 31.015-60.781 65.494-60.781l5.865-2.332h-68.201l-5.865 2.332c-34.479 0-62.955 26.923-65.494 60.781l9.89 5.223h68.2z"/></g><path d="m231.249 116.705c0-14.061 11.465-25.575 25.508-25.655 7.132-.041 12.975-5.632 12.975-12.765v-4.811c0-10.915-1.771-21.744-5.09-32.143-.969-3.036-1.492-6.271-1.492-9.629 0-10.178 4.799-19.231 12.255-25.032-4.83-3.755-10.753-6.153-17.169-6.594-18.521-1.27-33.939 13.377-33.939 31.625 0 3.358.523 6.593 1.492 9.629 3.318 10.399 5.09 21.228 5.09 32.143v4.811c0 7.132-5.843 12.724-12.975 12.765-14.043.08-25.508 11.594-25.508 25.655v17.282l4.538 3.982h38.853l-4.538-3.982z" fill="#1ca8ff"/><path d="m386.297 269.418h-197.134v214.18h185.262l12.077-5.594v-203.669c0-1.656-.083-3.291-.205-4.917z" fill="#ffe02f"/><path d="m193.699 274.335c0-1.655.083-3.291.205-4.917h-68.2c-.122 1.626-.205 3.262-.205 4.917v203.669l7.348 5.594h68.201l-7.348-5.594v-203.669z" fill="#fbc700"/><path d="m189.163 478.004v14.351l6.319 16.483s2.196 1.298 5.171 3.163h162.819c12.666 0 23.029-10.363 23.029-23.03v-10.967z" fill="#fbc700"/><path d="m193.699 488.97v-10.967h-68.201v10.967c0 12.666 10.364 23.03 23.03 23.03h68.201c-12.667 0-23.03-10.364-23.03-23.03z" fill="#eab900"/><path d="m330.503 133.987h-121.203l-10.78 6.558-4.774 12.62v40.95l7.726 8.242 10.887 6.281h118.144c11.134 0 20.244-9.11 20.244-20.244v-34.161c.001-11.136-9.109-20.246-20.244-20.246z" fill="#ff636e"/><path d="m200.106 188.392v-34.161c0-11.134 9.11-20.244 20.244-20.244h-38.853c-11.134 0-20.244 9.11-20.244 20.244v34.161c0 11.134 9.11 20.244 20.244 20.244h38.853c-11.135.001-20.244-9.109-20.244-20.244z" fill="#ff4654"/><g><path d="m193.746 185.368c-4.267 0-7.726-3.459-7.726-7.726v-12.659c0-4.267 3.459-7.726 7.726-7.726s7.726 3.459 7.726 7.726v12.659c.001 4.266-3.458 7.726-7.726 7.726z" fill="#fd2a39"/></g><g><path d="m224.873 185.368c-4.267 0-7.726-3.459-7.726-7.726v-12.659c0-4.267 3.459-7.726 7.726-7.726s7.726 3.459 7.726 7.726v12.659c.001 4.266-3.458 7.726-7.726 7.726z" fill="#fd2a39"/></g><g><path d="m256 185.368c-4.267 0-7.726-3.459-7.726-7.726v-12.659c0-4.267 3.459-7.726 7.726-7.726s7.726 3.459 7.726 7.726v12.659c0 4.266-3.459 7.726-7.726 7.726z" fill="#fd2a39"/></g><g><path d="m287.127 185.368c-4.267 0-7.726-3.459-7.726-7.726v-12.659c0-4.267 3.459-7.726 7.726-7.726s7.726 3.459 7.726 7.726v12.659c0 4.266-3.459 7.726-7.726 7.726z" fill="#fd2a39"/></g><g><path d="m318.253 185.368c-4.267 0-7.726-3.459-7.726-7.726v-12.659c0-4.267 3.459-7.726 7.726-7.726s7.726 3.459 7.726 7.726v12.659c.001 4.266-3.458 7.726-7.726 7.726z" fill="#fd2a39"/></g><g><path d="m324.201 320.415h-28.415c-4.267 0-7.726-3.459-7.726-7.726s3.459-7.726 7.726-7.726h28.415c4.267 0 7.726 3.459 7.726 7.726s-3.459 7.726-7.726 7.726z" fill="#eab900"/></g><g><path d="m324.201 351.325h-14.208c-4.267 0-7.726-3.459-7.726-7.726s3.459-7.726 7.726-7.726h14.208c4.267 0 7.726 3.459 7.726 7.726s-3.459 7.726-7.726 7.726z" fill="#eab900"/></g><g><path d="m324.201 382.235h-28.415c-4.267 0-7.726-3.459-7.726-7.726s3.459-7.726 7.726-7.726h28.415c4.267 0 7.726 3.459 7.726 7.726s-3.459 7.726-7.726 7.726z" fill="#eab900"/></g><g><path d="m324.201 413.145h-14.208c-4.267 0-7.726-3.459-7.726-7.726s3.459-7.726 7.726-7.726h14.208c4.267 0 7.726 3.459 7.726 7.726 0 4.266-3.459 7.726-7.726 7.726z" fill="#eab900"/></g><g><path d="m324.201 444.055h-28.415c-4.267 0-7.726-3.459-7.726-7.726s3.459-7.726 7.726-7.726h28.415c4.267 0 7.726 3.459 7.726 7.726 0 4.266-3.459 7.726-7.726 7.726z" fill="#eab900"/></g><g><path d="m324.201 458.034c-4.267 0-7.726-3.459-7.726-7.726v-153.194c0-4.267 3.459-7.726 7.726-7.726s7.726 3.459 7.726 7.726v153.194c0 4.267-3.459 7.726-7.726 7.726z" fill="#eab900"/></g></g></svg>