<svg id="Capa_1" enable-background="new 0 0 512 512" height="512" viewBox="0 0 512 512" width="512" xmlns="http://www.w3.org/2000/svg"><g><path d="m396.726 52.489-13.544-10.595h-194.57l-39.627 31.592-49.121 81.728-13.039 31.592h393.948l11.277-15.726c-19.79-48.632-53.214-89.869-95.324-118.591z" fill="#b5dcff"/><path d="m185.412 50.428-3.172-8.535h-45.789l-21.178 10.595c-42.11 28.722-75.534 69.959-95.325 118.592l11.277 15.726h60.299c29.395-84.313 93.888-136.378 93.888-136.378z" fill="#8bcaff"/><path d="m492.051 171.081c-6.433 4.593-14.308 7.297-22.816 7.297-10.09 0-19.29-3.802-26.249-10.052-5.325-4.782-13.256-4.782-18.581 0-6.959 6.249-16.159 10.052-26.249 10.052s-19.29-3.802-26.248-10.052c-5.326-4.782-13.256-4.782-18.582 0-6.958 6.249-16.159 10.052-26.248 10.052-10.09 0-19.29-3.802-26.249-10.052-5.326-4.782-13.256-4.782-18.582 0-6.958 6.249-16.159 10.052-26.248 10.052-10.09 0-19.29-3.802-26.249-10.052-5.325-4.783-13.256-4.783-18.581 0-6.959 6.249-16.159 10.052-26.249 10.052s-19.29-3.802-26.248-10.052c-5.326-4.783-13.256-4.783-18.582 0-6.958 6.249-16.159 10.052-26.248 10.052-7.735 0-14.942-2.241-21.022-6.099l-12.515 30.325-20.789 82.525s18.042 84.24 19.416 82.929c1.373-1.311 30.562 29.251 30.562 29.251l7.175 13.103h335.742l28.361-9.905c19.898-37.656 31.228-80.847 31.228-126.787 0-36.397-7.104-71.075-19.949-102.639z" fill="#60b9fe"/><path d="m96.259 174.232c-3.153-1.581-6.065-3.572-8.664-5.906-5.325-4.782-13.256-4.782-18.582 0-6.958 6.249-16.159 10.052-26.248 10.052-8.507 0-16.383-2.703-22.816-7.297-12.845 31.564-19.949 66.242-19.949 102.639 0 45.94 11.33 89.131 31.226 126.787l27.103 9.905h60.705c-55.259-92.336-47.862-174.043-22.775-236.18z" fill="#1ca8ff"/><path d="m399.668 401.483c-6.236 1.867-12.846 2.87-19.691 2.87-6.846 0-13.456-1.003-19.693-2.871-27.658-8.282-56.934-8.282-84.592 0-6.237 1.868-12.847 2.871-19.692 2.871-6.846 0-13.458-1.004-19.695-2.872-27.656-8.283-56.931-8.283-84.587 0-6.237 1.868-12.849 2.872-19.695 2.872-6.845 0-13.454-1.003-19.691-2.87-.216-.065-.435-.119-.651-.183l21.509 39.277 30.092 36.057h239.474l29.889-11.282c19.091-18.843 35.374-40.703 48.13-64.845-26.626-7.27-54.607-6.959-81.107.976z" fill="#73d578"/><path d="m114.162 401.995c-.612-.165-1.224-.331-1.83-.512-26.5-7.935-54.481-8.246-81.106-.976 13.666 25.864 31.371 49.116 52.251 68.837l28.25 7.29h56.776c-22.925-25.528-40.766-50.462-54.341-74.639z" fill="#4bce5b"/><path d="m377.613 469.847h-219.995l13.689 16.402 24.355 21.715h145.072c26.624 0 52.508-9.035 73.179-25.815 9.209-7.476 17.906-15.594 26.037-24.283-19.682 7.877-40.841 11.981-62.337 11.981z" fill="#4bce5b"/><path d="m72.051 457.866c8.131 8.689 16.828 16.807 26.037 24.283 20.671 16.78 46.555 25.815 73.179 25.815h27.683c-13.435-12.841-25.553-25.553-36.439-38.117h-28.124c-21.496 0-42.656-4.104-62.336-11.981z" fill="#00c63a"/><path d="m57.9 274.974 37.859-15.968 52.025 23.84 41.465 4.729 23.959-4.729 5.648-2.506v-41.938l-4.396-7.862c-10.148-3.099-20.919-4.768-32.083-4.768-26.355 0-50.527 9.297-69.445 24.78-7.19 5.884-17.526 5.596-24.737-.261-5.768-4.684-12.022-8.788-18.673-12.234-6.183-3.203-13.69.413-15.064 7.24-1.528 7.588-2.331 15.437-2.331 23.475 0 .825.014 1.646.031 2.467 3.001 1.929 5.742 3.735 5.742 3.735z" fill="#fbc700"/><path d="m179.936 282.934c-27.143 0-52.037-9.297-71.521-24.781-1.951-1.551-4.13-2.661-6.413-3.365-2.35.135-4.721-.164-7-.869-4.285.206-8.536 1.715-12.061 4.495-5.94 4.684-12.382 8.789-19.232 12.235-3.943 1.983-8.404 1.348-11.57-1.041.054 7.746.846 15.317 2.32 22.641 1.374 6.827 8.88 10.444 15.064 7.24 6.651-3.446 12.906-7.55 18.674-12.235 7.211-5.857 17.547-6.145 24.735-.261 18.918 15.484 43.09 24.781 69.446 24.781 11.164 0 21.935-1.67 32.083-4.768l4.396-6.792v-23.974c-12.198 4.346-25.318 6.694-38.921 6.694z" fill="#eab900"/><path d="m213.208 282.846 40.17-17.822 4.67-8.967c-12.201-11.62-27.062-20.47-43.587-25.516-9.46 9.959-15.275 23.413-15.275 38.233 0 5.695.866 11.184 2.46 16.355z" fill="#ffe02f"/><path d="m259.253 257.205c-1.027-1.008-2.081-1.988-3.147-2.956-15.41 13.659-34.541 23.082-55.529 26.848 2.248 9.9 7.13 18.798 13.884 25.909 17.07-5.213 32.371-14.474 44.792-26.664 6.511-6.391 6.511-16.747 0-23.137z" fill="#fbc700"/><g><path d="m226.623 272.751c-4.267 0-7.766-3.459-7.766-7.726s3.42-7.726 7.687-7.726h.079c4.267 0 7.726 3.459 7.726 7.726s-3.459 7.726-7.726 7.726z" fill="#fbc700"/></g><g><path d="m352.084 227.189h-4.608c-4.267 0-7.726-3.459-7.726-7.726s3.459-7.726 7.726-7.726h4.608c4.267 0 7.726 3.459 7.726 7.726s-3.459 7.726-7.726 7.726z" fill="#b5dcff"/></g><g><path d="m225.542 359.54h-4.608c-4.267 0-7.726-3.459-7.726-7.726s3.459-7.726 7.726-7.726h4.608c4.267 0 7.726 3.459 7.726 7.726s-3.459 7.726-7.726 7.726z" fill="#b5dcff"/></g><g><path d="m464.746 315.604h-4.608c-4.267 0-7.726-3.459-7.726-7.726s3.459-7.726 7.726-7.726h4.608c4.267 0 7.726 3.459 7.726 7.726s-3.459 7.726-7.726 7.726z" fill="#b5dcff"/></g><path d="m431.636 235.608h-6.474l-5.924 12.066 1.228 21.763s3.537 3.091 4.181 3.477 6.989 1.38 6.989 1.38c6.675-3.863 11.169-11.076 11.169-19.343s-4.494-15.48-11.169-19.343z" fill="#b5dcff"/><path d="m420.466 254.951c0-8.267 4.494-15.48 11.17-19.343-3.287-1.902-7.099-2.996-11.17-2.996-12.338 0-22.339 10.001-22.339 22.339s10.001 22.339 22.339 22.339c4.07 0 7.883-1.094 11.17-2.996-6.675-3.863-11.17-11.076-11.17-19.343z" fill="#8bcaff"/><path d="m296.646 334.639c1.717-1.03 8.07-4.979 9.443-6.467s9.615-3.148 10.817-3.32 7.383 5.323 8.242 6.181c.858.859 10.13 7.726 16.655 8.928 6.524 1.202 20.604.859 27.643 0 7.04-.858 21.634-10.116 21.634-10.116l3.91-7.155c-9.987-9.189-23.302-14.813-37.944-14.813-13.464 0-25.813 4.75-35.477 12.659-3.673 3.006-8.954 2.859-12.638-.133-2.946-2.393-6.141-4.489-9.539-6.25-3.159-1.636-6.994.211-7.696 3.699-.78 3.876-1.191 7.886-1.191 11.993 0 .683.028 1.358.051 2.035 2.538 1.712 5.246 3.265 6.09 2.759z" fill="#ffe02f"/><path d="m394.99 322.691c-10.189 9.229-23.792 14.881-38.754 14.881-13.725 0-26.314-4.75-36.166-12.66-3.743-3.006-9.126-2.859-12.882.133-3.004 2.393-6.261 4.49-9.725 6.25-2.516 1.279-5.447.424-6.952-1.672 0 .075-.006.148-.006.222 0 4.106.41 8.116 1.191 11.993.702 3.488 4.537 5.335 7.696 3.699 3.398-1.76 6.593-3.857 9.54-6.25 3.684-2.992 8.964-3.139 12.637-.133 9.665 7.911 22.014 12.66 35.478 12.66 15.297 0 29.156-6.128 39.273-16.058 3.326-3.265 3.326-8.555 0-11.82-.434-.426-.883-.834-1.33-1.245z" fill="#fbc700"/><path d="m400.036 4.036h-226.326c-.002.002-10.989 8.669-12.705 10.901-1.717 2.232-7.898 16.14-6.353 18.715s5.666 8.07 7.383 10.474 6.868 4.292 6.868 4.292l9.911 4.07h221.223c13.38 0 24.226-10.846 24.226-24.226-.001-13.379-10.847-24.226-24.227-24.226z" fill="#dbedff"/><path d="m162.216 28.263c0-13.38 10.847-24.226 24.226-24.226h-74.478c-13.379 0-24.226 10.847-24.226 24.226 0 13.38 10.847 24.226 24.226 24.226h74.478c-13.38 0-24.226-10.847-24.226-24.226z" fill="#b5dcff"/></g></svg>