<svg id="Capa_1" enable-background="new 0 0 512 512" height="512" viewBox="0 0 512 512" width="512" xmlns="http://www.w3.org/2000/svg"><g><path d="m252.426 209.064c-4.755-6.497-13.453-8.72-21.098-6.194-16.342 5.399-32.099 16.935-42.977 26.232-5.727 4.894-14.552.819-14.552-6.714v-124.564c0-11.845-9.78-21.405-21.705-21.049-11.527.345-20.413 10.401-20.413 21.933v-36.542c0-11.845-9.78-21.406-21.703-21.05-11.526.344-20.412 10.402-20.414 21.933l-.001 34.776c.001-11.816-9.732-21.359-21.616-21.052-11.49.296-20.501 10.03-20.501 21.524v18.385c0-11.09-8.573-20.176-19.453-20.996l-3.834 6.521v211.704l13.392 36.572s-.3 24.074-.466 49.12h110.868l15.006-10.919v-17.49c0-10.283 2.241-20.435 6.523-29.784.977-2.133 1.862-4.325 2.648-6.572 3.721-10.626 8.27-20.434 13.638-26.489 24.182-27.283 52.783-61.085 65.969-76.757 5.325-6.326 5.781-15.57.689-22.528z" fill="#8896e0"/><path d="m486.168 95.631c-11.884-.307-21.615 9.236-21.615 21.051v-18.385c0-11.494-9.011-21.228-20.501-21.524-11.885-.306-21.617 9.236-21.616 21.052l-.001-34.776c-.001-11.532-8.887-21.59-20.414-21.933-11.923-.356-21.703 9.205-21.703 21.05v36.542c0-7.627-3.901-14.59-9.869-18.543h-5.296l-11.471 15.492v136.87l-16.767-5.544c-2.648 4.333-8.866 5.881-13.267 2.119-9.654-8.25-23.15-18.253-37.486-24.177l-6.516 3.906s2.06 12.877 0 14.68 69.28 89.111 69.28 89.111l9.787 35.542 11.735 48.419s.468 1.63 1.1 4.378h107.44l14.82-12.278v-26.512c0-9.814 2.14-19.473 5.949-28.519 3.367-7.998 5.514-16.521 6.293-25.291.411-4.616.619-8.883.619-12.353v-178.851c.001-11.495-9.01-21.229-20.501-21.526z" fill="#8896e0"/><g><path d="m40.855 362.172c0-9.814-2.14-19.473-5.948-28.519-3.367-7.998-5.514-16.521-6.293-25.291-.411-4.616-.619-8.883-.619-12.353v-200.323c-.712-.054-1.433-.074-2.162-.055-11.492.297-20.503 10.031-20.503 21.526v178.852c0 3.47.209 7.737.619 12.353.779 8.77 2.926 17.293 6.293 25.291 3.808 9.045 5.948 18.705 5.948 28.519v26.512l15.756 10.919h22.664l-15.756-10.919v-26.512z" fill="#6b7ed9"/></g><g fill="#6b7ed9"><g><path d="m336.916 226.982c3.411 3.225 6.57 6.235 9.397 8.651 5.727 4.894 14.552.819 14.552-6.714v-131.096c0-7.397 3.815-13.903 9.584-17.659-3.055-2.023-6.641-3.273-10.543-3.39-11.925-.356-21.705 9.204-21.705 21.049v124.564c0 1.745-.488 3.291-1.285 4.595z"/><path d="m371.703 371.194c0-10.283-2.242-20.435-6.523-29.784-.977-2.133-1.862-4.325-2.648-6.572-3.721-10.626-5.18-23.525-10.547-29.579-24.182-27.283-52.783-61.085-65.969-76.757-5.323-6.326-5.779-15.57-.687-22.528.275-.376.553-.721.834-1.048-1.819-.752-3.651-1.447-5.491-2.055-7.645-2.526-16.342-.303-21.098 6.194-5.092 6.958-4.636 16.202.687 22.528 13.186 15.672 41.787 49.474 65.969 76.757 5.368 6.055 9.917 15.863 13.638 26.489.787 2.246 1.671 4.438 2.648 6.572 4.281 9.35 6.523 19.502 6.523 29.784v17.49l11.993 12.278h22.664l-11.993-12.278z"/></g><g><path d="m152.094 76.775c-11.525.345-20.41 10.398-20.412 21.927v94.599c0 5.69 4.612 10.302 10.302 10.302s10.302-4.612 10.302-10.302v-116.522c-.065.002-.127-.006-.192-.004z"/><path d="m57.749 203.603c5.69 0 10.302-4.612 10.302-10.302v-116.526c-.035.001-.068-.004-.103-.003-11.49.296-20.501 10.03-20.501 21.524v95.004c0 5.691 4.612 10.303 10.302 10.303z"/><path d="m99.867 203.603c5.69 0 10.302-4.612 10.302-10.302v-152.181c-.064.001-.126-.006-.19-.004-11.523.344-20.408 10.396-20.414 21.923v130.262c0 5.69 4.612 10.302 10.302 10.302z"/></g><g><path d="m485.157 193.301v-97.645c-11.415.245-20.601 9.547-20.604 21.02v76.624c0 5.69 4.612 10.302 10.302 10.302 5.69.001 10.302-4.611 10.302-10.301z"/><path d="m432.738 203.603c5.69 0 10.302-4.612 10.302-10.302v-116.502c-11.414.246-20.6 9.546-20.604 21.019v95.483c0 5.69 4.613 10.302 10.302 10.302z"/><path d="m390.62 203.603c5.69 0 10.302-4.612 10.302-10.302v-152.161c-11.416.246-20.604 9.549-20.604 21.026v131.135c0 5.69 4.613 10.302 10.302 10.302z"/></g></g><path d="m499.036 388.684h-105.1l-10.24 6.87v67.477l9.403 7.862h105.936c7.16 0 12.964-5.804 12.964-12.964v-56.281c.001-7.16-5.803-12.964-12.963-12.964z" fill="#a5afe7"/><path d="m388.597 457.929v-56.281c0-7.16 5.804-12.964 12.964-12.964h-57.749c-7.16 0-12.964 5.804-12.964 12.964v56.281c0 7.16 5.804 12.964 12.964 12.964h57.749c-7.16 0-12.964-5.804-12.964-12.964z" fill="#8896e0"/><path d="m168.188 388.684h-105.604c-3.349 1.677-5.972 3.006-5.972 3.006l-2.06 6.954v63.357l2.06 4.378 6.338 4.514h105.239c7.16 0 12.964-5.804 12.964-12.964v-56.281c-.001-7.16-5.805-12.964-12.965-12.964z" fill="#a5afe7"/><path d="m57.749 457.929v-56.281c0-7.16 5.804-12.964 12.964-12.964h-57.749c-7.16 0-12.964 5.804-12.964 12.964v56.281c0 7.16 5.804 12.964 12.964 12.964h57.749c-7.16 0-12.964-5.804-12.964-12.964z" fill="#8896e0"/></g></svg>