<svg id="Capa_1" enable-background="new 0 0 512 512" height="512" viewBox="0 0 512 512" width="512" xmlns="http://www.w3.org/2000/svg"><g><path d="m419.865 20.821-13.921 11.499-60.411 63.578 41.84 36.909 12.531 5.905c39.507-45.605 38.673-86.156 26.369-113.134z" fill="#ffb640"/><path d="m121.322 8.861c-1.358-2.616-3.378-4.586-5.708-5.88l-8.024 8.831-1.534 58.14s17.592 27.098 32.851 50.389l50.785-39.486v-9.906c-18.482-11.328-54.814-35.978-68.37-62.088z" fill="#ffb640"/><path d="m349.612 99.496c23.561-16.88 50.654-39.988 63.141-64.04 2.887-5.561 8.018-8.952 13.519-9.879-3.569-7.826-8.101-14.514-12.896-19.847-6.522-7.252-18.204-5.526-22.698 3.13-13.556 26.11-49.888 50.76-68.37 62.087l3.848 7.856z" fill="#ffa90f"/><path d="m141.832 116.446c-39.668-45.791-38.667-86.488-26.219-113.465-5.381-2.988-12.439-2.311-16.99 2.75-21.327 23.718-37.496 74.147 13.472 132.981l9.019-4.538 26.622-20.699z" fill="#ffa90f"/><path d="m490.632 490.795c-5.484-34.281-22.533-63.707-32.324-92.08-9.523-27.598-30.959-48.54-44.949-59.915l-24.618 3.774-54.345 13.767-35.376 24.096h-78.586l-68.044-37.863-37.939-3.783h-15.798c-13.99 11.373-35.434 32.319-44.96 59.924-9.791 28.373-26.84 57.799-32.324 92.08-1.679 10.493 6.396 20.012 17.022 20.012h18.541l21.156-9.375h355.301l21.68 9.375h18.541c10.626 0 18.7-9.519 17.022-20.012z" fill="#ffb640"/><path d="m204.836 376.271-27.108 22.445-31.546 39.573-32.245 60.582 9.014 11.938h332.117c-14.438-52.435-56.917-112.362-113.291-145.04l-21.738.002-47.168 19.126h-52.439z" fill="#fef0db"/><g><path d="m213.426 381.02-27.582-15.252h-15.625c-56.372 32.679-98.85 92.605-113.287 145.038h66.02c12.415-45.09 45.58-95.707 90.474-129.786z" fill="#fee6c1"/></g><path d="m436.263 204.717c-11.097-10.607-19.392-23.72-24.117-38.325-1.759-5.437-3.838-10.741-6.203-15.903l-13.615-11.776-46.342 7.938-45.429 22.046-34.35 59.541h-21.02l-39.99-73.896-62.276-12.047-6.238 8.195-41.202 104.338s12.263 30.706 10.575 34.152 22.535 28.138 23.675 28.02c1.139-.118 59.962 32.164 59.962 32.164l39.088 38.281 19.578 11.023c2.527.147 5.069.248 7.641.248 29.222 0 55.731-9.645 75.171-25.312 13.748-11.08 29.777-19.087 47.132-22.341 46.973-8.809 84.415-43.268 84.415-87.518 0-22.508-9.977-43.078-26.455-58.828z" fill="#fee6c1"/><path d="m208.469 353.056c-13.129-18.267-50.152-39.847-79.883-55.167-19.987-10.299-27.684-34.949-17.128-54.801 9.371-17.623 19.555-42.468 26.822-75.759 1.877-8.598 4.719-16.704 8.292-24.329l-22.892-4.428-17.623 11.917c-2.365 5.162-4.444 10.467-6.203 15.903-4.725 14.605-13.02 27.719-24.117 38.326-16.478 15.75-26.455 36.319-26.455 58.826 0 44.779 37.828 78.625 84.16 87.45 17.419 3.318 33.55 11.247 47.351 22.38 19.443 15.684 45.967 25.342 75.207 25.342.579 0 1.15-.028 1.727-.036-19.6-9.205-31.701-21.197-49.258-45.624z" fill="#fccc80"/><path d="m256 57.758c-6.677 0-13.255.392-19.722 1.124l-46.586 21.973-51.662 67.864c11.72 1.176 25.068 4.368 39.916 10.748 39.943 17.163 54.592 56.987 59.961 83.043l4.716 3.089h27.856l3.613-3.089c5.369-26.056 20.018-65.88 59.961-83.043 30.814-13.24 55.187-12.776 71.89-8.979-24.986-54.538-82.71-92.73-149.943-92.73z" fill="#ffc365"/><path d="m143.777 149.439c18.828-47.184 66.103-77.01 92.501-90.557-58.649 6.638-107.716 42.484-130.222 91.606 9.942-2.26 22.603-3.338 37.721-1.049z" fill="#ffb640"/><path d="m256 305.343s-3.8 21.277-21.088 27.711l.772 9.733c.46 5.798 5.299 10.269 11.116 10.269h18.4c5.816 0 10.656-4.471 11.116-10.269l.772-9.732c-17.288-6.435-21.088-27.712-21.088-27.712z" fill="#fef0db"/><path d="m323.255 301.572c-4.069-1.144-8.311 1.234-9.48 5.3-.238.83-6.075 20.321-26.121 20.321-18.013 0-23.14-18.961-23.965-22.636v-22.727c0-4.247-3.443-7.69-7.69-7.69s-7.69 3.443-7.69 7.69v22.759c-.801 3.702-5.785 22.604-23.964 22.604-19.998 0-25.855-19.399-26.12-20.315-1.141-4.074-5.361-6.463-9.445-5.34-4.095 1.126-6.502 5.36-5.375 9.455 3.005 10.923 15.428 31.581 40.94 31.581 15.344 0 25.475-8.194 31.655-17.458 6.18 9.264 16.311 17.458 31.655 17.458 25.511 0 37.935-20.658 40.939-31.581 1.122-4.079-1.267-8.276-5.339-9.421z" fill="#ffc365"/><path d="m506.058 266.097c-70.383-16.45-142.699 4.208-145.742 5.096-4.076 1.189-6.417 5.455-5.23 9.532 1.189 4.083 5.461 6.418 9.532 5.235.707-.206 71.579-20.395 137.94-4.886 4.135.965 8.272-1.603 9.239-5.738.966-4.136-1.603-8.272-5.739-9.239z" fill="#fccc80"/><path d="m480.359 326.282c-56.804-25.004-115.324-26.063-117.788-26.096-4.261-.033-7.735 3.341-7.792 7.587-.057 4.247 3.34 7.736 7.587 7.793.572.008 57.827 1.037 111.797 24.793 3.89 1.712 8.427-.055 10.137-3.94 1.71-3.888-.054-8.427-3.941-10.137z" fill="#fccc80"/><path d="m151.684 271.193c-3.044-.888-75.357-21.545-145.742-5.096-4.136.967-6.705 5.103-5.738 9.239.966 4.136 5.1 6.707 9.239 5.738 66.361-15.51 137.232 4.68 137.94 4.886 4.085 1.188 8.346-1.162 9.532-5.232 1.188-4.077-1.153-8.346-5.231-9.535z" fill="#ffc365"/><path d="m149.429 300.186c-2.463.033-60.984 1.092-117.788 26.096-3.887 1.711-5.652 6.249-3.94 10.137 1.711 3.889 6.251 5.651 10.137 3.94 53.849-23.703 111.227-24.785 111.8-24.793 4.245-.059 7.64-3.547 7.584-7.793-.057-4.247-3.509-7.625-7.793-7.587z" fill="#ffc365"/><path d="m263.477 241.893c-3.928 1.927-7.478 3.706-7.478 3.706l-6.455 11.792 6.456 19.995 10.207 6.921 7.576 1.658c10.628-7.511 17.783-20.418 17.783-29.711.001-12.057-12.037-14.047-28.089-14.361z" fill="#da7e4a"/><path d="m256 256.255c0-9.294 7.156-12.603 17.783-13.778-5.233-.578-11.303-.641-17.783-.641-19.643 0-35.567.55-35.567 14.419s15.924 35.805 35.567 35.805c6.48 0 12.551-2.396 17.783-6.094-10.627-7.511-17.783-20.418-17.783-29.711z" fill="#cb6c35"/><g><g><g><path d="m168.241 247.696c-4.143 0-7.5-3.358-7.5-7.5v-29.672c0-4.142 3.357-7.5 7.5-7.5s7.5 3.358 7.5 7.5v29.672c0 4.142-3.357 7.5-7.5 7.5z" fill="#544e55"/></g><g><path d="m343.759 247.696c-4.143 0-7.5-3.358-7.5-7.5v-29.672c0-4.142 3.357-7.5 7.5-7.5s7.5 3.358 7.5 7.5v29.672c0 4.142-3.358 7.5-7.5 7.5z" fill="#544e55"/></g></g></g></g></svg>