<svg id="Capa_1" enable-background="new 0 0 512 512" height="512" viewBox="0 0 512 512" width="512" xmlns="http://www.w3.org/2000/svg"><g><path d="m509.241 340.924c-12.531-26.169-41.374-13.799-43.796-12.893l-120.732 35.719c-.735.217-1.435-.431-1.26-1.178 1.344-5.727 3.916-24.542-17.463-33.074-68.231-27.238-78.181-32.527-94.961-33.079l-31.106 7.143-88.711 58.206-7.211 16.475 54.085 44.821 16.994 6.611c14.114-3.82 30.062-2.105 44.767 3.764l56.375 22.506c9.924 3.421 32.722 8.746 56.38-3.379.012-.005.02-.009.02-.009 31.46-13.916 125.871-55.677 158.501-70.111 4.799-2.462 28.931-16.94 18.118-41.522z" fill="#ffcebe"/><g><path d="m120.422 385.682c-1.641-1.321-2.867-3.086-3.533-5.085-1.247-3.745-.398-7.881 2.245-10.811 23.113-25.613 51.217-46.38 82.84-60.532 15.261-6.831 25.114-9.99 40.4-11.48-4.485-.96-8.406-1.322-12.934-1.394l-.002-.002c-55.041.184-65.013.633-92.366 12.876-33.583 15.029-63.198 37.519-87.08 65.351l3.014 9.053 84.476 67.992s7.183.913 8.152-.489l.969-1.401c7.337-10.607 17.336-17.071 28.477-20.086z" fill="#ffb1a0"/></g><path d="m358.688 368.011 3.572-9.452-17.547 5.191c-.31.092-.609.024-.843-.135-.742 2.276-5.018 13.207-17.915 10.05-20.917-5.124-78.984-18.361-79.568-18.494-4.16-.95-8.302 1.656-9.25 5.817-.948 4.16 1.656 8.302 5.816 9.25.583.133 58.529 13.342 79.325 18.436 3.018.739 5.833 1.073 8.454 1.073 16.595 0 25.371-13.37 27.956-21.736z" fill="#ffb1a0"/><path d="m417.926 124.957c-6.491-4.231-13.31-7.612-20.335-10.147h-16.738l-47.159 53.366v38.705l12.474 37.037 14.339 10.922c7.165-1.45 14.625-.133 21.251 3.958 19.206 11.856 52.722 20.936 80.642-31.65 23.74-44.715-10.455-80.018-44.474-102.191z" fill="#ff636e"/><path d="m347.667 234.527c-27.572-51.931 10.445-93.2 49.923-119.718-10.151-3.664-20.737-5.548-31.42-5.548-18.078 0-35.886 5.352-51.756 15.695-34.019 22.173-68.214 57.476-44.473 102.19 27.929 52.601 61.456 43.501 80.659 31.639 3.154-1.948 6.498-3.257 9.907-3.946-4.354-5.7-8.65-12.421-12.84-20.312z" fill="#ff4654"/><path d="m150.287 454.888-62.762-50.238c-4.883.71-10.08 1.416-10.08 1.416l-33.539 43.611 3.323 13.219 54.447 44.986c7.894 6.522 19.638 5.139 25.81-3.031 14.512-19.209 25.014-33.109 25.134-33.268 3.771-5.304 2.747-12.628-2.333-16.695z" fill="#dbedff"/><path d="m52.095 445.191 25.522-33.531c2.992-3.969 7.802-5.727 12.377-5.033l-44.818-35.877c-5.402-4.324-13.308-3.332-17.473 2.193l-24.029 31.57c-5.846 7.681-4.586 18.608 2.855 24.756l43.748 36.147c-3.221-6.344-2.756-14.217 1.818-20.225z" fill="#b5dcff"/><g fill="#ff636e"><path d="m272.161 88.524c-1.175-10.342-6.106-19.1-12.817-24.323l-12.962 3.104s-7.539 21.977-5.423 27.128.056 20.148 1.773 20.376 18.844 3.894 18.846 3.894c7.608-6.329 11.995-17.749 10.583-30.179z"/><path d="m351.373 36.938c-1.677-14.768-9.468-26.963-19.708-32.949s-13.728 3.565-14.759 5.282c-1.03 1.717-8.928 19.917-9.615 26.442-.687 6.524 1.748 18.823 3.277 23.319 1.53 4.496 6.338 9.647 6.338 9.647l17.76 8.542c11.62-7.124 18.679-22.919 16.707-40.283z"/><path d="m428.834 3.989s-15.384 2.878-15.58 3.908-8.931 25.453-11.26 31.785-.084 9.359 2.742 19.349c2.827 9.99 6.997 13.768 8.518 15.828s12.579 2.36 12.579 2.36c10.24-5.985 18.031-18.181 19.708-32.949 1.971-17.362-5.088-33.158-16.707-40.281z"/><path d="m501.155 64.201-11.52 3.104-15.796 28.431s11.19 19.532 12.12 19.073c.929-.459 12.962 3.894 12.962 3.894 6.71-5.223 11.642-13.981 12.817-24.323 1.411-12.429-2.976-23.849-10.583-30.179z"/></g><path d="m314.959 44.272c-1.972-17.364 5.087-33.16 16.706-40.282-5.245-3.066-11.131-4.507-17.171-3.821-17.831 2.025-30.23 21.771-27.694 44.103s19.047 38.795 36.879 36.769c3.967-.45 7.663-1.783 10.988-3.821-10.24-5.985-18.031-18.181-19.708-32.948z" fill="#ff4654"/><path d="m248.762 94.38c-1.412-12.43 2.975-23.849 10.582-30.179-4.859-3.782-10.649-5.715-16.629-5.035-14.238 1.617-24.137 17.383-22.112 35.214s15.209 30.975 29.446 29.358c4.313-.49 8.224-2.284 11.53-5.035-6.711-5.223-11.643-13.981-12.817-24.323z" fill="#ff4654"/><path d="m409.126 36.938c1.677-14.768 9.468-26.963 19.708-32.949-3.325-2.038-7.02-3.37-10.988-3.821-17.831-2.025-34.343 14.437-36.879 36.769s9.863 42.078 27.694 44.103c6.04.686 11.926-.755 17.171-3.821-11.619-7.122-18.678-22.917-16.706-40.281z" fill="#ff4654"/><path d="m488.338 88.524c1.175-10.342 6.106-19.1 12.817-24.323-3.306-2.751-7.217-4.546-11.53-5.035-14.237-1.617-27.421 11.527-29.446 29.358s7.875 33.597 22.112 35.214c5.98.679 11.77-1.253 16.629-5.035-7.607-6.33-11.994-17.749-10.582-30.179z" fill="#ff4654"/></g></svg>