<svg id="Capa_1" enable-background="new 0 0 512 512" height="512" viewBox="0 0 512 512" width="512" xmlns="http://www.w3.org/2000/svg"><g><path d="m472.223 81.145c-53.036-53.037-139.026-53.037-192.063 0l-12.687 12.687c-6.337 6.336-16.609 6.336-22.945 0l-12.687-12.687c-17.575-17.575-38.77-29.32-61.184-35.247h-25.233l-57.907 26.422s-21.634 65.075-25.755 84.936 1.03 64.674 0 73.173 47.389 50.305 51.509 61.338c4.121 11.033 150.455 144.562 150.455 144.562l24.362 21.014 184.134-184.134c53.038-53.037 53.038-139.027.001-192.064z" fill="#ff636e"/><g><path d="m109.473 273.208c-53.036-53.036-53.036-139.026 0-192.063 17.575-17.575 38.77-29.32 61.184-35.247-45.226-11.96-95.418-.215-130.88 35.247-53.036 53.037-53.036 139.027 0 192.063l184.134 184.134c17.722 17.722 46.455 17.722 64.177 0l2.759-2.759z" fill="#ff4654"/></g><path d="m291.19 265.139c-4.277-2.542-8.77-4.573-13.399-6.097h-11.029l-31.074 32.064v23.255l8.219 22.253 9.448 6.562c4.721-.871 9.636-.08 14.003 2.378 12.655 7.124 34.74 12.579 53.136-19.017 15.643-26.864-6.888-48.076-29.304-61.398z" fill="#ffdda8"/><path d="m244.895 330.973c-18.167-31.202 6.883-55.998 32.895-71.931-6.689-2.202-13.664-3.333-20.703-3.333-11.912 0-23.646 3.215-34.103 9.43-22.416 13.322-44.947 34.534-29.304 61.399 18.403 31.605 40.494 26.137 53.147 19.01 2.078-1.17 4.281-1.957 6.528-2.371-2.869-3.425-5.699-7.463-8.46-12.204z" fill="#ffd086"/><g fill="#ffdda8"><path d="m348.994 209.867h-5.131s-10.414 17.901-10.616 19.446c-.201 1.545 4.321 15.109 4.035 17.342-.287 2.232 10.021 4.337 10.021 4.337 5.008-3.983 8.678-10.573 9.56-18.338 1.063-9.351-2.193-17.952-7.869-22.787z"/><path d="m301.262 164.095s-6.677 1.517-7.192 1.517-13.708 19.402-13.379 21.977c.33 2.575-.251 16.311 2.186 21.806 2.437 5.494 7.971 9.443 7.971 9.443l8.158.676c7.688-4.584 13.522-13.794 14.786-24.924 1.488-13.108-3.801-25.037-12.53-30.495z"/><path d="m249.432 189.02c-1.264-11.13-7.098-20.34-14.786-24.925h-8.567s-10.302 16.112-10.473 21.091c-.172 4.979 4.292 20.604 5.151 22.836.858 2.232 4.807 4.121 5.666 6.181.858 2.06 10.48 5.311 10.48 5.311 8.728-5.456 14.018-17.386 12.529-30.494z"/><path d="m186.914 209.867-5.134 1.761s-4.121 6.073-6.181 11.02c-2.06 4.948-2.404 9.583-1.373 13.189 1.03 3.606 2.747 6.525 3.777 8.413 1.03 1.889 10.602 6.74 10.602 6.74 5.676-4.835 8.932-13.436 7.87-22.786-.883-7.764-4.554-14.354-9.561-18.337z"/></g><path d="m286.476 189.02c1.264-11.13 7.098-20.34 14.786-24.924-2.567-1.605-5.429-2.656-8.507-3.006-13.545-1.538-26.086 10.966-28.013 27.93s7.492 31.962 21.036 33.501c4.658.529 9.197-.603 13.227-3.006-8.729-5.457-14.018-17.387-12.529-30.495z" fill="#ffd086"/><path d="m339.434 228.205c.882-7.766 4.553-14.356 9.56-18.338-2.546-2.169-5.578-3.582-8.927-3.962-10.815-1.228-20.829 8.756-22.367 22.301s5.981 25.52 16.796 26.749c4.614.524 9.08-.998 12.807-3.962-5.675-4.837-8.931-13.438-7.869-22.788z" fill="#ffd086"/><path d="m222.116 194.591c-1.489-13.109 3.8-25.038 12.53-30.495-4.03-2.403-8.569-3.535-13.227-3.006-13.545 1.538-22.963 16.537-21.036 33.501s14.468 29.468 28.013 27.93c3.078-.35 5.94-1.401 8.507-3.006-7.689-4.584-13.523-13.794-14.787-24.924z" fill="#ffd086"/><path d="m179.044 232.653c-1.062-9.35 2.194-17.951 7.87-22.786-3.727-2.964-8.192-4.486-12.807-3.962-10.815 1.228-18.335 13.204-16.796 26.749s11.552 23.529 22.367 22.301c3.349-.38 6.381-1.793 8.927-3.962-5.008-3.985-8.679-10.575-9.561-18.34z" fill="#ffd086"/></g></svg>