<svg id="Capa_1" enable-background="new 0 0 511.999 511.999" height="512" viewBox="0 0 511.999 511.999" width="512" xmlns="http://www.w3.org/2000/svg"><g><path d="m411.121 212.753-17.904-15.237-37.043-22.835-11.402-5.147c-31.401-5.534-64.913 3.821-89.169 28.079l-9.45 9.45c-4.72 4.719-12.371 4.719-17.09 0l-9.45-9.45c-11.012-11.012-23.933-18.951-37.696-23.823h-27.727l-49.199 46.708s-11.832 48.445-8.453 66.154 26.721 47.166 28.75 51.225 112.317 116.866 112.317 116.866l33.831 13.138 127.217-127.217c34.781-34.779 38.932-88.582 12.468-127.911z" fill="#ff636e"/><g><path d="m144.221 340.664c-39.503-39.502-39.503-103.549 0-143.051 11.012-11.012 23.933-18.951 37.697-23.823-35.608-12.606-76.865-4.667-105.355 23.823-39.503 39.502-39.503 103.549 0 143.051l137.145 137.146c13.199 13.2 34.6 13.2 47.8 0l9.929-9.929z" fill="#ff4654"/></g><g><path d="m202.162 394.879c-.348 0-.699-.025-1.049-.073-4.861-.681-6.107-4.092-8.59-10.887-1.324-3.623-3.167-8.912-5.478-15.721-3.872-11.401-9.128-27.271-15.624-47.165-6.103-18.69-12.179-37.505-16.415-50.665l-22.505 45.009c-1.289 2.578-3.925 4.207-6.808 4.207h-118.081c-4.204 0-7.612-3.407-7.612-7.612 0-4.204 3.408-7.612 7.612-7.612h113.378l28.748-57.496c1.384-2.769 4.309-4.44 7.393-4.184 3.086.238 5.721 2.321 6.664 5.269 11.598 36.244 28.853 89.465 38.322 117.298 5.745-16.363 13.914-40.023 19.73-56.979 1.055-3.075 3.948-5.142 7.2-5.142h50.288c2.922 0 5.586 1.673 6.856 4.304l17.943 37.198 37.284-89.272c1.155-2.764 3.823-4.594 6.818-4.675 3.003-.069 5.759 1.602 7.06 4.299l23.839 49.379h88.468c4.204 0 7.612 3.407 7.612 7.612 0 4.204-3.408 7.612-7.612 7.612h-93.246c-2.921 0-5.585-1.672-6.854-4.302l-18.559-38.442-37.287 89.279c-1.155 2.764-3.824 4.595-6.819 4.675-2.98.094-5.759-1.603-7.06-4.301l-23.222-48.142h-40.073c-24.214 70.528-25.292 72.145-25.943 73.12-1.427 2.14-3.847 3.409-6.378 3.409z" fill="#dbedff"/></g><path d="m454.095 120.111c-4.555-2.971-9.341-5.345-14.272-7.125h-11.747l-33.097 37.472v27.177l8.755 26.006 10.063 7.669c5.028-1.018 10.264-.094 14.915 2.779 13.479 8.325 37.001 14.701 56.596-22.224 16.661-31.396-7.337-56.185-31.213-71.754z" fill="#ffdda8"/><path d="m404.786 197.048c-19.35-36.464 7.331-65.442 35.037-84.062-7.124-2.573-14.554-3.896-22.051-3.896-12.687 0-25.185 3.758-36.324 11.021-23.875 15.569-47.874 40.358-31.212 71.755 19.601 36.935 43.131 30.545 56.608 22.216 2.213-1.368 4.56-2.287 6.953-2.771-3.056-4.003-6.071-8.722-9.011-14.263z" fill="#ffd086"/><g fill="#ffdda8"><path d="m359.913 86.418c-.868-7.647-4.663-14.06-9.762-17.637l-5.456 1.847s-8.473 9.303-7.04 12.855-3.294 3.89 0 10.487 3.007 5.92 4.165 8.288 9.946 5.907 9.946 5.907c5.78-4.304 9.182-12.639 8.147-21.747z"/><path d="m410.431 50.213c-1.218-10.724-7.029-19.516-14.585-23.546l-10.919 1.505s-7.104 12.009-7.273 19.79-1.522 12.68 1.861 17.757 7.043 9.137 8.258 10.659c1.214 1.522 10.201 2.528 10.202 2.528 8.586-4.772 13.881-16.147 12.456-28.693z"/><g><path d="m450.242 24.346c-1.923-.139-3.818.025-5.656.462 2.087.238 4.116.263 5.656-.462z"/><path d="m457.974 26.667s-14.015 1.167-14.015 2.689-6.766 15.561-6.427 20.297c.338 4.736 1.703 8.62 3.896 16.066 2.193 7.445 4.392 8.122 4.73 8.799s9.688 4.389 9.688 4.389c7.556-4.03 13.367-12.823 14.585-23.546 1.424-12.547-3.87-23.923-12.457-28.694z"/></g><path d="m503.668 68.78s-5.414 1.678-5.583 2.185-5.074 7.273-5.413 10.318c-.338 3.045-2.297 5.751-1.825 10.656s3.248 9.472 2.875 10.487 8.331 5.738 8.331 5.738c5.098-3.577 8.893-9.99 9.761-17.637 1.035-9.108-2.367-17.444-8.146-21.747z"/></g><path d="m383.39 55.36c-1.425-12.546 3.87-23.922 12.457-28.693-3.487-1.86-7.346-2.708-11.297-2.259-12.514 1.421-21.216 15.279-19.436 30.952s13.368 27.227 25.882 25.805c2.497-.283 4.839-1.069 6.979-2.259-7.557-4.03-13.368-12.822-14.585-23.546z" fill="#ffd086"/><path d="m342.005 90.527c-1.034-9.108 2.367-17.444 8.146-21.747-3.245-2.277-7.017-3.409-10.904-2.967-9.992 1.135-16.94 12.2-15.519 24.714s10.674 21.739 20.666 20.604c2.72-.309 5.211-1.358 7.372-2.967-5.097-3.577-8.892-9.99-9.761-17.637z" fill="#ffd086"/><path d="m443.389 50.213c1.218-10.724 7.028-19.516 14.585-23.546-2.141-1.19-4.482-1.975-6.979-2.259-12.514-1.421-24.102 10.132-25.882 25.805s6.922 29.531 19.436 30.952c3.952.449 7.81-.399 11.298-2.259-8.588-4.771-13.883-16.147-12.458-28.693z" fill="#ffd086"/><path d="m493.907 86.418c.868-7.647 4.663-14.06 9.761-17.637-2.161-1.609-4.653-2.658-7.372-2.967-9.992-1.135-19.244 8.09-20.666 20.604-1.421 12.514 5.527 23.579 15.519 24.714 3.887.441 7.659-.69 10.904-2.967-5.779-4.304-9.181-12.639-8.146-21.747z" fill="#ffd086"/></g></svg>