<svg id="Capa_1" enable-background="new 0 0 497 497" viewBox="0 0 497 497" xmlns="http://www.w3.org/2000/svg"><g><path d="m413.5 0h-30v497h30c16.569 0 30-13.431 30-30v-437c0-16.569-13.431-30-30-30z" fill="#dfdde9"/><path d="m413.5 37.5-30 211 30 211v7.5c0 16.569-13.431 30-30 30h-300c-16.569 0-30-13.431-30-30v-437c0-16.569 13.431-30 30-30h300c16.569 0 30 13.431 30 30z" fill="#f2f2f2"/><path d="m413.5 180v-142.5c0-4.142-3.358-7.5-7.5-7.5h-30l-37.5 195z" fill="#8b7ee2"/><path d="m376 30h-285c-4.142 0-7.5 3.358-7.5 7.5v142.5l300 45v-82.5l-15-37.5 15-37.5v-30c0-4.142-3.358-7.5-7.5-7.5z" fill="#a096e1"/><path d="m383.5 180-30 143.5 22.5 143.5h30c4.142 0 7.5-3.358 7.5-7.5v-279.5z" fill="#a096e1"/><path d="m83.5 180v279.5c0 4.142 3.358 7.5 7.5 7.5h285c4.142 0 7.5-3.358 7.5-7.5v-279.5z" fill="#b5addf"/><path d="m293.5 324.5 22.5 82.5h30c4.142 0 7.5-3.358 7.5-7.5v-75z" fill="#7666e3"/><path d="m143.5 324.5v75c0 4.142 3.358 7.5 7.5 7.5h165c4.142 0 7.5-3.358 7.5-7.5v-75z" fill="#6b80ea"/><path d="m346 150h30c4.142 0 7.5-3.358 7.5-7.5v-22.5l-60-30z" fill="#4c4a49"/><path d="m113.5 120v22.5c0 4.142 3.358 7.5 7.5 7.5h225c4.142 0 7.5-3.358 7.5-7.5v-52.5z" fill="#625f5e"/><path d="m346 60-7.5 30 15 30h30v-52.5c0-4.142-3.358-7.5-7.5-7.5z" fill="#7666e3"/><path d="m346 60h-225c-4.142 0-7.5 3.358-7.5 7.5v52.5h240v-52.5c0-4.142-3.358-7.5-7.5-7.5z" fill="#6b80ea"/><circle cx="247.406" cy="240" fill="#f2f2f2" r="30"/><path d="m316 300-7.5 23.5 15 23.5h7.5c12.426 0 22.5-10.074 22.5-22.5v-17c0-4.142-3.358-7.5-7.5-7.5z" fill="#8b7ee2"/><path d="m143.5 307.5v17c0 12.426 10.074 22.5 22.5 22.5h157.5v-39.5c0-4.142-3.358-7.5-7.5-7.5h-165c-4.142 0-7.5 3.358-7.5 7.5z" fill="#a096e1"/><circle cx="247.406" cy="240" fill="#625f5e" r="7.5"/></g><g/><g/><g/><g/><g/><g/><g/><g/><g/><g/><g/><g/><g/><g/><g/></svg>