<svg id="Capa_1" enable-background="new 0 0 512 512" height="512" viewBox="0 0 512 512" width="512" xmlns="http://www.w3.org/2000/svg"><g><path d="m417.301 502v-492c0-5.523-4.477-10-10-10h-302.602c-5.523 0-10 4.477-10 10v492c0 5.523 4.477 10 10 10h302.602c5.523 0 10-4.477 10-10z" fill="#ddebfd"/><path d="m417.301 502v-492c0-5.523-4.477-10-10-10h-17.057v512h17.057c5.523 0 10-4.477 10-10z" fill="#bed9fd"/><path d="m311.629 83.252c-3.04 0-5.637-2.271-5.956-5.294-2.643-25.099-23.874-44.657-49.673-44.657s-47.03 19.558-49.674 44.657c-.319 3.024-2.915 5.294-5.956 5.294h-62.37c-5.523 0-10 4.477-10 10v169.398c0 5.523 4.477 10 10 10h236c5.523 0 10-4.477 10-10v-169.398c0-5.523-4.477-10-10-10z" fill="#4172ca"/><path d="m457.252 495.35h-39.951v-478.7h39.951c5.523 0 10 4.477 10 10v458.7c0 5.522-4.477 10-10 10z" fill="#7398d4"/><path d="m94.699 495.35h-39.951c-5.523 0-10-4.477-10-10v-458.7c0-5.523 4.477-10 10-10h39.951z" fill="#7398d4"/><circle cx="256" cy="83.252" fill="#91dafa" r="16.65"/><path d="m161.301 229.35v-86.146c0-5.523 4.477-10 10-10h169.398c5.523 0 10 4.477 10 10v86.146c0 5.523-4.477 10-10 10h-169.398c-5.523 0-10-4.478-10-10z" fill="#91dafa"/><path d="m323.642 239.35v-106.147h17.057c5.523 0 10 4.477 10 10v86.146c0 5.523-4.477 10-10 10h-17.057z" fill="#75cff9"/><path d="m374 339.252h-29.951c-5.523 0-10-4.477-10-10v-13.301c0-5.523 4.477-10 10-10h29.951c5.523 0 10 4.477 10 10v13.301c0 5.523-4.477 10-10 10z" fill="#e175a5"/><path d="m138 339.252h29.951c5.523 0 10-4.477 10-10v-13.301c0-5.523-4.477-10-10-10h-29.951c-5.523 0-10 4.477-10 10v13.301c0 5.523 4.477 10 10 10z" fill="#e9a761"/><path d="m270.976 339.252h-29.951c-5.523 0-10-4.477-10-10v-13.301c0-5.523 4.477-10 10-10h29.951c5.523 0 10 4.477 10 10v13.301c0 5.523-4.478 10-10 10z" fill="#b7e546"/><g><g><g><path d="m213.09 409.191h-6c-4.143 0-7.5-3.358-7.5-7.5s3.357-7.5 7.5-7.5h6c4.143 0 7.5 3.358 7.5 7.5s-3.358 7.5-7.5 7.5z" fill="#4172ca"/></g><g><path d="m261.364 409.191h-10.728c-4.143 0-7.5-3.358-7.5-7.5s3.357-7.5 7.5-7.5h10.728c4.143 0 7.5 3.358 7.5 7.5s-3.357 7.5-7.5 7.5z" fill="#4172ca"/></g><g><path d="m304.91 409.191h-6c-4.143 0-7.5-3.358-7.5-7.5s3.357-7.5 7.5-7.5h6c4.143 0 7.5 3.358 7.5 7.5s-3.357 7.5-7.5 7.5z" fill="#4172ca"/></g></g><g><g><path d="m304.91 475.792h-6c-4.143 0-7.5-3.358-7.5-7.5s3.357-7.5 7.5-7.5h6c4.143 0 7.5 3.358 7.5 7.5s-3.357 7.5-7.5 7.5z" fill="#4172ca"/></g><g><path d="m261.363 475.792h-10.728c-4.143 0-7.5-3.358-7.5-7.5s3.357-7.5 7.5-7.5h10.728c4.143 0 7.5 3.358 7.5 7.5s-3.357 7.5-7.5 7.5z" fill="#4172ca"/></g><g><path d="m213.09 475.792h-6c-4.143 0-7.5-3.358-7.5-7.5s3.357-7.5 7.5-7.5h6c4.143 0 7.5 3.358 7.5 7.5s-3.358 7.5-7.5 7.5z" fill="#4172ca"/></g></g><g><g><path d="m191.235 442.492h-6c-4.143 0-7.5-3.358-7.5-7.5s3.357-7.5 7.5-7.5h6c4.143 0 7.5 3.358 7.5 7.5s-3.357 7.5-7.5 7.5z" fill="#4172ca"/></g><g><path d="m284.496 442.492h-10.362c-4.143 0-7.5-3.358-7.5-7.5s3.357-7.5 7.5-7.5h10.362c4.143 0 7.5 3.358 7.5 7.5s-3.357 7.5-7.5 7.5zm-46.63 0h-10.362c-4.143 0-7.5-3.358-7.5-7.5s3.357-7.5 7.5-7.5h10.362c4.143 0 7.5 3.358 7.5 7.5s-3.357 7.5-7.5 7.5z" fill="#4172ca"/></g><g><path d="m326.765 442.492h-6c-4.143 0-7.5-3.358-7.5-7.5s3.357-7.5 7.5-7.5h6c4.143 0 7.5 3.358 7.5 7.5s-3.358 7.5-7.5 7.5z" fill="#4172ca"/></g></g></g></g></svg>