<svg id="Capa_1" enable-background="new 0 0 512 512" height="512" viewBox="0 0 512 512" width="512" xmlns="http://www.w3.org/2000/svg"><g><path d="m461.19 256.689c-6.779-1.292-12.73-5.539-16.185-11.512-4.074-7.041-11.07-12.066-19.097-13.63-6.874-1.339-12.849-5.692-16.404-11.726-4.089-6.941-11.03-11.889-18.985-13.438-3.101-.604-6.015-1.826-8.611-3.534l-8.736 3.195-20.745-11.699-4.972-16.076c-3.565-2.123-6.589-5.141-8.729-8.776-4.089-6.942-11.031-11.89-18.986-13.439-6.926-1.35-12.816-5.851-16.411-11.922-4.242-7.162-11.474-11.781-19.315-13.227l-6.915 4.717-16.576 12.912-18.268 5.413-19.959 18.944-20.974 8.457-11.502 17.253-22.327 10.487-13.193 14.546s-16.915 5.413-18.268 7.442c-1.353 2.03-13.443 16.045-13.443 16.045s-30.823 14.063-31.187 14.739c-.363.677-7.806 17.929-8.482 20.297-.397 1.389 4.441 11.694 8.58 19.959h379.61l11.071-7.365c1.261-3.13 1.972-6.535 1.994-10.111.084-14.162-10.122-25.499-22.985-27.951z" fill="#fff1af"/><path d="m401.984 7.612h-54.529v29.963l3.263 4.491h72.227v-13.493c0-11.577-9.385-20.961-20.961-20.961z" fill="#ff636e"/><path d="m86.984 472.278-5.745 5.558v26.257c0 4.367 3.54 7.907 7.907 7.907h20.113c4.367 0 7.907-3.54 7.907-7.907v-26.257l-5.831-5.558z" fill="#4d66d2"/><path d="m426.96 472.278h-26.38l-5.745 5.558v26.257c0 4.367 3.54 7.907 7.907 7.907h20.113c4.367 0 7.907-3.54 7.907-7.907v-26.257z" fill="#6b7ed9"/><path d="m92.21 284.658c-.094-14.165 10.107-25.513 22.976-27.968 6.785-1.295 12.736-5.548 16.199-11.525 4.074-7.034 11.066-12.054 19.088-13.617 6.875-1.339 12.85-5.693 16.405-11.727 4.089-6.939 11.029-11.887 18.983-13.437 6.875-1.34 12.851-5.693 16.407-11.728 4.089-6.94 11.029-11.886 18.982-13.436 6.876-1.34 12.852-5.693 16.407-11.729 4.089-6.939 11.03-11.887 18.983-13.436 6.928-1.35 12.817-5.854 16.416-11.927 3.475-5.863 8.955-10.027 15.132-12.136-6.968-2.378-14.823-2.141-21.687 1.221-6.603 3.233-14.398 3.236-21 0-12.954-6.349-29.43-1.563-36.827 10.915-3.599 6.072-9.489 10.576-16.416 11.927-7.953 1.55-14.894 6.497-18.983 13.436-3.556 6.035-9.532 10.389-16.407 11.729-7.953 1.55-14.893 6.497-18.982 13.436-3.556 6.035-9.532 10.389-16.407 11.728-7.954 1.55-14.894 6.497-18.983 13.437-3.555 6.034-9.531 10.388-16.405 11.727-8.022 1.563-15.014 6.583-19.088 13.617-3.463 5.977-9.414 10.23-16.199 11.525-12.869 2.455-23.07 13.803-22.976 27.968.024 3.57.735 6.97 1.994 10.095l12.502 7.365h64.382l-12.502-7.365c-1.259-3.126-1.97-6.525-1.994-10.095z" fill="#ffeb7e"/><g><path d="m347.455 135.622h34.453v117.444h-34.453z" fill="#ff4654"/></g><path d="m389.191 247.122h-15.551c-7.237 5.086-15.438 10.68-15.438 10.68s0 26.188 0 44.316h40.68l10.099-7.365v-27.841c0-10.93-8.86-19.79-19.79-19.79z" fill="#ff7f87"/><path d="m364.682 266.912c0-10.93 8.86-19.79 19.79-19.79h-44.299c-10.93 0-19.79 8.86-19.79 19.79v27.841l8.804 7.365h44.299l-8.804-7.365z" fill="#ff636e"/><path d="m371.679 7.612h-44.299c-11.576 0-20.961 9.385-20.961 20.961v13.492h44.299v-13.492c0-11.577 9.385-20.961 20.961-20.961z" fill="#ff4654"/><g><path d="m382.917 143.234h-36.472c-4.242 0-8.23-1.652-11.23-4.652l-28.039-28.039c-5.397-5.396-8.369-12.572-8.369-20.204v-61.766c0-15.755 12.818-28.573 28.573-28.573h74.603c15.755 0 28.573 12.818 28.573 28.573v61.766c0 7.632-2.972 14.808-8.369 20.204l-28.039 28.039c-3 3-6.989 4.652-11.231 4.652zm-55.537-128.011c-7.361 0-13.35 5.989-13.35 13.35v61.766c0 3.566 1.389 6.918 3.91 9.439l28.039 28.039c.123.124.293.194.466.194h36.472c.173 0 .343-.07.467-.194l28.039-28.039c2.521-2.52 3.91-5.873 3.91-9.439v-61.766c0-7.361-5.989-13.35-13.35-13.35z" fill="#ff7f87"/></g><path d="m463.158 355.568h-388.753l21.706 115.357 13.522 6.911h336.612c11.952 0 22.152-8.642 24.114-20.432l14.559-87.483z" fill="#8896e0"/><path d="m98.474 457.404-14.559-87.483 22.007-14.354h-56.833l-22.007 14.354 14.559 87.483c1.962 11.79 12.162 20.432 24.114 20.432h56.833c-11.953 0-22.152-8.642-24.114-20.432z" fill="#6b7ed9"/><path d="m477.432 322.415h-409.265l8.939 47.507h407.812l6.531-39.242z" fill="#6b7ed9"/><path d="m91.401 322.415h-56.833l-14.017 8.265 6.531 39.242h56.833l-6.531-39.242z" fill="#4d66d2"/><path d="m500.287 294.753h-436.725l-5.001 4.151v26.556l5.872 5.22h435.853c4.367 0 7.907-3.54 7.907-7.907v-20.113c.001-4.367-3.539-7.907-7.906-7.907z" fill="#dbedff"/><path d="m60.639 322.773v-20.113c0-4.367 3.54-7.907 7.907-7.907h-56.833c-4.367 0-7.907 3.54-7.907 7.907v20.112c0 4.367 3.54 7.907 7.907 7.907h56.833c-4.367.001-7.907-3.539-7.907-7.906z" fill="#b5dcff"/></g></svg>