<svg id="Capa_1" enable-background="new 0 0 512 512" height="512" viewBox="0 0 512 512" width="512" xmlns="http://www.w3.org/2000/svg"><g><path d="m205.732 291.363h-10.995l-37.306 37.307v6.731l18.168 18.42 7.733.751 37.307-37.308v-9.678z" fill="#8bcaff"/><path d="m333.347.003c-.439 0-.875.013-1.314.017-80.479 19.593-140.229 92.127-140.229 178.637s59.75 159.044 140.229 178.637c.438.003.874.017 1.314.017 98.668 0 178.653-79.986 178.653-178.653s-79.986-178.655-178.653-178.655z" fill="#dbedff"/><path d="m196.414 178.656c0-91.61 68.956-167.101 157.793-177.434-6.844-.796-13.802-1.219-20.86-1.219-98.667 0-178.653 79.986-178.653 178.653s79.986 178.653 178.653 178.653c7.058 0 14.016-.423 20.86-1.219-88.837-10.333-157.793-85.824-157.793-177.434z" fill="#b5dcff"/><path d="m336.293 35.091c-63.035 17.322-109.35 75.027-109.35 143.565s46.315 126.243 109.35 143.565c77.949-1.57 140.656-65.241 140.656-143.565s-62.707-141.995-140.656-143.565z" fill="#8896e0"/><path d="m231.464 178.656c0-72.224 53.321-131.985 122.742-142.089-6.811-.991-13.774-1.513-20.86-1.513-79.309 0-143.602 64.293-143.602 143.603s64.293 143.603 143.602 143.603c7.086 0 14.049-.522 20.86-1.513-69.421-10.105-122.742-69.867-122.742-142.091z" fill="#6b7ed9"/><path d="m53.436 451.917-29.374 29.064-7.284 18.736 6.344 11.288c10.254 2.658 21.605-.022 29.637-8.053l21.97-21.97-.861-8.564z" fill="#ff7f87"/><path d="m31.254 481.659 25.956-25.956-18.369-18.43h-7.818l-21.97 21.971c-12.07 12.069-12.07 31.638 0 43.707 4.037 4.038 8.916 6.717 14.07 8.053-2.533-10.176.175-21.39 8.131-29.345z" fill="#ff636e"/><path d="m179.204 348.278h-6.868-14.156l-28.3 28 22.795 23.251 5.504-2.002 16.453-16.453c7.956-7.956 10.665-19.169 8.132-29.346z" fill="#ff7f87"/><path d="m133.224 379.688 19.905-19.906c8.031-8.032 19.383-10.711 29.637-8.053-1.309-5.262-4.018-10.248-8.132-14.361-12.068-12.07-31.638-12.07-43.707 0l-16.453 16.453-.43 6.305z" fill="#ff636e"/><path d="m49.53 455.781 25.199 25.2 83.452-83.452-24.756-24.757z" fill="#ff636e"/><path d="m24.893 390.927h118.019v31.549h-118.019z" fill="#ff4654" transform="matrix(.707 -.707 .707 .707 -263.004 178.444)"/><path d="m364.826 183.85c-3.948-2.346-8.095-4.22-12.368-5.626h-10.181l-28.683 29.586v21.458l7.587 20.533 8.721 6.055c4.358-.804 8.895-.074 12.926 2.194 11.681 6.573 32.067 11.607 49.049-17.547 14.439-24.789-6.359-44.361-27.051-56.653z" fill="#dbedff"/><path d="m322.093 244.595c-16.77-28.79 6.353-51.67 30.365-66.371-6.174-2.031-12.613-3.076-19.111-3.076-10.995 0-21.827 2.967-31.48 8.701-20.692 12.293-41.489 31.865-27.05 56.654 16.987 29.162 37.379 24.117 49.059 17.54 1.918-1.08 3.952-1.805 6.026-2.188-2.648-3.159-5.261-6.885-7.809-11.26z" fill="#b5dcff"/><g fill="#dbedff"><path d="m420.417 140.097h-6.587l-8.355 18.211s-2.174 10.202 0 11.748c2.174 1.545 13.482 6.464 13.482 6.464 4.152-3.726 7.152-9.471 7.911-16.159.927-8.166-1.727-15.695-6.451-20.264z"/><path d="m375.067 97.634-6.308 1.596s-10.84 14.938-11.086 18.028c-.246 3.091-3.36 14.228 0 18.317s4.5 7.18 5.475 8.983 9.87 3.119 9.87 3.119c6.659-4.393 11.65-12.607 12.768-22.451 1.325-11.67-3.169-22.33-10.719-27.592z"/><path d="m326.184 120.085c-1.118-9.844-6.11-18.058-12.768-22.451h-9.87s-6.368 8.807-5.475 14.473-3.211 18.864 0 23.468 3.876 6.922 5.475 8.21 11.918 3.891 11.918 3.891c7.551-5.261 12.045-15.92 10.72-27.591z"/><path d="m275.977 156.255c-.759-6.688-3.759-12.433-7.911-16.159l-4.901 2.917s-8.148 10.302-8.581 11.59.691 7.726 0 9.529 3.205 5.151 3.318 6.954c.112 1.803 11.624 5.434 11.624 5.434 4.724-4.57 7.378-12.098 6.451-20.265z"/></g><path d="m302.697 125.227c-1.325-11.671 3.169-22.331 10.719-27.593-3.933-2.595-8.447-3.858-13.09-3.331-12.503 1.42-21.196 15.265-19.418 30.924s13.355 27.201 25.858 25.781c3.184-.362 6.119-1.533 8.699-3.331-6.659-4.392-11.65-12.606-12.768-22.45z" fill="#b5dcff"/><path d="m261.615 160.361c-.928-8.166 1.726-15.695 6.451-20.264-3.61-3.24-8.092-4.954-12.736-4.426-9.983 1.134-16.924 12.188-15.504 24.691s10.664 21.719 20.646 20.585c3.462-.393 6.545-2 9.053-4.426-4.151-3.727-7.151-9.472-7.91-16.16z" fill="#b5dcff"/><path d="m362.299 120.085c1.118-9.844 6.109-18.058 12.768-22.451-2.58-1.798-5.515-2.969-8.699-3.331-12.503-1.42-24.079 10.123-25.858 25.781-1.778 15.659 6.915 29.504 19.418 30.923 4.643.527 9.157-.736 13.09-3.331-7.551-5.261-12.045-15.92-10.719-27.591z" fill="#b5dcff"/><path d="m412.506 156.255c.76-6.687 3.759-12.432 7.911-16.159-2.509-2.426-5.591-4.033-9.053-4.426-9.982-1.134-19.226 8.082-20.646 20.585s5.522 23.557 15.504 24.691c4.643.527 9.125-1.186 12.736-4.426-4.726-4.57-7.38-12.098-6.452-20.265z" fill="#b5dcff"/></g></svg>