<svg id="Capa_1" enable-background="new 0 0 512 512" height="512" viewBox="0 0 512 512" width="512" xmlns="http://www.w3.org/2000/svg"><g><path d="m235.19.088h-74.376l-9.22 4.033-6.436 10.298v23.944h102.988l7.451-5.308v-12.56c0-11.27-9.137-20.407-20.407-20.407z" fill="#1ca8ff"/><path d="m317.79 206.511-35.16-24.175c-19.351-13.305-30.912-35.283-30.912-58.767v-18.355l-6.666-6.091h-105.754v58.701l-46.03 28.998-39.422 31.652v247.785l8.582 21.283 23.512 20.94s7.07 1.586 15.107 3.429h181.972c33.896 0 61.373-27.478 61.373-61.374v-193.452c-.001-20.21-9.95-39.124-26.602-50.574z" fill="#dbedff"/><path d="m414.716 108.649h-23.016l1.991 38.705s5.149 9.955 6.351 11.671c.66.943 4.586 3.083 7.99 4.819 9.111-4.311 15.415-13.584 15.415-24.332v-24.567z" fill="#60b9fe"/><path d="m396.359 139.512v-24.567l5.436-6.296h-26.727l-5.436 6.296v24.567c0 14.86 12.047 26.907 26.907 26.907 4.866 0 9.425-1.298 13.364-3.557-8.09-4.64-13.544-13.355-13.544-23.35z" fill="#1ca8ff"/><path d="m147.317 20.495c0-11.27 9.136-20.406 20.406-20.406h-58.523c-11.27 0-20.406 9.136-20.406 20.406v12.561l6.04 5.308h58.523l-6.04-5.308z" fill="#0094fd"/><path d="m58.523 450.538v-193.453c0-20.209 9.949-39.123 26.602-50.573l35.16-24.175c19.351-13.305 30.912-35.283 30.912-58.767v-18.355l7.576-6.091h-58.523l-7.576 6.091v18.355c0 23.484-11.561 45.462-30.912 58.767l-35.16 24.175c-16.653 11.449-26.602 30.363-26.602 50.573v193.453c0 33.896 27.478 61.374 61.373 61.374h58.523c-33.895 0-61.373-27.478-61.373-61.374z" fill="#b5dcff"/><path d="m263.411 33.056h-129.86l-5.292 2.561-6.788 8.754v50.347l4.119 6.122 8.648 4.375h129.172c9.149 0 16.566-7.417 16.566-16.567v-39.026c.002-9.149-7.415-16.566-16.565-16.566z" fill="#60b9fe"/><path d="m122.936 88.648v-39.026c0-9.15 7.417-16.567 16.566-16.567h-58.522c-9.15 0-16.566 7.417-16.566 16.567v39.026c0 9.15 7.417 16.567 16.566 16.567h58.523c-9.15-.001-16.567-7.418-16.567-16.567z" fill="#1ca8ff"/><path d="m408.965 66.514-9.954 5.49-8.067 21.97 1.079 20.971h31.422v-24.567c.001-10.376-5.876-19.375-14.48-23.864z" fill="#ffe02f"/><path d="m409.903 67.028c-3.938-2.259-8.498-3.557-13.364-3.557-14.86 0-26.907 12.046-26.907 26.907v24.567h26.727v-24.567c0-9.995 5.454-18.71 13.544-23.35z" fill="#fbc700"/><g><path d="m264.881 142.732h-185.37c-4.266 0-7.724-3.458-7.724-7.724s3.458-7.724 7.724-7.724h185.37c4.266 0 7.724 3.458 7.724 7.724-.001 4.267-3.459 7.724-7.724 7.724z" fill="#b5dcff"/></g><g><path d="m96.245 82.522c-4.266 0-7.724-3.458-7.724-7.724v-11.328c0-4.266 3.458-7.724 7.724-7.724s7.724 3.458 7.724 7.724v11.328c0 4.267-3.458 7.724-7.724 7.724z" fill="#0094fd"/></g><g><path d="m126.626 82.522c-4.266 0-7.724-3.458-7.724-7.724v-11.328c0-4.266 3.458-7.724 7.724-7.724s7.724 3.458 7.724 7.724v11.328c-.001 4.267-3.459 7.724-7.724 7.724z" fill="#0094fd"/></g><g><path d="m157.006 82.522c-4.266 0-7.724-3.458-7.724-7.724v-11.328c0-4.266 3.458-7.724 7.724-7.724s7.724 3.458 7.724 7.724v11.328c-.001 4.267-3.459 7.724-7.724 7.724z" fill="#0094fd"/></g><g><path d="m187.386 82.522c-4.266 0-7.724-3.458-7.724-7.724v-11.328c0-4.266 3.458-7.724 7.724-7.724s7.724 3.458 7.724 7.724v11.328c-.001 4.267-3.459 7.724-7.724 7.724z" fill="#0094fd"/></g><g><path d="m217.766 82.522c-4.266 0-7.724-3.458-7.724-7.724v-11.328c0-4.266 3.458-7.724 7.724-7.724s7.724 3.458 7.724 7.724v11.328c0 4.267-3.459 7.724-7.724 7.724z" fill="#0094fd"/></g><g><path d="m248.146 82.522c-4.266 0-7.724-3.458-7.724-7.724v-11.328c0-4.266 3.458-7.724 7.724-7.724s7.724 3.458 7.724 7.724v11.328c0 4.267-3.458 7.724-7.724 7.724z" fill="#0094fd"/></g><path d="m263.616 237.306h-138.693l-13.674 7.539-9.291 13.242v192.038l6.125 12.015 18.054 11.341h137.478c18.522 0 33.537-15.015 33.537-33.537v-169.1c.001-18.523-15.014-33.538-33.536-33.538z" fill="#ff636e"/><path d="m105.761 439.944v-169.1c0-18.522 15.016-33.537 33.537-33.537h-58.523c-18.522 0-33.537 15.015-33.537 33.537v169.1c0 18.522 15.015 33.537 33.537 33.537h58.523c-18.522 0-33.537-15.015-33.537-33.537z" fill="#ff4654"/><path d="m201.285 352.772c-3.158-1.877-6.455-3.427-9.845-4.654h-6.376l-32.507 27.773v19.309l9.851 17.765 8.77 6.109c3.341-.194 6.719.569 9.779 2.292 10.795 6.076 29.633 10.73 45.325-16.221 13.343-22.916-5.876-41.009-24.997-52.373z" fill="#ffe02f"/><path d="m164.018 408.746c-15.279-26.241 5.556-47.133 27.422-60.629-6.184-2.239-12.682-3.39-19.244-3.39-10.161 0-20.17 2.743-29.09 8.044-19.121 11.364-38.339 29.457-24.996 52.373 15.697 26.959 34.541 22.295 45.334 16.215 2.436-1.372 5.073-2.132 7.733-2.286-2.427-2.898-4.822-6.315-7.159-10.327z" fill="#fbc700"/><path d="m119.516 344.03c-.708-6.23-3.527-11.558-7.412-14.999h-3.634l-5.657 14.162 3.211 13.517 3.991 4.763 3.47 1.35c4.409-4.216 6.892-11.206 6.031-18.793z" fill="#ffe02f"/><path d="m106.072 347.824c-.862-7.587 1.621-14.577 6.031-18.793-3.32-2.94-7.416-4.506-11.667-4.024-9.225 1.048-15.639 11.263-14.327 22.816s9.854 20.07 19.079 19.022c3.167-.36 5.99-1.819 8.296-4.024-3.884-3.438-6.704-8.767-7.412-14.997z" fill="#fbc700"/><path d="m165.804 310.606c-1.038-9.141-5.692-16.76-11.891-20.804h-2.577l-7.638 11.341-1.631 16.563s3.347 9.869 3.519 10.127c.172.257 3.69 5.578 3.69 5.578l6.542 2.751c7.027-4.843 11.216-14.73 9.986-25.556z" fill="#ffe02f"/><path d="m143.929 315.358c-1.229-10.827 2.959-20.713 9.985-25.556-3.613-2.357-7.75-3.503-12.004-3.02-11.553 1.312-19.587 14.106-17.944 28.576s12.342 25.136 23.895 23.824c2.909-.33 5.594-1.39 7.959-3.02-6.199-4.044-10.853-11.663-11.891-20.804z" fill="#fbc700"/><path d="m210.44 289.802h-3.493l-9.612 12.886v20.768l5.321 11.671 5.878 1.035c6.198-4.044 10.852-11.663 11.891-20.804 1.23-10.827-2.958-20.714-9.985-25.556z" fill="#ffe02f"/><path d="m198.55 310.606c1.038-9.141 5.692-16.76 11.891-20.804-2.364-1.63-5.05-2.689-7.959-3.02-11.553-1.312-22.252 9.354-23.895 23.824s6.39 27.264 17.944 28.576c4.255.483 8.391-.663 12.005-3.02-7.027-4.843-11.216-14.73-9.986-25.556z" fill="#fbc700"/><path d="m252.251 329.032h-2.694l-7.978 13.004 1.413 14.418 3.733 5.02 4.145 1.35c3.885-3.44 6.705-8.769 7.412-14.999.861-7.587-1.622-14.577-6.031-18.793z" fill="#ffe02f"/><path d="m244.838 344.03c.708-6.23 3.527-11.558 7.412-14.999-2.306-2.204-5.129-3.664-8.296-4.024-9.225-1.048-17.767 7.469-19.079 19.022s5.102 21.769 14.327 22.816c4.251.483 8.347-1.083 11.667-4.024-4.409-4.214-6.892-11.204-6.031-18.791z" fill="#fbc700"/><path d="m476.126 156.885-16.275 16.275 28.776 25.96s10.68 3.398 12.743 3.762c1.134.2 5.423-1.063 9.057-2.242 3.394-9.49 1.295-20.505-6.305-28.105l-17.372-17.372z" fill="#60b9fe"/><path d="m484.969 191.689-17.372-17.372-.608-8.295-18.899 18.899.608 8.295 17.372 17.372c10.508 10.508 27.544 10.508 38.052 0 3.44-3.44 5.747-7.583 6.934-11.965-9.001 2.439-19.02.133-26.087-6.934z" fill="#1ca8ff"/><path d="m442.265 131.157-3.156 10.921 9.831 21.239 15.591 14.066 22.219-22.219-17.372-17.372c-7.336-7.337-17.855-9.544-27.113-6.635z" fill="#ffe02f"/><path d="m443.291 130.858c-4.382 1.188-8.524 3.494-11.965 6.934-10.508 10.508-10.508 27.544 0 38.052l17.372 17.372 18.899-18.899-17.372-17.372c-7.067-7.067-9.373-17.086-6.934-26.087z" fill="#fbc700"/><path d="m446.456 261.312-16.275-16.275-25.96 28.776s-3.398 10.68-3.762 12.743c-.2 1.134 1.063 5.423 2.242 9.057 9.49 3.394 20.505 1.295 28.105-6.305l17.372-17.372z" fill="#60b9fe"/><path d="m411.652 270.155 17.372-17.372 8.295-.608-18.899-18.899-8.295.608-17.372 17.372c-10.508 10.508-10.508 27.544 0 38.052 3.44 3.44 7.583 5.747 11.965 6.934-2.44-9.001-.134-19.02 6.934-26.087z" fill="#1ca8ff"/><path d="m472.183 227.452-10.921-3.156-21.239 9.831-14.066 15.591 22.219 22.219 17.372-17.372c7.337-7.337 9.544-17.855 6.635-27.113z" fill="#ffe02f"/><path d="m472.483 228.478c-1.188-4.382-3.494-8.524-6.934-11.965-10.508-10.508-27.544-10.508-38.052 0l-17.372 17.372 18.899 18.899 17.372-17.372c7.066-7.068 17.085-9.374 26.087-6.934z" fill="#fbc700"/><path d="m446.456 380.437-16.275-16.275-25.96 28.776s-3.398 10.68-3.762 12.743c-.2 1.134 1.063 5.423 2.242 9.057 9.49 3.394 20.505 1.295 28.105-6.305l17.372-17.372z" fill="#60b9fe"/><path d="m411.652 389.28 17.372-17.372 8.295-.608-18.899-18.899-8.295.608-17.372 17.372c-10.508 10.508-10.508 27.544 0 38.052 3.44 3.44 7.583 5.747 11.965 6.934-2.44-9.001-.134-19.02 6.934-26.087z" fill="#1ca8ff"/><path d="m472.183 346.576-10.921-3.156-21.239 9.831-14.066 15.591 22.219 22.219 17.372-17.372c7.337-7.336 9.544-17.855 6.635-27.113z" fill="#ffe02f"/><path d="m472.483 347.602c-1.188-4.382-3.494-8.524-6.934-11.965-10.508-10.508-27.544-10.508-38.052 0l-17.372 17.372 18.899 18.899 17.372-17.372c7.066-7.067 17.085-9.373 26.087-6.934z" fill="#fbc700"/></g></svg>