<svg id="Capa_1" enable-background="new 0 0 512 512" height="512" viewBox="0 0 512 512" width="512" xmlns="http://www.w3.org/2000/svg"><g><path d="m262.975 0h-178.59l-9.385 5.716-4.307 9.958v48.418h185.307l29.124-22.369v-19.573c.001-12.183-9.966-22.15-22.149-22.15z" fill="#6b7ed9"/><path d="m75 22.15c0-12.183 9.967-22.15 22.15-22.15h-52.57c-12.183 0-22.15 9.967-22.15 22.15v19.573l30.874 22.369h52.57l-30.874-22.369z" fill="#4d66d2"/><path d="m285.125 470.277-13.89-12.914h-200.542v39.919l4.307 7.726 12.933 6.992h175.043c12.183 0 22.15-9.967 22.15-22.15z" fill="#6b7ed9"/><path d="m75 489.85v-19.573l20.61-12.914h-52.57l-20.61 12.914v19.573c0 12.183 9.967 22.15 22.15 22.15h52.57c-12.183 0-22.15-9.967-22.15-22.15z" fill="#4d66d2"/><path d="m285.125 99.954v-58.231h-66.026c-4.599 0-8.698 2.62-10.944 6.633-3.395 6.067-9.878 10.194-17.291 10.194-16.606 0-59.139 0-74.173 0-7.412 0-13.896-4.126-17.291-10.194-2.246-4.013-6.345-6.633-10.944-6.633h-17.763v428.554h214.431v-94.155l-11.409-19.251v-246.764z" fill="#60b9fe"/><g><path d="m22.429 41.723v428.554h52.57v-428.554z" fill="#1ca8ff"/></g><path d="m460.505 99.954h-252.757l-15.494 8.779-3.434 14.862v232.723l24.141 21.978 40.76 3.434 3.777 12.706 6.898 2.653 15.613-17.33c2.756-3.059 6.68-4.805 10.797-4.805h169.699c16.052 0 29.065-13.013 29.065-29.065 0-6.855 0-211.402 0-216.869 0-16.053-13.012-29.066-29.065-29.066z" fill="#dbedff"/><path d="m264.397 389.486c0-8.026-6.506-14.533-14.532-14.533h-26.321c-16.052 0-29.065-13.013-29.065-29.065v-216.869c0-16.052 13.013-29.065 29.065-29.065h-52.57c-16.052 0-29.065 13.013-29.065 29.065v216.869c0 16.052 13.013 29.065 29.065 29.065h26.32c8.026 0 14.533 6.507 14.533 14.533v28.112c0 13.315 16.417 19.62 25.33 9.727l27.241-30.237v-7.602z" fill="#b5dcff"/><g fill="#ff636e"><ellipse cx="284.786" cy="187.089" rx="23.862" ry="29.885" transform="matrix(.994 -.113 .113 .994 -19.293 33.332)"/><ellipse cx="237.102" cy="224.429" rx="19.053" ry="23.862" transform="matrix(.994 -.113 .113 .994 -23.812 28.19)"/><ellipse cx="346.693" cy="187.089" rx="29.885" ry="23.862" transform="matrix(.113 -.994 .994 .113 121.676 510.455)"/><ellipse cx="394.377" cy="224.429" rx="23.862" ry="19.053" transform="matrix(.113 -.994 .994 .113 126.878 590.961)"/></g><path d="m281.092 189.782c-1.466-12.91 3.867-24.639 12.59-29.773-3.765-2.117-7.963-3.103-12.268-2.614-13.095 1.487-22.2 15.987-20.337 32.387s13.988 28.489 27.082 27.002c2.786-.316 5.389-1.227 7.747-2.614-7.687-4.323-13.564-13.381-14.814-24.388z" fill="#ff4654"/><path d="m238.186 226.579c-1.057-9.304 2.31-17.837 8.096-22.426-3.497-2.606-7.621-3.916-11.873-3.433-10.455 1.187-17.725 12.765-16.238 25.86s11.168 22.747 21.624 21.56c3.027-.344 5.784-1.563 8.142-3.433-5.102-3.802-8.868-10.359-9.751-18.128z" fill="#ff4654"/><path d="m342.999 184.396c1.25-11.008 7.126-20.066 14.813-24.387-2.358-1.388-4.961-2.298-7.747-2.615-13.095-1.487-25.219 10.602-27.082 27.002s7.243 30.9 20.337 32.387c4.305.489 8.503-.497 12.268-2.615-8.722-5.133-14.055-16.861-12.589-29.772z" fill="#ff4654"/><path d="m395.462 222.279c.882-7.769 4.649-14.326 9.75-18.126-2.358-1.87-5.115-3.089-8.142-3.433-10.455-1.187-20.137 8.465-21.624 21.56s5.783 24.672 16.238 25.86c4.252.483 8.376-.827 11.873-3.433-5.785-4.591-9.152-13.125-8.095-22.428z" fill="#ff4654"/><g><path d="m175.036 34.684h-42.517c-4.267 0-7.726-3.459-7.726-7.726s3.459-7.726 7.726-7.726h42.517c4.267 0 7.726 3.459 7.726 7.726s-3.459 7.726-7.726 7.726z" fill="#a5afe7"/></g><path d="m348.709 232.183c-4.135-2.457-8.479-4.42-12.954-5.892h-10.662l-30.041 30.986v22.474l7.946 21.505 9.134 6.342c4.564-.842 9.316-.077 13.538 2.298 12.234 6.884 33.585 12.156 51.37-18.377 15.123-25.963-6.66-46.462-28.331-59.336z" fill="#ff636e"/><path d="m303.953 295.804c-17.564-30.153 6.654-54.116 31.802-69.513-6.466-2.128-13.21-3.221-20.015-3.221-11.516 0-22.86 3.107-32.97 9.113-21.671 12.874-43.453 33.373-28.33 59.336 17.791 30.542 39.148 25.258 51.381 18.371 2.009-1.131 4.139-1.891 6.311-2.291-2.774-3.311-5.51-7.213-8.179-11.795z" fill="#ff4654"/></g></svg>