<svg id="Capa_1" enable-background="new 0 0 512 512" height="512" viewBox="0 0 512 512" width="512" xmlns="http://www.w3.org/2000/svg"><g><path d="m293.813 380.101h-42.495v77.264h46.358l5.198-4.601v-64.986z" fill="#b5dcff"/><path d="m257.202 387.778 8.71-7.677h-48.076l-8.71 7.677v64.986l11.028 4.601h48.076l-11.028-4.601z" fill="#8bcaff"/><path d="m478.639 19.745h-410.639c-7.204 2.86-13.105 5.198-13.105 5.198l-8.791 14.766v326.742l9.993 14.766 14.686 6.562h407.857c18.424 0 33.361-14.936 33.361-33.361v-301.312c-.001-18.424-14.937-33.361-33.362-33.361z" fill="#6b7ed9"/><path d="m48.076 354.418v-301.312c0-18.424 14.936-33.361 33.361-33.361h-48.076c-18.425 0-33.361 14.937-33.361 33.361v301.312c0 18.424 14.936 33.361 33.361 33.361h48.076c-18.425-.001-33.361-14.937-33.361-33.361z" fill="#4d66d2"/><path d="m471.342 50.651h-390.77c-2.923 2.97-5.417 5.713-5.417 5.713v293.776l6.827 6.733h389.36c5.386 0 9.752-4.366 9.752-9.752v-286.718c0-5.386-4.366-9.752-9.752-9.752z" fill="#60b9fe"/><path d="m78.981 347.121v-286.718c0-5.386 4.366-9.752 9.752-9.752h-48.076c-5.386 0-9.752 4.366-9.752 9.752v286.718c0 5.386 4.366 9.752 9.752 9.752h48.076c-5.386 0-9.752-4.367-9.752-9.752z" fill="#1ca8ff"/><path d="m300.426 196.005c-5.572-3.633-11.425-6.537-17.455-8.714h-14.367l-40.48 45.83v33.24l10.707 31.807 12.308 9.38c6.15-1.245 12.553-.115 18.242 3.399 16.486 10.182 45.255 17.98 69.22-27.181 20.377-38.401-8.974-68.719-38.175-87.761z" fill="#dbedff"/><path d="m240.118 290.103c-23.667-44.598 8.966-80.04 42.852-102.813-8.713-3.147-17.8-4.765-26.97-4.765-15.517 0-30.803 4.596-44.426 13.479-29.201 19.042-58.552 49.36-38.174 87.76 23.973 45.173 52.751 37.358 69.235 27.171 2.707-1.673 5.577-2.797 8.504-3.389-3.738-4.894-7.425-10.666-11.021-17.443z" fill="#b5dcff"/><path d="m283.987 240.889h-20.26v-20.261c0-4.267-3.459-7.726-7.726-7.726s-7.726 3.459-7.726 7.726v20.261h-20.261c-4.267 0-7.726 3.459-7.726 7.726s3.459 7.726 7.726 7.726h20.261v20.26c0 4.267 3.459 7.726 7.726 7.726s7.726-3.459 7.726-7.726v-20.26h20.26c4.267 0 7.726-3.459 7.726-7.726s-3.459-7.726-7.726-7.726z" fill="#8896e0"/><path d="m163.367 143.155h-8.2l-7.083 24.084 6.568 18.585 4.121 3.434 6.57 2.065c7.068-5.263 11.228-15.458 9.963-26.597-1.062-9.352-5.704-17.196-11.939-21.571z" fill="#dbedff"/><path d="m153.403 169.752c-1.265-11.14 2.895-21.335 9.963-26.597-3.969-2.785-8.583-4.169-13.336-3.629-12.221 1.388-20.719 14.921-18.98 30.226 1.738 15.306 13.054 26.588 25.275 25.2 3.326-.378 6.374-1.661 9.017-3.629-6.235-4.375-10.876-12.218-11.939-21.571z" fill="#b5dcff"/><path d="m243.298 120.446c-1.49-13.116-8.596-23.87-17.838-28.799h-8.654s-8.689 23.18-8.98 23.952c-.291.773.996 23.412 1.254 23.811s2.575 7.352 2.575 7.352l3.93 3.863 12.478 4.914c10.502-5.836 16.978-19.749 15.235-35.093z" fill="#dbedff"/><path d="m308.893 91.647h-7.353l-9.826 10.818-8.743 21.129s5.938 14.389 5.686 15.817c-.252 1.429 7.759 10.7 7.759 10.7l3.837 5.429h6.039c9.242-4.929 16.348-15.683 17.838-28.799 1.741-15.345-4.735-29.258-15.237-35.094z" fill="#dbedff"/><path d="m370.987 143.155h-8.666s-8.429 16.485-8.593 18.031c-.164 1.545-2.224 18.543-1.967 19.316.258.773 5.408 6.789 5.408 6.789l11.841 4.033c6.235-4.375 10.877-12.219 11.939-21.571 1.266-11.14-2.894-21.335-9.962-26.598z" fill="#dbedff"/><g fill="#b5dcff"><path d="m210.225 126.741c-1.742-15.344 4.733-29.257 15.236-35.094-4.265-2.275-8.984-3.312-13.818-2.763-15.306 1.738-25.949 18.687-23.772 37.856s16.35 33.3 31.655 31.562c3.054-.347 5.918-1.308 8.536-2.763-9.241-4.928-16.348-15.682-17.837-28.798z"/><path d="m291.055 120.446c1.49-13.116 8.596-23.87 17.838-28.799-2.618-1.455-5.482-2.416-8.536-2.763-15.306-1.738-29.478 12.392-31.655 31.562-2.177 19.169 8.466 36.118 23.771 37.857 4.834.549 9.552-.488 13.818-2.763-10.503-5.837-16.979-19.75-15.236-35.094z"/><path d="m359.048 164.726c1.062-9.352 5.704-17.196 11.939-21.571-2.643-1.968-5.691-3.251-9.017-3.629-12.221-1.388-23.537 9.895-25.275 25.2-1.738 15.306 6.759 28.839 18.98 30.227 4.754.54 9.367-.844 13.336-3.629-7.068-5.263-11.228-15.458-9.963-26.598z"/></g><path d="m341.752 452.764h-130.66l-7.936 4.601-2.833 8.499v17.513l4.893 5.151 4.384 3.727h132.151c8.156 0 14.768-6.612 14.768-14.768v-9.955c.001-8.156-6.611-14.768-14.767-14.768z" fill="#dbedff"/><path d="m203.556 477.487v-9.955c0-8.156 6.612-14.768 14.768-14.768h-48.076c-8.156 0-14.768 6.612-14.768 14.768v9.955c0 8.156 6.612 14.768 14.768 14.768h48.076c-8.156 0-14.768-6.612-14.768-14.768z" fill="#b5dcff"/></g></svg>