<svg id="Capa_1" enable-background="new 0 0 512 512" height="512" viewBox="0 0 512 512" width="512" xmlns="http://www.w3.org/2000/svg"><g><path d="m277.269 262.38 2.197 9.97 10.149 25.033 13.414 5.403c6.574-8.061 11.498-16.441 19.403-28.84 18.947-29.719 14.699-54.663 12.888-80.226-.455-6.419-8.832-8.543-12.292-3.117-3.821 5.992-22.98 36.045-45.759 71.777z" fill="#dbedff"/><path d="m277.269 262.38c-6.867 10.772-14.063 22.06-21.267 33.36l-1.23 5.365-14.716 25.879-5.521 2.429c-7.337 11.509-14.319 22.461-20.554 32.241l1.718 5.248 22.496 13.785 3.577-1.425c5.352-8.407 9.96-15.53 14.229-21.837v-5.747l17.376-22.266h4.091c4.57-5.103 9.542-10.165 15.399-15.728 3.987-3.787 7.237-7.311 10.161-10.898-8.56-13.427-17.165-26.925-25.759-40.406z" fill="#b5dcff"/><path d="m188.976 190.603c-3.459-5.426-11.836-3.301-12.292 3.117-1.812 25.563-6.059 50.507 12.888 80.226 11.422 17.916 16.615 27.44 29.564 39.738 21.015 19.958 30.655 33.473 51.095 65.578l4.669 1.425 22.242-16.069.88-2.964c-37.429-58.712-101.689-159.511-109.046-171.051z" fill="#dbedff"/><path d="m349.572 37.941-16.85-6.98 8.464-20.434c1.609-3.884-.236-8.336-4.119-9.945-3.882-1.612-8.336.236-9.945 4.119l-8.464 20.434-16.85-6.98c-3.886-1.612-8.336.236-9.945 4.119-1.609 3.884.236 8.336 4.119 9.945l16.851 6.98-18.333 44.26c-10.73-2.71-22-1.91-32.411 2.401-12.786 5.296-22.744 15.255-28.041 28.041s-5.296 26.869 0 39.655 15.255 22.743 28.041 28.04c6.393 2.648 13.11 3.972 19.827 3.972 6.718 0 13.435-1.324 19.828-3.972 12.786-5.296 22.744-15.254 28.04-28.04 9.944-24.005.435-51.294-21.224-64.262l18.337-44.27 16.85 6.98c.953.395 1.939.582 2.91.582 2.987 0 5.821-1.77 7.035-4.701 1.608-3.884-.236-8.336-4.12-9.944zm-33.853 109.79c-3.74 9.029-10.772 16.061-19.801 19.802-9.03 3.741-18.975 3.739-28.004 0-9.029-3.74-16.062-10.773-19.802-19.802-3.74-9.03-3.74-18.974 0-28.004 5.831-14.076 19.486-22.588 33.852-22.588 4.657 0 9.391.895 13.954 2.785 18.639 7.722 27.522 29.168 19.801 47.807z" fill="#60b9fe"/><path d="m278.674 113.901c-5.296-12.786-15.255-22.744-28.041-28.041-10.411-4.312-21.682-5.113-32.411-2.403l-24.834-59.953 19.068 9.504c3.762 1.873 8.333.345 10.207-3.417 1.875-3.762.345-8.333-3.417-10.208l-37.283-18.581c-1.972-.982-4.273-1.063-6.308-.219-2.035.842-3.606 2.526-4.305 4.615l-13.225 39.504c-1.334 3.986.815 8.299 4.801 9.634.802.269 1.616.395 2.417.395 3.183 0 6.151-2.013 7.217-5.197l6.763-20.203 24.838 59.963c-21.659 12.969-31.168 40.257-21.225 64.262 8.257 19.933 27.593 31.984 47.936 31.984 6.595 0 13.299-1.268 19.76-3.945 26.395-10.932 38.975-41.299 28.042-67.694zm-33.866 53.632c-18.64 7.72-40.085-1.162-47.806-19.802-7.721-18.639 1.163-40.085 19.802-47.807 4.564-1.89 9.296-2.785 13.954-2.785 14.364 0 28.022 8.512 33.852 22.588 7.72 18.639-1.163 40.084-19.802 47.806z" fill="#ff636e"/><path d="m321.159 376.029-1.437 2.205 21.312 40.257s4.262 2.108 8.841 4.53c3.101-5.459 7.582-10.229 13.312-13.721 6.073-3.7 12.895-5.6 19.831-5.6 3.028 0 6.078.363 9.095 1.095 9.928 2.41 18.322 8.543 23.638 17.268 5.315 8.724 6.916 18.998 4.504 28.926-2.41 9.928-8.543 18.323-17.268 23.638-4.292 2.615-8.901 4.271-13.579 5.049v4.443l24.357 11.502s6.858.392 13.194.913c26.483-21.297 34.123-59.535 16.791-89.551-19.73-34.17-63.59-45.234-97.097-24.82-.035.021-.069.042-.104.063-6.128 3.749-13.929 3.316-19.457-1.272z" fill="#ffe02f"/><path d="m236.709 373.715-16.623-10.128c-4.917-2.996-11.192-2.538-15.622 1.139l-19.554 16.228c-5.528 4.588-13.329 5.021-19.457 1.272-.035-.021-.069-.042-.104-.063-.771-.47-1.553-.905-2.335-1.342l-.005.005-22.241-.139-21.65 14.124-4.736 8.457 2.437 2.438c10.313-3.432 22.01-2.49 31.996 3.595 18.011 10.973 23.736 34.554 12.764 52.564-10.973 18.011-34.551 23.735-52.564 12.764-1.972-1.201-3.787-2.562-5.459-4.041v5.751s5.377 16.71 7.425 20.195 11.52 10.251 11.52 10.251 8.511 2.472 14.69 4.703c20.595-2.466 39.897-14.002 51.526-33.089l52.492-86.158c3.872-6.359 1.858-14.653-4.5-18.526z" fill="#ffe02f"/><g><path d="m135.399 508.997c-13.445-8.632-22.965-21.255-27.988-35.394-16.739-11.365-21.801-34.067-11.162-51.532 5.477-8.989 14.096-14.917 23.594-17.237 11.229-13.286 26.706-21.563 43.164-24.009-33.182-18.529-75.482-7.217-94.757 26.165-18.581 32.178-8.471 73.814 22.797 93.888 14.89 9.559 31.958 12.746 48.1 10.351-1.261-.705-2.514-1.44-3.748-2.232z" fill="#fbc700"/></g><g><path d="m391.405 479.289c-15.538 3.448-32.248-3.095-40.98-17.425-7.709-12.653-7.166-28.05.079-39.899l-26.598-43.657-16.366-13.582c-4.43-3.677-10.706-4.134-15.623-1.139l-16.623 10.128c-6.358 3.873-8.372 12.168-4.499 18.526l52.492 86.158c20.414 33.507 64.464 43.788 97.667 22.472 3.606-2.315 6.918-4.929 9.95-7.77-14.158-.479-27.988-5.257-39.499-13.812z" fill="#fbc700"/></g></g></svg>