<svg id="Capa_1" enable-background="new 0 0 512 512" height="512" viewBox="0 0 512 512" width="512" xmlns="http://www.w3.org/2000/svg"><g><g><path d="m126.96 195.115-1.483-7.597-17.608 16.541s-18.984 15.052-17.576 18.018c1.409 2.965 2.193 29.73 2.193 29.73s7.613 12.545 14.751 23.964l45.005-14.61v-36.035z" fill="#7b6c79"/></g><path d="m283.969 199.09c-5.986-6.999-9.516-18.722-10.484-28.656l-2.961-2.924h-24.374l-3.354 25.283-24.767 32.332v31.391l45.108 20.126 5.974-29.156 17.543-31.721 1.629-12.535c-1.581-1.272-3.032-2.641-4.314-4.14z" fill="#7b6c79"/><path d="m110.896 209.135c5.372-2.77 10.135-5.928 13.657-10.045.951-1.112 1.832-2.353 2.658-3.677l-.251-.299-5.934-30.391h-21.413l-4.838 5.71c-.967 9.934-4.498 21.657-10.484 28.656-3.522 4.117-8.285 7.276-13.657 10.045-16.504 8.51-21.29 56.087 11.002 70.68h13.139l17.936-5.823c-21.907-18.626-16.533-57.267-1.815-64.856z" fill="#665e68"/><path d="m204.335 2.185h-20.906l-46.666 32.978-13.931 36.634v43.084l7.798 14.533h143.382l3.958-4.272c0-18.41 0-30.256 0-31.303 0-44.89-31.519-82.413-73.635-91.654z" fill="#7b6c79"/><path d="m130.555 95.014c0-45.1 31.445-83.467 73.78-92.829-6.727-1.476-13.723-2.235-20.906-2.182-51.744.377-93.136 43.266-93.136 95.011v30.127l3.049 4.274h40.262l-3.048-4.274v-30.127z" fill="#665e68"/><path d="m226.822 256.875c-.005-.002-.009-.005-.013-.006-2.656-1.034-4.401-3.69-4.409-6.424 0-.002-.001-.004-.001-.006-.003-3.32-.004-4.571-.004-4.984 0-.005 0-.009 0-.013 0-.011 0-.017 0-.027 0-.007 0-.016 0-.023 0-.015 0-.033 0-.044 0-.013 0-.03 0-.045v.011c0-.01 0-.017 0-.023-.001-.835-.004-4.491-.015-18.038v-.001l-11.66-7.081h-29.77v100.129l3.627 2.981 65.325-57.468c-12.349-4.782-21.674-8.394-23.08-8.938z" fill="#ffb1a0"/><path d="m184.647 219.966h-33.208l-5.619 7.218v23.008c0 5.001-4.063 6.32-6.738 7.353s-7.713 2.99-18.722 7.258l-.968 4.694 65.185 53.58.07-.062z" fill="#ffa68e"/><path d="m346.249 392.217-36.795-15.823-25.81-34.021-15.712-56.03-64.35 56.03 106.223 97.114h45.388l5.765-5.35v-30.746z" fill="#6b7ed9"/><path d="m103.339 286.959-18.304-8.461c-3.629 1.407-7.199 2.791-10.629 4.121l-28.454 20.98-8.54 32.893v106.566h30.109v68.942h233.221v-50.616z" fill="#6b7ed9"/><path d="m40.276 346.296c0-29.215 18.877-50.912 34.13-63.677-16.5 6.397-29.675 11.505-29.675 11.505-20.475 8.427-37.429 31.575-37.429 58.056v81.958l7.003 8.922h25.971c0-35.698 0-74.489 0-96.764z" fill="#4d66d2"/><path d="m262.98 274.586-3.037-5.089c-4.242-1.643-8.317-3.221-12.065-4.672l-63.747 55.362v7.792l19.45 14.395h6.097l50.611-43.954 4.176-4.36z" fill="#b5dcff"/><path d="m37.412 505.732 2.864 6.268h27.246v-77.863h-30.11z" fill="#ffb1a0"/><path d="m40.276 434.137h-32.974v65.403c0 6.797 5.533 12.461 12.461 12.461h20.513c0-16.254 0-46.502 0-77.864z" fill="#ffa68e"/><path d="m300.742 434.137v77.863h47.755c6.882 0 12.461-5.579 12.461-12.461v-65.403h-60.216z" fill="#ffb1a0"/><path d="m85.035 278.498 215.708 187.334v-44.374l-180.383-156.655c-10.127 3.926-23.041 8.932-35.325 13.695z" fill="#dbedff"/><g fill="#4d66d2"><path d="m308.482 380.742c-5.541-4.15-10.719-8.758-15.479-13.768v145.026h15.479z"/><path d="m75.261 512v-154.695c0-4.274-3.465-7.74-7.74-7.74s-7.74 3.465-7.74 7.74v154.695z"/></g><g><path d="m138.156 387.06h-27.078c-4.274 0-7.74-3.465-7.74-7.74 0-4.274 3.465-7.74 7.74-7.74h27.078c4.274 0 7.74 3.465 7.74 7.74-.001 4.275-3.466 7.74-7.74 7.74z" fill="#ffe02f"/></g><path d="m411.41 163.315h-22.303l-45.266 35.927-28.551 45.75s-9.395 55.64-9.513 58.607 11.714 42.181 12.161 44.933c.448 2.752 35.878 34.742 36.566 36.462s45.236 15.651 45.236 15.651l11.668.985c53.561-13.185 93.289-61.528 93.289-119.158.001-57.629-39.727-105.972-93.287-119.157z" fill="#ff636e"/><path d="m318.121 282.473c0-57.63 39.728-105.973 93.288-119.158-9.429-2.321-19.284-3.561-29.43-3.561-67.776 0-122.719 54.943-122.719 122.719s54.943 122.719 122.719 122.719c10.146 0 20.001-1.24 29.43-3.561-53.56-13.185-93.288-61.528-93.288-119.158z" fill="#ff4654"/><path d="m411.236 279.816c-3.669-2.181-7.524-3.923-11.495-5.231h-9.462l-26.659 27.508v19.951l7.052 19.091 8.106 5.63c4.05-.747 8.267-.069 12.013 2.04 10.857 6.111 29.803 10.792 45.586-16.314 13.42-23.048-5.91-41.245-25.141-52.675z" fill="#ffdda8"/><path d="m371.52 336.296c-15.586-26.768 5.905-48.041 28.221-61.71-5.738-1.889-11.723-2.86-17.762-2.86-10.219 0-20.286 2.758-29.257 8.09-19.231 11.429-38.561 29.627-25.14 52.675 15.788 27.114 34.74 22.423 45.596 16.309 1.783-1.004 3.673-1.679 5.6-2.034-2.462-2.939-4.89-6.403-7.258-10.47z" fill="#ffd086"/><path d="m420.229 215.766-6.645 1.536-5.805 9.745-5.549 10.765s1.55 14.318 1.292 14.834 10.319 11.181 10.319 11.181h4.414c6.821-3.835 12.036-11.873 13.146-21.641 1.302-11.456-3.431-21.864-11.172-26.42z" fill="#ffdda8"/><path d="m407.083 237.407c1.11-9.768 6.324-17.806 13.146-21.641-2.092-1.231-4.402-2.039-6.875-2.32-11.62-1.32-22.38 9.408-24.033 23.962-1.653 14.553 6.427 27.421 18.047 28.74 3.821.434 7.546-.441 10.887-2.32-7.74-4.556-12.473-14.964-11.172-26.421z" fill="#ffd086"/><path d="m374.637 237.407c-1.11-9.768-6.324-17.806-13.146-21.641h-3.504l-9.288 9.405-2.451 17.93 4.386 9.933 5.998 8.256 6.831 2.539c7.742-4.557 12.475-14.965 11.174-26.422z" fill="#ffdda8"/><path d="m350.319 242.186c-1.301-11.457 3.431-21.864 11.172-26.421-3.341-1.879-7.066-2.754-10.887-2.32-11.62 1.32-19.7 14.187-18.047 28.741 1.653 14.553 12.413 25.281 24.033 23.961 2.473-.281 4.782-1.089 6.875-2.32-6.822-3.834-12.037-11.872-13.146-21.641z" fill="#ffd086"/><path d="m314.388 254.964-4.934 11.294v9.995l1.193 6.221 3.616 6.42 4.809 2.008c5.127-4.075 8.118-11.627 7.181-19.877-.783-6.891-4.132-12.687-8.656-16.061z" fill="#ffdda8"/><path d="m310.416 274.84c-.937-8.249 2.054-15.801 7.181-19.877-3.105-2.315-6.757-3.5-10.533-3.071-9.278 1.054-15.729 11.328-14.41 22.948 1.32 11.62 9.911 20.186 19.189 19.132 2.691-.306 5.134-1.406 7.229-3.071-4.524-3.374-7.873-9.17-8.656-16.061z" fill="#ffd086"/><path d="m464.123 254.964h-3.241l-6.377 12.302s-1.879 11.265-1.621 11.695 2.58 6.536 2.838 6.966 3.612 3.87 3.612 3.87l3.315 1.105c4.524-3.374 7.873-9.17 8.656-16.061.936-8.25-2.055-15.802-7.182-19.877z" fill="#ffdda8"/><path d="m455.467 271.025c.783-6.891 4.132-12.687 8.656-16.061-2.095-1.665-4.537-2.766-7.229-3.071-9.278-1.054-17.869 7.512-19.189 19.132s5.132 21.894 14.41 22.948c3.776.429 7.428-.756 10.533-3.071-5.127-4.076-8.118-11.628-7.181-19.877z" fill="#ffd086"/><path d="m79.916 141.712 14.279 8.514h25.197v-24.107l-3.32-3.468h-15.113c-8.993 0-16.839 4.888-21.043 12.149z" fill="#ffb1a0"/><path d="m100.959 146.946c-8.993 0-16.839-4.888-21.043-12.148-2.071 3.577-3.262 7.726-3.262 12.157 0 13.423 10.881 24.304 24.304 24.304h15.113l3.32-3.749v-24.313l-3.32 3.749z" fill="#ffa68e"/><path d="m277.97 150.225 7.91-7.224 2.463-8.204c-4.204-7.26-12.05-12.149-21.043-12.149h-15.113l-3.973 3.125v24.451h29.756z" fill="#ffb1a0"/><path d="m267.3 146.946h-15.122c-.01.373-3.964-5.727-3.964-5.727v24.313s3.954 6.099 3.964 5.727h15.122c13.423 0 24.305-10.882 24.305-24.304 0-4.43-1.191-8.58-3.262-12.157-4.203 7.26-12.05 12.148-21.043 12.148z" fill="#ffa68e"/><path d="m233.718 122.65c-2.132 0-2.293-.055-14.113-1.057-16.351-1.386-30.45-13.796-34.36-29.89-.125-.518-.579-.887-1.113-.887-.533 0-.987.369-1.113.887-3.301 13.616-13.827 24.432-26.685 28.41l-2.544 4.056v65.099l13.244 26.499 17.096 15.124 20.336 4.809c27.545-8.516 47.721-34.59 47.721-64.812v-48.238z" fill="#ffcebe"/><path d="m156.334 171.546v-51.434c-2.603.805-5.299 1.337-8.053 1.548.959-.073-12.094.989-14.415.989h-17.794v48.897c0 34.975 27.34 66.948 68.755 67.087 6.825.023 13.418-1.012 19.638-2.935-29.618-8.657-48.131-35.38-48.131-64.152z" fill="#ffb1a0"/></g></svg>