<svg id="Capa_1" enable-background="new 0 0 512 512" height="512" viewBox="0 0 512 512" width="512" xmlns="http://www.w3.org/2000/svg"><g><path d="m225.741 254.909c-2.632-1.018-4.385-3.55-4.393-6.392l-.019-22.591-4.778-4.952h-37.07v99.042l4.572 3.977 61.601-52.293 2.877-8.093c-10.196-3.892-18.595-7.097-22.79-8.698z" fill="#ffb1a0"/><path d="m183.092 220.974h-31.185l-6.612 4.85v22.653c0 2.368-.976 4.234-2.929 5.561-3.012 1.176-12.373 4.832-24.194 9.449l-.519 2.753 65.439 56.916z" fill="#ffa68e"/><path d="m302.829 435.768 8.049 4.139h43.427l6.075-6.075c0-10.278 0-20.791 0-30.759l-8.102-8.341-52.526-28.911-26.112-42.859-5.851-35.64-62.055 56.244 84.733 73.143z" fill="#6b7ed9"/><path d="m92.155 279.179-9.168-1.95c-8.019 3.132-15.645 6.11-21.998 8.592l-17.424 10.7-9.207 37.087v106.075c14.425-.141 32.125-.222 32.572.225.503.503.337 43.421.169 72.093h230.805v-51.695z" fill="#6b7ed9"/><path d="m60.989 285.821c-7.927 3.096-13.868 5.416-16.09 6.284-15.892 6.541-37.173 27.12-37.173 57.658v84.071l8.195 6.075s11.464-.173 23.523-.27c0-26.836 0-57.011 0-85.426 0-38.513 10.735-58.263 21.545-68.392z" fill="#4d66d2"/><path d="m262.864 272.141-2.762-4.119c-4.012-1.531-7.913-3.02-11.572-4.416l-65.114 56.541.637 6.078 19.191 16.071h5.676l51.288-44.535 3.817-4.845z" fill="#b5dcff"/><path d="m34.358 433.833v72.16l5.086 6.007h27.486v-78.167z" fill="#ffb1a0"/><path d="m39.444 433.833h-31.718v65.742c0 6.863 5.564 12.425 12.425 12.425h19.292c.001-14.909.001-44.236.001-78.167z" fill="#ffa68e"/><path d="m299.753 512h48.202c6.862 0 12.425-5.562 12.425-12.425 0-2.573 0-32.956 0-65.742h-60.627z" fill="#ffb1a0"/><path d="m118.172 263.487c-10.673 4.169-23.35 9.119-35.185 13.742l216.766 188.245v-44.298z" fill="#dbedff"/><g fill="#4d66d2"><path d="m74.656 512v-154.867c0-4.267-3.459-7.726-7.726-7.726s-7.726 3.459-7.726 7.726v154.867z"/><path d="m307.479 379.847c-5.542-4.232-10.712-8.927-15.453-14.026v146.179h15.453z"/></g><g><g><path d="m137.444 386.836h-27.032c-4.267 0-7.726-3.459-7.726-7.726s3.459-7.726 7.726-7.726h27.032c4.267 0 7.726 3.459 7.726 7.726s-3.459 7.726-7.726 7.726z" fill="#ffe02f"/></g></g><g><path d="m411.144 163.474h-22.264l-45.188 35.866-28.502 45.672s-9.379 55.545-9.497 58.507 11.694 42.109 12.141 44.856 35.817 34.683 36.504 36.4 45.159 15.625 45.159 15.625l11.648.984c53.469-13.162 93.13-61.423 93.13-118.954-.001-57.534-39.662-105.794-93.131-118.956z" fill="#ff636e"/><path d="m318.015 282.428c0-57.531 39.66-105.792 93.129-118.954-9.413-2.317-19.251-3.555-29.38-3.555-67.66 0-122.51 54.849-122.51 122.509s54.85 122.509 122.51 122.509c10.128 0 19.966-1.238 29.38-3.555-53.469-13.162-93.129-61.422-93.129-118.954z" fill="#ff4654"/><path d="m410.972 279.776c-3.663-2.177-7.511-3.917-11.476-5.222h-9.446l-26.613 27.461v19.917l7.04 19.059 8.092 5.62c4.043-.746 8.253-.069 11.993 2.036 10.838 6.101 29.753 10.773 45.508-16.287 13.397-23.008-5.9-41.175-25.098-52.584z" fill="#ffdda8"/><path d="m371.323 336.159c-15.559-26.723 5.895-47.959 28.173-61.605-5.728-1.886-11.703-2.855-17.731-2.855-10.202 0-20.251 2.754-29.207 8.077-19.198 11.41-38.495 29.576-25.098 52.585 15.761 27.068 34.681 22.385 45.518 16.281 1.78-1.002 3.667-1.676 5.591-2.031-2.458-2.933-4.882-6.392-7.246-10.452z" fill="#ffd086"/><path d="m419.949 215.835-6.634 1.533-5.795 9.728-5.54 10.747s1.548 14.294 1.29 14.809 10.302 11.162 10.302 11.162h4.406c6.81-3.829 12.016-11.853 13.123-21.604 1.3-11.437-3.425-21.827-11.152-26.375z" fill="#ffdda8"/><path d="m406.825 237.439c1.108-9.752 6.313-17.776 13.123-21.605-2.089-1.229-4.395-2.036-6.863-2.316-11.6-1.317-22.341 9.392-23.992 23.921-1.65 14.528 6.416 27.374 18.016 28.691 3.814.433 7.533-.441 10.869-2.316-7.727-4.548-12.451-14.938-11.153-26.375z" fill="#ffd086"/><path d="m374.435 237.439c-1.108-9.752-6.314-17.776-13.123-21.605h-3.498l-9.272 9.389-2.447 17.9 4.378 9.916 5.988 8.242 6.82 2.534c7.728-4.549 12.452-14.939 11.154-26.376z" fill="#ffdda8"/><path d="m350.158 242.21c-1.299-11.437 3.426-21.827 11.153-26.375-3.336-1.876-7.054-2.749-10.868-2.316-11.6 1.317-19.666 14.163-18.016 28.692 1.65 14.528 12.391 25.238 23.992 23.92 2.468-.28 4.774-1.087 6.863-2.316-6.811-3.829-12.017-11.853-13.124-21.605z" fill="#ffd086"/><path d="m314.288 254.966-4.926 11.274v9.977l1.191 6.21 3.61 6.41 4.801 2.004c5.118-4.068 8.104-11.607 7.169-19.843-.781-6.879-4.125-12.666-8.641-16.033h-3.204z" fill="#ffdda8"/><path d="m310.323 274.808c-.935-8.235 2.051-15.774 7.169-19.843-3.099-2.311-6.746-3.494-10.515-3.066-9.262 1.052-15.703 11.309-14.385 22.909s9.894 20.151 19.156 19.099c2.687-.305 5.125-1.404 7.216-3.066-4.516-3.367-7.86-9.154-8.641-16.033z" fill="#ffd086"/><path d="m463.768 254.966h-3.236l-6.366 12.281s-1.876 11.246-1.618 11.675 2.575 6.524 2.833 6.954c.258.429 3.606 3.863 3.606 3.863l3.309 1.103c4.516-3.368 7.86-9.154 8.641-16.033.935-8.236-2.051-15.775-7.169-19.843z" fill="#ffdda8"/><path d="m455.127 270.999c.781-6.879 4.125-12.665 8.641-16.033-2.092-1.662-4.529-2.761-7.216-3.066-9.262-1.052-17.839 7.499-19.156 19.099s5.123 21.857 14.385 22.909c3.77.428 7.416-.755 10.515-3.066-5.119-4.069-8.105-11.608-7.169-19.843z" fill="#ffd086"/></g><path d="m79.417 129.544 17.464 10.302h20.772v-23.054h-16.225l-6.085-3.775h-4.951c-4.613 2.197-8.442 5.764-10.974 10.17v6.357z" fill="#ffb1a0"/><path d="m277.589 139.846 7.984-8.757 1.694-7.906c-3.656-6.369-10.031-10.978-17.55-12.237h-5.692l-2.919 4.81h-12.576v24.089h29.059z" fill="#ffb1a0"/><path d="m101.114 135.768c-9.287 0-17.385-5.066-21.698-12.581-2.099 3.652-3.309 7.878-3.309 12.395v.001c0 13.81 11.196 25.007 25.007 25.007h13.462l3.076-4.002v-24.821l-3.076 4.002h-13.462z" fill="#ffa68e"/><path d="m265.568 135.768h-13.461l-3.576-2.714v24.821l3.576 2.714h13.461c13.811 0 25.007-11.196 25.007-25.007v-.001c0-4.518-1.21-8.745-3.308-12.398-4.313 7.517-12.412 12.585-21.699 12.585z" fill="#ffa68e"/><path d="m248.531 112.675-6.225-4.507-4.893-16.225h-10.817l-30.648 24.467h-43.132v67.992l15.059 37.602 23.495 10.302 10.306 2.395c28.995-7.686 50.43-34.145 50.43-65.522v-49.15z" fill="#ffcebe"/><g><path d="m160.237 169.179v-48.612l6.94-4.157h-45.661l-6.94 4.157v48.612c0 35.427 27.758 67.783 69.746 67.783 7.745 0 15.183-1.323 22.12-3.726-28.5-9.467-46.205-35.774-46.205-64.057z" fill="#ffb1a0"/></g><path d="m247.703 31.339c-6.477.499-12.419-3.573-13.666-9.949-2.099-10.736-7.415-21.39-28.178-21.39-19.234 0-31.645 0-42.02 0l-25.324 12.875-11.332 19.574v78.498l14.683 9.62h46.002c18.288 0 34.17-10.26 42.229-25.334.625-1.168 2.398-.712 2.398.614 0 13.596 11.124 24.72 24.72 24.72 7.127 0 12.958-5.831 12.958-12.958v-54.826c-.001-12.916-11.27-22.304-22.47-21.444z" fill="#7b6c79"/><g><path d="m131.609 100.41v-52.538c0-26.439 21.433-47.872 47.872-47.872-19.164 0-29.473 0-45.661 0-26.439 0-47.872 21.433-47.872 47.872v52.538c0 11.133 9.025 20.157 20.157 20.157h45.661c-11.132 0-20.157-9.024-20.157-20.157z" fill="#665e68"/></g></g></svg>