<svg id="Capa_1" enable-background="new 0 0 512 512" height="512" viewBox="0 0 512 512" width="512" xmlns="http://www.w3.org/2000/svg"><g><path d="m221.592 0h-9.14l-8.524 6.463s-17.847 22.407-19.225 23.437c-1.379 1.03-5.308 20.604-5.308 20.604l2.796 2.991c3.521-10.138 13.164-17.438 24.486-17.438h14.915l3.112-4.612v-27.472z" fill="#dbedff"/><path d="m478.474 312.171h-420.71l34.187 160.901h345.316l19.01-9.497 32.031-143.711z" fill="#60b9fe"/><path d="m63.306 319.864 11.31-7.693h-39.615l-11.309 7.693 32.03 143.711 11.192 9.497h39.614l-11.191-9.497z" fill="#1ca8ff"/><path d="m219.326 0h-12.648c-34.172 0-61.974 27.802-61.974 61.975v28.494l4.599 7.165h26.812l4.646-7.165v-28.494c0-3.391.661-6.628 1.851-9.6 3.73-22.465 17.588-41.54 36.714-52.375z" fill="#b5dcff"/><path d="m305.323 0h-14.915l-3.549 3.115v28.502l3.549 4.44h14.915c14.291 0 25.918 11.627 25.918 25.918v28.494l3.822 3.302h28.288l3.946-3.302v-28.494c0-34.173-27.802-61.975-61.974-61.975z" fill="#dbedff"/><path d="m221.592 0h68.815v36.057h-68.815z" fill="#ff636e"/><path d="m451.898 119.247c-3.748-16.817-18.668-28.777-35.897-28.777h-299.57l-14.186 7.165-43.333 194.791h413.553l15.843-9.821z" fill="#ff636e"/><path d="m99.716 119.247c3.748-16.817 18.668-28.777 35.897-28.777h-39.614c-17.229 0-32.149 11.961-35.897 28.777l-36.41 163.359 9.226 9.821h39.614l-9.226-9.821z" fill="#ff4654"/><g><path d="m102.245 229.077c-4.267 0-7.726-3.459-7.726-7.726v-86.536c0-4.268 3.459-7.726 7.726-7.726s7.726 3.459 7.726 7.726v86.536c0 4.267-3.459 7.726-7.726 7.726z" fill="#ff7f87"/></g><g><path d="m409.755 229.077c-4.267 0-7.726-3.459-7.726-7.726v-86.536c0-4.268 3.459-7.726 7.726-7.726s7.726 3.459 7.726 7.726v86.536c0 4.267-3.459 7.726-7.726 7.726z" fill="#ff7f87"/></g><g><path d="m365.825 229.077c-4.267 0-7.726-3.459-7.726-7.726v-86.536c0-4.268 3.459-7.726 7.726-7.726s7.726 3.459 7.726 7.726v86.536c0 4.267-3.459 7.726-7.726 7.726z" fill="#ff7f87"/></g><g><path d="m321.895 229.077c-4.267 0-7.726-3.459-7.726-7.726v-86.536c0-4.268 3.459-7.726 7.726-7.726s7.726 3.459 7.726 7.726v86.536c.001 4.267-3.459 7.726-7.726 7.726z" fill="#ff7f87"/></g><g><path d="m277.965 229.077c-4.267 0-7.726-3.459-7.726-7.726v-86.536c0-4.268 3.459-7.726 7.726-7.726s7.726 3.459 7.726 7.726v86.536c0 4.267-3.459 7.726-7.726 7.726z" fill="#ff7f87"/></g><g><path d="m234.035 229.077c-4.267 0-7.726-3.459-7.726-7.726v-86.536c0-4.268 3.459-7.726 7.726-7.726s7.726 3.459 7.726 7.726v86.536c0 4.267-3.459 7.726-7.726 7.726z" fill="#ff7f87"/></g><g><path d="m190.105 229.077c-4.267 0-7.726-3.459-7.726-7.726v-86.536c0-4.268 3.459-7.726 7.726-7.726s7.726 3.459 7.726 7.726v86.536c0 4.267-3.459 7.726-7.726 7.726z" fill="#ff7f87"/></g><g><path d="m146.175 229.077c-4.267 0-7.726-3.459-7.726-7.726v-86.536c0-4.268 3.459-7.726 7.726-7.726s7.726 3.459 7.726 7.726v86.536c0 4.267-3.459 7.726-7.726 7.726z" fill="#ff7f87"/></g><path d="m89.933 463.575 5.735 26.991 13.14 16.483s4.908 2.281 10.537 4.951h296.656c17.23 0 32.149-11.961 35.897-28.777l4.379-19.648z" fill="#1ca8ff"/><path d="m99.716 483.223-4.379-19.648h-39.615l4.379 19.648c3.749 16.816 18.669 28.777 35.898 28.777h39.614c-17.229 0-32.149-11.961-35.897-28.777z" fill="#0094fd"/><path d="m114.768 319.864h281.806v-37.259c-82.296 0-199.698 0-281.806 0z" fill="#ff7f87"/><path d="m47.329 282.605c-6.392 3.754-10.696 10.681-10.696 18.629 0 7.948 4.304 14.876 10.696 18.629h40.408v-37.259c-15.725.001-29.424.001-40.408.001z" fill="#ff7f87"/><path d="m39.615 301.235c0-10.289 8.341-18.629 18.629-18.629-22.878 0-37.496 0-39.614 0-10.289-.001-18.63 8.34-18.63 18.629 0 10.289 8.341 18.629 18.629 18.629h39.614c-10.288 0-18.628-8.341-18.628-18.629z" fill="#ff636e"/><path d="m493.371 282.605c-2.933 0-29.677 0-69.108 0v37.259h69.108c10.289 0 18.629-8.341 18.629-18.629 0-10.289-8.341-18.63-18.629-18.63z" fill="#ff7f87"/><path d="m113.75 251.7h-4.279l-8.238 5.7v55.785l6.679 6.679h14.166v-59.837c-.001-4.599-3.729-8.327-8.328-8.327z" fill="#dbedff"/><path d="m114.994 251.803c-.407-.061-.82-.103-1.244-.103h-23.01c-4.599 0-8.327 3.728-8.327 8.328v59.837h25.498v-59.837c0-4.176 3.076-7.623 7.083-8.225z" fill="#b5dcff"/><path d="m421.26 251.7h-4.279l-8.238 5.7v55.785l6.679 6.679h14.166v-59.837c-.001-4.599-3.73-8.327-8.328-8.327z" fill="#dbedff"/><path d="m422.504 251.803c-.407-.061-.82-.103-1.244-.103h-23.01c-4.599 0-8.327 3.728-8.327 8.328v59.837h25.498v-59.837c0-4.176 3.076-7.623 7.083-8.225z" fill="#b5dcff"/></g></svg>