<svg id="Capa_1" enable-background="new 0 0 511.999 511.999" height="512" viewBox="0 0 511.999 511.999" width="512" xmlns="http://www.w3.org/2000/svg"><g><path d="m390.529 147.757c-6.164-2.025-10.218-8-9.763-14.472.99-14.097-7.997-27.535-21.505-31.916-6.16-1.998-10.138-8.018-9.705-14.479 1.085-16.206-10.926-31.688-28.369-33.205-9.558-.831-18.314 2.654-24.545 8.72-2.54 2.473-5.901 3.921-9.446 3.921-3.505 0-6.86-1.389-9.363-3.843-5.626-5.516-13.331-8.92-21.833-8.92s-16.207 3.403-21.833 8.92c-2.503 2.454-5.857 3.843-9.363 3.843-.067 0-.133-.009-.199-.01l-16.56 7.513-63.635 95.052 11.899 32.691h242.326l8.093-6.873c2.908-4.338 4.763-9.427 5.171-14.892 1.112-14.902-8.246-27.739-21.37-32.05z" fill="#ffc365"/><g><path d="m156.21 179.816c-1.117-14.903 8.239-27.746 21.367-32.058 6.163-2.024 10.219-7.998 9.762-14.469-.996-14.105 8.004-27.532 21.504-31.915 6.159-2 10.143-8.015 9.709-14.476-.5-7.443 1.77-14.727 6.052-20.581-3.471-.054-6.755-1.484-9.247-3.911-6.23-6.065-14.984-9.55-24.54-8.721-17.43 1.513-29.464 16.995-28.374 33.212.434 6.461-3.551 12.476-9.709 14.476-13.5 4.383-22.5 17.811-21.504 31.915.457 6.47-3.6 12.444-9.762 14.469-13.127 4.312-22.484 17.155-21.367 32.058.409 5.462 2.264 10.548 5.171 14.884l11.469 6.873h56.11l-11.469-6.873c-2.907-4.335-4.762-9.421-5.172-14.883z" fill="#ffb640"/></g><g><path d="m333.23 167.029c-3.743 0-7.032-2.726-7.625-6.54-.996-6.406-5.626-11.855-11.797-13.881-8.376-2.753-13.794-10.797-13.178-19.564.556-7.914-4.506-15.429-12.035-17.871-4.059-1.316-6.282-5.674-4.966-9.732 1.317-4.059 5.674-6.285 9.733-4.966 14.189 4.602 23.729 18.755 22.682 33.652-.117 1.672.97 3.27 2.585 3.801 11.812 3.878 20.336 13.914 22.245 26.188.655 4.217-2.231 8.166-6.448 8.822-.402.061-.802.091-1.196.091z" fill="#ffd086"/></g><path d="m455.484 231.141c-3.705-21.073-22.011-36.441-43.407-36.441h-276.773c-7.577 4.318-13.79 7.903-13.79 7.903l-11.847 15.968-36 203.119h397.423l16.401-8.508z" fill="#ff636e"/><path d="m112.624 231.141c3.705-21.073 22.011-36.441 43.407-36.441h-56.11c-21.396 0-39.702 15.368-43.407 36.441l-32.007 182.04 15.408 8.508h56.109l-15.408-8.508z" fill="#ff4654"/><g fill="#dbedff"><path d="m139.67 311.359c-.169.209-.329.426-.492.64l4.657 10.845s11.675 7.845 16.14 7.502c4.464-.343 17.513-2.747 18.887-3.091 1.374-.343 16.826-11.676 17.17-12.706.343-1.03 3.434-13.049 3.434-13.049l2.375-15.043c-5.095-.145-9.119-4.288-9.253-9.418-.406-15.53-13.12-28.894-29.682-28.935-15.442-.038-28.231 11.473-29.687 26.846-.775 8.188 1.772 15.773 6.45 21.568 3.51 4.35 3.512 10.493.001 14.841z"/><path d="m313.128 291.199 6.181 16.996s7.898 14.94 12.019 17.687 17.857 5.86 20.604 4.475c2.013-1.014 15.555-10.682 22.655-15.78-.684-1.121-1.435-2.197-2.257-3.215-3.511-4.349-3.513-10.492-.001-14.841 4.694-5.814 7.243-13.432 6.443-21.652-1.471-15.115-14.379-26.747-29.565-26.765-16.63-.02-29.384 13.379-29.795 28.932-.138 5.224-4.301 9.435-9.526 9.435h-.319z"/></g><g><path d="m349.092 323.72c-16.561-.042-29.273-13.407-29.679-28.935-.108-4.103-2.705-7.57-6.345-8.873-.993.356-2.06.559-3.181.559h-107.774c-1.121 0-2.188-.204-3.182-.56-3.64 1.303-6.237 4.773-6.346 8.877-.411 15.548-13.155 28.945-29.783 28.931-9.522-.008-18.15-4.583-23.625-11.721-4.377 5.73-6.724 13.093-5.951 21.02 1.475 15.116 14.388 26.745 29.576 26.757 16.628.014 29.372-13.383 29.783-28.931.138-5.224 4.3-9.436 9.526-9.436h107.775c5.225 0 9.389 4.21 9.526 9.433.406 15.528 13.118 28.892 29.679 28.935 15.443.04 28.232-11.471 29.689-26.845.745-7.864-1.581-15.168-5.909-20.868-5.457 7.164-14.096 11.682-23.779 11.657z" fill="#b5dcff"/></g><path d="m495.132 413.181h-430.203l-3.338 1.812-7.726 10.989v22.321l3.262 5.494 10.475 4.638h427.53c9.315 0 16.867-7.551 16.867-16.867v-11.52c0-9.315-7.552-16.867-16.867-16.867z" fill="#ff7f87"/><path d="m56.109 441.568v-11.52c0-9.315 7.552-16.867 16.867-16.867h-56.109c-9.315 0-16.867 7.552-16.867 16.867v11.52c0 9.315 7.552 16.867 16.867 16.867h56.109c-9.315 0-16.867-7.552-16.867-16.867z" fill="#ff636e"/></g></svg>