<svg id="Capa_1" enable-background="new 0 0 511.999 511.999" height="512" viewBox="0 0 511.999 511.999" width="512" xmlns="http://www.w3.org/2000/svg"><g><path d="m379.575 266.081h-205.951v214.175h206.467l8.633-5.931v-196.823z" fill="#ff636e"/><path d="m179.118 277.502 15.315-11.421h-55.844l-15.315 11.421v196.823l7.511 5.931h55.844l-7.511-5.931z" fill="#ff4654"/><path d="m274.043 1.177c-61.353 15.309-106.812 70.769-106.812 136.862 0 41.471 17.896 78.76 46.385 104.571l8.034 7.503h117.748l9.046-10.285c27.814-25.2 45.286-61.607 45.286-102.096.001-69.951-52.147-127.717-119.687-136.555z" fill="#dbedff"/><path d="m169.944 137.731c0-67.234 48.179-123.206 111.894-135.301-8.371-1.588-17.006-2.43-25.838-2.43-76.067 0-137.732 61.665-137.732 137.731 0 40.489 17.473 76.896 45.287 102.096l11.013 10.285h51.677l-11.013-10.285c-27.815-25.2-45.288-61.607-45.288-102.096z" fill="#b5dcff"/><path d="m275.102 37.427c-41.978 14.014-72.248 53.614-72.248 100.304s30.27 86.29 72.248 100.304c47.255-8.945 82.994-50.447 82.994-100.304s-35.74-91.358-82.994-100.304z" fill="#b5dcff"/><path d="m205.58 137.732c0-47.459 32.383-87.351 76.258-98.794-8.253-2.152-16.911-3.302-25.838-3.302-56.386 0-102.096 45.71-102.096 102.096s45.71 102.095 102.096 102.095c8.927 0 17.585-1.149 25.838-3.302-43.875-11.442-76.258-51.335-76.258-98.793z" fill="#8bcaff"/><path d="m284.462 373.597c-3.394-2.017-6.959-3.629-10.632-4.838h-8.752l-24.658 25.443v18.453l6.522 17.658 7.497 5.207c3.746-.691 7.647-.064 11.112 1.887 10.042 5.652 27.566 9.981 42.165-15.09 12.412-21.318-5.467-38.149-23.254-48.72z" fill="#ffe02f"/><path d="m247.726 425.836c-14.416-24.758 5.462-44.434 26.103-57.077-5.307-1.747-10.843-2.645-16.428-2.645-9.452 0-18.763 2.551-27.061 7.483-17.787 10.571-35.666 27.402-23.253 48.72 14.603 25.078 32.133 20.74 42.173 15.084 1.649-.929 3.397-1.553 5.18-1.881-2.277-2.718-4.523-5.922-6.714-9.684z" fill="#fbc700"/><path d="m394.218 239.827h-226.034c-2.666 1.019-4.947 1.915-4.947 1.915l-4.383 4.765v22.407l2.838 5.28 8.516 3.309h224.011c7.215 0 13.063-5.849 13.063-13.063v-11.548c0-7.216-5.848-13.065-13.064-13.065z" fill="#dbedff"/><path d="m160.561 264.438v-11.548c0-7.215 5.849-13.063 13.063-13.063h-55.844c-7.215 0-13.063 5.849-13.063 13.063v11.548c0 7.215 5.849 13.063 13.063 13.063h55.844c-7.215.001-13.063-5.848-13.063-13.063z" fill="#b5dcff"/><path d="m394.218 474.325h-227.595c-3.451 1.74-6.477 3.288-6.477 3.288l-1.292 6.009v22.664l3.009 2.919 6.351 2.794h226.005c7.215 0 13.063-5.849 13.063-13.063v-11.548c0-7.215-5.848-13.063-13.064-13.063z" fill="#dbedff"/><path d="m160.561 498.936v-11.548c0-7.215 5.849-13.063 13.063-13.063h-55.844c-7.215 0-13.063 5.849-13.063 13.063v11.548c0 7.215 5.849 13.063 13.063 13.063h55.844c-7.215 0-13.063-5.849-13.063-13.063z" fill="#b5dcff"/><g fill="#ffe02f"><path d="m205.857 365.465c-.724-6.374-3.822-11.735-8.006-14.855h-4.868s-6.076 14.237-6.064 16.62c.012 2.384 4.519 11.913 4.905 13.201s7.391 3.419 7.391 3.419c4.742-3.769 7.509-10.754 6.642-18.385z"/><path d="m250.609 334.371c-1.026-9.035-5.849-16.47-12.159-20.017s-6.094-.113-7.302.918c-1.208 1.03-7.775 12.62-7.003 16.354.773 3.734 1.674 8.628 3.606 13.392 1.932 4.765 3.477 7.726 4.25 8.885s8.274 4.905 8.274 4.905c7.161-4.213 11.538-13.84 10.334-24.437z"/><path d="m292.779 314.354s-6.779 2.205-7.294 2.377-6.471 7.383-7.099 12.019-1.948 9.1 0 15.109 2.635 8.585 3.836 10.302c1.202 1.717 8.731 4.647 8.732 4.647 6.309-3.547 11.133-10.982 12.159-20.017 1.204-10.596-3.174-20.223-10.334-24.437z"/><path d="m333.379 350.61-8.896 2.521s-5.516 10.48-5.345 15.628c.172 5.148 2.575 9.268 3.949 10.47s8.928 4.621 8.928 4.621c4.184-3.12 7.282-8.482 8.006-14.855.867-7.63-1.9-14.615-6.642-18.385z"/></g><path d="m228.117 338.792c-1.203-10.597 3.174-20.223 10.334-24.437-3.091-1.738-6.536-2.547-10.07-2.146-10.748 1.221-18.221 13.122-16.693 26.583 1.529 13.461 11.481 23.384 22.229 22.163 2.287-.26 4.423-1.007 6.359-2.146-6.31-3.547-11.133-10.982-12.159-20.017z" fill="#fbc700"/><path d="m191.209 368.995c-.867-7.63 1.9-14.615 6.642-18.385-2.872-2.141-6.25-3.237-9.743-2.841-8.582.975-14.549 10.478-13.328 21.225 1.221 10.748 9.167 18.671 17.749 17.696 2.489-.283 4.748-1.301 6.686-2.841-4.184-3.119-7.282-8.481-8.006-14.854z" fill="#fbc700"/><path d="m280.62 334.371c1.026-9.035 5.849-16.47 12.159-20.017-1.935-1.139-4.072-1.886-6.358-2.146-10.748-1.221-20.7 8.702-22.229 22.163s5.945 25.363 16.693 26.583c3.534.401 6.979-.408 10.07-2.146-7.161-4.213-11.538-13.84-10.335-24.437z" fill="#fbc700"/><path d="m325.373 365.465c.724-6.374 3.822-11.735 8.006-14.855-1.938-1.54-4.197-2.558-6.686-2.841-8.582-.975-16.528 6.948-17.749 17.696s4.746 20.251 13.328 21.225c3.492.397 6.871-.699 9.742-2.841-4.741-3.768-7.508-10.753-6.641-18.384z" fill="#fbc700"/></g></svg>