<svg id="Capa_1" enable-background="new 0 0 512 512" height="512" viewBox="0 0 512 512" width="512" xmlns="http://www.w3.org/2000/svg"><g><path d="m452.719 158.647-196.719-128.258-162.302 106.144v348.512h186.465l39.709-65.76h124.091l14.957-10.018v-235.515z" fill="#60b9fe"/><path d="m105.187 129.02-41.364 27.052-10.744 17.68v306.262l11.811 5.031h40.297z" fill="#1ca8ff"/><path d="m277.868 265.752h-15.218l-32.622 18.064-13.221 17.17v184.06h60.266l37.625-69.446h30.024l6.056-6.668v-50.943c-.001-44.817-31.109-82.364-72.91-92.237z" fill="#8896e0"/><path d="m204.959 357.989c0-44.817 31.108-82.364 72.909-92.237-7.02-1.658-14.341-2.54-21.868-2.54-52.344 0-94.777 42.433-94.777 94.777v122.026l8.367 5.031h43.736l-8.367-5.031z" fill="#6b7ed9"/><path d="m277.868 297.975h-13.845l-29.025 32.198v154.872h38.983l37.711-65.589 8.179-10.501v-50.966c.001-27.541-17.521-51.065-42.003-60.014z" fill="#6b7ed9"/><path d="m235.865 357.989c0-27.541 17.523-51.065 42.004-60.014-6.825-2.495-14.19-3.858-21.868-3.858-35.219 0-63.872 28.653-63.872 63.872v122.025l12.831 5.031h43.736l-12.831-5.031z" fill="#4d66d2"/><path d="m86.23 484.702v22.407l6.08 4.891h191.372l-9.701-8.583-4.979-10.817 4.979-8.413-2.126-4.173h-178.155z" fill="#dbedff"/><path d="m87.571 502.137v-12.259c0-5.447 4.416-9.863 9.864-9.863h-62.359c-5.447 0-9.864 4.416-9.864 9.863v12.259c0 5.447 4.416 9.863 9.864 9.863h62.359c-5.448 0-9.864-4.416-9.864-9.863z" fill="#b5dcff"/><path d="m507.713 486.401-36.895-68.357c-3.03-5.613-8.894-9.112-15.273-9.112h-134.968c-6.379 0-12.244 3.499-15.273 9.112l-36.895 68.357c-6.241 11.563 2.133 25.599 15.273 25.599h208.757c13.141 0 21.515-14.036 15.274-25.599z" fill="#dbedff"/><g fill="#dbedff"><path d="m297.624 171.646-2.524 7.863s10.817 19.316 11.075 20.346 16.998 8.499 18.286 10.302 24.725-3.657 24.725-3.657l2.407-10.403c-3.282-4.066-3.283-9.808-.001-13.873 4.388-5.435 6.771-12.556 6.023-20.239-1.375-14.129-13.441-25.002-27.637-25.02-15.546-.019-27.468 12.506-27.852 27.045-.087 3.272-1.868 6.113-4.502 7.636z"/><path d="m160.41 196.094.813 8.397 19.527 5.666 20.604-3.657 15.453-17.341-1.803-11.968-.628-5.545c-2.633-1.522-4.415-4.361-4.5-7.633-.38-14.517-12.264-27.01-27.746-27.048-14.435-.036-26.39 10.724-27.75 25.095-.725 7.654 1.656 14.745 6.029 20.162 3.28 4.064 3.283 9.807.001 13.872z"/></g><g><path d="m351.58 196.08c-5.121 6.317-12.958 10.27-21.712 10.247-15.481-.039-27.364-12.532-27.744-27.048-.086-3.272-1.867-6.112-4.5-7.634-1.295.748-2.794 1.183-4.404 1.183h-74.439c-1.611 0-3.109-.435-4.405-1.184-2.634 1.522-4.415 4.364-4.501 7.637-.384 14.534-12.297 27.057-27.84 27.044-8.609-.007-16.432-4.012-21.567-10.311-.02.025-.037.052-.057.077-4.39 5.437-6.773 12.561-6.023 20.247 1.379 14.13 13.45 25.001 27.647 25.013 15.543.013 27.456-12.51 27.84-27.044.129-4.884 4.02-8.821 8.906-8.821h74.44c4.884 0 8.777 3.935 8.905 8.817.38 14.515 12.263 27.008 27.744 27.048 14.435.037 26.391-10.723 27.752-25.094.725-7.654-1.656-14.746-6.029-20.163-.005-.003-.009-.009-.013-.014z" fill="#b5dcff"/></g><path d="m506.084 166.377-214.871-144.568h-13.345l-15.718 19.554 225.821 151.935c4.202 2.827 9.901 1.713 12.728-2.49l7.874-11.704c2.827-4.202 1.713-9.9-2.489-12.727z" fill="#ffe02f"/><g><path d="m261.12 40.67 1.03.693 29.063-19.554-30.093-20.247c-3.095-2.083-7.143-2.083-10.239 0l-244.965 164.815c-4.202 2.827-5.317 8.526-2.489 12.728l7.874 11.704c2.827 4.202 8.526 5.317 12.728 2.49l226.852-152.629c3.095-2.083 7.144-2.083 10.239 0z" fill="#fbc700"/></g><path d="m507.713 486.4-36.895-68.357c-3.03-5.613-8.894-9.112-15.273-9.112h-62.111l-9.909 4.688-39.834 77.951v7.555l11.589 12.875h137.159c13.141 0 21.515-14.036 15.274-25.6z" fill="#ff636e"/><path d="m350.997 486.4 36.895-68.357c3.03-5.613 8.894-9.112 15.273-9.112h-82.588c-6.379 0-12.244 3.499-15.273 9.112l-36.895 68.357c-6.241 11.564 2.133 25.6 15.273 25.6h82.588c-13.14 0-21.514-14.036-15.273-25.6z" fill="#ff4654"/></g></svg>