<svg id="Capa_1" enable-background="new 0 0 512 512" height="512" viewBox="0 0 512 512" width="512" xmlns="http://www.w3.org/2000/svg"><g><path d="m469.653 400.741h-6.427c-1.285 0-2.526-.145-3.72-.403-11.063.301-25.378-8.92-25.378-8.92l12.041-11.281c.22-1.048.543-2.097.982-3.136 2.125-5.034 3.301-10.556 3.301-16.341 0-23.291-19.056-42.348-42.348-42.348h-6.427c-1.735 0-3.393-.258-4.953-.719-14.642-.293-28.429-9.584-28.429-9.584l16.325-10.302c.22-1.048.543-2.097.982-3.136 2.125-5.034 3.301-10.556 3.301-16.341 0-23.291-19.056-42.347-42.348-42.347h-6.427c-1.669 0-3.266-.238-4.774-.666l-7.1-.55-5.125-2.625-4.5-13.5 4.443-3.263c.22-1.048.543-2.097.981-3.135 2.125-5.034 3.301-10.556 3.301-16.341 0-12.628-5.604-24.007-14.448-31.78-7.444-6.544-8.661-14.71-7.469-24.074l-13.834 1.654-54.6 24.279-184.847 268.88v24.038l33.78 26.637h383.716c23.291 0 42.347-19.056 42.347-42.347.001-23.292-19.055-42.349-42.346-42.349z" fill="#da7e4a"/><g><path d="m61.468 443.089c0-23.291 19.056-42.348 42.347-42.348h6.427c12.247 0 20.837-12.456 16.075-23.74-2.125-5.034-3.301-10.556-3.301-16.341 0-23.291 19.056-42.347 42.347-42.347h6.427c12.247 0 20.837-12.457 16.075-23.74-2.125-5.034-3.301-10.556-3.301-16.34 0-23.291 19.056-42.347 42.347-42.347h6.428c12.247 0 20.837-12.457 16.075-23.74-2.125-5.034-3.301-10.556-3.301-16.341 0-19.048 12.953-36.31 32.24-41.061 10.196-2.511 19.692-7.391 27.082-14.794 2.079-19.048-7.39-34.2-18.785-45.249-8.919-8.649-23.775-2.986-24.734 9.401-1.095 14.15-8.689 25.89-16.623 34.473-7.561 8.179-17.592 13.506-28.408 16.169-19.287 4.75-32.24 22.012-32.24 41.061 0 5.785 1.176 11.307 3.301 16.341 4.762 11.283-3.828 23.74-16.075 23.74h-6.427c-23.291 0-42.347 19.056-42.347 42.347 0 5.785 1.176 11.307 3.301 16.34 4.762 11.283-3.827 23.74-16.075 23.74h-6.427c-23.291 0-42.347 19.056-42.347 42.347 0 5.785 1.176 11.307 3.301 16.341 4.762 11.283-3.828 23.74-16.075 23.74h-6.428c-23.291 0-42.347 19.057-42.347 42.348 0 23.291 19.056 42.348 42.348 42.348h61.468c-23.292-.001-42.348-19.057-42.348-42.348z" fill="#cb6c35"/><g><path d="m187.35 113.443c-1.752 0-3.514-.593-4.961-1.807-3.269-2.741-3.697-7.616-.954-10.884 1.3-1.582 12.563-15.986.77-26.532-6.615-5.915-10.246-13.119-10.498-20.832-.437-13.335 9.049-23.404 10.132-24.507 2.987-3.046 7.879-3.094 10.926-.106 3.038 2.98 3.093 7.852.131 10.9-1.679 1.758-5.965 7.548-5.742 13.277.135 3.461 1.885 6.649 5.351 9.749 18.539 16.577 8.61 38.634.77 47.981-1.529 1.821-3.72 2.761-5.925 2.761z" fill="#e39b74"/></g><g><path d="m50.485 282.731c-1.752 0-3.514-.593-4.961-1.807-3.269-2.741-3.697-7.615-.955-10.884.035-.042 5.122-6.256 7.505-14.398 2.835-9.688.632-17.6-6.735-24.187-8.352-7.468-12.747-16.145-13.062-25.792-.553-16.895 12.156-30.051 12.697-30.602 2.989-3.046 7.882-3.093 10.926-.105 3.039 2.981 3.093 7.856.127 10.904-.178.186-8.682 9.193-8.302 19.377.198 5.305 2.787 10.113 7.915 14.698 23.108 20.661 10.608 48.304.77 60.034-1.53 1.822-3.72 2.762-5.925 2.762z" fill="#e39b74"/></g><g><path d="m407.301 208.325c-1.752 0-3.514-.593-4.961-1.807-3.27-2.741-3.697-7.615-.955-10.884 1.578-1.928 9.163-12.09.77-19.595-7.181-6.422-8.87-13.322-9.023-17.98-.374-11.45 7.731-20.054 8.657-20.997 2.989-3.046 7.88-3.093 10.927-.105 3.034 2.976 3.092 7.84.14 10.889-1.251 1.318-4.445 5.626-4.277 9.768.098 2.401 1.365 4.66 3.876 6.905 15.908 14.224 7.46 33.068.77 41.044-1.528 1.822-3.718 2.762-5.924 2.762z" fill="#e39b74"/></g><g fill="#e39b74"><path d="m256 235.884h84.104c-11.107-.015-19.197-10.275-17.033-20.604h-67.071c-5.69 0-10.302 4.613-10.302 10.302s4.612 10.302 10.302 10.302z"/><path d="m296.625 308.01c0 5.689 4.612 10.302 10.302 10.302h94.721c-11.105-.017-19.193-10.277-17.028-20.604h-77.693c-5.689 0-10.302 4.613-10.302 10.302z"/><path d="m446.169 380.138h-88.315c-5.69 0-10.302 4.613-10.302 10.302s4.612 10.302 10.302 10.302h105.371c-11.119-.001-19.222-10.269-17.056-20.604z"/></g></g></g></svg>