<svg id="Capa_1" enable-background="new 0 0 512 512" height="512" viewBox="0 0 512 512" width="512" xmlns="http://www.w3.org/2000/svg"><g><path d="m275.011 142.09h-37.672l-4.448 4.722v46.218l3.746 3.145h39.147l3.325-3.145v-46.218z" fill="#8896e0"/><path d="m393.547 193.03h-250.809c-8.059 1.801-13.966 3.145-13.966 3.145l-31.199 19.059-20.88 30.68-6.174 18.769v149.034h404.693l10.059-5.377v-123.586c-.001-50.658-41.067-91.724-91.724-91.724z" fill="#ffe02f"/><path d="m76.692 408.34v-123.586c0-50.657 41.066-91.723 91.724-91.723h-49.963c-50.657 0-91.724 41.066-91.724 91.723v123.586l10.651 5.377h49.963z" fill="#fbc700"/><path d="m280.981 247.825h-28.29l-39.491 18.918-20.26 14.368s-35.579 86.276-53.754 132.434h273.871l5.369-5.205c0-81.21-59.6-148.498-137.445-160.515z" fill="#8896e0"/><path d="m280.981 247.825c-8.143-1.257-16.486-1.912-24.981-1.912-89.706 0-162.426 72.721-162.426 162.427l7.016 5.205h49.963l-7.016-5.205c-.001-81.21 59.599-148.498 137.444-160.515z" fill="#6b7ed9"/><path d="m256 281.111c-70.266 0-127.228 56.962-127.228 127.228l7.727 5.377h240.068l6.662-5.377c-.001-70.266-56.963-127.228-127.229-127.228z" fill="#dbedff"/><path d="m256 281.111c-70.266 0-127.228 56.962-127.228 127.228l7.727 5.377h240.068l6.662-5.377c-.001-70.266-56.963-127.228-127.229-127.228z" fill="#dbedff"/><path d="m280.981 283.57c-8.078-1.609-16.43-2.458-24.981-2.458-70.266 0-127.228 56.962-127.228 127.228l7.727 5.377h49.963l-7.727-5.377c-.001-61.715 43.943-113.161 102.246-124.77z" fill="#b5dcff"/><path d="m427.136 63.109h-306.091v29.189s12.143 30.562 12.83 31.592 14.766 13.736 14.766 13.736l13.736 4.464 16.999 4.722h184.745c39.82 0 72.101-32.281 72.101-72.101v-7.364z" fill="#b5dcff"/><path d="m125.74 74.711v-7.364l7.619-4.238h-49.963l-7.619 4.238v7.364c0 39.82 32.281 72.101 72.101 72.101h49.963c-39.82 0-72.101-32.281-72.101-72.101z" fill="#8bcaff"/><g><g><path d="m256 389.336c-4.267 0-7.726-3.459-7.726-7.726v-57.617c0-4.267 3.459-7.726 7.726-7.726s7.726 3.459 7.726 7.726v57.617c0 4.266-3.459 7.726-7.726 7.726z" fill="#ff7f87"/></g></g><g><path d="m256 302.745c-4.267 0-7.726-3.459-7.726-7.726v-12.362c0-4.267 3.459-7.726 7.726-7.726s7.726 3.459 7.726 7.726v12.362c0 4.267-3.459 7.726-7.726 7.726z" fill="#6b7ed9"/></g><g><path d="m199.346 317.929c-2.67 0-5.267-1.386-6.698-3.865l-6.181-10.706c-2.134-3.696-.867-8.421 2.828-10.554 3.695-2.134 8.421-.868 10.554 2.828l6.181 10.706c2.134 3.696.867 8.421-2.828 10.554-1.216.703-2.545 1.037-3.856 1.037z" fill="#6b7ed9"/></g><g><path d="m157.854 359.407c-1.311 0-2.639-.334-3.856-1.037l-10.706-6.181c-3.696-2.134-4.962-6.859-2.828-10.554 2.134-3.697 6.859-4.963 10.554-2.828l10.706 6.181c3.696 2.134 4.962 6.859 2.828 10.554-1.431 2.479-4.028 3.865-6.698 3.865z" fill="#6b7ed9"/></g><g><path d="m354.146 359.407c-2.67 0-5.267-1.386-6.698-3.865-2.134-3.695-.868-8.421 2.828-10.554l10.706-6.181c3.695-2.134 8.421-.868 10.554 2.828 2.134 3.695.868 8.421-2.828 10.554l-10.706 6.181c-1.217.703-2.545 1.037-3.856 1.037z" fill="#6b7ed9"/></g><g><path d="m312.653 317.929c-1.311 0-2.639-.334-3.856-1.037-3.695-2.133-4.962-6.859-2.828-10.554l6.181-10.706c2.133-3.696 6.859-4.963 10.554-2.828 3.695 2.133 4.962 6.859 2.828 10.554l-6.181 10.706c-1.431 2.479-4.028 3.865-6.698 3.865z" fill="#6b7ed9"/></g><path d="m271.71 381.133h-9.834s-11.847 17.989-11.847 19.792c0 1.71.472 5.288 1.618 10.044h32.293l3.481-2.63c0-11.627-6.322-21.773-15.711-27.206z" fill="#ff636e"/><path d="m271.71 381.133c-4.623-2.675-9.985-4.214-15.71-4.214-17.353 0-31.421 14.068-31.421 31.421l5.128 2.63h31.421l-5.128-2.63c0-11.628 6.321-21.774 15.71-27.207z" fill="#ff4654"/><g><path d="m383.228 421.443c-4.267 0-7.726-3.459-7.726-7.726v-5.377c0-65.893-53.609-119.502-119.502-119.502s-119.502 53.608-119.502 119.502v5.377c0 4.267-3.459 7.726-7.726 7.726s-7.726-3.459-7.726-7.726v-5.377c0-74.414 60.54-134.955 134.954-134.955s134.955 60.541 134.955 134.955v5.377c0 4.267-3.46 7.726-7.727 7.726z" fill="#6b7ed9"/></g><path d="m70.519 408.34h414.752v39.459h-414.752z" fill="#fbc700"/><path d="m26.73 408.34h49.963v39.459h-49.963z" fill="#eab900"/><path d="m440.724 32.966h-330.287c-3.633 2.011-6.78 3.701-6.78 3.701l-6.084 11.332 4.024 11.332 10.93 8.016h328.198c9.494 0 17.191-7.696 17.191-17.191s-7.698-17.19-17.192-17.19z" fill="#dbedff"/><path d="m104.048 50.157c0-9.494 7.696-17.191 17.19-17.191h-49.963c-9.494 0-17.19 7.696-17.19 17.191s7.696 17.191 17.19 17.191h49.963c-9.494-.001-17.19-7.697-17.19-17.191z" fill="#b5dcff"/><path d="m494.809 444.653h-434.412l-8.686 3.146-6.947 5.924v10.559l6.947 9.529s3.208 2.502 6.476 5.223h436.622c9.494 0 17.191-7.697 17.191-17.191s-7.697-17.19-17.191-17.19z" fill="#dbedff"/><path d="m49.963 461.843c0-9.494 7.696-17.191 17.19-17.191h-49.963c-9.494 0-17.19 7.696-17.19 17.191 0 9.494 7.696 17.191 17.19 17.191h49.963c-9.494 0-17.19-7.697-17.19-17.191z" fill="#b5dcff"/></g></svg>