<svg id="Capa_1" enable-background="new 0 0 512 512" height="512" viewBox="0 0 512 512" width="512" xmlns="http://www.w3.org/2000/svg"><g><path d="m261.358 27.6h-23.437l-3.86 3.483v44.626l3.989 3.272h24.338l2.72-3.272v-44.626z" fill="#8bcaff"/><path d="m321.888 160.7-8.763-7.03h-81.012l-29.775 13.392-17.153 10.302-21.717 28.33-2.811 20.72s.682 4.02 1.647 9.385h213.147l9.086-9.385c-3.954-32.059-28.435-60.092-62.649-65.714z" fill="#dbedff"/><g fill="#b5dcff"><path d=""/><path d="m168.703 226.414c3.956-32.058 28.436-60.092 62.65-65.714l6.041-7.03h-54.073l-6.041 7.03c-34.214 5.622-58.694 33.655-62.65 65.714l11.001 9.385h54.073z"/></g><path d="m370.301 436.971h-206.038v6.696l6.181 22.407 14.256 25.497 24.119 15.453s8.174 2.422 16.645 4.976h83.758c40.345 0 70.312-30.262 75.183-65.714z" fill="#dbedff"/><path d="m168.837 446.286 20.138-9.315h-54.073l-20.138 9.315c4.872 35.452 34.839 65.714 75.184 65.714h54.073c-40.346 0-70.313-30.262-75.184-65.714z" fill="#b5dcff"/><path d="m265.724 75.709h-32.279c-5.879 0-10.645 4.766-10.645 10.645v23.866l4.47 5.503h45.335l3.765-5.503v-23.866c-.001-5.879-4.767-10.645-10.646-10.645z" fill="#6b7ed9"/><path d="m368.056 370.97v-70.27c0-9.934 2.537-19.704 7.37-28.383 8.309-14.921 10.969-30.855 9.112-45.903h-223.881s6.181 36.456 7.726 36.558 11.009 30.803 11.009 30.803v86.021l-15.129 37.087v26.785l.722 2.618h219.419c2.11-15.35-.479-31.672-8.978-46.933-4.833-8.679-7.37-18.449-7.37-28.383z" fill="#60b9fe"/><path d="m177.815 399.353c4.834-8.68 7.37-18.449 7.37-28.383v-70.27c0-9.934-2.537-19.704-7.37-28.383-8.309-14.921-10.969-30.855-9.112-45.903h-54.073c-1.857 15.048.803 30.982 9.112 45.903 4.834 8.679 7.37 18.449 7.37 28.383v70.269c0 9.934-2.537 19.704-7.37 28.383v.001c-8.499 15.262-11.088 31.583-8.978 46.933h54.073c-2.109-15.35.479-31.672 8.978-46.933z" fill="#1ca8ff"/><path d="m278.627 326.552c-3.642-2.165-7.469-3.895-11.411-5.192h-9.392l-26.463 27.305v19.804l7 18.95 8.046 5.588c4.02-.742 8.206-.068 11.925 2.025 10.777 6.066 29.584 10.712 45.251-16.194 13.321-22.878-5.867-40.941-24.956-52.286z" fill="#ffe02f"/><path d="m239.202 382.615c-15.472-26.571 5.861-47.687 28.014-61.255-5.696-1.875-11.636-2.839-17.631-2.839-10.144 0-20.137 2.738-29.042 8.031-19.09 11.345-38.277 29.408-24.956 52.287 15.672 26.914 34.485 22.258 45.261 16.188 1.77-.997 3.646-1.666 5.559-2.019-2.444-2.917-4.854-6.356-7.205-10.393z" fill="#fbc700"/><g fill="#ffe02f"><path d="m196.99 317.824c-.777-6.84-4.102-12.594-8.592-15.943-.001.001-10.574 6.959-10.574 7.473s-1.975 17.65-1.159 20.563 3.741 4.627 3.649 5.312c-.091.685 9.547 2.325 9.547 2.325 5.09-4.045 8.059-11.541 7.129-19.73z"/><path d="m243.204 284.454c-1.101-9.696-6.278-17.675-13.049-21.482l-9.148 2.343s-6.34 17.661-5.997 21.511 3.256 12.246 3.77 13.96 3.652 4.798 3.539 5.483c-.112.685 2.972 3.427 2.972 3.427l6.823.983c7.683-4.521 12.381-14.853 11.09-26.225z"/><path d="m286.646 262.972-11.832 5.256s-5.97 22.277-5.127 26.389c.843 4.113 1.871 8.739 4.099 11.995s5.312 3.941 5.312 3.941l5.59.126c6.771-3.807 11.948-11.786 13.049-21.482 1.291-11.372-3.407-21.703-11.091-26.225z"/><path d="m328.402 301.882c-.001 0-7.322 2.846-8.179 4.56s-6.095 14.052-5.018 17.136 2.966 9.939 3.649 10.624c.684.685 8.084 3.353 8.084 3.353 4.49-3.349 7.815-9.102 8.592-15.943.931-8.189-2.038-15.685-7.128-19.73z"/></g><path d="m219.064 289.198c-1.291-11.372 3.406-21.704 11.091-26.226-3.317-1.865-7.015-2.734-10.807-2.303-11.535 1.31-19.555 14.083-17.915 28.529 1.641 14.446 12.322 25.095 23.856 23.785 2.454-.279 4.747-1.081 6.824-2.303-6.771-3.807-11.947-11.786-13.049-21.482z" fill="#fbc700"/><path d="m181.27 321.612c-.93-8.189 2.039-15.685 7.129-19.73-3.082-2.298-6.708-3.474-10.456-3.049-9.21 1.046-15.614 11.245-14.304 22.779 1.31 11.535 9.838 20.037 19.048 18.991 2.672-.303 5.096-1.396 7.176-3.049-4.492-3.348-7.816-9.102-8.593-15.942z" fill="#fbc700"/><path d="m273.596 284.454c1.101-9.696 6.278-17.675 13.049-21.482-2.077-1.222-4.37-2.024-6.824-2.303-11.535-1.31-22.215 9.339-23.856 23.785s6.38 27.219 17.914 28.529c3.793.431 7.49-.438 10.807-2.303-7.683-4.522-12.381-14.854-11.09-26.226z" fill="#fbc700"/><path d="m319.81 317.824c.777-6.84 4.102-12.594 8.592-15.943-2.08-1.653-4.504-2.745-7.176-3.049-9.21-1.046-17.738 7.457-19.048 18.991-1.31 11.535 5.094 21.733 14.304 22.779 3.748.426 7.374-.75 10.456-3.049-5.089-4.044-8.058-11.54-7.128-19.729z" fill="#fbc700"/><g><path d="m357.553.036h-108.434l-6.733 3.054s-5.151 12.095-5.323 12.486 0 7.774 0 7.774l5.838 3.777 10.037 3.991c22.956-.033 56.245-.091 104.665-.167h.015c5.206 0 9.41 4.212 9.41 9.417v4.953c0 8.534 6.919 15.453 15.453 15.453s15.453-6.919 15.453-15.453v-4.953c-.001-22.334-18.099-40.379-40.381-40.332z" fill="#dbedff"/></g><g><path d="m254.831 30.951c-8.426-1.364-14.149-9.54-12.786-17.965 1.182-7.305 7.311-12.566 14.408-12.95h-52.186c-7.871-.541-15.008 5.004-16.294 12.95-1.363 8.425 4.36 16.601 12.786 17.965 1.282.207 2.272.243 57.84.159-2.886-.033-3.31-.085-3.768-.159z" fill="#b5dcff"/></g><path d="m330.626 110.221h-113.21l-7.309 5.503v40.177l6.838 4.798h113.682c5.879 0 10.645-4.766 10.645-10.645v-29.188c-.001-5.879-4.767-10.645-10.646-10.645z" fill="#8896e0"/><path d="m211.97 150.054v-29.188c0-5.879 4.766-10.645 10.645-10.645h-54.073c-5.879 0-10.645 4.766-10.645 10.645v29.188c0 5.879 4.766 10.645 10.645 10.645h54.073c-5.879.001-10.645-4.765-10.645-10.645z" fill="#6b7ed9"/></g></svg>