<svg id="Capa_1" enable-background="new 0 0 512 512" height="512" viewBox="0 0 512 512" width="512" xmlns="http://www.w3.org/2000/svg"><g><path d="m292.815 69.266c-11.278-8.531-17.269-18.867-20.452-27.55l-2.831-2.225h-17.189l-9.884 5.157v5.034c4.579 13.837 13.658 30.619 31.69 44.26 6.816 5.156 16.518 3.808 21.67-3.004 5.155-6.816 3.81-16.518-3.004-21.672z" fill="#8896e0"/><path d="m315.107 239.04v-46.753c0-17.657-14.314-31.971-31.971-31.971h-5.487l-5.539-4.46h-67.61c-5.501 1.957-20.223 8.766-20.223 8.766l-13.149 16.759v84.826h134.329l11.713-7.916c-1.357-6.271-2.063-12.72-2.063-19.251z" fill="#ffe02f"/><path d="m173.425 192.287c0-17.657 14.314-31.971 31.971-31.971h4.805l4.43-4.46h-49.434l-4.43 4.46h-4.805c-17.657 0-31.971 14.314-31.971 31.971v66.004l11.298 7.916h49.434l-11.298-7.916z" fill="#fbc700"/><path d="m311.003 0h-117.072c-2.719 3.07-5.271 6.058-5.271 6.058v33.432l7.477 4.985h27.072v18.821l7.306 6.463c3.432-15.716 17.421-27.485 34.166-27.485h46.323l3.391-3.428v-36.096z" fill="#b5dcff"/><g><path d="m231.179 51.857c0-5.601-4.54-10.141-10.141-10.141h-16.678c-6.832 0-12.371-5.539-12.371-12.371v-17.533c0-5.549 3.653-10.244 8.686-11.812h-45.748c-6.832 0-12.371 5.539-12.371 12.371v17.532c0 6.832 5.539 12.371 12.371 12.371h16.678c5.601 0 10.141 4.54 10.141 10.141v57.926l5.52 5.08h39.295l3.141-5.08v-33.088c0-3.5.521-6.878 1.477-10.066z" fill="#8bcaff"/></g><path d="m369.514 327.34-22.164-18.762c-15.465-13.091-25.974-30.83-30.181-50.287h-146.041v235.32l20.931 18.389h143.692c28.861 0 52.257-23.396 52.257-52.257v-92.518c0-15.367-6.764-29.956-18.494-39.885z" fill="#ff636e"/><path d="m173.425 476.417v-218.126h-49.434v218.126c0 19.652 15.931 35.583 35.583 35.583h49.434c-19.652 0-35.583-15.931-35.583-35.583z" fill="#ff4654"/><g><path d="m202.372 208.272h-33.002c-4.272 0-7.735-3.463-7.735-7.735s3.463-7.735 7.735-7.735h33.002c4.272 0 7.735 3.463 7.735 7.735s-3.463 7.735-7.735 7.735z" fill="#eab900"/></g><path d="m332.838 0h-21.834v42.274h21.834c6.832 0 12.371-5.539 12.371-12.371v-17.532c0-6.832-5.539-12.371-12.371-12.371z" fill="#60b9fe"/><path d="m273.013 372.838c-3.653-2.171-7.492-3.906-11.446-5.208h-9.421l-26.544 27.389v19.865l7.021 19.008 8.071 5.605c4.033-.744 8.232-.068 11.962 2.031 10.81 6.085 29.675 10.745 45.39-16.244 13.362-22.947-5.885-41.066-25.033-52.446z" fill="#ffe02f"/><path d="m233.468 429.073c-15.519-26.652 5.879-47.833 28.1-61.443-5.714-1.881-11.672-2.847-17.685-2.847-10.175 0-20.199 2.747-29.131 8.055-19.148 11.38-38.395 29.499-25.032 52.447 15.72 26.997 34.591 22.326 45.4 16.238 1.775-1 3.657-1.671 5.576-2.025-2.452-2.926-4.87-6.375-7.228-10.425z" fill="#fbc700"/><g fill="#ffe02f"><path d="m191.126 364.083c-.779-6.861-4.114-12.632-8.618-15.992-.002.001-10.607 6.98-10.607 7.496s-1.981 17.704-1.162 20.626 3.752 4.641 3.66 5.328c-.092.688 9.577 2.332 9.577 2.332 5.105-4.056 8.083-11.576 7.15-19.79z"/><path d="m237.482 330.611c-1.105-9.726-6.297-17.73-13.089-21.548l-9.176 2.35s-6.36 17.716-6.016 21.577 3.266 12.284 3.782 14.003 3.663 4.813 3.55 5.5c-.113.688 2.981 3.438 2.981 3.438l6.844.986c7.707-4.536 12.419-14.899 11.124-26.306z"/><path d="m281.057 309.063-11.868 5.272s-5.988 22.345-5.143 26.47c.846 4.125 1.877 8.766 4.112 12.032 2.234 3.266 5.328 3.953 5.328 3.953l5.607.127c6.792-3.819 11.984-11.822 13.089-21.548 1.295-11.407-3.418-21.77-11.125-26.306z"/><path d="m322.942 348.092c-.001 0-7.344 2.855-8.204 4.574-.859 1.719-6.114 14.095-5.034 17.189s2.975 9.969 3.66 10.657c.686.688 8.108 3.364 8.108 3.364 4.504-3.359 7.839-9.13 8.619-15.992.934-8.215-2.044-15.734-7.149-19.792z"/></g><path d="m213.268 335.369c-1.295-11.407 3.417-21.77 11.125-26.307-3.327-1.871-7.036-2.742-10.84-2.31-11.57 1.314-19.615 14.126-17.97 28.617 1.646 14.491 12.359 25.172 23.929 23.858 2.462-.28 4.762-1.084 6.845-2.31-6.792-3.818-11.984-11.821-13.089-21.548z" fill="#fbc700"/><path d="m175.357 367.883c-.933-8.214 2.045-15.733 7.15-19.791-3.091-2.305-6.728-3.485-10.488-3.058-9.238 1.049-15.662 11.279-14.348 22.849s9.868 20.099 19.106 19.05c2.68-.304 5.111-1.4 7.198-3.058-4.503-3.359-7.838-9.131-8.618-15.992z" fill="#fbc700"/><path d="m267.968 330.611c1.105-9.726 6.297-17.73 13.089-21.548-2.083-1.226-4.383-2.03-6.845-2.31-11.57-1.314-22.284 9.368-23.929 23.858-1.646 14.491 6.399 27.303 17.969 28.617 3.804.432 7.513-.44 10.84-2.31-7.707-4.537-12.42-14.9-11.124-26.307z" fill="#fbc700"/><path d="m314.323 364.083c.779-6.861 4.114-12.633 8.619-15.992-2.086-1.658-4.518-2.754-7.198-3.058-9.238-1.049-17.792 7.48-19.106 19.05s5.11 21.8 14.348 22.849c3.76.427 7.397-.753 10.488-3.058-5.106-4.057-8.084-11.577-7.151-19.791z" fill="#fbc700"/><path d="m277.65 109.782h-73.986l-5.98 3.275v41.253l8.577 6.007h71.389c5.886 0 10.657-4.771 10.657-10.657v-29.22c0-5.887-4.772-10.658-10.657-10.658z" fill="#dbedff"/><path d="m199.544 149.659v-29.22c0-5.886 4.771-10.657 10.657-10.657h-49.434c-5.885 0-10.657 4.771-10.657 10.657v29.22c0 5.886 4.771 10.657 10.657 10.657h49.434c-5.885 0-10.657-4.771-10.657-10.657z" fill="#b5dcff"/></g></svg>