<svg id="Capa_1" enable-background="new 0 0 512 512" height="512" viewBox="0 0 512 512" width="512" xmlns="http://www.w3.org/2000/svg"><g><path d="m398.672 157.536-17.297 5.107s-16.367 27.389-14.442 30.102-1.925 35.189 0 37.219c1.125 1.186 9.288 14.493 16.165 25.963h18.321l1.664 2.283c21.11-6.684 36.456-26.456 36.456-49.749 0-24.885-17.518-45.744-40.867-50.925z" fill="#dbedff"/><g><path d="m284.655 512c-60.833 0-110.325-49.491-110.325-110.324v-95.644c0-4.204 3.408-7.612 7.612-7.612s7.612 3.408 7.612 7.612v95.644c0 52.439 42.662 95.101 95.101 95.101s95.101-42.662 95.101-95.101v-114.375c0-4.204 3.408-7.612 7.612-7.612s7.612 3.408 7.612 7.612v114.375c-.001 60.833-49.492 110.324-110.325 110.324z" fill="#8bcaff"/></g><g><g><path d="m141.025 260.75c-.611 0-1.231-.074-1.851-.229l-13.353-3.336c-.11-.027-.22-.057-.328-.09l-18.985-5.655c-20.046-5.971-34.047-24.75-34.047-45.667v-150.277c0-18.62 10.95-35.645 27.897-43.373.446-.204.91-.363 1.387-.477l15.008-3.59c4.09-.981 8.195 1.544 9.174 5.631.978 4.089-1.544 8.196-5.632 9.174l-14.253 3.41c-11.176 5.391-18.357 16.785-18.357 29.226v150.277c0 14.234 9.528 27.014 23.17 31.077l18.823 5.607 13.188 3.295c4.078 1.019 6.559 5.151 5.54 9.23-.866 3.457-3.97 5.767-7.381 5.767z" fill="#dbedff"/></g><g><path d="m222.457 260.75c-3.432 0-6.547-2.337-7.391-5.819-.991-4.085 1.517-8.201 5.603-9.191l13.564-3.29 18.797-5.599c13.642-4.063 23.17-16.843 23.17-31.077v-150.278c0-12.615-7.384-24.153-18.829-29.449l-14.789-5.851c-3.909-1.547-5.824-5.969-4.278-9.878 1.548-3.909 5.969-5.824 9.878-4.278l14.978 5.927c.12.048.239.098.357.152 16.952 7.727 27.905 24.753 27.905 43.377v150.277c0 20.916-14.001 39.695-34.047 45.667l-18.986 5.655c-.125.037-.252.071-.379.102l-13.754 3.336c-.602.146-1.205.216-1.799.217z" fill="#dbedff"/></g></g><path d="m375.113 208.822c0-20.481 9.148-38.854 23.559-51.286-3.643-.808-7.422-1.248-11.305-1.248-28.768 0-52.172 23.405-52.172 52.172 0 23.293 15.346 43.065 36.456 49.749l1.69-2.283h20.895c-11.826-12.199-19.123-28.811-19.123-47.104z" fill="#b5dcff"/><path d="m387.367 252.974c6.963 0 12.952-4.11 15.716-10.028v-34.486c0-8.68-7.036-15.716-15.716-15.716s-15.716 7.036-15.716 15.716v34.485c2.764 5.919 8.753 10.029 15.716 10.029z" fill="#8896e0"/><path d="m387.367 251.335c-8.68 0-15.716-7.036-15.716-15.716v45.331c0 8.68 7.036 15.716 15.716 15.716s15.716-7.036 15.716-15.716v-45.331c0 8.68-7.036 15.716-15.716 15.716z" fill="#6b7ed9"/><path d="m210.714 132.711c-3.609-2.145-7.399-3.859-11.305-5.144h-9.305l-26.217 27.053v19.621l6.935 18.775 7.972 5.537c3.983-.735 8.13-.068 11.814 2.006 10.677 6.01 29.31 10.613 44.832-16.044 13.197-22.668-5.813-40.564-24.726-51.804z" fill="#ff636e"/><path d="m171.655 188.256c-15.328-26.325 5.807-47.246 27.754-60.689-5.643-1.858-11.529-2.812-17.468-2.812-10.05 0-19.95 2.713-28.773 7.956-18.913 11.24-37.922 29.137-24.724 51.803 15.527 26.665 34.166 22.052 44.841 16.039 1.753-.987 3.612-1.651 5.508-2.001-2.421-2.889-4.809-6.296-7.138-10.296z" fill="#ff4654"/><path d="m233.411 249.868c-2.707-7.737-11.266-11.761-19.122-9.421l-27.191 8.1c-3.365 1.002-6.949 1.002-10.314 0v3.447l18.911 6.343 1.776 15.477 1.516 5.073c1.22-1.698 2.983-3.002 5.091-3.63l19.315-5.754c8.292-2.469 12.908-11.374 10.018-19.635z" fill="#60b9fe"/><g><path d="m198.941 277.911v-15.96c0-4.28-2.812-8.052-6.914-9.274l-11.562-3.444c-1.241-.102-2.475-.327-3.68-.686l-27.604-8.223c-8.296-2.47-17.028 2.458-19.129 10.954-1.968 7.957 2.994 16.008 10.849 18.348l18.904 5.631c4.102 1.222 6.914 4.994 6.914 9.274v15.96c0 8.197 6.299 15.25 14.487 15.636 8.742.412 15.959-6.554 15.959-15.206v-16.391c0-2.081.669-4.038 1.823-5.644-.02-.323-.047-.646-.047-.975z" fill="#1ca8ff"/></g><path d="m243.772 0s-11.245 6.353-11.33 6.86-3.298 13.447-2.368 16.153 4.144 4.313 6.174 5.497c1.8 1.05 7.246 2.127 8.46 2.359 8.099-.486 14.523-7.19 14.523-15.411 0-8.537-6.921-15.458-15.459-15.458z" fill="#8896e0"/><path d="m233.388 15.458c0-7.671 5.594-14.02 12.922-15.233-.828-.136-1.671-.225-2.538-.225h-20.65c-8.537 0-15.458 6.921-15.458 15.458s6.921 15.458 15.458 15.458h20.65c.866 0 1.71-.089 2.537-.226-7.327-1.212-12.921-7.56-12.921-15.232z" fill="#6b7ed9"/><path d="m140.76 0-9.298 4.154s-4.06 7.865-3.637 10.064 3.214 9.388 4.06 10.91 3.721 3.637 3.721 3.637l1.945.846 4.456 1.244c7.952-.637 14.211-7.279 14.211-15.395.001-8.539-6.92-15.46-15.458-15.46z" fill="#8896e0"/><path d="m130.375 15.458c0-7.671 5.594-14.02 12.922-15.233-.827-.136-1.671-.225-2.537-.225h-20.65c-8.537 0-15.458 6.921-15.458 15.458s6.921 15.458 15.458 15.458h20.651c.866 0 1.709-.089 2.536-.226-7.328-1.211-12.922-7.56-12.922-15.232z" fill="#6b7ed9"/><g fill="#ff636e"><path d="m127.137 124.065c-.736-6.479-3.773-11.987-7.925-15.358h-6.271s-9.813 17.74-8.29 19.769c1.524 2.03 1.862 7.104 3.892 9.303s12.082 5.396 12.082 5.396c4.709-4.099 7.4-11.293 6.512-19.11z"/><path d="m162.381 70.06c-.001 0-8.029 1.244-8.352 1.752-.323.507-8.273 12.348-8.273 17.253s.316 11.164 2.949 15.223 3.787 7.273 5.324 8.457 10.254 3.901 10.254 3.901c7.285-4.642 11.687-14.651 10.438-25.643-1.06-9.324-5.921-17.048-12.34-20.943z"/><path d="m220.107 70.06-6.694 1.244s-11.442 13.276-11.557 18.817c-.114 5.54-.123 9.489 2.672 15.042s6.347 10.627 6.347 10.627l6.858 1.131c6.651-3.798 11.726-11.667 12.811-21.217 1.25-10.993-3.152-21.001-10.437-25.644z"/><path d="m263.277 108.707-7.407 1.332s-8.457 13.198-8.288 15.902 4.851 8.624 5.555 10.823 8.727 6.411 8.727 6.411c4.153-3.371 7.189-8.879 7.925-15.358.887-7.817-1.804-15.011-6.512-19.11z"/></g><path d="m151.943 95.704c-1.248-10.993 3.153-21.001 10.438-25.643-3.434-2.084-7.313-3.074-11.295-2.622-11.428 1.298-19.374 13.953-17.749 28.265 1.626 14.312 12.207 24.863 23.635 23.565 2.651-.301 5.111-1.22 7.311-2.622-6.42-3.895-11.281-11.619-12.34-20.943z" fill="#ff4654"/><path d="m112.7 127.817c-.888-7.817 1.803-15.011 6.511-19.111-3.172-2.575-6.994-3.906-10.946-3.457-9.125 1.036-15.469 11.14-14.171 22.568s9.747 19.852 18.871 18.815c2.883-.327 5.485-1.564 7.66-3.457-4.152-3.371-7.189-8.879-7.925-15.358z" fill="#ff4654"/><path d="m207.768 91.004c1.059-9.324 5.921-17.048 12.34-20.943-2.2-1.402-4.66-2.321-7.311-2.622-11.428-1.298-22.01 9.253-23.635 23.565-1.626 14.312 6.321 26.967 17.748 28.265 3.983.452 7.862-.538 11.295-2.622-7.284-4.643-11.686-14.651-10.437-25.643z" fill="#ff4654"/><path d="m255.351 124.065c.736-6.479 3.773-11.987 7.925-15.358-2.175-1.893-4.777-3.13-7.66-3.457-9.124-1.036-17.573 7.388-18.871 18.815-1.298 11.428 5.047 21.532 14.171 22.568 3.952.449 7.774-.882 10.946-3.457-4.707-4.1-7.398-11.294-6.511-19.111z" fill="#ff4654"/></g></svg>