<svg id="Capa_1" enable-background="new 0 0 512 512" height="512" viewBox="0 0 512 512" width="512" xmlns="http://www.w3.org/2000/svg"><g><path d="m404.009 411.954h43.37v62.174h-43.37z" fill="#8bcaff"/><g><path d="m425.694 112.82c-4.204 0-7.612-3.407-7.612-7.612v-97.596c0-4.204 3.408-7.612 7.612-7.612s7.612 3.407 7.612 7.612v97.596c0 4.204-3.408 7.612-7.612 7.612z" fill="#dbedff"/></g><path d="m430.087 97.268h-8.786c-7.745 0-14.024 6.279-14.024 14.024v26.933l2.261 3.857h30.615l3.958-3.857v-26.933c.001-7.745-6.278-14.024-14.024-14.024z" fill="#eab900"/><path d="m235.58 7.611h-73.296l-9.086 3.974-6.343 10.149v23.596h101.492l7.342-5.231v-12.378c.001-11.106-9.003-20.11-20.109-20.11z" fill="#ff636e"/><path d="m316.979 211.036-34.65-23.824c-19.07-13.112-30.463-34.771-30.463-57.913v-18.089l-6.569-6.002h-104.216v57.848l-45.362 28.577-38.85 31.193v244.186l8.457 20.974 23.17 20.636s6.968 1.563 14.887 3.38h179.328c33.403 0 60.482-27.079 60.482-60.482v-190.645c.001-19.916-9.803-38.555-26.214-49.839z" fill="#ffe02f"/><path d="m148.983 27.721c0-11.106 9.004-20.11 20.11-20.11h-57.673c-11.106 0-20.11 9.004-20.11 20.11v12.379l5.952 5.231h57.673l-5.952-5.231z" fill="#ff4654"/><path d="m61.478 451.518v-190.643c0-19.916 9.804-38.555 26.215-49.839l34.65-23.824c19.07-13.112 30.463-34.771 30.463-57.913v-18.089l7.466-6.002h-57.672l-7.466 6.002v18.089c0 23.142-11.393 44.802-30.463 57.913l-34.65 23.824c-16.411 11.284-26.215 29.923-26.215 49.839v190.643c0 33.403 27.078 60.482 60.482 60.482h57.673c-33.404 0-60.483-27.079-60.483-60.482z" fill="#fbc700"/><path d="m263.391 40.1h-127.973l-5.216 2.524-6.689 8.626v49.616l4.06 6.033 8.523 4.311h127.296c9.016 0 16.326-7.309 16.326-16.326v-38.458c-.002-9.017-7.311-16.326-16.327-16.326z" fill="#ff7f87"/><path d="m124.956 94.885v-38.459c0-9.017 7.309-16.326 16.326-16.326h-57.673c-9.017 0-16.326 7.309-16.326 16.326v38.459c0 9.017 7.309 16.326 16.326 16.326h57.673c-9.017-.001-16.326-7.31-16.326-16.326z" fill="#ff636e"/><g><path d="m264.839 148.184h-182.678c-4.204 0-7.612-3.407-7.612-7.612 0-4.204 3.408-7.612 7.612-7.612h182.677c4.204 0 7.612 3.407 7.612 7.612 0 4.204-3.408 7.612-7.611 7.612z" fill="#fbc700"/></g><g><path d="m98.653 88.848c-4.204 0-7.612-3.407-7.612-7.612v-11.163c0-4.204 3.408-7.612 7.612-7.612s7.612 3.407 7.612 7.612v11.164c0 4.204-3.408 7.611-7.612 7.611z" fill="#ff4654"/></g><g><path d="m128.592 88.848c-4.204 0-7.612-3.407-7.612-7.612v-11.163c0-4.204 3.408-7.612 7.612-7.612s7.612 3.407 7.612 7.612v11.164c-.001 4.204-3.408 7.611-7.612 7.611z" fill="#ff4654"/></g><g><path d="m158.531 88.848c-4.204 0-7.612-3.407-7.612-7.612v-11.163c0-4.204 3.408-7.612 7.612-7.612s7.612 3.407 7.612 7.612v11.164c-.001 4.204-3.409 7.611-7.612 7.611z" fill="#ff4654"/></g><g><path d="m188.469 88.848c-4.204 0-7.612-3.407-7.612-7.612v-11.163c0-4.204 3.408-7.612 7.612-7.612s7.612 3.407 7.612 7.612v11.164c0 4.204-3.408 7.611-7.612 7.611z" fill="#ff4654"/></g><g><path d="m218.408 88.848c-4.204 0-7.612-3.407-7.612-7.612v-11.163c0-4.204 3.408-7.612 7.612-7.612s7.612 3.407 7.612 7.612v11.164c0 4.204-3.408 7.611-7.612 7.611z" fill="#ff4654"/></g><g><path d="m248.347 88.848c-4.204 0-7.612-3.407-7.612-7.612v-11.163c0-4.204 3.408-7.612 7.612-7.612s7.612 3.407 7.612 7.612v11.164c0 4.204-3.408 7.611-7.612 7.611z" fill="#ff4654"/></g><path d="m263.592 241.383h-136.678l-13.475 7.43-9.156 13.05v189.248l6.036 11.84 17.792 11.177h135.481c18.253 0 33.05-14.797 33.05-33.05v-166.645c0-18.253-14.797-33.05-33.05-33.05z" fill="#dbedff"/><path d="m108.03 441.077v-166.644c0-18.253 14.797-33.05 33.05-33.05h-57.672c-18.253 0-33.05 14.797-33.05 33.05v166.644c0 18.253 14.797 33.05 33.05 33.05h57.673c-18.253.001-33.051-14.796-33.051-33.05z" fill="#b5dcff"/><path d="m202.167 355.172c-3.113-1.85-6.362-3.377-9.702-4.586h-6.284l-32.035 27.37v19.029l9.708 17.507 8.643 6.02c3.293-.191 6.621.561 9.637 2.259 10.638 5.988 29.202 10.574 44.666-15.985 13.15-22.585-5.79-40.415-24.633-51.614z" fill="#ff636e"/><path d="m165.442 410.333c-15.057-25.86 5.476-46.449 27.023-59.748-6.094-2.206-12.497-3.341-18.965-3.341-10.013 0-19.877 2.703-28.667 7.927-18.843 11.199-37.783 29.029-24.633 51.612 15.469 26.567 34.039 21.971 44.676 15.98 2.401-1.352 5-2.101 7.621-2.253-2.393-2.856-4.753-6.223-7.055-10.177z" fill="#ff4654"/><path d="m121.585 346.557c-.697-6.139-3.476-11.39-7.305-14.781h-3.58l-5.575 13.957 3.165 13.32 3.933 4.694 3.42 1.33c4.344-4.154 6.791-11.043 5.942-18.52z" fill="#ff636e"/><path d="m108.337 350.296c-.849-7.476 1.598-14.365 5.944-18.52-3.272-2.898-7.308-4.441-11.497-3.965-9.091 1.032-15.412 11.099-14.119 22.485s9.711 19.778 18.802 18.746c3.121-.354 5.903-1.793 8.176-3.965-3.83-3.39-6.608-8.642-7.306-14.781z" fill="#ff4654"/><path d="m167.202 313.618c-1.023-9.009-5.61-16.517-11.718-20.502h-2.54l-7.527 11.176-1.607 16.323s3.298 9.726 3.468 9.98c.169.254 3.637 5.497 3.637 5.497l6.447 2.711c6.923-4.772 11.051-14.515 9.84-25.185z" fill="#ff636e"/><path d="m145.644 318.301c-1.212-10.669 2.916-20.412 9.84-25.185-3.561-2.323-7.637-3.452-11.83-2.976-11.386 1.293-19.303 13.901-17.683 28.161 1.619 14.26 12.162 24.771 23.548 23.478 2.867-.326 5.513-1.37 7.843-2.976-6.109-3.985-10.695-11.493-11.718-20.502z" fill="#ff4654"/><path d="m211.189 293.116h-3.442l-9.472 12.698v20.467l5.244 11.502 5.793 1.02c6.108-3.985 10.695-11.494 11.718-20.502 1.211-10.669-2.917-20.412-9.841-25.185z" fill="#ff636e"/><path d="m199.471 313.618c1.023-9.009 5.609-16.517 11.718-20.502-2.33-1.606-4.976-2.65-7.843-2.976-11.386-1.293-21.928 9.218-23.548 23.478-1.619 14.26 6.297 26.868 17.683 28.161 4.193.476 8.269-.653 11.83-2.976-6.924-4.772-11.052-14.515-9.84-25.185z" fill="#ff4654"/><path d="m252.392 331.777h-2.655l-7.862 12.815 1.392 14.208 3.679 4.948 4.085 1.33c3.829-3.391 6.607-8.642 7.305-14.781.849-7.477-1.598-14.366-5.944-18.52z" fill="#ff636e"/><path d="m245.088 346.557c.697-6.139 3.476-11.39 7.305-14.781-2.272-2.172-5.054-3.611-8.175-3.965-9.091-1.032-17.509 7.36-18.802 18.746s5.028 21.452 14.119 22.485c4.189.476 8.226-1.068 11.497-3.965-4.346-4.154-6.794-11.043-5.944-18.52z" fill="#ff4654"/><path d="m447.68 139.299h-10.064l-15.477 25.279v172.275h35.591l11.935-5.061v-161.038c0-14.452-9.157-26.765-21.985-31.455z" fill="#ffe02f"/><g fill="#fbc700"><path d="m425.694 170.754c0-14.452 9.157-26.765 21.985-31.455-3.585-1.311-7.457-2.026-11.497-2.026h-20.977c-18.492 0-33.482 14.99-33.482 33.482v161.038l7.686 5.061h43.971l-7.686-5.061z"/><path d="m469.665 288.575h-16.258c-4.204 0-7.612 3.407-7.612 7.612s3.408 7.612 7.612 7.612h16.258z"/><path d="m445.795 260.046c0 4.204 3.408 7.612 7.612 7.612h16.258v-15.223h-16.258c-4.204-.001-7.612 3.406-7.612 7.611z"/><path d="m445.795 223.905c0 4.204 3.408 7.612 7.612 7.612h16.258v-15.223h-16.258c-4.204-.001-7.612 3.406-7.612 7.611z"/><path d="m445.795 187.764c0 4.204 3.408 7.612 7.612 7.612h16.258v-15.223h-16.258c-4.204-.001-7.612 3.406-7.612 7.611z"/></g><path d="m422.139 331.792h47.526v44.641h-47.526z" fill="#b5dcff"/><path d="m381.724 331.792h43.971v44.641h-43.971z" fill="#8bcaff"/><path d="m452.856 470.39h-17.519c-2.293.859-4.149 1.526-4.149 1.526l-5.494 5.244v23.511l5.833 9.134s2.236 1.003 4.902 2.196h16.427c7.781 0 14.088-6.308 14.088-14.088v-13.433c0-7.782-6.307-14.09-14.088-14.09z" fill="#dbedff"/><path d="m428.415 497.912v-13.433c0-7.781 6.308-14.088 14.088-14.088h-43.971c-7.781 0-14.088 6.308-14.088 14.088v13.433c0 7.781 6.308 14.088 14.088 14.088h43.971c-7.78 0-14.088-6.308-14.088-14.088z" fill="#b5dcff"/><path d="m494.106 373.402h-97.868c-2.903 1.341-5.983 2.609-5.983 2.609l-4.229 5.92v24.019l4.398 6.005 4.21 3.058h99.472c7.781 0 14.088-6.308 14.088-14.088v-13.435c0-7.781-6.307-14.088-14.088-14.088z" fill="#dbedff"/><path d="m387.165 400.923v-13.433c0-7.781 6.308-14.088 14.088-14.088h-43.971c-7.781 0-14.088 6.308-14.088 14.088v13.433c0 7.781 6.308 14.088 14.088 14.088h43.971c-7.78 0-14.088-6.307-14.088-14.088z" fill="#b5dcff"/></g></svg>