<svg id="Capa_1" enable-background="new 0 0 512 512" height="512" viewBox="0 0 512 512" width="512" xmlns="http://www.w3.org/2000/svg"><g><path d="m511.769 33.773-13.541-8.853-22.902 4.426-35.151 32.48 26.65 26.28 8.501 2.261 25.564-25.564c8.479-8.479 12.099-19.971 10.879-31.03z" fill="#6b7ed9"/><path d="m503.376 31.369 8.393 2.405c-.913-8.276-4.533-16.309-10.879-22.655-14.825-14.825-38.86-14.825-53.685 0l-25.564 25.564v6.868l22.035 21.729 25.231-25.057c9.039-8.976 22.224-12.363 34.469-8.854z" fill="#4d66d2"/><path d="m419.621 80.819-107.86 99.663-70.741 22.33-186.624 201.681 79.139 79.212 10.876 3.526 193.715-193.715c17.4-17.4 25.623-40.49 24.688-63.278-.693-16.9 5.924-33.283 17.884-45.244l67.529-67.529-1.682-9.012z" fill="#dbedff"/><path d="m403.02 63.781h-8.477l-67.529 67.529c-11.961 11.961-28.343 18.578-45.244 17.884-22.788-.935-45.878 7.288-63.278 24.688l-193.715 193.715v7.25l35.285 35.318c1.082-1.189 2.19-2.361 3.343-3.503l190.762-188.98c9.744-9.654 22.351-15.895 35.936-17.79 13.611-1.899 26.24-8.161 35.992-17.845l97.659-96.983z" fill="#b5dcff"/><path d="m90.61 444.901-25.508-28.846v-8.134l-7.208-7.208-9.866 10.662-16.215 32.152v29.552 20.431c33.214 26.588 81.814 24.505 112.599-6.28l-40.324-40.325z" fill="#8896e0"/><path d="m24.777 487.231c4.69 4.691 9.805 8.691 15.206 12.049-9.836-31.878-1.534-67.894 23.423-92.618l.219-.217-38.848-38.848c-33.036 33.036-33.036 86.598 0 119.634z" fill="#6b7ed9"/><path d="m256.154 248.876-116.781 118.721-4.537 13.17 12.039 12.038c5.789 5.789 15.174 5.789 20.962 0l113.423-113.424-.577-5.666z" fill="#ff636e"/><path d="m134.836 380.767 126.571-126.571-21.417-21.688-7.363-1.759-113.424 113.423c-5.789 5.789-5.789 15.174 0 20.963z" fill="#ff4654"/><path d="m297.877 241.802-12.039-12.038-11.852.984-20.51 20.85 27.783 27.783 16.617-16.617c5.79-5.788 5.79-15.173.001-20.962z" fill="#ffe02f"/><path d="m285.839 229.763-15.632-15.632c-5.789-5.789-15.174-5.788-20.963 0l-16.617 16.617 26.114 26.114z" fill="#fbc700"/><path d="m415.442 84.68 32.785 32.785 27.099-27.098-31.715-31.715z" fill="#8896e0"/><path d="m421.641 36.683-27.098 27.098 25.234 25.233 27.192-27.004z" fill="#6b7ed9"/><path d="m104.087 407.921c-1.356-1.356-2.818-2.54-4.359-3.554h-12.724s-7.981 33.255-8.626 35.435 3.733 6.043 4.505 6.558 16.841 4.099 16.845 4.1c1.541-1.014 3.003-2.198 4.359-3.554 10.765-10.765 10.765-28.219 0-38.985z" fill="#60b9fe"/><path d="m95.369 446.906c-10.765-10.765-10.765-28.22 0-38.985 1.356-1.356 2.818-2.54 4.359-3.554-10.697-7.04-25.217-5.856-34.627 3.554-10.765 10.765-10.765 28.22 0 38.985 9.41 9.41 23.93 10.594 34.627 3.554-1.541-1.014-3.003-2.198-4.359-3.554z" fill="#1ca8ff"/></g></svg>