<svg id="Capa_1" enable-background="new 0 0 511.999 511.999" height="512" viewBox="0 0 511.999 511.999" width="512" xmlns="http://www.w3.org/2000/svg"><g><path d="m401.729 68.874h-72.243l-8.081 5.076h-134.303l-4.589-5.076h-44.1l-12.779 7.449-12.714 13.049v402.369l15.462 15.575 11.415 4.683h261.933c15.605 0 28.256-12.65 28.256-28.256v-386.613c-.002-15.605-12.652-28.256-28.257-28.256z" fill="#60b9fe"/><g><path d="m123.909 483.743v-386.613c0-15.605 12.65-28.256 28.256-28.256h-41.895c-15.605 0-28.256 12.65-28.256 28.256v386.614c0 15.605 12.65 28.256 28.256 28.256h41.894c-15.605-.001-28.255-12.651-28.255-28.257z" fill="#1ca8ff"/></g><path d="m385.284 121.136h-224.931c-4.961 1.783-8.188 2.607-8.188 2.607v6.868 342.881l4.032 4.121 5.592 3.481h223.495c7.619 0 13.795-6.176 13.795-13.795v-332.368c-.001-7.619-6.177-13.795-13.795-13.795z" fill="#dbedff"/><path d="m154.814 467.298v-332.367c0-7.619 6.176-13.795 13.795-13.795h-41.894c-7.619 0-13.795 6.176-13.795 13.795v332.367c0 7.619 6.177 13.795 13.795 13.795h41.894c-7.619 0-13.795-6.176-13.795-13.795z" fill="#b5dcff"/><g><path d="m298.902 159.768h-85.804c-10.001 0-18.136-8.136-18.136-18.136v-57.583c0-4.267 3.459-7.726 7.726-7.726s7.726 3.459 7.726 7.726v57.582c0 1.48 1.204 2.684 2.684 2.684h85.804c1.48 0 2.684-1.204 2.684-2.684v-57.582c0-4.267 3.459-7.726 7.726-7.726s7.726 3.459 7.726 7.726v57.582c0 10.001-8.136 18.137-18.136 18.137z" fill="#8896e0"/></g><g><path d="m170.322 373.189h-11.847c-4.267 0-7.726-3.459-7.726-7.726 0-4.268 3.459-7.726 7.726-7.726h11.847c4.267 0 7.726 3.459 7.726 7.726s-3.459 7.726-7.726 7.726z" fill="#8896e0"/></g><g><path d="m354.897 373.189h-151.115c-4.267 0-7.726-3.459-7.726-7.726 0-4.268 3.459-7.726 7.726-7.726h151.115c4.267 0 7.726 3.459 7.726 7.726s-3.459 7.726-7.726 7.726z" fill="#8896e0"/></g><g><path d="m170.322 404.438h-11.847c-4.267 0-7.726-3.459-7.726-7.726 0-4.268 3.459-7.726 7.726-7.726h11.847c4.267 0 7.726 3.459 7.726 7.726s-3.459 7.726-7.726 7.726z" fill="#8896e0"/></g><g><path d="m354.897 404.438h-151.115c-4.267 0-7.726-3.459-7.726-7.726 0-4.268 3.459-7.726 7.726-7.726h151.115c4.267 0 7.726 3.459 7.726 7.726s-3.459 7.726-7.726 7.726z" fill="#8896e0"/></g><g><path d="m170.322 435.686h-11.847c-4.267 0-7.726-3.459-7.726-7.726s3.459-7.726 7.726-7.726h11.847c4.267 0 7.726 3.459 7.726 7.726s-3.459 7.726-7.726 7.726z" fill="#8896e0"/></g><g><path d="m354.897 435.686h-151.115c-4.267 0-7.726-3.459-7.726-7.726s3.459-7.726 7.726-7.726h151.115c4.267 0 7.726 3.459 7.726 7.726s-3.459 7.726-7.726 7.726z" fill="#8896e0"/></g><path d="m269.334 0h-26.669c-7.927 0-14.353 6.426-14.353 14.353v19.643l5.492 5.701h43.525l6.358-5.701v-19.643c0-7.927-6.426-14.353-14.353-14.353z" fill="#fbc700"/><path d="m280.899 263.612c-3.123-1.855-6.403-3.338-9.783-4.45h-8.053l-22.688 23.403v16.974l6.001 16.242 6.898 4.79c3.447-.636 7.036-.059 10.224 1.736 9.24 5.199 25.365 9.181 38.797-13.88 11.422-19.61-5.029-35.092-21.396-44.815z" fill="#ff636e"/><path d="m247.098 311.662c-13.265-22.773 5.025-40.872 24.018-52.5-4.884-1.607-9.977-2.433-15.116-2.433-8.697 0-17.265 2.347-24.9 6.883-16.367 9.724-32.817 25.205-21.396 44.814 13.436 23.067 29.566 19.077 38.805 13.875 1.517-.854 3.126-1.428 4.766-1.731-2.095-2.5-4.162-5.447-6.177-8.908z" fill="#ff4654"/><path d="m315.133 33.996h-82.571l-12.15 5.701v40.435l10.593 9.24h84.129c7.927 0 14.353-6.426 14.353-14.353v-26.67c-.001-7.927-6.427-14.353-14.354-14.353z" fill="#ffe02f"/><path d="m224.407 75.019v-26.67c0-7.927 6.426-14.353 14.353-14.353h-41.894c-7.927 0-14.353 6.426-14.353 14.353v26.669c0 7.927 6.426 14.353 14.353 14.353h41.894c-7.927.001-14.353-6.425-14.353-14.352z" fill="#fbc700"/><g fill="#ff636e"><path d="m187.548 226.418c.412.858 2.074 10.645 3.046 18.715s2.022 6.353 2.022 6.353l6.329 1.95c4.264-3.498 6.734-9.856 5.946-16.789-.656-5.778-3.432-10.652-7.195-13.541-.002 0-10.561 2.454-10.148 3.312z"/><path d="m237.831 189.728c-1.046-.557-10.767.462-11.689 2.35-.923 1.889-4.013 16.14-2.64 21.806 1.374 5.666.3 11.332 2.64 12.877s13.313 3.651 13.313 3.651c6.499-3.923 10.467-12.7 9.368-22.376-.934-8.219-5.283-15.001-10.992-18.308z"/><path d="m289.621 189.728s-11.004 1.492-11.175 2.35c-.172.858-8.148 19.574-6.993 21.977 1.155 2.404 3.232 7.555 4.855 10.302s11.689 6.054 11.689 6.054c5.71-3.307 10.058-10.088 10.992-18.308 1.099-9.675-2.87-18.451-9.368-22.375z"/><path d="m329.756 223.106c-.001 0-8.316.222-8.351 2.798-.035 2.575.379 24.381 0 25.068s7.101 2.465 7.102 2.465c3.763-2.889 6.539-7.764 7.195-13.541.788-6.934-1.682-13.292-5.946-16.79z"/></g><path d="m228.463 212.104c-1.099-9.676 2.869-18.452 9.368-22.376-2.893-1.676-6.135-2.462-9.461-2.084-9.889 1.123-16.766 12.074-15.359 24.46s10.564 21.516 20.453 20.393c2.164-.246 4.171-.985 5.991-2.084-5.71-3.307-10.058-10.089-10.992-18.309z" fill="#ff4654"/><path d="m191.749 239.895c-.787-6.933 1.683-13.291 5.946-16.789-2.678-2.056-5.852-3.114-9.135-2.741-7.896.897-13.387 9.641-12.264 19.53s8.435 17.179 16.331 16.282c2.361-.268 4.499-1.249 6.317-2.741-3.762-2.889-6.538-7.764-7.195-13.541z" fill="#ff4654"/><path d="m278.629 208.037c.934-8.22 5.283-15.002 10.992-18.308-1.82-1.099-3.827-1.839-5.991-2.084-9.889-1.123-19.047 8.007-20.453 20.393-1.407 12.386 5.47 23.337 15.359 24.46 3.326.378 6.568-.409 9.461-2.084-6.499-3.925-10.467-12.702-9.368-22.377z" fill="#ff4654"/><path d="m322.56 236.647c.656-5.778 3.432-10.652 7.196-13.541-1.818-1.492-3.957-2.473-6.317-2.741-7.896-.897-15.208 6.393-16.331 16.283-1.123 9.889 4.367 18.633 12.264 19.53 3.283.373 6.457-.685 9.135-2.741-4.264-3.499-6.734-9.857-5.947-16.79z" fill="#ff4654"/></g></svg>