<svg id="Capa_1" enable-background="new 0 0 512 512" height="512" viewBox="0 0 512 512" width="512" xmlns="http://www.w3.org/2000/svg"><g><g><path d="m325.818 149.994v244.953h93.091v-244.963c-.004-34.491-93.095-34.48-93.091.01z" fill="#fd8a88"/><path d="m325.818 107.055v42.939c21.152 0 76.764-.008 93.091-.01v-42.929z" fill="#fb5f5c"/></g><g><path d="m403.394 394.947h38.788v-244.966c-.004-34.482-38.792-34.478-38.788.004z" fill="#ebe9fb"/><path d="m403.394 107.055v42.931c11.931-.002 24.837-.003 38.788-.004v-42.927z" fill="#cfcfed"/><path d="m302.545 149.991v244.956h38.788v-244.954c.002-34.495-38.786-34.497-38.788-.002z" fill="#ebe9fb"/><path d="m302.545 107.055v42.936c8.272.003 17.84.003 28.953.003l9.834-.001v-42.938z" fill="#cfcfed"/></g><path d="m434.941 124.121c21.174 0 38.271-17.177 38.271-38.271v-47.58c0-21.131-17.139-38.27-38.271-38.27h-93.619c-34.898 0-41.19 20.688-41.19 35.296v53.527c0 14.616 11.378 35.311 41.201 35.311 19.158.005 49.111-.013 93.608-.013z" fill="#0fd877"/><g><path d="m324.951 88.823v-53.527c0-14.608 6.478-27.512 16.371-35.296h-31.536c-21.132 0-38.271 17.139-38.271 38.271v47.58c0 18.66 13.364 34.206 31.03 37.588 3.057.579-1.591.687 38.788.696-9.899-7.784-16.382-20.696-16.382-35.312z" fill="#00c144"/></g><g><path d="m372.364 93.091c-4.284 0-7.758-3.473-7.758-7.758v-46.545c0-4.284 3.473-7.758 7.758-7.758 4.284 0 7.758 3.473 7.758 7.758v46.545c-.001 4.285-3.474 7.758-7.758 7.758z" fill="#fade65"/></g><g><path d="m325.818 93.091c-4.284 0-7.758-3.473-7.758-7.758v-46.545c0-4.284 3.473-7.758 7.758-7.758 4.284 0 7.758 3.473 7.758 7.758v46.545c0 4.285-3.473 7.758-7.758 7.758z" fill="#fade65"/></g><g><path d="m418.909 93.091c-4.284 0-7.758-3.473-7.758-7.758v-46.545c0-4.284 3.473-7.758 7.758-7.758 4.284 0 7.758 3.473 7.758 7.758v46.545c0 4.285-3.474 7.758-7.758 7.758z" fill="#fade65"/></g><g><path d="m93.091 149.994v244.953h93.091v-244.963c-.004-34.491-93.095-34.48-93.091.01z" fill="#fd8a88"/><path d="m93.091 107.055v42.939c21.152 0 76.764-.008 93.091-.01v-42.929z" fill="#fb5f5c"/></g><g><path d="m170.667 394.947h38.788v-244.966c-.004-34.482-38.792-34.478-38.788.004z" fill="#ebe9fb"/><path d="m170.667 107.055v42.931c11.931-.002 24.837-.003 38.788-.004v-42.927z" fill="#cfcfed"/><path d="m69.818 149.991v244.956h38.788v-244.954c.002-34.495-38.786-34.497-38.788-.002z" fill="#ebe9fb"/><path d="m69.818 107.055v42.936c8.272.003 17.84.003 28.953.003l9.834-.001v-42.938z" fill="#cfcfed"/></g><path d="m512 423.905v-13.095c0-21.235-17.211-38.447-38.447-38.447-39.552 0-248.356 0-364.082 0-75.511 0-75.511 17.211-75.511 38.447v13.095c.001 48.655 25.86 88.095 125.16 88.095h264.785c48.655 0 88.095-39.44 88.095-88.095z" fill="#615283"/><g><path d="m71.025 423.905v-13.095c0-21.235 17.211-38.447 38.447-38.447-33.78 0-59.631 0-71.025 0-21.236.001-38.447 17.212-38.447 38.447v13.095c0 48.655 39.44 88.095 88.095 88.095h71.025c-48.656 0-88.095-39.44-88.095-88.095z" fill="#4d3b65"/></g><path d="m338.292 430.421c16.767 0 30.358 10.819 30.358 24.173 0 13.353-13.591 24.183-30.358 24.183-16.777 0-30.368-10.83-30.368-24.183s13.591-24.173 30.368-24.173z" fill="#fd9faa"/><path d="m173.708 430.421c16.777 0 30.368 10.819 30.368 24.173 0 13.353-13.591 24.183-30.368 24.183-16.767 0-30.358-10.83-30.358-24.183s13.591-24.173 30.358-24.173z" fill="#fd9faa"/><g><path d="m191.405 439.079c-4.284 0-7.758-3.473-7.758-7.758v-12.412c0-4.285 3.473-7.758 7.758-7.758 4.284 0 7.758 3.473 7.758 7.758v12.412c0 4.285-3.474 7.758-7.758 7.758z" fill="#fff"/></g><g><path d="m320.595 439.079c-4.284 0-7.758-3.473-7.758-7.758v-12.412c0-4.285 3.473-7.758 7.758-7.758s7.758 3.473 7.758 7.758v12.412c0 4.285-3.474 7.758-7.758 7.758z" fill="#fff"/></g><g><path d="m256.001 446.464c-8.779 0-17.119-3.8-22.88-10.425-2.811-3.232-2.469-8.132.764-10.943 3.233-2.812 8.131-2.472 10.944.764 2.813 3.234 6.885 5.09 11.172 5.09 4.286 0 8.358-1.856 11.171-5.09 2.812-3.234 7.712-3.576 10.944-.764 3.233 2.811 3.575 7.711.764 10.943-5.762 6.625-14.101 10.425-22.879 10.425z" fill="#fff"/></g><path d="m202.214 124.121c21.174 0 38.271-17.177 38.271-38.271v-47.58c0-21.131-17.139-38.27-38.271-38.27h-93.619c-34.898 0-41.19 20.688-41.19 35.296v53.527c0 14.616 11.378 35.311 41.201 35.311 19.158.005 49.111-.013 93.608-.013z" fill="#0fd877"/><g><path d="m92.224 88.823v-53.527c0-14.608 6.478-27.512 16.371-35.296h-31.536c-21.132 0-38.271 17.139-38.271 38.271v47.58c0 18.66 13.364 34.206 31.03 37.588 3.057.579-1.591.687 38.788.696-9.899-7.784-16.382-20.696-16.382-35.312z" fill="#00c144"/></g><g><path d="m139.636 93.091c-4.284 0-7.758-3.473-7.758-7.758v-46.545c0-4.284 3.473-7.758 7.758-7.758s7.758 3.473 7.758 7.758v46.545c0 4.285-3.473 7.758-7.758 7.758z" fill="#fade65"/></g><g><path d="m93.091 93.091c-4.284 0-7.758-3.473-7.758-7.758v-46.545c0-4.284 3.473-7.758 7.758-7.758 4.284 0 7.758 3.473 7.758 7.758v46.545c0 4.285-3.474 7.758-7.758 7.758z" fill="#fade65"/></g><g><path d="m186.182 93.091c-4.284 0-7.758-3.473-7.758-7.758v-46.545c0-4.284 3.473-7.758 7.758-7.758s7.758 3.473 7.758 7.758v46.545c-.001 4.285-3.474 7.758-7.758 7.758z" fill="#fade65"/></g></g></svg>