<svg id="Capa_1" enable-background="new 0 0 512 512" height="512" viewBox="0 0 512 512" width="512" xmlns="http://www.w3.org/2000/svg"><g><g><g><path d="m343.402 0h-63.815c-105.507 23.499-147.866 459.617-31.345 512h95.16c45.987 0 83.265-37.278 83.265-83.265 0-14.246 0-339.208 0-345.471 0-45.986-37.278-83.264-83.265-83.264zm44.477 418.909c0 29.986-24.317 54.303-54.303 54.303h-15.515v-23.097c0-25.807 20.914-46.721 46.721-46.721h23.097zm0-310.303h-23.097c-25.807 0-46.721-20.914-46.721-46.721v-23.097h15.515c29.986 0 54.303 24.317 54.303 54.303z" fill="#ff8c8a"/><path d="m207.121 243.656c7.913-99.7 35.529-187.176 72.466-243.656h-110.989c-45.987 0-83.265 37.278-83.265 83.265v345.471c0 45.987 37.278 83.265 83.265 83.265h79.644c-32.89-61.221-49.765-159.432-41.121-268.345zm-13.182 229.556h-15.515c-29.986 0-54.303-24.317-54.303-54.303v-15.515h23.097c25.807 0 46.721 20.914 46.721 46.721zm0-411.327c0 25.807-20.914 46.721-46.721 46.721h-23.097v-15.515c0-29.986 24.317-54.303 54.303-54.303h15.515z" fill="#fd5f5c"/><path d="m318.061 61.885v-23.097h-60.062c-126.801 27.489-120.087 380.294-26.725 434.424h86.788v-23.097c0-25.807 20.914-46.721 46.721-46.721h23.097c0-17.223 0-277.816 0-294.788h-23.097c-25.808 0-46.722-20.914-46.722-46.721z" fill="#edebfd"/><path d="m257.998 38.788h-64.059v23.097c0 25.807-20.914 46.721-46.721 46.721h-23.097v294.788h23.097c25.807 0 46.721 20.914 46.721 46.721v23.097h37.333c-43.665-122.746-32.019-311.193 26.726-434.424z" fill="#d1d1ef"/><path d="m333.576 31.03h-71.764c-14.951 3.317-17.807 8.435-7.408 15.515h55.9v15.339c0 30.04 24.439 54.479 54.479 54.479h15.339v279.273h-15.339c-30.04 0-54.479 24.439-54.479 54.479v15.339h-81.677c-12.501 5.149-10.238 10.336 5.517 15.515h99.432c34.22 0 62.061-27.84 62.061-62.061v-325.817c-.001-34.22-27.841-62.061-62.061-62.061zm46.545 387.879c0 25.706-20.839 46.545-46.545 46.545h-2.586c-2.856 0-5.172-2.315-5.172-5.172v-10.168c0-21.519 17.445-38.964 38.964-38.964h10.168c2.856 0 5.172 2.315 5.172 5.172v2.587zm-5.171-318.061h-10.168c-21.519 0-38.964-17.445-38.964-38.964v-10.167c0-2.856 2.315-5.172 5.172-5.172h2.586c25.706 0 46.545 20.839 46.545 46.545v2.586c0 2.857-2.315 5.172-5.171 5.172z" fill="#d1d1ef"/><path d="m201.697 465.455v-15.339c0-30.039-24.439-54.479-54.479-54.479h-15.339v-279.273h15.339c30.04 0 54.479-24.439 54.479-54.479v-15.34h52.706c2.402-5.328 4.875-10.498 7.408-15.515h-83.387c-34.22 0-62.061 27.84-62.061 62.061v325.818c0 34.22 27.84 62.061 62.061 62.061h55.719c-1.927-5.012-3.763-10.193-5.517-15.515zm-69.818-372.364c0-25.706 20.839-46.545 46.545-46.545h2.586c2.856 0 5.172 2.315 5.172 5.172v10.168c0 21.519-17.445 38.964-38.964 38.964h-10.168c-2.856 0-5.172-2.315-5.172-5.172v-2.587zm49.131 372.364h-2.586c-25.706 0-46.545-20.839-46.545-46.545v-2.586c0-2.856 2.315-5.172 5.172-5.172h10.168c21.519 0 38.964 17.445 38.964 38.964v10.168c-.001 2.855-2.317 5.171-5.173 5.171z" fill="#bfbfe4"/><path d="m457.697 178.424c0-17.128-13.901-31.03-31.03-31.03-38.612 0-124.065 0-205.147 0-49.447 5.036-57.059 55.855-10.856 62.061h216.002c17.14-.001 31.031-13.892 31.031-31.031z" fill="#615285"/><path d="m85.333 147.393c-17.139 0-31.03 13.891-31.03 31.03 0 17.128 13.901 31.03 31.03 31.03h125.331c2.744-21.467 6.399-42.222 10.856-62.061-51.55.001-101.333.001-136.187.001z" fill="#4e3a65"/><path d="m457.697 333.575c0-17.128-13.901-31.03-31.03-31.03-41.265 0-136.026 0-221.777 0-44.911 1.38-43.187 61.372 3.202 62.061h218.575c17.139-.001 31.03-13.892 31.03-31.031z" fill="#615285"/><path d="m85.333 302.545c-17.139 0-31.03 13.891-31.03 31.03 0 17.128 13.901 31.03 31.03 31.03h122.759c-2.019-19.877-3.114-40.638-3.202-62.061-45.502.001-88.469.001-119.557.001z" fill="#4e3a65"/><g fill="#fade65"><path d="m279.273 209.454v-62.061c0-8.564 6.951-15.515 15.515-15.515s15.515 6.951 15.515 15.515v62.061c0 13.862-16.817 20.662-26.479 10.964-2.814-2.803-4.551-6.682-4.551-10.964z"/><path d="m279.273 364.605v-62.061c0-8.564 6.951-15.515 15.515-15.515s15.515 6.951 15.515 15.515v62.061c0 13.862-16.817 20.662-26.479 10.964-2.814-2.803-4.551-6.681-4.551-10.964z"/></g></g></g></g></svg>