<svg id="Capa_1" enable-background="new 0 0 512 512" height="512" viewBox="0 0 512 512" width="512" xmlns="http://www.w3.org/2000/svg"><g><g><g><path d="m299.249 212.796c34.655-86.612-15.201-181.996-102.18-206.83-148.418-13.632-167.033 298.476-22.588 303.176 13.355-1.66 26.187-5.013 38.27-9.848 34.459-16.102 68.452-48.678 86.498-86.498z" fill="#8a94ff"/><g><path d="m197.069 5.966c-98.11-28.013-197.024 46.124-197.024 149.248 0 34.504 11.268 66.376 30.321 92.141 3.98 5.382 3.746 12.791-.539 17.933l-6.845 8.214c-12.193 14.633-1.789 36.837 17.25 36.837 116.465-.374 117.538.88 134.249-1.197-41.003-85.109-31.182-216.061 22.588-303.176z" fill="#6576ef"/></g><path d="m489.017 475.163-7.224-8.669c-4.064-4.877-4.303-11.918-.509-17.008 19.13-25.665 30.51-57.446 30.668-91.88.339-73.365-50.976-135.52-119.638-151.733-130.502-10.326-181.817 269.931-30.062 306.127h109.516c19.038 0 29.442-22.203 17.249-36.837z" fill="#fade65"/><g><path d="m392.316 205.873c-97.619-23.051-191.826 51.75-190.597 152.965 1.022 84.255 72.422 153.162 156.682 153.162h3.851c-37.61-89.721-24.474-223.469 30.064-306.127z" fill="#ffca47"/></g><g fill="#df6d2b"><path d="m432.449 298.704c10.714 0 19.401 9.918 19.401 22.162 0 12.234-8.687 22.162-19.401 22.162-10.704 0-19.38-9.928-19.38-22.162-.001-12.244 8.676-22.162 19.38-22.162z"/><path d="m376.221 283.192c0-9.347-5.072-17.331-12.24-20.587-21.802 0-28.007 30.497-12.629 41.837 12.506 4.205 24.869-6.548 24.869-21.25z"/><path d="m427.743 417.779c1.26-12.998-3.942-25.296-13.537-33.426-5.295-4.488-9.566-10.093-12.017-16.598-8.615-22.867-33.083-35.966-57.194-29.913-44.402 29.548-44.402 106.615.556 114.88h42.943c20.054 0 37.314-14.982 39.249-34.943z"/></g><g fill="#bb521d"><path d="m344.995 337.842c-15.463 3.882-27.973 15.186-33.522 29.913-2.451 6.505-6.722 12.11-12.017 16.598-8.397 7.115-13.723 17.725-13.723 29.587 0 21.415 17.353 38.781 38.781 38.781h21.037c-6.399-38.055-5.984-77.592-.556-114.879z"/><path d="m337.44 283.192c0 10.06 5.871 18.547 13.913 21.25 3.467-14.637 7.711-28.632 12.629-41.837-12.725-5.78-26.542 4.949-26.542 20.587z"/></g><path d="m281.213 298.704c10.704 0 19.38 9.918 19.38 22.162 0 12.234-8.677 22.162-19.38 22.162-10.714 0-19.401-9.928-19.401-22.162 0-12.244 8.687-22.162 19.401-22.162z" fill="#bb521d"/><path d="m186.194 201.107v-4.785c0-5.569 4.514-10.083 10.083-10.083h4.831c16.418 0 30.459-12.518 31.552-28.9.627-9.4-2.943-17.983-9.019-24.06-11.386-11.386-24.942-8.703-27.364-9.09-5.569 0-10.083-4.514-10.083-10.083v-5.429c0-13.78-8.984-25.452-21.412-29.499-43.587 4.162-43.587 143.515-12.458 153.461 18.67 1.699 33.87-13.427 33.87-31.532z" fill="#edebfd"/><g><path d="m164.782 79.179c-20.447-6.658-40.637 9.032-40.637 30.143v4.785c0 5.569-4.514 10.083-10.083 10.083h-4.811c-16.391 0-30.437 12.468-31.567 28.82-1.256 18.18 13.149 33.23 30.948 33.23h5.429c5.569 0 10.083 4.514 10.083 10.083v5.429c0 16.176 12.378 29.45 28.179 30.887-7.088-50.987-1.923-105.5 12.459-153.46z" fill="#d1d1ef"/></g></g></g></g></svg>