<svg id="Capa_1" enable-background="new 0 0 512.007 512.007" height="512" viewBox="0 0 512.007 512.007" width="512" xmlns="http://www.w3.org/2000/svg"><g><g><g><path d="m473.215 144.808c0-28.558-23.159-51.717-51.717-51.717-7.919 0-143.394 0-238.721 0-66.41 7.758-71.993 92.574-28.774 112.485h319.212z" fill="#ff8c8a"/><path d="m196.772 205.576c-66.441 9.568-74.672 86.109-35.326 101.107h296.944l14.826-19.653v-81.455c-63.98.001-227.011.001-276.444.001z" fill="#fade65"/><g><path d="m38.791 205.576v81.455l19.394 19.653h103.261c7.805-38.367 20.064-72.829 35.326-101.107-84.409-.001-155.904-.001-157.981-.001z" fill="#ffca47"/></g><path d="m453.821 397.705c-191.882 0-111.798 0-301.776 0-44.642 14.136-29.945 86.885 9.544 93.25l71.142 21.045h182.303c32.137 0 58.182-26.045 58.182-58.182v-34.909z" fill="#615285"/><g><path d="m152.045 397.705c-52.048 0-90.72 0-93.86 0l-19.394 21.204v34.909c0 30.833 23.974 56.059 54.302 58.055l68.496-20.917c-6.395-28.241-9.773-59.811-9.544-93.251z" fill="#4e3a65"/></g><path d="m165.924 287.03c-43.351 9.309-65.734 110.675-13.537 131.879h320.829v-131.879c-108.29 0-199.061 0-307.292 0z" fill="#edebfd"/><g><path d="m165.924 287.03c-68.812 0-123.012 0-127.133 0v131.879h113.596c-1.692-42.687 2.631-88.599 13.537-131.879z" fill="#d1d1ef"/></g><path d="m341.337 372.364c29.479 8.792 28.789 83.265 0 93.091h-41.115c-15.857 0-28.703-12.847-28.703-28.703 0-12.48 0-23.204 0-35.685 0-15.857 12.847-28.703 28.703-28.703z" fill="#00c4fc"/><path d="m411.155 436.752c0 15.856-12.847 28.703-28.703 28.703h-41.115v-93.091h41.115c15.857 0 28.703 12.847 28.703 28.703z" fill="#59d5ff"/><g><path d="m90.508 93.091c-28.558 0-51.717 23.159-51.717 51.717v60.768h115.212c6.628-40.273 16.443-78.121 28.774-112.485-48.588 0-86.748 0-92.269 0z" fill="#fd5f5c"/></g><path d="m395.64 232.727h89.212c14.998 0 27.152-12.154 27.152-27.152s-12.167-27.152-27.152-27.152c-12.386 0-193.832 0-325.827 0-42.658 3.103-41.243 46.545-8.08 47.58l105.059-20.428z" fill="#fd5f5c"/><g><path d="m27.155 178.424c-14.998 0-27.152 12.154-27.152 27.152s12.167 27.152 27.152 27.152h89.212l34.577-6.723c2.191-16.233 4.899-32.114 8.08-47.58-63.541-.001-115.626-.001-131.869-.001z" fill="#fd3644"/></g><path d="m395.64 79.903c0-44.125-35.778-79.903-79.903-79.903h-35.012c-115.399 14.653-113.675 172.218-36.489 214.182l44.091 18.545h107.313c0-14.776 0-132.894 0-152.824z" fill="#615285"/><g><path d="m280.724 0c-17.487 0-66.593 0-84.454 0-44.125 0-79.903 35.778-79.903 79.903v152.824h107.313l19.345-27.151c-8.495-67.402 4.629-147.503 37.699-205.576z" fill="#4e3a65"/></g><path d="m331.634 78.683c10.716 0 19.404 9.93 19.404 22.166s-8.689 22.166-19.404 22.166c-10.705 0-19.384-9.93-19.384-22.166s8.679-22.166 19.384-22.166z" fill="#f68953"/><g><path d="m327.114 193.939c0-11.557-5.08-22.267-13.726-29.593-5.296-4.489-9.568-10.095-12.019-16.601-8.704-23.103-33.598-36.234-57.914-29.735-37.79 22.487-43.7 106.45 4.31 114.716h40.561c21.422.001 38.788-17.365 38.788-38.787z" fill="#f68953"/><path d="m243.456 118.011c-15.138 4.046-27.354 15.231-32.819 29.735-2.451 6.506-6.723 12.112-12.019 16.601-17.362 14.711-18.367 41.001-2.369 57.023 7.023 7.013 16.725 11.357 27.431 11.357h24.086c-8.385-36.989-9.069-77.015-4.31-114.716z" fill="#df6d2b"/><path d="m275.397 63.167c0-10.038-5.844-18.513-13.859-21.238-18.465-.928-25.834 30.474-12.185 42.039 12.698 5.303 26.044-5.451 26.044-20.801z" fill="#f68953"/><path d="m236.609 63.167c0 9.572 5.312 17.698 12.744 20.802 3.28-14.765 7.386-28.838 12.185-42.039-12.461-4.237-24.929 6.444-24.929 21.237z" fill="#df6d2b"/></g><path d="m224.973 391.24c0-27.565-22.342-49.907-49.907-49.907h-19.288c-33.678 19.653-37.996 148.946 11.32 170.667h50.117l7.758-10.602z" fill="#59d5ff"/><g><path d="m155.778 341.333h-5.019c-27.47 0-49.907 22.278-49.907 49.907v120.76h66.247c-16.033-53.663-18.316-114.922-11.321-170.667z" fill="#00c4fc"/></g><path d="m187.552 80.272c-2.222-1.015-4.641-1.59-7.18-1.59-10.716 0-19.404 9.93-19.404 22.166 0 9.426 5.165 17.461 12.431 20.666 2.167.955 4.512 1.5 6.973 1.5 10.705 0 19.384-9.93 19.384-22.166 0-9.334-5.057-17.31-12.204-20.576z" fill="#df6d2b"/><g><path d="m232.731 391.24v120.76h-15.515v-120.76c0-23.242-18.908-42.15-42.149-42.15h-20.211c.483-4.471 1.315-11.075 1.955-15.515h18.256c31.795.001 57.664 25.87 57.664 57.665z" fill="#4e3a65"/><path d="m150.759 333.576c-31.796 0-57.665 25.869-57.665 57.665v120.617c2.976.196 3.317.143 15.515.143v-120.761c0-23.241 18.908-42.15 42.149-42.15h4.094c.567-5.189 1.22-10.363 1.956-15.515h-6.049z" fill="#412f55"/></g><g><path d="m193.943 457.697c-4.284 0-7.758-3.473-7.758-7.758v-15.515c0-4.285 3.473-7.758 7.758-7.758s7.758 3.473 7.758 7.758v15.515c-.001 4.285-3.474 7.758-7.758 7.758z" fill="#edebfd"/></g></g></g></g></svg>