<svg id="Capa_1" enable-background="new 0 0 512 512" height="512" viewBox="0 0 512 512" width="512" xmlns="http://www.w3.org/2000/svg"><g><g><g><path d="m204.412 28.428c-53.126 18.116-53.126 104.817-5.676 96.228 81.573-24.437 172.411 6.454 210.657 72.261l.01.01c80.045-126.21-79.787-187.907-204.991-168.499z" fill="#00c344"/><g><path d="m204.412 28.428c-88.527 13.722-157.102 68.335-101.815 168.499.888-.981 26.224-51.327 96.139-72.272-6.228-31.952-3.563-66.47 5.676-96.227z" fill="#04a814"/></g><path d="m365.364 22.935c-45.594-20.893-99.856-27.517-150.955-19.849-41.835 11.398-42.179 48.629-16.058 50.715 107.907-28.206 220.536 27.601 220.536 105.213 0 13.3-3.34 26.072-9.484 37.914-20.022 38.607-69.747 67.461-130.165 73.418-7.746 1.276-15.493 1.913-23.239 1.913v92.82c27.282 0 54.565-4.288 81.847-12.866 84.443-26.681 127.579-88.013 127.579-146.66v-46.539c.001-60.845-43.228-110.036-100.061-136.079z" fill="#00da77"/><path d="m232.761 270.345c-60.418-5.957-110.143-34.811-130.165-73.418-6.143-11.842-9.484-24.614-9.484-37.914 0-48.098 43.736-89.137 105.238-105.213 3.178-18.554 8.734-35.708 16.058-50.715-36.371 5.458-71.139 18.15-100.033 38.101-43.085 29.754-67.802 72.704-67.802 117.827v46.539c0 58.82 43.211 120.003 127.579 146.66 27.282 8.577 54.564 12.865 81.846 12.866v-92.82c-7.744.001-15.49-.637-23.237-1.913z" fill="#00c344"/><path d="m356.835 411.165c0-55.888-45.715-101.802-102.622-100.812-82.759 14.392-80.949 189.948 4.75 201.6 54.318-1.567 97.872-46.089 97.872-100.788z" fill="#8a94ff"/><g><path d="m254.213 310.353c-54.864.954-99.047 45.72-99.047 100.812-.001 55.69 45.144 100.835 100.834 100.835.991 0 1.978-.018 2.962-.047-34.085-52.181-35.982-139.724-4.749-201.6z" fill="#6576ef"/></g><path d="m380.104 411.101c0-12.855-10.414-23.27-23.27-23.27-6.181 0-69.645 0-123.846 0-34.637 3.62-37.686 42.661.348 46.539h123.498c12.866 0 23.27-10.43 23.27-23.269z" fill="#fade65"/><g><path d="m232.989 387.831c-39.007 0-73.217 0-77.823 0-12.865 0-23.27 10.43-23.27 23.27 0 12.855 10.414 23.27 23.27 23.27h78.172c-1.628-15.198-1.75-30.793-.349-46.54z" fill="#ffca47"/></g><path d="m279.27 333.535c0-14.097 0-49.021 0-62.052 0-9.411-5.587-17.506-13.618-21.173-21.06 0-22.751 11.768-22.751 21.173v62.052c0 9.41 2.413 21.173 22.753 21.173 8.032-3.666 13.616-11.763 13.616-21.173z" fill="#fade65"/><g><path d="m252.036 333.535c0-14.107 0-49.025 0-62.052 0-9.404 5.581-17.504 13.616-21.173-2.941-1.343-6.208-2.097-9.651-2.097-12.862 0-23.27 10.423-23.27 23.27v62.052c0 12.855 10.414 23.27 23.27 23.27 3.445 0 6.712-.754 9.653-2.096-8.035-3.667-13.618-11.764-13.618-21.174z" fill="#ffca47"/></g></g></g></g></svg>