<svg id="Capa_1" enable-background="new 0 0 512 512" height="512" viewBox="0 0 512 512" width="512" xmlns="http://www.w3.org/2000/svg"><g><g><g><path d="m340.726 42.061c20.277-32.12 58.701-48.416 96.48-39.759 10.762 2.472 19.467 10.853 22.072 22.072 7.979 34.822-5.296 69.924-31.867 90.874-30.311 24.215-104.258-36.197-86.685-73.187z" fill="#fddeae"/><path d="m383.133 89.309c-.455 19.497 18.269 19.497 21.348 19.497 3.961 0 8.668-2.017 13.25-5.678 20.422-16.105 30.832-41.909 27.776-67.491-.399-3.339-4.214-5.03-7.032-3.196-15.346 9.985-31.007 23.001-45.319 39.926-4.903 5.813-8.161 11.543-10.023 16.942z" fill="#ff8c8a"/><path d="m241.085 42.061c-20.277-32.12-58.701-48.416-96.48-39.759-10.762 2.472-19.467 10.853-22.072 22.072-7.979 34.822 5.296 69.924 31.867 90.874 30.311 24.215 104.258-36.197 86.685-73.187z" fill="#fdc983"/><path d="m198.679 89.309c.455 19.497-18.269 19.497-21.348 19.497-3.961 0-8.668-2.017-13.249-5.678-20.422-16.105-30.832-41.909-27.776-67.491.399-3.339 4.214-5.03 7.032-3.196 15.346 9.985 31.007 23.001 45.319 39.926 4.902 5.813 8.16 11.543 10.022 16.942z" fill="#fd5f5c"/><path d="m153.324 441.915c43.462-2.575 66.217 30.522 14.832 32.353-72.74-2.393-111.889-41.148-101.062-112.005 9.65-63.176-.786-95.415-11.233-111.343-4.768-7.271-9.909-11.739-14.087-14.449-5.195-3.375-7.782-9.64-6.558-15.763 1.82-10.767 14.056-16.249 23.262-10.353 22.869 14.645 54.994 53.804 39.293 156.604-6.721 44.006 9.25 68.777 55.553 74.956z" fill="#fddeae"/><path d="m411.022 477.723c30.812-38.414 23.355-91.764-1.81-136.384-8.73-15.463-14.429-29.964-18.111-42.872 0-26.131-18.102-44.405-43.42-54.83-156.584-25.209-204.162 249.228-56.616 268.363 9.296 0 19.748-1.681 27.689-1.681 4.753 0 7.86 1.681 11.361 1.681h8.226c28.134 0 55.088-12.329 72.681-34.277z" fill="#fddeae"/><g><g><g><path d="m347.682 243.637c-58.928-24.264-156.967-5.99-156.967 54.83-3.682 12.908-9.381 27.409-18.111 42.872-18.018 31.95-26.954 68.368-19.28 100.576 10.176 42.633 48.019 70.085 90.151 70.085h8.219c3.654 0 4.007-1.681 9.009-1.681 7.895 0 21.201 1.681 30.362 1.681-39.172-90.627-16.372-207.066 56.617-268.363z" fill="#fdc983"/></g></g></g><path d="m446.054 189.037c0-84.683-67.753-153.279-151.716-155.103-158.576 32.796-174.092 272.066-6.509 294.671 78.586 1.241 158.225-45.285 158.225-139.568z" fill="#fdf1e2"/><g><path d="m237.744 170.535c3.595-54.349 24.909-102.441 56.595-136.601-86.695-1.885-158.577 67.697-158.577 155.103 0 91.845 76.19 138.368 152.724 139.577-34.399-39.194-54.84-96.13-50.742-158.079z" fill="#fddeae"/></g><g><path d="m241.509 144.21c-4.284 0-7.757-3.473-7.757-7.757 0-3.576-2.904-6.485-6.475-6.485-3.576 0-6.485 2.909-6.485 6.485 0 4.284-3.473 7.757-7.757 7.757s-7.757-3.473-7.757-7.757c0-12.131 9.869-22 22-22 12.125 0 21.989 9.869 21.989 22 0 4.284-3.473 7.757-7.758 7.757z" fill="#334151"/></g><g><path d="m368.781 144.21c-4.284 0-7.757-3.473-7.757-7.757 0-3.576-2.909-6.485-6.485-6.485-3.571 0-6.475 2.909-6.475 6.485 0 4.284-3.473 7.757-7.757 7.757s-7.757-3.473-7.757-7.757c0-12.131 9.864-22 21.99-22 12.13 0 21.999 9.869 21.999 22-.001 4.284-3.474 7.757-7.758 7.757z" fill="#334151"/></g><g><path d="m107.128 230.585c-3.096-2.961-3.205-7.871-.244-10.968 7.819-8.175 16.653-14.893 26.256-19.969 43.447-22.94 88.829-5.914 90.74-5.18 3.998 1.54 5.991 6.03 4.451 10.027-1.539 3.993-6.022 5.988-10.016 4.455-.555-.21-40.924-15.123-77.929 4.416-8.125 4.294-15.626 10.006-22.291 16.975-2.965 3.101-7.875 3.201-10.967.244z" fill="#fdc983"/></g><g><path d="m139.233 285.746c-3.571-2.367-4.547-7.181-2.18-10.751 4.321-6.518 9.153-12.387 14.364-17.446 32.045-31.229 69.462-24.971 71.039-24.692 4.218.753 7.026 4.783 6.273 9-.751 4.209-4.768 7.018-8.973 6.278-1.357-.23-31.389-4.931-57.521 20.535-4.425 4.296-8.542 9.305-12.249 14.896-2.357 3.555-7.167 4.558-10.753 2.18z" fill="#fdc983"/></g><g><path d="m463.721 230.341c-6.666-6.969-14.167-12.681-22.294-16.976-37.072-19.573-77.524-4.566-77.928-4.413-3.998 1.523-8.481-.478-10.011-4.473s.457-8.472 4.449-10.01c1.91-.735 47.294-17.76 90.737 5.179 9.606 5.077 18.44 11.795 26.259 19.971 2.962 3.096 2.852 8.006-.244 10.968-3.095 2.957-8.006 2.852-10.968-.246z" fill="#fddeae"/></g><g><path d="m431.832 283.567c-3.708-5.593-7.826-10.602-12.24-14.887-26.186-25.516-56.27-20.758-57.537-20.544-4.209.716-8.224-2.107-8.956-6.315s2.057-8.213 6.262-8.964c1.577-.281 38.993-6.537 71.049 24.702 5.2 5.048 10.032 10.918 14.353 17.435 2.368 3.572 1.392 8.385-2.179 10.752-3.59 2.381-8.398 1.371-10.752-2.179z" fill="#fddeae"/></g><path d="m350.791 392.258c-1.82-3.879-6.433-5.544-10.312-3.723-3.879 1.82-5.554 6.433-3.734 10.312 23.117 49.301-3.534 113.071-45.841 113.071v.082h39.211c31.216-27.159 39.373-79.878 20.676-119.742z" fill="#fdf1e2"/><path d="m245.064 398.846c1.82-3.879.155-8.492-3.723-10.312-3.879-1.82-8.502-.155-10.322 3.723-18.697 39.865-10.54 92.584 20.676 119.742h39.211v-.083c-42.699.001-68.724-64.268-45.842-113.07z" fill="#fddeae"/><path d="m318.314 202.532c-2.675 1.233-4.106 4.063-4.134 7.009-.041 4.243-3.549 7.772-7.927 7.679-4.27-.091-7.587-3.797-7.587-8.068v-9.545c0-1.912.974-3.688 2.581-4.724 5.7-3.675 6.949-8.493 10.402-13.825 7.272-12.614-1.573-28.597-17.034-28.597h-7.412c-6.905 0-13.48 3.47-16.968 9.429-5.995 10.24-.09 19.067-.061 19.176 3.327 5.138 4.691 10.139 10.398 13.818 1.607 1.036 2.581 2.812 2.581 4.724v9.548c0 4.279-3.331 7.985-7.609 8.065-4.284.08-7.864-3.359-7.906-7.679-.028-2.946-1.458-5.776-4.134-7.009-5.761-2.655-11.381 1.482-11.381 6.932 0 19.028 21.488 29.733 36.657 19.024 1.275-.9 2.984-.9 4.259 0 3.788 2.674 8.406 4.248 13.385 4.248 12.907 0 23.272-10.471 23.272-23.272-.001-5.451-5.622-9.588-11.382-6.933z" fill="#334151"/></g></g></g></svg>