<svg id="Capa_1" enable-background="new 0 0 512 512" height="512" viewBox="0 0 512 512" width="512" xmlns="http://www.w3.org/2000/svg"><g><g><g><path d="m239.254 360.502c17.408-17.397 40.773-26.789 64.696-26.789 15.2 0 26.093 3.874 27.14 4.106 24.544 7.22 51.064.455 69.154-17.635l36.48-36.48c30.245-30.245-47.422-129.043-118.187-181.584-69.084-30.233-174.307 196.282-125.07 256.94 17.003 9.855 34.577 12.653 45.787 1.442z" fill="#8a94ff"/><g><path d="m318.539 102.12c-37.999-28.213-74.007-43.092-90.248-26.851l-36.48 36.48c-18.09 18.09-24.855 44.61-17.635 69.154l.393 1.345c9.443 32.115.59 66.817-23.076 90.492-21.701 21.701 9.064 67.243 41.976 86.32 5.508-91.098 60.008-189.221 125.07-256.94z" fill="#6576ef"/></g><path d="m30.571 511.905c24.71-1.903 47.92-12.577 65.451-30.109l98.357-98.357-53.81-53.81-98.357 98.357c-21.248 21.248-40.524 72.883-16.172 83.924 1.485.119 2.999.123 4.531-.005z" fill="#edebfd"/><g><path d="m56.131 441.905 98.357-98.357-25.932-25.932-98.357 98.357c-17.532 17.532-28.208 40.758-30.109 65.451-1.224 15.977 10.913 29.29 25.95 30.486-1.38-16.783 8.11-48.023 30.091-70.005z" fill="#d1d1ef"/></g><path d="m436.726 283.705 54.798-54.788c27.296-27.296 27.296-71.554 0-98.86l-93.141-93.141c-56.7-39.155-149.278 46.004-109.422 99.024z" fill="#fade65"/><g><path d="m398.383 36.917-16.445-16.445c-27.306-27.296-71.564-27.296-98.86 0l-54.787 54.798c.527.527 26.876 26.876 60.671 60.671 33.6-42.138 71.539-75.837 109.421-99.024z" fill="#ffca47"/></g><path d="m321.534 234.337 4.489-4.485c3.583-3.579 9.388-3.579 12.97 0l4.489 4.485c12.112 12.122 31.764 12.122 43.876 0 12.123-12.123 12.122-31.753 0-43.876l-4.485-4.489c-3.579-3.583-3.579-9.388 0-12.97l4.485-4.489c13.769-13.757 11.607-36.628-4.509-47.604-41.167-5.363-114.255 90.372-95.934 119.81 11.405 5.106 25.261 2.984 34.619-6.382z" fill="#edebfd"/><g><path d="m382.849 120.909c-12.073-8.223-28.663-6.985-39.367 3.728l-4.489 4.485c-3.583 3.579-9.388 3.579-12.97 0l-4.489-4.485c-12.112-12.122-31.764-12.122-43.876 0-6.061 6.061-9.092 13.994-9.092 21.938 0 16.399 11.793 23.999 13.576 26.427 3.579 3.583 3.579 9.388 0 12.97l-4.485 4.489c-15.436 15.423-10.471 41.424 9.257 50.257 18.358-45.742 54.009-91.709 95.935-119.809z" fill="#d1d1ef"/></g><path d="m226.398 417.245 14.749-14.749c11.077-11.078 11.077-29.033 0-40.1-5.375-5.375-31.973-31.973-55.363-55.363-26.999-26.999-44.706-26.76-55.783-15.683l-14.749 14.749c-11.078 11.078-8.989 31.111 15.683 55.783.051.051-2.003-1.996 55.363 55.363 11.067 11.077 29.022 11.077 40.1 0z" fill="#615285"/><g><path d="m130.934 321.781 14.749-14.749c11.077-11.077 29.033-11.077 40.1 0-16.561-16.561-31.514-31.514-36.184-36.184-11.067-11.078-29.023-11.078-40.1 0l-14.749 14.749c-11.077 11.077-11.077 29.033 0 40.1l36.184 36.184c-11.077-11.067-11.077-29.022 0-40.1z" fill="#4e3a65"/></g></g></g></g></svg>