<svg id="Capa_1" enable-background="new 0 0 512 512" height="512" viewBox="0 0 512 512" width="512" xmlns="http://www.w3.org/2000/svg"><g><g><g><g><path d="m205.576 418.909v-30.089c0-10.54-4.189-20.645-11.636-28.093-3.724-3.724-6.63-8.109-8.616-12.888-4.245-10.245-2.681-18.129-3.02-24.555 0-9.649-5.144-16.086-12.01-19.321-14.021-3.314-21.994 9.658-21.994 19.321v9.35c0 10.54-3.421 20.646-9.503 28.093-6.094 7.463-9.503 17.555-9.503 28.093 0 14.593-3.75 43.536 12.154 48.193 27.324 4.188 64.128-1.844 64.128-18.104z" fill="#8a94ff"/><path d="m150.949 360.727c6.082-7.447 9.503-17.553 9.503-28.093v-9.35c0-9.664 4.221-16.091 9.841-19.321-13.791-6.498-34.536-.06-34.536 19.321v9.35c0 10.54-4.189 20.646-11.636 28.093-7.463 7.463-11.636 17.555-11.636 28.093v30.089c0 9.599 12.83 15.631 28.962 18.104 0-16.434 0-33.6 0-48.193-.001-10.538 3.408-20.63 9.502-28.093z" fill="#6576ef"/><path d="m205.576 465.455v-7.758c0-12.141-36.804-16.645-64.129-13.517-12.112 5.245-14.481 14.663-14.481 21.275 0 21.825 7.499 45.169 43.31 45.169 20.265-5.03 35.3-23.334 35.3-45.169z" fill="#8a94ff"/><path d="m141.446 465.455c0-6.612 0-13.818 0-21.275-16.131 1.846-28.962 6.35-28.962 13.517v7.758c0 25.703 20.842 46.545 46.545 46.545 3.878 0 7.643-.482 11.245-1.376-16.553-5.032-28.828-23.344-28.828-45.169z" fill="#6576ef"/></g><path d="m484.848 105.503v300.994c0 58.265-47.238 105.503-105.503 105.503h-26.375c-12.841 0-23.273-10.406-23.273-23.273 0-12.857 10.416-23.273 23.273-23.273h15.515c12.841 0 23.273-10.406 23.273-23.273 0-12.857-10.416-23.273-23.273-23.273h-15.515c-12.841 0-23.273-10.406-23.273-23.273 0-12.857 10.416-23.273 23.273-23.273h15.515c12.841 0 23.273-10.406 23.273-23.273 0-12.857-10.416-23.273-23.273-23.273h-15.515c-12.841 0-23.273-10.406-23.273-23.273 0-12.857 10.416-23.273 23.273-23.273h15.515c12.841 0 23.273-10.406 23.273-23.273 0-12.857-10.416-23.273-23.273-23.273h-15.515c-12.841 0-23.273-10.406-23.273-23.273 0-12.857 10.416-23.273 23.273-23.273h15.515c12.841 0 23.273-10.406 23.273-23.273 0-12.857-10.416-23.273-23.273-23.273h-15.515c-12.841 0-23.273-10.406-23.273-23.273 0-12.857 10.416-23.273 23.273-23.273h15.515c12.841 0 23.273-10.406 23.273-23.273 0-12.857-10.416-23.273-23.273-23.273h-15.515c-12.857 0-23.273-10.416-23.273-23.273s10.416-23.267 23.273-23.267h26.376c58.264 0 105.502 47.238 105.502 105.503z" fill="#edebfd"/><path d="m290.909 162.909c0-79.892-46.559-146.351-107.991-160.236-121.633-2.673-146.802 306.768-15.348 322.892 68.313-5.257 123.339-76.046 123.339-162.656z" fill="#615285"/><g><path d="m135.26 157.074c4.169-63.414 22.462-119.008 47.658-154.401-7.748-1.751-15.73-2.673-23.888-2.673-72.838 0-131.878 72.942-131.878 162.909 0 80.162 46.866 146.804 108.606 160.375 10.813 2.385 21.464 3.077 31.812 2.281-23.71-38.033-36.826-99.799-32.31-168.491z" fill="#4e3a65"/></g><path d="m224.142 255.328c40.797-50.386 40.802-134.445 0-184.837-17.251-21.319-38.672-32.683-60.37-34.126-79.732 17.938-100.453 219.635-13.228 252.742 26.07 3.114 52.867-8.159 73.598-33.779z" fill="#edebfd"/><g><path d="m163.773 36.365c-24.875-1.654-50.114 9.73-69.854 34.126-40.797 50.386-40.802 134.445 0 184.837 16.258 20.092 36.219 31.343 56.626 33.78-26.071-74.915-19.87-180.268 13.228-252.743z" fill="#d1d1ef"/></g><path d="m205.576 418.909h-64.129c-19.308 0-19.308 38.788 0 38.788h64.129z" fill="#fade65"/><g><path d="m112.485 418.909v38.788h28.962c0-12.114 0-25.594 0-38.788z" fill="#ffca47"/></g><g><g><path d="m197.818 116.364c-4.284 0-7.758-3.473-7.758-7.758v-7.758c0-4.284 3.473-7.758 7.758-7.758 4.284 0 7.758 3.473 7.758 7.758v7.758c0 4.284-3.474 7.758-7.758 7.758z" fill="#d1d1ef"/></g></g><g><g><path d="m159.03 116.364c-4.284 0-7.758-3.473-7.758-7.758v-7.758c0-4.284 3.473-7.758 7.758-7.758 4.284 0 7.758 3.473 7.758 7.758v7.758c0 4.284-3.474 7.758-7.758 7.758z" fill="#d1d1ef"/></g></g><g><g><path d="m120.242 116.364c-4.284 0-7.758-3.473-7.758-7.758v-7.758c0-4.284 3.473-7.758 7.758-7.758s7.758 3.474 7.758 7.758v7.758c0 4.284-3.473 7.758-7.758 7.758z" fill="#bfbfe4"/></g></g><g><g><path d="m197.818 155.152c-4.284 0-7.758-3.473-7.758-7.758v-7.758c0-4.284 3.473-7.758 7.758-7.758 4.284 0 7.758 3.473 7.758 7.758v7.758c0 4.284-3.474 7.758-7.758 7.758z" fill="#d1d1ef"/></g></g><g><g><path d="m159.03 155.152c-4.284 0-7.758-3.473-7.758-7.758v-7.758c0-4.284 3.473-7.758 7.758-7.758 4.284 0 7.758 3.473 7.758 7.758v7.758c0 4.284-3.474 7.758-7.758 7.758z" fill="#d1d1ef"/></g></g><g><g><path d="m120.242 155.152c-4.284 0-7.758-3.473-7.758-7.758v-7.758c0-4.284 3.473-7.758 7.758-7.758s7.758 3.473 7.758 7.758v7.758c0 4.284-3.473 7.758-7.758 7.758z" fill="#bfbfe4"/></g></g><g><g><path d="m197.818 193.939c-4.284 0-7.758-3.473-7.758-7.758v-7.758c0-4.284 3.473-7.758 7.758-7.758 4.284 0 7.758 3.473 7.758 7.758v7.758c0 4.285-3.474 7.758-7.758 7.758z" fill="#d1d1ef"/></g></g><g><g><path d="m159.03 193.939c-4.284 0-7.758-3.473-7.758-7.758v-7.758c0-4.284 3.473-7.758 7.758-7.758 4.284 0 7.758 3.473 7.758 7.758v7.758c0 4.285-3.474 7.758-7.758 7.758z" fill="#d1d1ef"/></g></g><g><g><path d="m120.242 193.939c-4.284 0-7.758-3.473-7.758-7.758v-7.758c0-4.284 3.473-7.758 7.758-7.758s7.758 3.475 7.758 7.759v7.758c0 4.284-3.473 7.757-7.758 7.757z" fill="#bfbfe4"/></g></g><g><g><path d="m197.818 232.727c-4.284 0-7.758-3.473-7.758-7.758v-7.758c0-4.284 3.473-7.758 7.758-7.758 4.284 0 7.758 3.473 7.758 7.758v7.758c0 4.285-3.474 7.758-7.758 7.758z" fill="#d1d1ef"/></g></g><g><g><path d="m159.03 232.727c-4.284 0-7.758-3.473-7.758-7.758v-7.758c0-4.284 3.473-7.758 7.758-7.758 4.284 0 7.758 3.473 7.758 7.758v7.758c0 4.285-3.474 7.758-7.758 7.758z" fill="#d1d1ef"/></g></g><g><g><path d="m120.242 232.727c-4.284 0-7.758-3.473-7.758-7.758v-7.758c0-4.284 3.473-7.758 7.758-7.758s7.758 3.473 7.758 7.758v7.758c0 4.285-3.473 7.758-7.758 7.758z" fill="#bfbfe4"/></g></g><path d="m230.171 260.209c43.061-53.183 43.226-141.213.002-194.598-17.354-21.447-39.411-34.263-62.832-36.722-14.886 4.824-17.465 9.861-6.899 15.094 21.204.471 41.634 11.57 57.671 31.39 38.42 47.45 38.42 127.624-.002 175.076-17.684 21.855-42.807 35.3-70.268 30.411-10.583 6.342-8.446 11.778 5.68 16.317 30.424 2.109 57.4-13.18 76.648-36.968z" fill="#d1d1ef"/><g><path d="m99.948 250.446c-38.42-47.449-38.42-127.624.002-175.076 15.177-18.756 36.281-31.926 60.493-31.388 2.19-5.234 4.493-10.27 6.899-15.094-31.614-3.32-59.697 12.307-79.452 36.72-43.066 53.19-43.222 141.219 0 194.6l-.002-.002c18.046 22.302 41.175 35.274 65.636 36.97-2.042-5.206-3.937-10.655-5.68-16.317-29.464-5.245-46.515-29.168-47.896-30.413z" fill="#bfbfe4"/></g><g><path d="m438.303 349.091c-4.284 0-7.758-3.473-7.758-7.758v-170.666c0-4.284 3.473-7.758 7.758-7.758 4.284 0 7.758 3.473 7.758 7.758v170.667c-.001 4.284-3.474 7.757-7.758 7.757z" fill="#d1d1ef"/></g></g></g></g></svg>