<svg id="Capa_1" enable-background="new 0 0 512 512" height="512" viewBox="0 0 512 512" width="512" xmlns="http://www.w3.org/2000/svg"><g><g><g><path d="m426.667 442.182v14.988c0 17.331-14.052 31.558-31.558 31.558-13.581 0-25.641-8.688-29.934-21.576l-8.326-24.969c-10.652-39.063 69.818-38.359 69.818-.001z" fill="#4e3a65"/><g><path d="m155.152 442.182-8.326 24.969c-4.223 12.71-16.181 21.576-29.934 21.576-17.429 0-31.558-14.129-31.558-31.558v-14.988c-.001-37.925 80.678-38.787 69.818.001z" fill="#412f55"/><path d="m512 364.606v-263.758c0-42.843-34.733-77.576-77.576-77.576h-196.049c-171.66 12.24-180.624 389.876-31.869 418.909h227.918c42.843.001 77.576-34.732 77.576-77.575z" fill="#615285"/><path d="m238.375 23.273h-160.8c-42.842 0-77.575 34.733-77.575 77.575v263.758c0 42.842 34.733 77.576 77.576 77.576h128.931c-51.455-125.848-38.075-301.557 31.868-418.909z" fill="#4e3a65"/></g><path d="m465.455 272.736v-170.853c0-17.708-14.357-32.065-32.065-32.065h-218.575c-95.627 11.378-112.932 199.628-39.263 216.178h275.939z" fill="#edebfd"/><g><path d="m214.815 69.818h-136.205c-17.708 0-32.065 14.357-32.065 32.065v146.36l18.618 37.754h110.388c-2-71.813 10.444-148.756 39.264-216.179z" fill="#d1d1ef"/></g><path d="m465.455 301.511v-28.775h-24.245c-11.667 0-22.849-4.634-31.103-12.878l-12.764-12.774c-12.319-12.319-32.696-10.871-43.153 3.072l-10.767 14.357c-3.465 4.613-9.93 5.72-14.729 2.524l-17.946-11.967c-5.401-3.601-12.817-1.683-15.753 4.189-3.31 6.63-12.154 8.068-17.398 2.824l-21.607-21.607c-9.733-9.733-24.969-11.233-36.409-3.61l-14.326 9.557c-1.789 1.19-3.889 1.82-6.03 1.82h-23.379c-49.139 29.479-36.727 78.093 3.239 85.333h254.305c17.708 0 32.065-14.357 32.065-32.065z" fill="#8a94ff"/><g><path d="m175.846 248.242h-5.572c-2.886 0-5.648 1.148-7.685 3.186l-4.158 4.148c-9.061 9.061-24.038 7.996-31.723-2.255l-10.24-13.643c-6.703-8.937-19.218-11.088-28.517-4.882-3.92 2.038-15.77 13.446-36.543 13.446h-4.861v53.269c0 17.708 14.357 32.065 32.065 32.065h100.475c-3.326-27.238-4.485-55.859-3.241-85.334z" fill="#6576ef"/></g><circle cx="418.909" cy="387.879" fill="#ff8c8a" r="15.515"/><path d="m426.667 124.121v23.273c0 8.564-6.951 15.515-15.515 15.515s-15.515-6.951-15.515-15.515v-23.273c0-8.564 6.951-15.515 15.515-15.515 8.55 0 15.515 6.951 15.515 15.515z" fill="#59d5ff"/><circle cx="349.091" cy="387.879" fill="#00da77" r="15.515"/><path d="m356.848 124.121v23.273c0 8.564-6.951 15.515-15.515 15.515s-15.515-6.951-15.515-15.515v-23.273c0-8.564 6.951-15.515 15.515-15.515 8.551 0 15.515 6.951 15.515 15.515z" fill="#ff8c8a"/><circle cx="279.273" cy="387.879" fill="#fade65" r="15.515"/><path d="m224.97 387.879c0-8.565-6.965-15.515-15.515-15.515h-24.004c-27.455 3.879-23.059 27.669 7.666 31.03h16.338c8.564 0 15.515-6.951 15.515-15.515z" fill="#ff8c8a"/><g><path d="m93.091 372.364c-8.564 0-15.515 6.951-15.515 15.515 0 8.565 6.965 15.515 15.515 15.515h100.026c-2.885-10.044-5.453-20.393-7.666-31.03z" fill="#fd5f5c"/></g><g><path d="m78.61 325.818c-13.403 0-24.307-10.904-24.307-24.307v-199.628c0-13.403 10.904-24.307 24.307-24.307h132.975c2.132-5.269 4.348-10.44 6.639-15.515h-139.614c-21.958 0-39.822 17.864-39.822 39.822v199.628c0 21.958 17.864 39.822 39.822 39.822h101.485c-.709-5.121-1.341-10.294-1.895-15.515z" fill="#412f55"/><path d="m473.212 301.511v-199.628c0-21.958-17.864-39.822-39.822-39.822h-215.166c-2.291 5.075-4.507 10.246-6.639 15.515h221.805c13.403 0 24.307 10.904 24.307 24.307v199.628c0 13.403-10.904 24.307-24.307 24.307h-255.19c.554 5.221 1.186 10.394 1.895 15.515h253.295c21.958 0 39.822-17.864 39.822-39.822z" fill="#4e3a65"/></g></g></g></g></svg>