<svg id="Capa_1" enable-background="new 0 0 512 512" height="512" viewBox="0 0 512 512" width="512" xmlns="http://www.w3.org/2000/svg"><g><g><g><path d="m232.726 512h-47.582c-33.7 0-61.029-27.328-61.029-61.029v-47.582c7.759-47.514 153.224 101.37 108.611 108.611z" fill="#df6d2b"/><path d="m387.884 345.205v105.766c0 6.692-1.076 13.137-3.072 19.167-168.119 59.964-11.204-229.664 3.072-124.933z" fill="#f68953"/><path d="m387.884 255.989.486.041c2.379-27.194 13.54-52.919 31.414-73.865 11.554-13.54 18.526-31.104 18.526-50.302 0-41.971-33.248-75.826-74.26-77.512-4.759-.196-9.114-2.638-11.972-6.448-17.201-22.93-40.661-37.636-65.886-44.101-106.251-3.824-179.489 380.993-73.132 435.76 71.487 20.216 160.887-49.365 174.824-183.573z" fill="#f68953"/><g><path d="m286.192 3.803c-44.973-11.526-95.554 3.143-126.271 44.1-2.857 3.81-7.213 6.253-11.971 6.448-41.067 1.684-74.261 35.597-74.261 77.512 0 19.198 6.972 36.762 18.526 50.302 20.264 23.749 31.9 53.643 31.9 84.851v35.521c10.136 81.088 46.363 124.984 88.945 137.026-23.931-138.009 3.987-315.282 73.132-435.76z" fill="#df6d2b"/></g><path d="m323.887 409.213 60.925 60.925c-7.396 22.374-27.38 39.007-51.564 41.531-150.584-15.702-59.146-151.724-9.361-102.456z" fill="#bfbfe4"/><path d="m387.884 255.989.486.041c-.321 3.641-.486 7.303-.486 10.985v78.189c-.106.106-109.742 109.752-110.545 110.555-29.297 29.297-73.91-15.316-44.613-44.613z" fill="#d1d1ef"/><ellipse cx="360.732" cy="130.756" fill="#fddeae" rx="19.395" ry="22.167"/><path d="m326.855 512c2.162 0 4.293-.114 6.393-.331-6.637-6.637-71.151-71.151-126.873-126.873-35.195-20.972-27.954 70.964 26.351 127.204z" fill="#edebfd"/><g><path d="m124.116 302.537v100.853l108.61 108.61c-12.906-36.079-22.857-80.188-26.352-127.204-41.281-41.282-77.737-77.738-82.258-82.259z" fill="#d1d1ef"/></g><g><path d="m288.325 262.641c10.706 0 20.408-4.344 27.432-11.358 16.013-16.037 14.978-42.328-2.369-57.026-5.296-4.489-9.568-10.096-12.02-16.602-6.91-18.34-24.608-31.383-45.368-31.383-10.916 0-20.982 3.61-29.082 9.696-21.016 24.339-40.05 89.677-18.21 103.676 4.606 1.928 9.661 2.997 14.967 2.997z" fill="#fddeae"/><path d="m226.918 155.968c-7.304 5.489-13.01 12.99-16.286 21.687-2.451 6.506-6.724 12.113-12.02 16.602-8.712 7.382-13.726 18.121-13.726 29.594 0 16.117 9.831 29.935 23.823 35.793 1.006-9.527 2.201-19.128 3.59-28.79 3.717-25.848 8.645-50.888 14.619-74.886z" fill="#fdc983"/><path d="m275.395 70.907c0-9.503-5.244-17.591-12.602-20.741-16.31 0-27.998 25.324-16.071 40.212 2.756 1.718 5.916 2.696 9.278 2.696 10.716 0 19.395-9.92 19.395-22.167z" fill="#fddeae"/><path d="m256 48.74c-10.716 0-19.395 9.93-19.395 22.167 0 8.405 4.089 15.713 10.117 19.471 5.007-13.945 10.376-27.372 16.071-40.212-2.116-.907-4.399-1.426-6.793-1.426z" fill="#fdc983"/></g><ellipse cx="151.268" cy="130.756" fill="#fdc983" rx="19.395" ry="22.167"/></g></g></g></svg>