<svg id="Capa_1" enable-background="new 0 0 512 512" height="512" viewBox="0 0 512 512" width="512" xmlns="http://www.w3.org/2000/svg"><g><g><g><path d="m306.424 201.697v263.758h64.646c43.442 0 43.442-263.758 0-263.758z" fill="#bfbfe4"/><path d="m134.982 67.405v74.387h132.655v-74.387c-18.604 0-80.479 0-132.655 0z" fill="#d1d1ef"/><g><path d="m112.485 67.405v74.387h44.994v-74.387c-19.863 0-37.441 0-44.994 0z" fill="#bfbfe4"/></g><g><path d="m420.285 201.697h-49.214v263.758h49.214c31.372 0 56.806-25.435 56.806-56.806v-150.146c0-31.372-25.435-56.806-56.806-56.806z" fill="#d1d1ef"/></g><circle cx="415.547" cy="271.515" fill="#6576ef" r="23.273"/><circle cx="415.547" cy="395.636" fill="#6576ef" r="23.273"/><path d="m438.303 333.576c0-4.285-3.473-7.758-7.758-7.758h-59.475c-16.32 0-16.32 15.515 0 15.515h59.475c4.285 0 7.758-3.472 7.758-7.757z" fill="#edebfd"/><g><path d="m321.767 325.818c-4.284 0-7.758 3.473-7.758 7.758s3.473 7.758 7.758 7.758h49.304v-15.515h-49.304z" fill="#d1d1ef"/></g><path d="m345.212 434.424c0-11.194 0-190.503 0-201.697-10.531-27.827-104.476-39.462-186.66-34.909-80.629 29.564-88.788 258.156 10.051 274.52 77.941 4.356 162.957-6.61 176.609-37.914z" fill="#00da77"/><g><path d="m158.552 197.819c-59.072 3.273-112.069 14.907-123.643 34.909v201.697c12.368 20.877 70.722 34.396 133.693 37.915-30.824-83.639-31.096-187.795-10.05-274.521z" fill="#00c344"/></g><g><path d="m345.212 201.697c0-42.905-34.702-77.69-77.576-77.834h-84.216c-55.42 17.928-74.255 92.487-32.026 108.864h193.818z" fill="#edebfd"/><path d="m112.485 123.863c-42.874.145-77.576 34.93-77.576 77.834v31.03h116.485c6.749-39.988 17.793-76.841 32.027-108.865h-70.936z" fill="#d1d1ef"/><path d="m345.212 434.424h-188.179c-60.758 9.481-39.075 72.921 29.589 77.576h80.755c42.942 0 77.675-34.717 77.835-77.576z" fill="#edebfd"/><path d="m34.909 434.424c.145 42.874 34.93 77.576 77.834 77.576h73.879c-12.325-22.2-22.355-48.424-29.589-77.576z" fill="#d1d1ef"/></g><g><path d="m306.424 42.667c0-23.563-19.104-42.667-42.666-42.667h-101.538c-60.078 0-66.801 19.105-66.801 42.667s10.602 42.667 66.801 42.667h101.538c23.563-.001 42.666-19.106 42.666-42.667z" fill="#615285"/><g><path d="m119.553 42.667c0-23.562 19.104-42.667 42.667-42.667h-45.856c-23.563 0-42.667 19.105-42.667 42.667s19.104 42.667 42.667 42.667h45.856c-23.563-.001-42.667-19.105-42.667-42.667z" fill="#4e3a65"/></g></g><path d="m213.333 371.808v-7.633c0-4.046 3.28-7.327 7.327-7.327h7.666c12.816 0 23.622-10.14 23.793-22.954.173-12.959-10.271-23.591-23.271-23.591h-8.189c-4.046 0-7.327-3.28-7.327-7.327v-8.189c0-12.873-10.443-23.291-23.321-23.265-25.471 11.654-31.006 108.599-.904 124.087 13.624.549 24.226-10.714 24.226-23.801z" fill="#fade65"/><g><path d="m190.012 271.523c-13.066.025-23.224 10.988-23.224 23.821v7.633c0 4.046-3.28 7.327-7.327 7.327h-7.666c-12.816 0-23.622 10.14-23.793 22.954-.173 12.959 10.271 23.591 23.271 23.591h8.189c4.046 0 7.327 3.28 7.327 7.327v8.189c0 12.537 9.906 22.746 22.32 23.246-5.392-39.997-5.094-82.344.903-124.088z" fill="#ffca47"/></g><g><path d="m125.466 193.029c-4.284 0-7.758-3.473-7.758-7.758v-12.411c0-4.284 3.473-7.758 7.758-7.758 4.284 0 7.758 3.473 7.758 7.758v12.412c-.001 4.284-3.474 7.757-7.758 7.757z" fill="#334151"/></g><g><path d="m254.656 193.029c-4.284 0-7.758-3.473-7.758-7.758v-12.411c0-4.284 3.473-7.758 7.758-7.758 4.284 0 7.758 3.473 7.758 7.758v12.412c-.001 4.284-3.474 7.757-7.758 7.757z" fill="#334151"/></g><g><path d="m190.061 200.414c-8.779 0-17.118-3.799-22.879-10.425-2.811-3.233-2.469-8.133.764-10.944 3.234-2.812 8.133-2.469 10.944.764 5.902 6.788 16.448 6.78 22.342 0 2.811-3.232 7.711-3.575 10.944-.764 3.233 2.812 3.575 7.711.764 10.944-5.761 6.626-14.1 10.425-22.879 10.425z" fill="#334151"/></g></g></g></g></svg>