<svg id="Capa_1" enable-background="new 0 0 512 512" height="512" viewBox="0 0 512 512" width="512" xmlns="http://www.w3.org/2000/svg"><g><g><g><path d="m329.626 125.131c-10.567-1.541-16.599-.819-31.176-1.01-41.429 0-41.429 62.061 0 62.061 7.814.482 17.065-1.674 28.638 4.008 39.414 11.507 44.241-52.278 2.538-65.059z" fill="#6576ef"/><path d="m224.97 27.065h-23.063c-30.034 3.62-45.376 59.992-27.476 77.748h50.538v-77.748z" fill="#6576ef"/><g><path d="m155.152 27.065v77.748h19.28c5.907-29.983 15.488-56.613 27.476-77.748z" fill="#4b64dd"/></g><path d="m217.212 290.909v-11.636c0-11.687-6.498-19.329-14.998-22.931-22.02 0-27.152 11.244-27.152 22.931v11.636c0 10.627 2.476 24.279 27.152 24.279 8.892-4.459 14.998-13.652 14.998-24.279z" fill="#d1d1ef"/><g><path d="m187.216 290.909v-11.636c0-11.687 6.498-19.329 14.998-22.931-16.073-6.812-39.305.83-39.305 22.931v11.636c0 14.998 12.154 27.152 27.152 27.152 4.371 0 8.496-1.038 12.154-2.872-8.893-4.46-14.999-13.653-14.999-24.28z" fill="#bfbfe4"/></g><g><path d="m329.626 125.131c9.458 20.776 8.686 44.857-2.538 65.059 13.032 6.399 22.003 19.796 22.003 35.297v92.574c0 43.442 62.061 43.442 62.061 0v-98.521c0-47.981-35.412-87.682-81.526-94.409z" fill="#8a94ff"/></g><path d="m263.758 251.428v-49.731c0-33.563-53.216-46.948-95.698-40.175-42.387 15.178-30.88 107.579 19.377 117.75h48.476c15.381.001 27.845-12.463 27.845-27.844z" fill="#6576ef"/><g><path d="m168.06 161.522c-28.214 4.499-51.696 17.883-51.696 40.175v49.731c0 15.381 12.464 27.845 27.845 27.845h43.229c-13.464-30.836-20.836-72.246-19.378-117.751z" fill="#4b64dd"/></g><path d="m263.758 113.178c0-15.381-12.464-27.845-27.844-27.845-10.53 0-34.779 0-57.005 0-50.822 11.636-44.616 107.916-9.809 116.364h94.658z" fill="#8a94ff"/><g><path d="m178.908 85.333c-13.483 0-26.221 0-34.7 0-15.381 0-27.845 12.464-27.845 27.845v88.519h52.736c-3.279-38.039.037-79.268 9.809-116.364z" fill="#6576ef"/></g><path d="m310.303 155.152c0-22.118-15.461-40.687-36.233-45.386-53.238 0-56.858 84.691-10.292 91.931 25.744-.012 46.525-20.897 46.525-46.545z" fill="#615285"/><g><path d="m274.07 109.766c-3.317-.75-6.765-1.16-10.312-1.16-25.765 0-46.545 20.899-46.545 46.545 0 25.703 20.842 46.545 46.545 46.545.007 0 .013-.001.02-.001-5.66-29.426-1.74-64.951 10.292-91.929z" fill="#4e3a65"/></g><g><path d="m279.273 155.152c0-8.258-6.467-14.996-14.606-15.469-16.424 2.928-14.614 26.459-3.405 30.765 9.617 1.561 18.011-5.888 18.011-15.296z" fill="#edebfd"/><path d="m264.666 139.682c-.302-.018-.602-.046-.909-.046-8.564 0-15.515 6.951-15.515 15.515 0 7.712 5.643 14.098 13.018 15.296.09-4.406.354-8.901.804-13.459.589-5.954 1.47-11.738 2.602-17.306z" fill="#d1d1ef"/></g><path d="m415.289 318.061c-5.995 0-12.583 0-19.308 0-67.169 0-77.921 22.456-77.921 50.166v44.803h147.394v-44.803c.001-27.711-22.455-50.166-50.165-50.166z" fill="#6576ef"/><g><path d="m395.981 318.061c-19.612 0-40.388 0-51.028 0-27.71 0-50.166 22.456-50.166 50.166v44.803h51.028v-44.803c0-27.711 22.456-50.166 50.166-50.166z" fill="#4b64dd"/></g><path d="m263.758 23.273c0-12.867-10.432-23.273-23.273-23.273h-63.095c-37.107 0-40.21 10.416-40.21 23.273 0 12.867 8.663 23.273 40.21 23.273h63.095c12.857-.001 23.273-10.416 23.273-23.273z" fill="#8a94ff"/><g><path d="m154.117 23.273c0-12.857 10.416-23.273 23.273-23.273h-37.754c-12.857 0-23.273 10.416-23.273 23.273 0 12.867 10.432 23.273 23.273 23.273h37.754c-12.841-.001-23.273-10.406-23.273-23.273z" fill="#6576ef"/></g><path d="m512 468.558v-37.236c0-23.997-19.446-43.442-43.442-43.442-14.532 0-222.962 0-342.828 0-82.287 0-79.701 19.446-79.701 43.442v37.236c0 23.997 6.206 43.442 79.701 43.442h342.828c23.996 0 43.442-19.446 43.442-43.442z" fill="#615285"/><g><path d="m82.287 468.558v-37.236c0-23.997 19.446-43.442 43.442-43.442-44.134 0-76.268 0-82.287 0-23.996-.001-43.442 19.444-43.442 43.441v37.236c0 23.997 19.446 43.443 43.442 43.443h82.287c-23.996 0-43.442-19.446-43.442-43.442z" fill="#4e3a65"/></g><path d="m338.292 438.179c16.767 0 30.358 10.819 30.358 24.173 0 13.353-13.591 24.183-30.358 24.183-16.777 0-30.368-10.83-30.368-24.183 0-13.354 13.591-24.173 30.368-24.173z" fill="#ffa1ac"/><path d="m173.708 438.179c16.777 0 30.368 10.819 30.368 24.173 0 13.353-13.591 24.183-30.368 24.183-16.767 0-30.358-10.83-30.358-24.183 0-13.354 13.591-24.173 30.358-24.173z" fill="#ffa1ac"/><g><path d="m217.212 232.727h-43.821c-11.139 5.323-9.615 10.499 3.497 15.515h40.324c4.284 0 7.758-3.473 7.758-7.758s-3.474-7.757-7.758-7.757z" fill="#edebfd"/><path d="m162.909 232.727c-4.284 0-7.758 3.473-7.758 7.758s3.473 7.758 7.758 7.758h13.979c-1.297-5.017-2.466-10.193-3.497-15.515h-10.482z" fill="#d1d1ef"/></g><g><path d="m191.405 446.836c-4.284 0-7.758-3.473-7.758-7.758v-12.412c0-4.285 3.473-7.758 7.758-7.758 4.284 0 7.758 3.473 7.758 7.758v12.412c0 4.286-3.473 7.758-7.758 7.758z" fill="#fff"/></g><g><path d="m320.595 446.836c-4.284 0-7.758-3.473-7.758-7.758v-12.412c0-4.285 3.473-7.758 7.758-7.758 4.284 0 7.758 3.473 7.758 7.758v12.412c-.001 4.286-3.474 7.758-7.758 7.758z" fill="#fff"/></g><g><path d="m256.001 454.221c-8.779 0-17.119-3.8-22.88-10.424-2.811-3.233-2.469-8.133.764-10.944 3.232-2.812 8.132-2.47 10.944.763 5.902 6.788 16.446 6.781 22.342.001 2.812-3.235 7.712-3.576 10.944-.764 3.233 2.811 3.575 7.711.764 10.943-5.761 6.625-14.099 10.425-22.878 10.425z" fill="#fff"/></g></g></g></g></svg>