<svg id="Capa_1" enable-background="new 0 0 512 512" height="512" viewBox="0 0 512 512" width="512" xmlns="http://www.w3.org/2000/svg"><g><g><g><path d="m217.212 379.173h108.606v79.472h-108.606z" fill="#4e3a65"/><g><path d="m186.182 379.173h48.149v79.472h-48.149z" fill="#412f55"/></g><path d="m416.84 11.636h-221.406c-171.432 34.242-136.393 378.763-30.465 387.879h251.871c52.555 0 95.16-42.605 95.16-95.16 0-11.567 0-188.031 0-197.56 0-52.864-42.931-95.159-95.16-95.159z" fill="#615285"/><path d="m195.434 11.636h-100.274c-52.555 0-95.16 42.605-95.16 95.16v197.56c0 52.555 42.605 95.16 95.16 95.16h69.81c-53.726-105.472-41.297-278.656 30.464-387.88z" fill="#4e3a65"/><g><path d="m496.485 106.796c0-44.426-36.316-79.644-79.644-79.644h-230.956c-98.685 10.952-119.85 190.701-68.578 258.698l99.905 12.816h271.515c4.284 0 7.758-3.473 7.758-7.758z" fill="#edebfd"/></g><g><path d="m185.885 27.152h-90.725c-43.986 0-79.644 35.658-79.644 79.644v184.113c0 4.284 3.473 7.758 7.758 7.758h23.273c36.734-6.445 87.408-12.091 85.284-46.407-1.616-76.639 16.531-159.97 54.054-225.108z" fill="#d1d1ef"/></g><g><g><path d="m174.907 224.97c-26.431-16.895-59.468-16.894-86.057 0-25.31 14.801-42.305 42.263-42.305 73.697h62.061l23.273-13.274 23.273 13.274h62.061c-.001-31.434-16.995-58.896-42.306-73.697z" fill="#8a94ff"/></g><g fill="#f68953"><ellipse cx="446.061" cy="125.786" rx="19.394" ry="22.166"/><path d="m437.827 202.297c12.056 25.475-6.438 55.368-35.075 55.368h-64.657c-10.705 0-20.408-4.344-27.42-11.357-15.989-16.013-15-42.319 2.358-57.023 5.306-4.489 9.568-10.106 12.019-16.601 6.92-18.339 24.617-31.382 45.366-31.382 20.759 0 38.457 13.043 45.377 31.382 2.451 6.496 6.713 12.112 12.019 16.601 4.19 3.548 7.624 7.985 10.013 13.012z"/><path d="m370.419 65.939c10.716 0 19.404 9.919 19.404 22.166 0 12.236-8.688 22.166-19.404 22.166-10.705 0-19.384-9.93-19.384-22.166 0-12.246 8.679-22.166 19.384-22.166z"/></g><path d="m372.364 469.333c0-17.139-13.891-31.03-31.03-31.03-13.484 0-62.188 0-107.003 0-55.217 0-59.423 13.902-59.423 31.03 0 17.139 11.274 31.03 59.423 31.03h107.003c17.129.001 31.03-13.901 31.03-31.03z" fill="#615285"/><g><path d="m203.3 469.333c0-17.128 13.901-31.03 31.03-31.03-26.14 0-55.737 0-63.664 0-17.129 0-31.03 13.902-31.03 31.03 0 17.139 13.891 31.03 31.03 31.03h63.664c-17.139.001-31.03-13.891-31.03-31.03z" fill="#4e3a65"/></g><ellipse cx="294.788" cy="125.786" fill="#f68953" rx="19.394" ry="22.166"/><circle cx="256" cy="345.212" fill="#8a94ff" r="15.515"/><path d="m211.389 120.242c21.909 55.976-19.735 116.364-79.51 116.364-15.691 0-30.399-4.241-43.029-11.636-37.104-21.698-51.406-66.596-36.481-104.727 21.013-33.069 49.473-52.188 87.195-53.951.052-.01.103 0 .145.01 32.037 8.257 55.93 26.237 71.68 53.94z" fill="#ffdfcf"/><path d="m211.389 120.242h-14.946c-30.41 0-55.244-23.904-56.734-53.941 32.768 2.979 60.178 24.473 71.68 53.941z" fill="#df6d2b"/><path d="m139.564 66.291c-1.479 30.048-26.314 53.951-56.734 53.951h-30.461c13.829-35.413 49.586-57.482 87.195-53.951z" fill="#f68953"/><g><path d="m131.879 205.576c-8.766 0-17.104-3.797-22.874-10.418-2.815-3.23-2.478-8.13.752-10.945 3.23-2.814 8.13-2.479 10.945.752 5.911 6.784 16.427 6.802 22.354 0 2.815-3.23 7.715-3.566 10.945-.752 3.23 2.815 3.566 7.715.752 10.945-5.771 6.62-14.108 10.418-22.874 10.418z" fill="#334151"/></g></g><g><path d="m131.879 236.606-23.273 62.061h46.546z" fill="#fade65"/></g></g></g></g></svg>