<svg id="Capa_1" enable-background="new 0 0 512.015 512.015" height="512" viewBox="0 0 512.015 512.015" width="512" xmlns="http://www.w3.org/2000/svg"><g><g><g><path d="m496.493 240.5c0-124.184-94.131-226.374-214.933-239.133-201.39 4.337-230.869 439.796-8.498 479.009 124.856-8.75 223.431-112.795 223.431-239.876z" fill="#59d5ff"/><g><path d="m217.153 213.459c6.458-82.872 30.345-157.068 64.406-212.092-143.069-15.112-266.036 97.022-266.036 239.133 0 139.003 117.69 249.676 257.539 239.875-41.646-62.672-64.248-159.904-55.909-266.916z" fill="#00c4fc"/></g><path d="m449.947 240.5c0-85.406-55.206-157.918-131.88-183.798h-64.598c-160.311 35.536-156.75 337.408-4.993 377.578 2.5.096 5.008.159 7.532.159 107.109.001 193.939-86.829 193.939-193.939z" fill="#fade65"/><g><path d="m217.153 213.459c4.49-57.624 17.414-111.047 36.316-156.757h-59.52c-76.674 25.88-131.881 98.392-131.881 183.798 0 104.586 82.791 189.821 186.408 193.78-25.502-59.816-37.828-137.342-31.323-220.821z" fill="#ffca47"/></g><path d="m411.159 240.5c0-90.824-77.671-162.373-168.599-154.565-115.156 45.974-107.856 277.855-8.421 308.175 94.047 13.27 177.02-59.751 177.02-153.61z" fill="#edebfd"/><g><path d="m242.56 85.935c-79.39 6.818-141.704 73.409-141.704 154.565 0 78.264 57.952 142.981 133.283 153.61-28.535-96.814-23.384-213.228 8.421-308.175z" fill="#d1d1ef"/></g><path d="m345.903 387.894c-1.127-4.788-9.82-41.73-10.954-46.545-16.649-17.631-63.708-25.35-103.271-20.992-29.714 9.355-44.454 67.537-20.44 86.867 48.084 8.704 114.314.203 134.665-19.33z" fill="#8a94ff"/><g><path d="m231.677 320.357c-23.491 2.588-44.34 9.432-54.611 20.992-1.133 4.816-9.827 41.757-10.954 46.545 9.287 9.515 25.733 15.819 45.125 19.329 34.551-146.813.048-.199 20.44-86.866z" fill="#6576ef"/></g><g><path d="m215.786 387.894c-26.765 5.873-31.544 52.916-15.583 66.217h161.282l-15.583-66.217z" fill="#d1d1ef"/><path d="m166.113 387.894-15.583 66.218h49.673l15.583-66.218z" fill="#bfbfe4"/><path d="m320.352 279.288h-79.015c-30.099 0-41.134 52.234-14.597 62.061h108.209z" fill="#d1d1ef"/><path d="m191.663 279.288-14.596 62.061h49.673l14.597-62.061z" fill="#bfbfe4"/></g><path d="m512.008 473.228c0-21.432-17.369-38.788-38.788-38.788-42.47 0-241.677 0-358.774 0-61.169 0-75.65 17.367-75.65 38.788 0 21.432 13.446 38.788 75.65 38.788h358.774c21.421-.001 38.788-17.367 38.788-38.788z" fill="#4e3a65"/><g><path d="m75.658 473.228c0-21.421 17.367-38.788 38.788-38.788-34.21 0-61.413 0-75.65 0-21.421 0-38.788 17.367-38.788 38.788 0 21.432 17.369 38.788 38.788 38.788h75.65c-21.419-.001-38.788-17.356-38.788-38.788z" fill="#412f55"/></g><path d="m356.856 279.288c0-12.867-10.432-23.273-23.273-23.273h-117.708c-33.133 0-38.809 10.416-38.809 23.273 0 12.867 15.501 23.273 38.809 23.273h117.708c12.857 0 23.273-10.416 23.273-23.273z" fill="#615285"/><g><path d="m192.602 279.288c0-12.857 10.416-23.273 23.273-23.273h-37.443c-12.857 0-23.273 10.416-23.273 23.273 0 12.867 10.432 23.273 23.273 23.273h37.443c-12.841 0-23.273-10.406-23.273-23.273z" fill="#4e3a65"/></g><path d="m276.353 131.894c20.377 0 37.35-14.626 40.991-33.947 1.23-6.523.513-8.272.724-41.25-18.949-6.387-39.211-9.927-60.268-10.118-42.363 7.481-70.059 64.37-28.09 84.887 5.237.75 5.054.289 46.643.428z" fill="#6576ef"/><g><path d="m193.947 56.697c.205 32.005-.515 34.68.724 41.25 3.28 17.405 17.38 30.993 35.039 33.519 7.093-30.524 16.613-59.05 28.09-84.887-21.929-.199-43.364 3.213-63.853 10.118z" fill="#4b64dd"/></g></g></g></g></svg>