<svg id="Capa_1" enable-background="new 0 0 512.013 512.013" height="512" viewBox="0 0 512.013 512.013" width="512" xmlns="http://www.w3.org/2000/svg"><g><g><g><g><path d="m384.896 512.013c38.633 0 64.978-39.346 50.021-74.969-10.788-25.724-26.965-48.635-47.125-67.305-57.03-49.525-131.388-61.363-200.525-35.558-20.257 9.374-33.413 24.218-40.421 41.43-18.402 45.201 9.975 95.912 57.848 105.397l156.495 31.006h23.707z" fill="#df6d2b"/><g><path d="m124.221 369.739c-20.159 18.67-36.337 41.581-47.125 67.305-14.957 35.623 11.388 74.969 50.021 74.969h23.707c35.714-5.344 69.227-38.166 53.297-81.536-8.947-29.932-14.722-62.324-16.854-96.296-21.767 8.124-43.018 19.97-63.046 35.558z" fill="#bb521d"/></g><path d="m315.243 403.314c-38.504-25.942-79.084-26.161-118.246-.147-40.574 58.163-13.395 106.002 43.007 108.846h121.184c-.165-45.17-18.328-84.992-45.945-108.699z" fill="#fddeae"/><g><path d="m196.77 403.314c-27.617 23.707-45.78 63.529-45.946 108.699h89.181c-19.222-31.302-33.901-68.221-43.007-108.846-.076.05-.153.096-.228.147z" fill="#fdc983"/></g><path d="m292.053 408.279c82.591-13.292 144.077-68.74 158.42-115.619 15.426-82.565-133.036-115.245-251.268-100-97.833 29.289-97.833 177.079-2.17 210.68 29.295 7.805 61.542 10.301 95.018 4.939z" fill="#ffca47"/><g><path d="m199.205 192.66c-81.887 10.559-149.276 44.104-137.666 100 13.5 44.121 66.25 92.233 135.496 110.681-15.515-69.083-13.608-142.9 2.17-210.681z" fill="#ffb51e"/></g><path d="m149.738 335.347c-35.385-9.888-65.505-24.607-88.199-42.687v-.01c-29.148-23.221-46.018-51.996-46.018-83.161 0-43.422 32.758-82.21 85.851-107.82 154.633-67.523 202.162 244.895 48.366 233.678z" fill="#ffca47"/><path d="m362.275 335.347c35.385-9.888 65.505-24.607 88.199-42.687v-.01c29.148-23.221 46.018-51.996 46.018-83.161 0-43.422-32.758-82.21-85.851-107.82-154.633-67.523-202.162 244.895-48.366 233.678z" fill="#fade65"/><g><g><path d="m93.772 123.261c-83.575 48.719-83.716 122.644 0 171.447 43.086 25.116 100.703 38.949 162.235 38.949v-249.345c-61.533 0-119.149 13.832-162.235 38.949z" fill="#ffb51e"/><path d="m418.241 123.261c-43.086-25.117-100.703-38.949-162.235-38.949v249.345c61.532 0 119.149-13.832 162.235-38.949 83.574-48.721 83.717-122.646 0-171.447z" fill="#ffca47"/></g><path d="m218.046 45.927c-22.459-35.475-64.577-52.779-105.431-43.411-12.103 2.787-21.419 12.257-24.142 24.121-8.626 37.723 5.616 75.724 33.678 98.397 10.843 8.347 130.274-17.964 95.895-79.107z" fill="#bb521d"/><path d="m163.557 119.169c-10.892 2.203-22.135.714-31.816-6.33-21.689-17.621-32.807-45.627-29.721-73.405.473-4.253 5.304-6.507 8.894-4.179 16.284 10.564 32.903 24.231 48.175 41.899 12.298 16.694 11.46 31.972 4.468 42.015z" fill="#fdc983"/></g><g><path d="m293.959 45.927c22.459-35.475 64.577-52.779 105.431-43.411 12.103 2.787 21.419 12.257 24.142 24.121 8.626 37.723-5.616 75.724-33.678 98.397-10.843 8.347-130.275-17.964-95.895-79.107z" fill="#df6d2b"/><path d="m348.448 119.169c10.892 2.203 22.135.714 31.816-6.33 21.689-17.621 32.807-45.627 29.721-73.405-.473-4.253-5.304-6.507-8.894-4.179-16.284 10.564-32.903 24.231-48.175 41.899-12.298 16.694-11.46 31.972-4.468 42.015z" fill="#fddeae"/></g><path d="m363.16 318.388c1.549-12.243 5.78-29.593 17.227-46.995 38.839-59.027 30.9-138.37-20.883-188.52-.01 0-.01 0-.01 0-24.677-23.944-57.594-39.213-93.65-41.569-141.515 21.219-155.738 228.616-82.759 290.475 22.546 26.962 182.562 10.481 180.075-13.391z" fill="#f68953"/><g><path d="m265.843 41.305c-85.941-5.615-157.477 62.764-158.596 146.41-.403 30.544 8.389 58.999 23.79 82.779 11.849 18.291 16.217 35.705 17.808 47.889-.066 21.498 37.693 27.963 38.059 9.189-4.851-99.794 21.82-206.374 78.939-286.267z" fill="#df6d2b"/></g><path d="m259.647 274.621c24.255 0 39.409 26.252 27.286 47.249l-7.995 13.84c-7.804 11.197-38.576 11.067-45.863 0l-7.995-13.84c-12.123-20.997 3.031-47.249 27.286-47.249z" fill="#334151"/><g><path d="m201.703 198.607c-4.284 0-7.758-3.473-7.758-7.758v-12.412c0-4.284 3.473-7.758 7.758-7.758s7.758 3.473 7.758 7.758v12.412c0 4.284-3.473 7.758-7.758 7.758z" fill="#334151"/></g><g><path d="m310.31 198.607c-4.284 0-7.758-3.473-7.758-7.758v-12.412c0-4.284 3.473-7.758 7.758-7.758 4.284 0 7.758 3.473 7.758 7.758v12.412c-.001 4.284-3.474 7.758-7.758 7.758z" fill="#334151"/></g></g><path d="m362.275 318.648c-55.675 16.886-119.682 19.037-175.36 8.923.265 5.413.601 10.804 1.052 16.154 57.323 9.423 120.615 6.609 174.308-8.378l16.458-22.204z" fill="#fade65"/><path d="m143.093 316.263 6.636 19.058c12.485 3.482 25.397 6.298 38.238 8.404-.451-5.35-.787-10.741-1.052-16.154-28.747-5.222-43.718-11.278-43.822-11.308z" fill="#ffca47"/></g></g></g></svg>