<svg id="Capa_1" enable-background="new 0 0 512 512" height="512" viewBox="0 0 512 512" width="512" xmlns="http://www.w3.org/2000/svg"><g><g><g><path d="m421.519 434.425 8.099-62.06-15.883-20.687h-192.105c-61.999 14.564-42.872 96.711 10.506 96.711h177.98z" fill="#fdf1e2"/><g><path d="m81.713 351.678-14.336 20.687 8.099 62.06 16.063 13.964h140.597c-6.095-29.467-9.706-62.048-10.506-96.711z" fill="#fddeae"/></g><path d="m437.722 310.304 8.089-62.06-23.024-18.484h-192.935c-56.945 11.416-59.703 90.371-8.37 101.231h193.288z" fill="#fdf1e2"/><g><path d="m229.852 229.76h-154.376l-24.286 18.484 8.089 62.06 21.918 20.687h140.286c.298-33.198 3.1-67.163 8.369-101.231z" fill="#fddeae"/></g><path d="m454.592 181.788-172.607-125.395c-77.703-11.742-145.28 171.336-54.744 191.851h218.57c10.201-78.169 4.457-33.764 8.781-66.456z" fill="#fddeae"/><g><path d="m281.985 56.393-33.485-24.326-205.919 148.945 3.603 28.889 5.006 38.343h176.051c8.388-65.293 26.141-133.174 54.744-191.851z" fill="#fdc983"/></g><path d="m75.476 434.425h70.883c26.5 6.378 26.5 74.3-7.489 77.482-30.927-1.614-56.568-25.103-60.612-56.123z" fill="#fdc983"/><path d="m465.452 426.667c0-19.06-10.607-35.727-25.975-42.858-34.968 0-42.636 23.605-42.636 42.858 0 16.848 9.481 32.011 42.623 32.011 14.523-4.498 25.988-15.163 25.988-32.011z" fill="#ff8c8a"/><g><path d="m413.477 426.667c0-19.252 10.719-35.776 26-42.858-5.109-2.37-10.744-3.688-16.691-3.688-23.562 0-42.666 20.842-42.666 46.545 0 29.123 34.243 39.788 59.345 32.011-14.522-4.497-25.988-15.162-25.988-32.01z" fill="#fd5f5c"/></g><path d="m450.817 209.901v.01c14.288 4.017 29.683-.99 38.798-13.002 12.381-16.322 8.802-39.667-7.902-51.531l-178.752-126.909c-35.067-10.967-62.994 39.457-33.825 66.663l170.737 119.577c3.424 2.399 7.127 4.126 10.944 5.192z" fill="#ff8c8a"/><g><path d="m300.145 16.469c-30.927-21.959-72.362-21.959-103.299 0l-181.558 128.91c-16.819 11.943-20.218 35.305-7.903 51.531 11.855 15.626 33.852 18.929 49.731 7.799l182.229-127.619c5.496-3.849 12.813-3.849 18.31 0l11.481 8.041c10.126-24.675 21.513-47.07 33.825-66.663z" fill="#fd5f5c"/></g><path d="m437.722 310.304c-11.314 0-118.329 0-215.726 0-43.831 8.016-30.902 58.699.457 62.06h207.17z" fill="#fddeae"/><g><path d="m221.996 310.304c-82.144 0-157.446 0-162.718 0l8.099 62.06h155.076c-1.134-19.96-1.308-40.717-.457-62.06z" fill="#fdc983"/></g><ellipse cx="324.131" cy="193.941" fill="#df6d2b" rx="19.394" ry="22.166"/><g><path d="m311.853 310.304c12.142-16.164 9.948-39.346-5.968-52.865-5.242-4.437-9.514-9.999-12.019-16.601-9.244-24.535-36.328-37.233-61.054-28.778-34.218 22.479-39.907 96.693-11.256 113.759h59.267c12.691 0 23.955-6.092 31.03-15.515z" fill="#df6d2b"/><path d="m232.812 212.06c-13.677 4.677-24.597 15.291-29.678 28.778-2.46 6.482-6.727 12.122-12.019 16.601-8.399 7.116-13.726 17.729-13.726 29.592 0 21.378 17.322 38.788 38.788 38.788h5.379c.608-36.108 4.189-74.582 11.256-113.759z" fill="#bb521d"/><path d="m267.894 156.26c0-11.04-7.08-20.175-16.325-21.862-18.843.844-23.583 29.719-11.329 41.896 2.508 1.353 5.301 2.131 8.26 2.131 10.705.001 19.394-9.918 19.394-22.165z" fill="#df6d2b"/><path d="m248.5 134.094c-10.716 0-19.394 9.93-19.394 22.166 0 8.865 4.558 16.488 11.134 20.035 3.388-14.398 7.178-28.384 11.329-41.896-1.002-.183-2.022-.305-3.069-.305z" fill="#bb521d"/></g><ellipse cx="172.859" cy="193.941" fill="#bb521d" rx="19.394" ry="22.166"/><path d="m248.498 364.607c-.004 0-.008 0-.012 0s-.008 0-.012 0c-9.077.002-17.864 1.145-26.259 3.286-76.372 39.121-51.09 134.952 20.57 140.142l90.79 3.903 32.064-.031-6.421-5.864c12.299-73.53-40.593-141.418-110.72-141.436z" fill="#615285"/><g><path d="m138.871 511.907c.411.022 5.637.041 14.225.057 40.713-7.722 81.876-50.826 71.86-109.444-1.239-11.242-2.157-22.799-2.741-34.627-58.189 14.842-97.512 77.821-83.344 144.014z" fill="#4e3a65"/></g><path d="m344.874 496.448c6.606-62.932-39.692-116.311-96.395-116.326-8.807.004-17.268 1.256-25.275 3.571-45.551 36.937-21.891 120.549 27.892 128.271h91.826z" fill="#4e3a65"/><g><path d="m152.117 496.448.978 15.516h98c-14.497-35.28-24.148-79.152-27.892-128.271-45.59 13.183-76.361 61.105-71.086 112.755z" fill="#412f55"/></g><path d="m511.998 479.936v-21.204c0-17.708-14.357-32.064-32.064-32.064-19.225 0-41.09 0-62.693 0-51.601 0-56.239 14.297-56.239 32.064v21.204c0 17.708 6.707 32.064 56.239 32.064h62.693c17.707 0 32.064-14.357 32.064-32.064z" fill="#8a94ff"/><g><path d="m385.175 479.936v-21.204c0-17.768 14.422-32.064 32.064-32.064-17.935 0-35.691 0-51.601 0-17.642 0-32.064 14.297-32.064 32.064v21.204c0 17.708 14.357 32.064 32.064 32.064h51.601c-17.707 0-32.064-14.357-32.064-32.064z" fill="#6576ef"/></g></g></g></g></svg>