<svg id="Capa_1" enable-background="new 0 0 512 512" height="512" viewBox="0 0 512 512" width="512" xmlns="http://www.w3.org/2000/svg"><g><g><g><path d="m162.909 13.619h31.03v336.506h-31.03z" fill="#bfbfe4"/><path d="m473.212 162.909c-88.381 0-345.876 0-434.424 0-8.565 0-15.515 6.965-15.515 15.515 0 8.564 6.951 15.515 15.515 15.515h240.485l50.424 19.653 50.424-19.653h93.091c8.565 0 15.515-6.965 15.515-15.515 0-8.564-6.95-15.515-15.515-15.515z" fill="#edebfd"/><path d="m318.061 13.619v207.472h31.03c0-46.508 0-159.718 0-207.472z" fill="#bfbfe4"/><path d="m394.426 0h-276.852c-39.233 0-71.029 31.796-71.029 71.028v279.097h31.03v-272.549h.041c.9-25.869 22.145-46.545 48.231-46.545h260.303c26.086 0 47.332 20.677 48.231 46.545h.041v272.549h31.03c0-1.008 0-253.353 0-279.097.003-39.232-31.793-71.028-71.026-71.028z" fill="#d1d1ef"/><path d="m473.212 248.242c-8.758 0-415.997 0-434.424 0-8.565 0-15.515 6.965-15.515 15.515 0 8.564 6.951 15.515 15.515 15.515h434.424c8.565 0 15.515-6.965 15.515-15.515 0-8.564-6.95-15.515-15.515-15.515z" fill="#edebfd"/><path d="m380.121 356.848h-100.848c0-5.124 0-158.639 0-162.909h100.848z" fill="#615285"/><path d="m465.455 429.594v-72.745h-387.838v72.745c0 45.511 20.128 82.406 118.05 82.406h187.382c45.511 0 82.406-36.895 82.406-82.406z" fill="#d1d1ef"/><g><path d="m113.261 429.594v-72.745h-66.716v72.745c0 45.511 36.895 82.406 82.406 82.406h66.715c-45.51 0-82.405-36.895-82.405-82.406z" fill="#bfbfe4"/></g><path d="m512 356.848c0-17.139-13.891-31.03-31.03-31.03-16.124 0-252.537 0-376.242 0-52.364 0-58.182 13.902-58.182 31.03 0 17.139 5.818 31.03 58.182 31.03h376.242c17.129.001 31.03-13.901 31.03-31.03z" fill="#edebfd"/><g><path d="m73.697 356.848c0-17.128 13.901-31.03 31.03-31.03-40.867 0-69.438 0-73.697 0-17.129 0-31.03 13.902-31.03 31.03 0 17.139 13.891 31.03 31.03 31.03h73.697c-17.139.001-31.03-13.89-31.03-31.03z" fill="#d1d1ef"/></g><path d="m473.212 77.576c8.564 0 15.515 6.951 15.515 15.515 0 8.55-6.951 15.515-15.515 15.515-40.634 0-379.418 0-434.424 0-8.564 0-15.515-6.951-15.515-15.515 0-8.55 6.951-15.515 15.515-15.515h426.667z" fill="#edebfd"/><path d="m338.375 436.017c16.787 0 30.399 10.84 30.399 24.204s-13.612 24.204-30.399 24.204-30.389-10.84-30.389-24.204 13.602-24.204 30.389-24.204z" fill="#ffa1ac"/><path d="m280.504 441.623c0 15.143-10.964 27.42-24.504 27.42s-24.504-12.278-24.504-27.42c0-15.143 10.964-16.57 24.504-16.57s24.504 1.427 24.504 16.57z" fill="#334151"/><path d="m173.625 436.017c16.787 0 30.389 10.84 30.389 24.204s-13.602 24.204-30.389 24.204-30.399-10.84-30.399-24.204 13.611-24.204 30.399-24.204z" fill="#ffa1ac"/><g><path d="m178.704 439.079c-4.284 0-7.758-3.473-7.758-7.758v-12.412c0-4.285 3.473-7.758 7.758-7.758s7.758 3.473 7.758 7.758v12.412c-.001 4.285-3.474 7.758-7.758 7.758z" fill="#334151"/></g><g><path d="m333.296 439.079c-4.284 0-7.758-3.473-7.758-7.758v-12.412c0-4.285 3.473-7.758 7.758-7.758 4.284 0 7.758 3.473 7.758 7.758v12.412c0 4.285-3.473 7.758-7.758 7.758z" fill="#334151"/></g></g></g></g></svg>