<svg id="Capa_1" enable-background="new 0 0 512 512" height="512" viewBox="0 0 512 512" width="512" xmlns="http://www.w3.org/2000/svg"><g><g><g><path d="m465.578 485.004c3.755-7.489 6.154-15.567 7.127-23.842 0-21.281-20.551-30.214-37.809-26.804-13.054 4.031-10.998 15.668-10.195 26.804.972 8.275 3.372 16.353 7.127 23.842 8.833 17.285 14.308 22.687 22.238 21.739.938-1.048 1.77-2.245 2.451-3.607z" fill="#615285"/><g><path d="m442.554 485.004c-3.755-7.489-6.154-15.567-7.127-23.842-.38-3.222-.503-.692-.531-26.804-12.491 2.468-23.259 11.401-23.259 26.804.972 8.275 3.372 16.353 7.127 23.842l9.061 18.132c5.235 10.461 19.033 11.658 26.241 3.607-2.545-2.843-2.668-4.433-11.512-21.739z" fill="#4e3a65"/></g><path d="m473.202 302.545v-31.03c0-10.636-20.764-15.12-38.271-13.452-19.761-.003-19.77 58.098-.009 58.101 17.509 1.692 38.28-2.848 38.28-13.619z" fill="#ff8c8a"/><g><path d="m411.141 271.515v31.03c0 7.847 11.025 12.387 23.781 13.619.004-17.175.008-36.454.009-58.101-12.76 1.216-23.79 5.7-23.79 13.452z" fill="#fd5f5c"/></g><path d="m457.686 209.455v28.63h-31.03v-28.63c0-8.564 6.951-15.515 15.515-15.515 8.55-.001 15.515 6.95 15.515 15.515z" fill="#fd5f5c"/><path d="m380.111 440.113v-337.196c0-39.698-32.189-71.887-71.887-71.887-.082 0-42.653 0-88.25 0-138.183 30.169-138.183 459.076-14.659 480.97h102.909c39.698 0 71.887-32.189 71.887-71.887z" fill="#edebfd"/><g><path d="m472.705 461.162c.884-7.489.329-1.335.496-158.617h-38.277c-19.905 4.137-14.82 146.36.076 152.517 12.757-1.216 25.753.808 37.705 6.1z" fill="#fade65"/><path d="m434.925 302.545h-23.784c.165 155.691-.419 150.862.496 158.617 7.483-3.314 15.377-5.338 23.364-6.099-.174-9.35-.099-39.108-.076-152.518z" fill="#ffca47"/><path d="m473.202 244.022c0-10.252-8.199-19.053-19.218-19.053-27.586 0-30.929 8.489-30.929 19.053l-.001 22.321 11.876 5.172h38.272z" fill="#fade65"/><path d="m453.983 224.97h-23.79c-10.475 0-19.053 8.489-19.053 19.053v27.493h23.789c.001-8.746.001-17.897.001-27.493.001-10.564 8.578-19.053 19.053-19.053z" fill="#ffca47"/></g><g><path d="m167.267 249.976c5.803-85.888 25.432-162.926 52.707-218.946-52.594 0-109.215 0-109.31 0-39.698 0-71.887 32.189-71.887 71.887v337.196c0 39.698 32.189 71.887 71.887 71.887h94.65c-29.714-60.729-45.203-156.117-38.047-262.024z" fill="#d1d1ef"/></g><g><path d="m312.365 118.329c-1.634-7.209-7.349-13.097-14.834-14.822-25.159-5.763-50.997 4.929-64.771 26.676-10.435 29.968 24.56 67.032 58.918 48.593 17.791-14.471 25.848-37.888 20.687-60.447z" fill="#df6d2b"/><path d="m283.61 165.257c-10.872 10.002-25.497-5.896-14.626-15.898 8.168-9.447 16.967-17.033 25.705-23.122 1.418-.988 3.365-.061 3.523 1.66 1.293 14.1-4.027 27.85-14.602 37.36z" fill="#4e3a65"/></g><path d="m300.839 218.536c0-47.945-36.384-85.502-80.466-90.808-76.782 4.983-85.229 202.4-19.595 210.868 5.378-5.818 8.667-13.594 8.667-22.139.01 18.029 14.615 32.634 32.644 32.634 18.039 0 32.634-14.624 32.634-32.644.561-5.424-3.085-26.164 11.13-47.766 9.473-14.398 14.986-31.63 14.986-50.145z" fill="#f68953"/><g><path d="m106.526 118.329c1.634-7.209 7.349-13.097 14.834-14.822 25.159-5.763 50.997 4.929 64.771 26.676 10.435 29.968-24.56 67.032-58.918 48.593-17.791-14.471-25.848-37.888-20.687-60.447z" fill="#bb521d"/><path d="m135.281 165.257c10.872 10.002 25.497-5.896 14.626-15.898-8.168-9.447-16.967-17.033-25.705-23.122-1.418-.988-3.365-.061-3.523 1.66-1.293 14.1 4.027 27.85 14.602 37.36z" fill="#4e3a65"/></g><g><path d="m220.372 127.728c-3.221-.388-6.481-.609-9.772-.644-73.221-.773-117.163 80.455-77.925 141.048 14.782 22.807 10.861 42.684 11.492 48.314 0 18.029 14.615 32.644 32.634 32.644 9.484 0 18.015-4.044 23.977-10.494-21.125-63.718-13.036-150.717 19.594-210.868z" fill="#df6d2b"/></g><path d="m294.56 31.03c-1.924-17.459-16.725-31.03-34.692-31.03h-56.372c-49.217 0-57.765 13.543-59.688 31.03-.145 1.272-.217 2.565-.217 3.879 0 19.28 14.295 34.909 59.906 34.909h56.372c20.874 0 37.035-18.198 34.691-38.788z" fill="#615285"/><g><path d="m203.496 0h-44.476c-17.946 0-32.769 13.543-34.692 31.03-2.341 20.564 13.803 38.788 34.692 38.788h44.477c-46.284 0-46.598-69.818-.001-69.818z" fill="#4e3a65"/></g><path d="m195.46 308.379-7.789-13.488c-6.216-10.768 1.552-24.224 13.984-24.224h15.577c12.433 0 20.201 13.457 13.984 24.224l-7.789 13.488c-6.208 10.762-21.749 10.779-27.967 0z" fill="#334151"/><g><path d="m170.656 237.382c-4.284 0-7.758-3.473-7.758-7.758v-12.412c0-4.284 3.473-7.758 7.758-7.758s7.758 3.473 7.758 7.758v12.412c-.001 4.285-3.474 7.758-7.758 7.758z" fill="#334151"/></g><g><path d="m248.232 237.382c-4.284 0-7.758-3.473-7.758-7.758v-12.412c0-4.284 3.473-7.758 7.758-7.758 4.284 0 7.758 3.473 7.758 7.758v12.412c-.001 4.285-3.474 7.758-7.758 7.758z" fill="#334151"/></g><g><path d="m113.767 395.636h-12.929c-4.284 0-7.758-3.473-7.758-7.758s3.473-7.758 7.758-7.758h12.929c4.284 0 7.758 3.473 7.758 7.758s-3.474 7.758-7.758 7.758z" fill="#6576ef"/></g><g><path d="m113.767 434.424h-12.929c-4.284 0-7.758-3.473-7.758-7.758s3.473-7.758 7.758-7.758h12.929c4.284 0 7.758 3.473 7.758 7.758s-3.474 7.758-7.758 7.758z" fill="#6576ef"/></g><g><path d="m113.767 473.212h-12.929c-4.284 0-7.758-3.473-7.758-7.758s3.473-7.758 7.758-7.758h12.929c4.284 0 7.758 3.473 7.758 7.758s-3.474 7.758-7.758 7.758z" fill="#6576ef"/></g><g><path d="m318.05 395.636c4.284 0 7.758-3.473 7.758-7.758s-3.473-7.758-7.758-7.758h-147.967c-10.022 3.249-16.415 7.09 2.055 15.515h145.912z" fill="#d1d1ef"/><path d="m142.211 387.879c0 4.285 3.473 7.758 7.758 7.758h22.17c-.743-5.103-1.433-10.271-2.055-15.515h-20.114c-4.285-.001-7.759 3.472-7.759 7.757z" fill="#bfbfe4"/><path d="m318.05 434.424c4.284 0 7.758-3.473 7.758-7.758s-3.473-7.758-7.758-7.758h-142.011c-18.59 5.171-17.521 10.344 3.205 15.515h138.806z" fill="#d1d1ef"/><path d="m142.211 426.667c0 4.285 3.473 7.758 7.758 7.758h29.275c-1.134-5.076-2.203-10.248-3.205-15.515h-26.07c-4.284-.001-7.758 3.472-7.758 7.757z" fill="#bfbfe4"/><path d="m318.05 473.212c4.284 0 7.758-3.473 7.758-7.758s-3.473-7.758-7.758-7.758h-132.956c-23.056 8.399-11.653 12.339 4.701 15.515h128.255z" fill="#d1d1ef"/><path d="m142.211 465.455c0 4.285 3.473 7.758 7.758 7.758h39.826c-1.644-5.03-3.209-10.209-4.701-15.515h-35.125c-4.284-.001-7.758 3.472-7.758 7.757z" fill="#bfbfe4"/></g></g></g></g></svg>