<svg id="Capa_1" enable-background="new 0 0 512 512" height="512" viewBox="0 0 512 512" width="512" xmlns="http://www.w3.org/2000/svg"><g><g><g><g><path d="m34.744 192.497-9.898-12.758c-19.301-23.378-24.423-43.986-24.632-44.853-.988-4.103 1.537-8.23 5.64-9.218 4.093-.989 8.214 1.526 9.213 5.617.061.244 4.701 18.333 21.634 38.808.125.152-.512-.664 10.118 13.037 2.587 3.335 1.981 8.134-1.354 10.721-3.321 2.577-8.123 1.994-10.721-1.354z" fill="#df6d2b"/></g><path d="m136.947 392.142c7.252-24.585-42.028-30.688-47.581.285-1.426 6.582-3.821 12.94-7.132 18.849-1.178 2.102-2.19 4.178-3.072 6.215-3.55 31.575 40.515 23.679 51.682 0 1.192-8.883 3.285-17.411 6.103-25.339z" fill="#df6d2b"/><path d="m423.786 39.708 6.826 39.532c4.486 30.206-67.343 34.451-56.975 8.681l-.01-.01 23.373-51.615c5.716-12.686 24.412-10.291 26.786 3.412z" fill="#df6d2b"/><path d="m437.714 224.234c-2.241 9.689-5.431 20.255-9.944 31.065-37.998 33.976-139.727-86.929-112.594-108.702 9.333-4.544 18.176-10.759 26.653-19.409 26.705-16.214 95.885 48.518 95.885 97.046z" fill="#fade65"/><path d="m504.623 159.995.01.01c-7.438 10.739-19.827 17.799-33.877 17.881l-8.691.051c-10.301.061-18.879 7.917-19.817 18.176-.703 7.682-2.028 17.351-4.534 28.121-43.097-19.756-75.4-55.71-95.885-97.046 5.553-5.665 10.943-12.369 16.21-20.347 12.712-19.226 26.398-27.897 28.548-29.751 13.52-9.74 31.799-8.64 44.025 2.15 2.612 2.315 1.677 1.634 27.632 30.179 4.554 4.188 9.893 7.305 15.66 9.221 27.973 8.537 40.876 23.556 30.719 41.355z" fill="#f68953"/><g><path d="m391.733 433.549c-4.492.023-8.152-3.598-8.179-8.09l-.369-61.621c-.153-26.409 8.671-51.952 24.493-73.093 8.62-11.523 15.15-23.627 20.092-35.446-49.49-21.713-87.515-60.677-112.594-108.702-3.155 1.536-6.373 2.865-9.644 4.054-48.563 25.055-27.677 157.303 1.286 202.026 22.088 33.43 27.971 81.208 27.971 81.208l3.505 20.255c2.843 16.444 17.158 28.426 33.847 28.324l19.328-.112c13.449-.082 24.697-10.769 24.809-24.208.1-13.628-10.927-24.678-24.545-24.595z" fill="#f68953"/><path d="m308.543 172.547c0-7.586-1.064-14.923-3.012-21.896-7.707 2.802-15.745 4.745-24.192 6.175h-.01c-70.293 7.745-59.512 149.769 2.557 172.289 9.104 5.755 16.668 14.083 22.931 23.561 1.127-5.391 1.726-10.974 1.726-16.695z" fill="#df6d2b"/></g><g><path d="m73.574 448.954c.112 19.47 15.996 35.171 35.467 35.059l28.538-.173c13.449-.071 24.707-10.769 24.809-24.208.101-13.628-10.936-24.678-24.544-24.595-4.518.028-8.176-3.75-7.904-8.26.188-3.131.495-6.229.905-9.285h-51.683c-6.945 16.032-5.39 29.482-5.588 31.462z" fill="#f68953"/></g><path d="m283.072 335.983v-163.436c0-30.953-25.084-56.037-56.037-56.037h-12.053c-108.316 10.168-108.316 254.884-33.793 275.51h45.846c30.952 0 56.037-25.085 56.037-56.037z" fill="#615285"/><g><path d="m214.982 116.51h-127.97c-30.943 0-56.037 25.084-56.037 56.037v163.435c0 30.953 25.095 56.037 56.037 56.037h94.176c-29.142-78.754-14.844-195.925 33.794-275.509z" fill="#4e3a65"/></g><path d="m252.506 335.983v-17.779l-17.952-68.325 14.794-89.609c-4.34-7.866-12.715-13.194-22.313-13.194h-28.257c-80.807 13.194-96.676 192.784-26.375 214.378h54.632c14.049 0 25.471-11.421 25.471-25.471z" fill="#edebfd"/><g><path d="m198.777 147.076h-111.765c-14.04 0-25.472 11.421-25.472 25.471v163.435c0 14.05 11.432 25.471 25.472 25.471h7.906l28.07-11.218 25.92 11.218h23.494c-14.58-68.035-2.949-150.373 26.375-214.377z" fill="#d1d1ef"/></g><path d="m252.506 318.203v-145.656c0-4.452-1.141-8.64-3.158-12.277-4.758.408-11.605 1.284-16.618 1.752-15.266 1.426-29.543 3.535-42.68 6.016-61.118 23.766-69.609 152.906-22.733 158.93 6.436-5.417 14.73-8.709 23.803-8.765z" fill="#8a94ff"/><g><path d="m104.18 232.672c-17.256-5.937-33.013-13.783-46.838-23.322-2.071-1.367-3.438-3.714-3.438-6.38 0-4.22 3.416-7.641 7.636-7.641 1.553 0 3.079.473 4.357 1.356 12.709 8.788 27.262 16.033 43.255 21.536 3.991 1.373 6.113 5.721 4.74 9.712-1.371 3.985-5.718 6.114-9.712 4.739z" fill="#4b64dd"/></g><g><path d="m190.045 168.034c-18.569 49.235-27.27 106.5-22.731 158.932-5.186 4.371-9.17 10.117-11.37 16.669-2.272 6.837-5.94 15.589-7.04 17.82h-53.99c4.972-23.984 3.862-34.315 3.495-96.761-.153-24.83 9.404-48.314 26.103-65.839l9.835.931 1.627-11.17c.591-.438 1.172-.876 1.773-1.304v-.01c8.039-5.797 15.629-9.577 23.597-12.338l11.803 2.832 4.009-7.132c2.805-.626 7.758-1.654 12.889-2.63z" fill="#6576ef"/></g><g><path d="m227.034 139.434h-24.604c-20.62 4.948-23.512 10.036-7.026 15.283h31.631c9.768 0 17.83 7.944 17.83 17.83v163.435c0 9.831-7.999 17.83-17.83 17.83h-56.136c-12.595 3.84-11.136 8.974 3.287 15.283h52.849c18.258 0 33.113-14.854 33.113-33.113v-163.435c-.001-18.295-14.885-33.113-33.114-33.113z" fill="#4e3a65"/><path d="m87.012 353.812c-9.831 0-17.83-7.999-17.83-17.83v-163.435c0-9.831 7.999-17.83 17.83-17.83h108.391c2.239-5.239 4.59-10.327 7.026-15.283h-115.417c-18.258 0-33.113 14.855-33.113 33.113v163.435c0 18.259 14.855 33.113 33.113 33.113h87.173c-1.231-4.96-2.33-10.056-3.287-15.283z" fill="#412f55"/></g><path d="m511.999 136.164c.051 8.854-2.669 17.076-7.366 23.841l-.01-.01c-18.901-3.648-32.706-21.18-30.719-41.356 16.163 5.375 24.859-1.882 33.51 6.612 2.812 2.782 4.565 6.644 4.585 10.913z" fill="#334151"/><g><path d="m419.405 133.231-.072-13.022c-.023-4.22 3.379-7.66 7.599-7.683 4.177-.042 7.66 3.378 7.684 7.599l.072 13.022c.023 4.22-3.379 7.66-7.599 7.683-4.38 0-7.661-3.512-7.684-7.599z" fill="#334151"/></g><g><path d="m158.45 269.96c-.336 3.994-3.678 7.01-7.611 7.01-4.475 0-7.988-3.821-7.621-8.273 2.618-31.422-8.548-55.171-18.706-69.843 3.505-3.688 7.336-7.112 11.462-10.24.112.143.224.285.326.428 11.799 16.659 25.217 44.209 22.15 80.918z" fill="#4b64dd"/></g><path d="m184.951 182.491c-7.739-7.437-11.803 4.916-6.378 21.661 5.349 13.296 8.742 29.506 7.163 48.467-.367 4.457 3.152 8.273 7.621 8.273 3.933 0 7.275-3.016 7.611-7.01 2.485-30.005-5.88-53.968-16.017-71.391z" fill="#6576ef"/><path d="m177.156 170.662c-5.563 1.192-10.769 2.537-15.813 4.3l1.671 2.364c5.4 6.898 11.146 15.864 15.558 26.827 1.936-7.397 4.065-14.621 6.378-21.661-2.536-4.362-5.175-8.305-7.794-11.83z" fill="#4b64dd"/></g></g></g></svg>