<svg id="Capa_1" enable-background="new 0 0 512 512" height="512" viewBox="0 0 512 512" width="512" xmlns="http://www.w3.org/2000/svg"><g><g><g><path d="m512 429.77v-347.54c0-45.418-36.812-82.23-82.23-82.23h-242.426c-163.382 19.135-166.59 484.377-12.384 512h254.81c45.418 0 82.23-36.812 82.23-82.23z" fill="#edebfd"/><g><path d="m130.324 188.043c10.064-69.87 30.168-133.93 57.02-188.043h-105.114c-45.418 0-82.23 36.812-82.23 82.23v347.54c0 45.418 36.812 82.23 82.23 82.23h92.73c-44.066-79.456-62.894-197.203-44.636-323.957z" fill="#d1d1ef"/></g><g><path d="m434.42 131.879c-14.072 54.123-99.828 42.238-108.597 0 0-13.896 5.295-27.793 15.9-38.398 21.203-21.203 55.593-21.203 76.796 0 10.605 10.605 15.901 24.501 15.901 38.398z" fill="#8a94ff"/><path d="m434.42 131.879c0 13.896-5.295 27.793-15.9 38.398-21.203 21.203-55.593 21.203-76.796 0-10.605-10.605-15.9-24.502-15.9-38.398z" fill="#6576ef"/></g><g><path d="m434.42 380.121c-14.072 54.123-99.828 42.238-108.597 0 0-13.896 5.295-27.793 15.9-38.398 21.203-21.203 55.593-21.203 76.796 0 10.605 10.605 15.901 24.502 15.901 38.398z" fill="#8a94ff"/><path d="m434.42 380.121c0 13.896-5.295 27.793-15.9 38.398-21.203 21.203-55.593 21.203-76.796 0-10.605-10.605-15.9-24.502-15.9-38.398z" fill="#6576ef"/></g><g><g><path d="m186.177 380.121c0-32.644-28.632-58.06-61.301-53.836-51.955 19.186-27.234 85.642 13.722 89.975 21.296-1.284 41.384-12.312 47.579-36.139z" fill="#8a94ff"/><path d="m77.58 380.121c4.909 23.643 33.94 37.771 61.018 36.139-6.857-28.086-11.511-58.279-13.722-89.975-26.996 3.49-47.296 26.469-47.296 53.836z" fill="#6576ef"/><path d="m186.177 380.121h-54.98c-29.314 4.137-23.107 50.941 11.888 53.124 25.038-5.255 43.092-27.356 43.092-53.124z" fill="#6576ef"/><path d="m77.58 380.121c0 13.896 5.295 27.793 15.9 38.398 13.468 13.468 32.254 18.368 49.604 14.726-4.813-16.895-8.794-34.653-11.888-53.124z" fill="#4b64dd"/></g><path d="m186.177 131.879c0-21.83-12.908-40.866-31.868-49.458-50.616-6.396-60.637 74.024-20.82 85.716 23.114.272 45.999-10.532 52.688-36.258z" fill="#8a94ff"/><path d="m93.481 93.481c-10.605 10.605-15.9 24.502-15.9 38.398 4.601 22.161 30.394 35.958 55.908 36.258 5.195-29.856 12.225-58.541 20.82-85.716-20.006-9.067-44.382-5.386-60.828 11.06z" fill="#6576ef"/><path d="m186.177 131.879h-45.355c-31.621 4.655-43.179 47.58-10.219 54.27 30.478.711 55.574-23.742 55.574-54.27z" fill="#6576ef"/><path d="m77.58 131.879c0 29.469 23.477 53.58 53.023 54.27 2.721-18.528 6.147-36.644 10.219-54.27z" fill="#4b64dd"/></g><path d="m232.727 289.616v152.566c0 13.136 10.872 23.723 24.113 23.258 12.614-.443 22.433-11.191 22.433-23.813v-152.01c0-5.713 4.631-10.343 10.343-10.343h152.043c12.816 0 23.622-10.14 23.793-22.954.174-13.05-10.362-23.591-23.271-23.591h-152.565c-5.712 0-10.343-4.631-10.343-10.343v-152.568c0-13.136-10.872-23.723-24.113-23.258-12.614.443-22.433 11.191-22.433 23.813v152.01c0 5.713-4.631 10.343-10.343 10.343h-97.01c-39.414 5.947-33.834 40.339-1.962 46.545h98.972c5.712.002 10.343 4.633 10.343 10.345z" fill="#d1d1ef"/><g><path d="m70.341 232.727c-12.816 0-23.622 10.14-23.793 22.954-.174 13.05 10.362 23.591 23.271 23.591h53.594c.098-15.276.742-30.81 1.962-46.545z" fill="#bfbfe4"/></g></g></g></g></svg>