<svg id="Capa_1" enable-background="new 0 0 512 512" height="512" viewBox="0 0 512 512" width="512" xmlns="http://www.w3.org/2000/svg"><g><g><g><path d="m415.03 69.818c0 12.841-10.406 23.273-23.273 23.273h-84.299v-46.546h84.299c12.857 0 23.273 10.416 23.273 23.273z" fill="#d1d1ef"/><path d="m234.796 93.091v112.175h48.356v-112.175z" fill="#d1d1ef"/><g><path d="m221.091 93.091v112.175h27.41v-112.175z" fill="#bfbfe4"/></g><path d="m376.242 316.592v26.21c0 16.322-13.24 29.562-29.562 29.562h-32.499c0-17.418 0-67.823 0-85.333h32.499c16.323-.001 29.562 13.239 29.562 29.561z" fill="#ff8c8a"/><g><path d="m337.455 471.578v-6.123c-13.978-14.56-68.249-21.7-112.062-19.033-36.107 10.5-29.733 63.901 15.364 65.579h56.276c22.321-.001 40.422-18.102 40.422-40.423z" fill="#fade65"/><path d="m166.788 465.455v6.123c0 22.321 18.101 40.422 40.422 40.422h33.546c-6.789-18.628-12.018-40.837-15.364-65.579-29.134 1.774-53.647 7.88-58.604 19.034z" fill="#ffca47"/><path d="m337.455 418.909c0-10.481 0-37.008 0-46.545-5.45-23.064-67.345-32.269-115.299-26.02-42.387 12.418-40.982 83.115 2.375 93.272 46.406 5.005 104.105-1.763 112.924-20.707z" fill="#fade65"/><path d="m222.155 346.344c-27.316 3.56-50.112 12.131-55.367 26.02v46.545c7.432 10.862 30.667 17.786 57.742 20.707-3.393-28.48-4.34-60.072-2.375-93.272z" fill="#ffca47"/></g><path d="m328.901 46.545c-3.113-13.343-15.091-23.273-29.375-23.273-38.272 0-65.67 0-104.504 0-41.68 9.826-42.197 83.265-.67 93.091h105.174c16.743 0 30.172-13.591 30.172-30.172-.232-32.084.564-33.933-.797-39.646z" fill="#615285"/><g><path d="m195.021 23.273c-37.925 0-72.191 0-74.779 0v93.091h74.109c-10.998-27.326-10.008-65.226.67-93.091z" fill="#4e3a65"/></g><g><path d="m337.455 418.909h-114.915c-26.881 2.844-26.881 43.96 5.888 46.545h109.026v-46.545z" fill="#00da77"/><path d="m166.788 418.909v46.545h61.64c-2.685-14.512-4.672-30.112-5.888-46.545z" fill="#00c344"/><path d="m337.455 256.083c0-42.462-34.143-77.07-76.613-77.632-74.918 10.834-104.397 161.331-39.649 193.913h116.262c0-17.314 0-113.244 0-116.281z" fill="#00da77"/><path d="m260.841 178.451c-.349-.005-.695-.026-1.045-.026h-15.35c-42.98 0-77.659 34.872-77.659 77.658v116.281h54.404c.885-62.699 12.619-137.669 39.65-193.913z" fill="#00c344"/></g><path d="m290.909 263.758c0-25.279-23.785-43.761-48.259-37.618-23.111 12.277-32.42 45.893-15.008 67.7 6.677 5.44 15.196 8.706 24.479 8.706 21.421-.001 38.788-17.367 38.788-38.788z" fill="#fade65"/><g><path d="m213.333 263.758c0 12.138 5.579 22.97 14.308 30.082 3.68-24.298 8.786-47.084 15.008-67.7-16.842 4.227-29.316 19.464-29.316 37.618z" fill="#ffca47"/></g><path d="m143.515 23.273v93.091c0 12.857-10.416 23.273-23.273 23.273s-23.272-10.416-23.272-23.273v-93.091c0-12.857 10.416-23.273 23.272-23.273 12.841 0 23.273 10.406 23.273 23.273z" fill="#bfbfe4"/></g></g></g></svg>