<svg id="Capa_1" enable-background="new 0 0 512 512" height="512" viewBox="0 0 512 512" width="512" xmlns="http://www.w3.org/2000/svg"><g><g><g><g><path d="m312.504 200.382c4.284 0 7.758-3.473 7.758-7.758v-69.031c0-51.063-36.239-95.579-86.169-105.85l-13.193-2.657c-4.2-.847-8.29 1.874-9.136 6.074-.845 4.2 1.873 8.29 6.074 9.136l13.161 2.65c42.719 8.788 73.748 46.913 73.748 90.647v69.031c0 4.285 3.473 7.758 7.757 7.758z" fill="#d1d1ef"/></g><g><path d="m20.841 200.382c-4.284 0-7.758-3.473-7.758-7.758v-69.031c0-51.063 36.239-95.579 86.169-105.85l13.193-2.657c4.2-.847 8.29 1.874 9.136 6.074.845 4.2-1.873 8.29-6.074 9.136l-13.161 2.65c-42.719 8.788-73.748 46.913-73.748 90.647v69.031c.001 4.285-3.473 7.758-7.757 7.758z" fill="#d1d1ef"/></g><circle cx="123.985" cy="23.273" fill="#615285" r="23.273"/><path d="m407.341 336.159h-55.885c-38.519 0-69.735 31.216-69.735 69.735v16.767c0 26.365-21.576 48.407-47.941 47.952-25.61-.434-46.307-21.4-46.307-47.114v-43.587c0-16.736 10.871-31.671 26.924-36.429 62.288-18.422 109.609-72.041 118.835-137.722 1.738-12.412-7.975-23.479-20.511-23.479-10.358 0-19.048 7.613-20.459 17.677-11.924 85.055-104.082 134-181.173 96.121-27.787-11.464-42.957 23.531-14.756 38.786 7.345 3.405 14.974 6.3 22.844 8.628 15.91 4.705 26.924 19.545 26.924 36.419v42.459c0 48.728 38.912 89.149 87.629 89.625 49.193.465 89.367-39.408 89.367-88.498v-17.604c0-15.66 12.702-28.361 28.361-28.361h55.885c31.097-.002 31.097-41.375-.002-41.375z" fill="#8a94ff"/><g><path d="m111.088 296.078c-36.972-18.166-63.859-53.828-69.788-96.12-1.417-10.168-10.199-17.677-20.459-17.677-12.327 0-22.253 10.811-20.501 23.479 8.052 57.382 45.198 105.555 95.991 129.104-5.865-14.656.369-31.583 14.757-38.786z" fill="#6576ef"/></g><path d="m237.886 222.754c0-11.583-5.129-22.338-13.715-29.592-5.306-4.489-9.568-10.105-12.019-16.601-8.171-21.656-30.834-34.987-54.419-30.533-47.194 25.671-43.272 109.97 9.179 115.514h32.186c21.432 0 38.788-17.366 38.788-38.788z" fill="#f68953"/><path d="m186.169 91.983c0-8.672-4.361-16.156-10.702-19.799-20.71-2.367-33.381 31.601-12.299 41.565 1.173.253 2.38.399 3.618.399 10.705.001 19.383-9.928 19.383-22.165z" fill="#f68953"/><path d="m457.558 302.543c29.985 0 54.303 24.317 54.303 54.303s-24.317 54.303-54.303 54.303c-29.862 0-54.303-24.207-54.303-54.303 0-30.125 24.462-54.303 54.303-54.303z" fill="#edebfd"/><circle cx="457.558" cy="356.846" fill="#615285" r="15.515"/><ellipse cx="242.416" cy="129.664" fill="#f68953" rx="19.394" ry="22.166"/><path d="m232.497 25.289c-1.014 11.916-11.005 21.256-23.179 21.256-12.857 0-23.273-10.416-23.273-23.273s10.416-23.272 23.273-23.272c13.85 0 24.427 11.981 23.179 25.289z" fill="#615285"/><g fill="#df6d2b"><g><path d="m157.732 146.028c-16.738 3.161-30.434 14.926-36.323 30.533-2.451 6.496-6.713 12.112-12.019 16.601-8.388 7.106-13.726 17.729-13.726 29.592 0 21.432 17.369 38.788 38.788 38.788h32.46c-10.543-30.892-14.388-71.653-9.18-115.514z"/><path d="m166.786 69.818c-10.716 0-19.404 9.919-19.404 22.166 0 10.823 6.801 19.827 15.786 21.766 3.248-14.766 7.408-28.711 12.299-41.565-2.614-1.502-5.556-2.367-8.681-2.367z"/></g><ellipse cx="91.145" cy="129.664" rx="19.394" ry="22.166"/></g></g></g></g></svg>