<svg id="Capa_1" enable-background="new 0 0 512 512" height="512" viewBox="0 0 512 512" width="512" xmlns="http://www.w3.org/2000/svg"><g><g><g><g><path d="m256 90.513c-4.22 0-7.642-3.421-7.642-7.642v-75.229c0-4.221 3.422-7.642 7.642-7.642s7.642 3.421 7.642 7.642v75.229c0 4.221-3.422 7.642-7.642 7.642z" fill="#615285"/></g><g><path d="m324.776 382.09h-137.552c-4.22 0-7.642-3.421-7.642-7.642s3.421-7.642 7.642-7.642h137.552c4.22 0 7.642 3.421 7.642 7.642s-3.421 7.642-7.642 7.642z" fill="#412f55"/></g><g><path d="m324.776 412.657h-137.552c-4.22 0-7.642-3.421-7.642-7.642s3.421-7.642 7.642-7.642h137.552c4.22 0 7.642 3.421 7.642 7.642s-3.421 7.642-7.642 7.642z" fill="#412f55"/></g><g><path d="m309.493 443.224c-4.22 0-7.642-3.421-7.642-7.642v-102.061c0-4.221 3.421-7.642 7.642-7.642s7.642 3.421 7.642 7.642v102.061c-.001 4.221-3.422 7.642-7.642 7.642z" fill="#4e3a65"/></g><g><path d="m202.507 443.224c-4.22 0-7.642-3.421-7.642-7.642v-102.061c0-4.221 3.421-7.642 7.642-7.642s7.642 3.421 7.642 7.642v102.061c0 4.221-3.421 7.642-7.642 7.642z" fill="#4e3a65"/></g><path d="m469.97 320.955c0-12.665-10.26-22.925-22.925-22.925l-.17-20.038h-355.343l.17 20.038c-12.675 0-22.925 10.276-22.925 22.925 0 12.665 6.878 22.925 49.672 22.925h328.597c12.674.001 22.924-10.276 22.924-22.925z" fill="#d1d1ef"/><g><path d="m95.522 320.955c0-12.649 10.25-22.925 22.925-22.925l-.17-20.038h-53.492l.17 20.038c-12.675 0-22.925 10.276-22.925 22.925 0 12.665 10.26 22.925 22.925 22.925h53.493c-12.665.001-22.926-10.26-22.926-22.925z" fill="#bfbfe4"/></g><path d="m508.179 267.463c0-16.883-13.684-30.567-30.567-30.567h-358.91c-52.559 0-57.441 13.695-57.441 30.567 0 16.883 11.335 30.567 57.441 30.567h358.909c16.875 0 30.568-13.695 30.568-30.567z" fill="#edebfd"/><g><path d="m88.135 267.463c0-16.873 13.694-30.567 30.567-30.567h-84.314c-16.874 0-30.567 13.695-30.567 30.567 0 16.883 13.684 30.567 30.567 30.567h84.314c-16.883 0-30.567-13.684-30.567-30.567z" fill="#d1d1ef"/></g><path d="m347.702 99.598c0-17.026-13.796-30.822-30.822-30.822-26.446 0-55.468 0-83.55 0-42.285 0-49.672 13.846-49.672 30.822 0 8.304 3.566 15.029 33.879 15.029h115.136c8.31 0 15.029-6.738 15.029-15.029z" fill="#edebfd"/><g><path d="m202.507 99.598c0-16.976 13.749-30.822 30.822-30.822-13.057 0-25.913 0-38.209 0-17.073 0-30.822 13.846-30.822 30.822 0 8.304 6.725 15.029 15.029 15.029h38.209c-8.304 0-15.029-6.725-15.029-15.029z" fill="#d1d1ef"/></g><g><path d="m347.702 489.923c-4.22 0-7.642-3.421-7.642-7.642v-16.132c0-12.641-10.284-22.925-22.925-22.925h-114.628c-12.641 0-22.925 10.285-22.925 22.925v16.132c0 4.221-3.421 7.642-7.642 7.642s-7.642-3.421-7.642-7.642v-16.132c0-21.069 17.14-38.209 38.209-38.209h114.627c21.069 0 38.209 17.14 38.209 38.209v16.132c0 4.222-3.421 7.642-7.641 7.642z" fill="#412f55"/></g><g><path d="m212.388 158.239c-2.985-2.984-2.985-7.823 0-10.807l7.642-7.642c2.984-2.984 7.823-2.984 10.807 0 2.985 2.984 2.985 7.823 0 10.807l-7.642 7.642c-2.985 2.985-7.823 2.984-10.807 0z" fill="#ffca47"/></g><g><path d="m181.82 188.806c-2.985-2.984-2.985-7.823 0-10.807l7.642-7.642c2.984-2.984 7.823-2.984 10.807 0 2.985 2.984 2.985 7.823 0 10.807l-7.642 7.642c-2.984 2.985-7.822 2.985-10.807 0z" fill="#ffca47"/></g><g><path d="m288.805 158.239-7.642-7.642c-2.985-2.984-2.985-7.823 0-10.807 2.984-2.984 7.823-2.984 10.807 0l7.642 7.642c2.985 2.984 2.985 7.823 0 10.807-2.984 2.985-7.822 2.984-10.807 0z" fill="#ffca47"/></g><g><path d="m319.373 188.806-7.642-7.642c-2.985-2.984-2.985-7.823 0-10.807 2.984-2.984 7.823-2.984 10.807 0l7.642 7.642c2.985 2.984 2.985 7.823 0 10.807-2.985 2.985-7.823 2.985-10.807 0z" fill="#ffca47"/></g><g><path d="m256 160.478c-4.22 0-7.642-3.421-7.642-7.642v-7.642c0-4.22 3.421-7.642 7.642-7.642s7.642 3.421 7.642 7.642v7.642c0 4.22-3.422 7.642-7.642 7.642z" fill="#ffca47"/></g><g><path d="m256 198.687c-4.22 0-7.642-3.421-7.642-7.642v-7.642c0-4.22 3.421-7.642 7.642-7.642s7.642 3.421 7.642 7.642v7.642c0 4.22-3.422 7.642-7.642 7.642z" fill="#ffca47"/></g><g fill="#615285"><circle cx="347.702" cy="489.075" r="22.925"/><circle cx="171.94" cy="489.075" r="22.925"/></g></g></g></g></svg>