<svg id="Capa_1" enable-background="new 0 0 512 512" height="512" viewBox="0 0 512 512" width="512" xmlns="http://www.w3.org/2000/svg"><g><g><g><path d="m204.151 375.963c-3.294-13.213-.327-26.961 7.613-37.496 26.225-26.225-22.876-75.327-49.101-49.101l-35.649 35.627c-63.507 70.989-57.176 185.895-2.755 161.233l68.214-68.092c11.026-11.026 15.463-27.038 11.678-42.171z" fill="#edebfd"/><path d="m380.997 205.22-49.66-49.66c-22.006-22.004-120.074 76.074-98.068 98.078l49.653 49.66h.007z" fill="#00da77"/><g><path d="m127.013 324.993-117.758 117.687c-12.34 12.34-12.34 32.365 0 44.716 31.434 31.434 82.398 31.434 113.832 0l1.171-1.169c-12.346-50.277-8.6-109.809 2.755-161.234z" fill="#d1d1ef"/></g><g><path d="m205.978 311.823c3.03-3.03 3.03-7.942 0-10.972-3.029-3.028-7.941-3.028-10.971 0l-76.367 76.366c-13.68 16.006-12.12 28.591-1.706 23.649z" fill="#d1d1ef"/><path d="m93.553 413.277c3.03 3.029 7.942 3.028 10.971 0l12.411-12.411c.337-7.9.919-15.799 1.706-23.649l-25.088 25.088c-3.03 3.03-3.03 7.942 0 10.972z" fill="#bfbfe4"/></g><path d="m246.839 302.792c-31.649 31.833-31.82 31.353-35.075 35.675-4.912-4.912-43.677-43.677-49.101-49.101l35.386-35.365c20.295-20.297 69.087 28.495 48.79 48.791z" fill="#615285"/><g><path d="m496.856 89.361c16.092-16.092 19.35-40.141 9.819-59.473-29.774-29.774-55.907-18.797-72.002-2.71l-42.678 42.688 62.173 62.173z" fill="#00da77"/><g fill="#00c344"><path d="m506.675 29.887c-2.439-4.948-5.703-9.592-9.819-13.708-20.212-20.201-52.97-20.201-73.182 0l-42.678 42.688 23.522 23.522 42.678-42.688c16.096-16.087 40.143-19.349 59.479-9.814z"/><path d="m331.337 155.561-23.522-23.522-98.068 98.078 73.172 73.181h.003l-49.653-49.659z"/></g></g><path d="m380.997 205.22 73.171-73.182c16.451-16.435 19.536-41.235 9.146-60.814-26.267-26.267-56.056-19.031-72.519-2.56l-73.182 73.171c-16.469 16.469-24.168 45.799 2.56 72.527 19.555 10.373 44.354 7.328 60.824-9.142z" fill="#fade65"/><g><path d="m329.312 153.536 73.182-73.171c16.463-16.472 41.265-19.515 60.82-9.139-2.356-4.44-5.401-8.613-9.146-12.357-20.212-20.212-52.97-20.212-73.171 0l-73.182 73.171c-20.21 20.21-20.2 52.982 0 73.182 3.742 3.742 7.915 6.787 12.358 9.143-10.368-19.553-7.33-44.36 9.139-60.829z" fill="#ffca47"/></g><path d="m298.671 324.131c8.409-8.409 8.418-22.039.029-30.461-19.281-19.282-9.964-9.965-52.614-52.615-12.817-12.817-30.225-16.584-38.65-8.159-8.42 8.42-5.53 24.963 8.177 38.67l52.565 52.565c8.42 8.42 22.073 8.42 30.493 0z" fill="#00c344"/><path d="m215.613 241.073c8.426-8.426 22.052-8.419 30.473-.018-14.657-14.658-26.649-26.651-26.689-26.691-8.42-8.42-22.061-8.432-30.493 0-8.42 8.42-8.42 22.073 0 30.493 10.211 10.211 36.688 36.688 26.709 26.709-8.42-8.42-8.42-22.074 0-30.493z" fill="#04a814"/><g><path d="m338.915 174.12c-3.03-3.029-3.03-7.942 0-10.971l73.182-73.182c3.029-3.029 7.942-3.029 10.971 0 3.03 3.029 3.03 7.942 0 10.971l-73.182 73.182c-3.03 3.03-7.941 3.03-10.971 0z" fill="#fd5f5c"/></g></g></g></g></svg>