<svg id="Capa_1" enable-background="new 0 0 512 512" height="512" viewBox="0 0 512 512" width="512" xmlns="http://www.w3.org/2000/svg"><g><g><g><path d="m81.071 467.607-36.813 36.771c-10.375 10.385-27.359 10.157-37.443-.683-9.619-10.323-8.875-26.572 1.096-36.544l36.368-36.337c27.607-19.92 58.896 3.611 36.792 36.793z" fill="#fd5f5c"/><path d="m465.684 168.959c23.063-23.063-99.58-145.706-122.643-122.643l-33.364 33.364c-76.835 89.665-65.745 232.52 28.811 215.568 7.504-5.879-.141.725 127.196-126.289z" fill="#edebfd"/><g><path d="m309.677 79.68-85.99 85.99c-17.936 17.946-27.141 42.822-25.197 68.122 1.984 25.095-7.203 50.128-25.197 68.122l-129.014 128.901c14.354 14.353 24.548 24.548 36.792 36.792l129.015-128.901c17.936-17.936 42.822-27.141 68.122-25.197 21.64 1.711 43.21-4.89 60.28-18.262-28.206-63.116-40.078-144.253-28.811-215.567z" fill="#d1d1ef"/></g><path d="m497.211 41.962c14.108 14.108 18.587 35.209 11.419 53.838l-13.984 36.357c-17.032 17.032-131.835-97.77-114.803-114.803l36.357-13.984c18.629-7.168 39.729-2.689 53.838 11.419z" fill="#8a94ff"/><path d="m497.583 135.094c9.092 9.082 9.092 23.821 0 32.913-9.101 9.101-23.837 9.076-32.913 0-128.724-128.746-120.777-120.721-121.629-121.691-8.12-9.144-7.799-23.149.952-31.899 9.018-9.038 23.795-9.139 32.913 0 13.244 13.244 105.648 105.649 120.677 120.677z" fill="#615285"/><path d="m370.234 189.532c13.198-13.198 13.173-34.593 0-47.766-13.188-13.188-34.578-13.188-47.766 0-22.386 22.4-14.665 14.674-16.335 16.346-33.927 48.239-22.205 89.073 13.055 82.059 3.236-2.498 1.015-.757 51.046-50.639z" fill="#ff8c8a"/><g><path d="m306.132 158.112c-2.655 2.654 10.602-10.598-31.431 31.421-13.188 13.188-13.188 34.578 0 47.766 12.145 12.145 31.241 13.096 44.486 2.872-4.105-15.494-7.402-31.712-9.746-48.499-1.582-11.337-2.672-22.542-3.309-33.56z" fill="#fd5f5c"/></g><g><path d="m328.918 171.135-16.782-16.782c-3.03-3.03-3.03-7.941 0-10.971s7.942-3.03 10.971 0l16.782 16.782c3.03 3.03 3.03 7.941 0 10.971-3.029 3.028-7.941 3.03-10.971 0z" fill="#fd5f5c"/></g><g><path d="m293.099 206.954-16.265-16.265c-3.03-3.029-3.03-7.941 0-10.971 3.029-3.029 7.941-3.03 10.971 0l16.265 16.265c3.03 3.029 3.03 7.941 0 10.971-3.029 3.029-7.942 3.03-10.971 0z" fill="#fd3644"/></g><path d="m375.719 195.018c16.194-16.194 16.194-42.543 0-58.737s-42.543-16.194-58.742.005l-11.313 11.313c-12.598 18.199-12.689 25.544 1.183 20.759 9.213-9.213 18.006-18.006 21.106-21.106 10.145-10.145 26.652-10.144 36.796 0 10.145 10.145 10.145 26.651 0 36.796l-47.703 47.703c-10.833 12.185-9.875 17.916 4.334 16.388 2.325-1.527 4.531-3.311 6.574-5.354z" fill="#d1d1ef"/><g><path d="m316.982 231.813c-10.145 10.145-26.651 10.145-36.795 0-10.145-10.145-10.145-26.651-.005-36.791.838-.838 14.14-14.14 26.665-26.665-.58-6.994-.967-13.915-1.183-20.759l-36.448 36.449c-16.194 16.194-16.194 42.543 0 58.737 14.151 14.151 36.056 15.934 52.163 5.354-1.545-5.371-2.992-10.835-4.334-16.388z" fill="#bfbfe4"/></g></g></g></g></svg>