<svg id="Capa_1" enable-background="new 0 0 512 512" height="512" viewBox="0 0 512 512" width="512" xmlns="http://www.w3.org/2000/svg"><g><g><g><g><g><path d="m213.333 111.968c-4.284 0-7.758-3.473-7.758-7.758v-47.321c0-4.284 3.473-7.758 7.758-7.758 4.284 0 7.758 3.473 7.758 7.758v47.321c0 4.284-3.473 7.758-7.758 7.758z" fill="#bfbfe4"/></g></g><g><path d="m213.333 62.061c-17.11 0-31.03-13.92-31.03-31.03 0-4.284 3.473-7.758 7.758-7.758s7.758 3.473 7.758 7.758c0 8.555 6.96 15.515 15.515 15.515 5.334 0 10.234-2.695 13.11-7.209 6.389-10.056 17.615-16.064 30.023-16.064h158.563c4.284 0 7.758 3.473 7.758 7.758s-3.473 7.758-7.758 7.758h-158.564c-6.965 0-13.453 3.402-16.932 8.877-5.744 9.016-15.537 14.395-26.201 14.395z" fill="#4e3a65"/></g><path d="m232.727 461.576v31.03c0 10.716-8.678 19.394-19.394 19.394s-19.394-8.678-19.394-19.394v-31.03z" fill="#fd3644"/><path d="m256 457.697v-38.788h-73.697v38.788c0 12.857 4.827 23.273 40.746 23.273h9.678c12.857 0 23.273-10.416 23.273-23.273z" fill="#ff8c8a"/><g><path d="m199.777 457.697v-38.788h-29.11v38.788c0 12.857 10.416 23.273 23.273 23.273h29.11c-12.857 0-23.273-10.416-23.273-23.273z" fill="#fd5f5c"/></g><path d="m446.061 15.515v480.97c0 8.564-6.951 15.515-15.515 15.515s-15.515-6.951-15.515-15.515c0-5.254 0-470.531 0-480.97-.001-8.55 6.95-15.515 15.514-15.515 8.565 0 15.516 6.951 15.516 15.515z" fill="#615285"/><path d="m360.727 374.432v-221.349c0-37.412-30.337-67.749-67.749-67.749-3.599 0-29.146 0-58.791 0-116.53 12.929-128.5 350.807-34.866 356.848h93.657c37.412 0 67.749-30.337 67.749-67.75z" fill="#edebfd"/><g><path d="m234.187 85.333c-43.259 0-95.245 0-100.498 0-37.412 0-67.749 30.337-67.749 67.749v221.349c0 37.412 30.337 67.75 67.749 67.75h65.632c-46.242-102.012-30.447-264.418 34.866-356.848z" fill="#d1d1ef"/></g><path d="m314.171 193.495c0 75.607-160.658 15.27-102.41-25.435 15.681-10.55 31.785-16.477 46.442-19.653 28.682-6.216 55.71 15.805 55.968 45.088z" fill="#fd5f5c"/><path d="m314.182 359.952c0-173.593.006-166.231-.01-166.457-11.13.796-28.413.662-49.297-1.583-30.478-3.278-48.987-21.911-67.456-34.059-51.834-22.527-78.727 233.646-14.008 237.783h95.087c19.703 0 35.684-15.98 35.684-35.684z" fill="#ff8c8a"/><g><path d="m197.418 157.853c-10.379-6.827-20.746-11.605-33.216-10.459-28.441 2.37-51.717 26.608-51.717 56.723v155.834c0 19.704 15.981 35.685 35.685 35.685h35.241c-18.548-74.667-12.178-164.766 14.007-237.783z" fill="#fd5f5c"/></g><path d="m236.606 325.263v-6.944c0-4.427 3.589-8.016 8.016-8.016h6.943c12.633 0 23.386-9.835 23.815-22.46.45-13.238-10.149-24.085-23.259-24.085h-7.499c-4.427 0-8.016-3.589-8.016-8.016v-7.499c0-11.629-8.524-21.255-19.665-22.988-29.983 4.341-30.673 117.286-4.502 123.812 13.565.513 24.167-10.708 24.167-23.804z" fill="#edebfd"/><g><path d="m216.941 225.254c-14.596-2.271-26.88 9.399-26.88 23.544v6.944c0 4.427-3.589 8.016-8.016 8.016h-6.943c-12.633 0-23.386 9.835-23.815 22.46-.45 13.238 10.149 24.085 23.259 24.085h7.499c4.427 0 8.016 3.589 8.016 8.016v7.499c0 12.557 9.937 22.778 22.378 23.248-4.443-40.383-2.706-83.013 4.502-123.812z" fill="#d1d1ef"/></g></g></g></g></svg>