<svg id="Capa_1" enable-background="new 0 0 512 512" height="512" viewBox="0 0 512 512" width="512" xmlns="http://www.w3.org/2000/svg"><g><g><g><path d="m507.458 4.53c6.055 6.055 6.055 15.87 0 21.915l-89.952 89.952c-20.292 20.292-42.207-1.622-21.915-21.915l89.952-89.952c6.018-6.018 15.852-6.062 21.915 0z" fill="#edebfd"/><path d="m408.372 158.398-.01.01c-27.008 27.003-81.779-27.779-54.771-54.781.145-.165.289-.31.444-.465 15.144-15.144 39.68-15.112 54.792 0 15.595 15.596 14.807 40.991-.455 55.236z" fill="#00c4fc"/><path d="m32.684 402.501h122.625v30.992h-122.625z" fill="#00c4fc" transform="matrix(.707 -.707 .707 .707 -268.038 188.894)"/><path d="m472.7 233.028c21.398 0 38.746 32.846 38.746 54.244s-17.348 38.746-38.746 38.746-38.746-17.348-38.746-38.746 17.348-54.244 38.746-54.244z" fill="#ff8c8a"/><path d="m403.34 152.478-43.829-43.829c-18.325-18.325-47.752-18.013-65.754 0-.43.43-12.504 12.504-30.516 30.518-84.537 84.542-90.34 247.818-2.508 221.681 57.593-57.596 138.667-138.674 142.608-142.616 18.26-18.25 18.055-47.798-.001-65.754z" fill="#59d5ff"/><g><path d="m263.24 139.166c-55.893 55.896-168.996 169.005-169.075 169.084l109.584 109.584c.63-.63 25.241-25.242 56.983-56.986-19.287-69.254-15.615-153.292 2.508-221.682z" fill="#00c4fc"/></g><path d="m392.377 163.44-43.829-43.829c-12.171-12.182-31.772-12.078-43.829 0l-47.992 47.992c-43.769 47.188-46.813 186.828-.318 175.652l135.979-135.986c12.129-12.13 12.088-31.802-.011-43.829z" fill="#edebfd"/><path d="m256.727 167.603-151.604 151.604 87.669 87.669 63.617-63.621c-12.173-56.196-10.672-119.456.318-175.652z" fill="#d1d1ef"/><g><path d="m249.637 218.518 33.263-33.263c3.027-3.026 3.027-7.933 0-10.959-3.026-3.026-7.933-3.026-10.959 0l-19.593 19.593c-13.545 14.702-23.864 25.225-2.711 24.629z" fill="#d1d1ef"/><g><g fill="#bfbfe4"><path d="m159.202 297.995 16.439 16.439c3.027 3.026 7.933 3.025 10.959 0 3.027-3.027 3.027-7.933 0-10.96l-16.439-16.439c-.326-.326-.677-.61-1.042-.865l-10.782 10.782c.255.366.539.717.865 1.043z"/><path d="m186.603 270.594 27.401 27.402c3.027 3.026 7.933 3.025 10.959 0 3.027-3.027 3.027-7.933 0-10.96l-27.401-27.402c-.326-.326-.677-.609-1.042-.865l-10.782 10.782c.255.365.539.717.865 1.043z"/><path d="m241.401 248.672-16.439-16.438c-.326-.326-.677-.61-1.042-.866l-10.782 10.782c.256.365.54.716.866 1.042l16.439 16.438c3.026 3.027 7.933 3.027 10.959 0 3.026-3.026 3.026-7.932-.001-10.958z"/></g></g><path d="m120.017 326.22c-1.548 1.549-2.299 3.589-2.263 5.617.074 4.176 3.421 7.531 7.605 7.605 2.178.039 4.162-.809 5.617-2.263l118.661-118.662c.151-1.77.285-3.532.456-5.309.629-6.518 1.383-12.961 2.255-19.32z" fill="#bfbfe4"/></g><g fill="#59d5ff"><path d="m220.15 407.797c10.084 10.084 10.084 26.44 0 36.524-10.084 10.095-26.44 10.095-36.535 0-7.071-7.071-114.571-114.571-115.938-115.937-10.119-10.14-10.075-26.46 0-36.535 10.084-10.084 26.44-10.084 36.524 0l3.182 3.182c5.087 5.086 107.297 107.297 112.767 112.766z"/><path d="m94.479 472.311c9.028 9.008 9.129 23.769 0 32.877-9.072 9.082-23.795 9.082-32.877 0l-54.792-54.791c-9.092-9.112-9.064-23.813 0-32.877 9.082-9.082 23.795-9.082 32.877 0 10.526 10.526 35.352 35.352 54.792 54.791z"/></g></g></g></g></svg>