<svg id="Capa_1" enable-background="new 0 0 512 512" height="512" viewBox="0 0 512 512" width="512" xmlns="http://www.w3.org/2000/svg"><g><g><g><path d="m377.025 114.282v102.058c13.102 24.135 71.717 16.33 80.619-9.44.617-26.063-3.562-51.292-12.413-75.21-6.488-11.978-43.929-36.372-68.206-17.408z" fill="#4e3a65"/><path d="m134.978 114.282v102.058c-13.102 24.135-71.717 16.33-80.619-9.44-.617-26.063 3.563-51.292 12.413-75.21 6.488-11.978 43.929-36.372 68.206-17.408z" fill="#4e3a65"/><g><g><path d="m465.462 232.718c0 25.745-20.892 46.547-46.547 46.547-6.026 0-9.607-1.076-11.647-1.469-42.781-4.071-34.072-95.603 8.709-91.532 26.712-1.705 49.485 19.538 49.485 46.454z" fill="#ffcebf"/><path d="m104.733 277.786c-29.563 7.637-58.194-14.767-58.194-45.068 0-26.956 22.807-48.157 49.485-46.454 54.855-5.22 63.565 86.301 8.709 91.522z" fill="#ffb09e"/><path d="m402.592 512h-293.184c-9.144 0-16.395-7.882-15.443-16.974 3.651-35.252 18.577-67.276 41.199-92.277l9.847 2.451 2.307-14.554c11.701-10.505 24.899-19.282 39.193-26.035 0 0 .01 0 .021.01 44.809-19.281 96.187-19.395 138.948 0 .01 0 .021 0 .021-.01 13.741 6.492 26.552 14.921 37.982 24.97l4.231 14.843 8.834-1.996c22.746 24.991 37.817 57.087 41.499 92.597.94 9.093-6.311 16.975-15.455 16.975z" fill="#00c344"/><path d="m325.479 364.622c-5.865 32.293-34.962 56.632-69.479 56.632s-63.604-24.339-69.469-56.632c42.672-19.403 94.049-19.282 138.948 0z" fill="#ffb09e"/><path d="m418.915 217.202c0-31.066-8.701-60.323-24.122-85.336-16.587-24.329-80.856-36.507-144.082-35.647-170.412 12.373-162.797 289.465 48.37 278.143 69.285-18.917 119.834-82.342 119.834-157.16z" fill="#ffdfcf"/><g><path d="m202.543 122.374c8.909-11.36 26.263-20.052 48.167-26.155-57.739.785-114.608 12.442-133.503 35.647-16.142 26.183-24.122 55.657-24.122 85.336 0 107.583 102.418 185.439 205.995 157.16-105.622-29.364-153.245-156.486-96.537-251.988z" fill="#ffcebf"/></g><path d="m414.994 77.561c-34.979-44.753-88.462-74.342-148.939-77.312-87.634 4.13-153.575 80.416-75.65 109.047 98.857 7.273 238.074-3.691 224.589-31.735z" fill="#00c4fc"/><g><path d="m266.055.249c-67.359-3.309-129.429 26.621-169.049 77.312-8.479 16.979 35.552 27.478 93.399 31.734-12.197-50.146 20.452-93.483 75.65-109.046z" fill="#00aefc"/></g><path d="m469.34 104.714c0-14.998-12.154-27.152-27.152-27.152-65.958 0-226.963 0-324.25 0-41.23 0-46.747 12.168-46.747 27.152 0 15.031 14.481 27.152 46.747 27.152h324.25c14.999 0 27.152-12.167 27.152-27.152z" fill="#59d5ff"/><g><path d="m90.786 104.714c0-14.985 12.154-27.152 27.152-27.152-18.798 0-35.233 0-48.126 0-14.999 0-27.152 12.168-27.152 27.152 0 15.031 12.199 27.152 27.152 27.152h48.126c-14.953 0-27.152-12.121-27.152-27.152z" fill="#00c4fc"/></g><path d="m302.547 108.593c0-21.937-15.209-40.383-35.723-45.269-59.845.001-59.844 90.536.001 90.536 20.45-4.877 35.722-23.247 35.722-45.267z" fill="#fade65"/><g><path d="m266.824 63.323c-29.438-7.011-57.371 15.363-57.371 45.269 0 30.008 28.046 52.26 57.372 45.267-30.225-20.493-30.212-70.046-.001-90.536z" fill="#ffca47"/></g><g fill="#d1d1ef"><path d="m221.669 453.702c-3.093 2.917-8.027 2.607-11.037-.393l-10.737-10.747c-6.034-6.013-15.835-6.105-21.949.01-6.037 6.037-6.081 15.848 0 21.929l10.747 10.747c4.943 4.943 1.792 13.478-5.255 13.478-1.986 0-3.972-.755-5.482-2.276l-10.975-10.975c-8.724-8.709-11.079-21.172-7.468-31.9.972-2.855.124-6.01-2.11-8.037-7.158-6.496-16.116-17.057-22.239-32.79 3.827-4.251 7.892-8.285 12.154-12.102.716 1.391 4.907 19.278 20.429 33.379 2.224 2.017 5.451 2.586 8.172 1.324 11.258-5.196 25.296-3.374 34.941 6.237l10.975 10.985c3.092 3.084 3.03 8.121-.166 11.131z"/><path d="m376.546 402.428c-9.713 37.61-36.152 51.719-37.32 52.319-3.772 1.955-8.466.514-10.458-3.32-1.965-3.786-.497-8.451 3.279-10.437 1.003-.538 23.532-12.919 30.483-46.795l.952-4.613c4.593 4.033 8.958 8.326 13.064 12.846z"/><path d="m256 457.695c-4.284 0-7.758 3.473-7.758 7.758v7.758c0 4.285 3.473 7.758 7.758 7.758s7.758-3.473 7.758-7.758v-7.758c0-4.285-3.474-7.758-7.758-7.758z"/></g><g><path d="m321.942 488.727c-15.008 0-27.152-12.138-27.152-27.152 0-15.008 12.138-27.152 27.152-27.152 15.008 0 27.152 12.138 27.152 27.152 0 15.007-12.138 27.152-27.152 27.152z" fill="#edebfd"/></g></g></g><path d="m338.378 218.795c16.788 0 30.4 10.84 30.4 24.204s-13.612 24.204-30.4 24.204-30.39-10.84-30.39-24.204 13.602-24.204 30.39-24.204z" fill="#ffa1ac"/><path d="m280.504 224.402c0 15.143-10.964 27.421-24.504 27.421s-24.504-12.278-24.504-27.421 10.964-16.571 24.504-16.571 24.504 1.427 24.504 16.571z" fill="#334151"/><path d="m173.622 218.795c16.788 0 30.39 10.84 30.39 24.204s-13.602 24.204-30.39 24.204-30.4-10.84-30.4-24.204 13.612-24.204 30.4-24.204z" fill="#ffa1ac"/><g><path d="m178.701 221.857c-4.284 0-7.758-3.473-7.758-7.758v-12.413c0-4.284 3.473-7.758 7.758-7.758s7.758 3.473 7.758 7.758v12.413c0 4.285-3.474 7.758-7.758 7.758z" fill="#334151"/></g><g><path d="m333.299 221.857c-4.285 0-7.758-3.473-7.758-7.758v-12.413c0-4.284 3.473-7.758 7.758-7.758 4.284 0 7.758 3.473 7.758 7.758v12.413c0 4.285-3.473 7.758-7.758 7.758z" fill="#334151"/></g></g></g></g></svg>