<svg id="Capa_1" enable-background="new 0 0 512 512" height="512" viewBox="0 0 512 512" width="512" xmlns="http://www.w3.org/2000/svg"><g><g><g><path d="m511.988 256.016c0-129.827-96.653-237.069-221.925-253.727-226.097-2.261-297.808 463.18-33.799 509.711 141.256-.143 255.724-114.695 255.724-255.984z" fill="#8a94ff"/><g><path d="m290.062 2.289c-154.083-20.49-290.05 99.234-290.05 253.727 0 141.209 114.443 256.086 256.251 255.984-89.587-135.222-73.339-382.378 33.799-509.711z" fill="#6576ef"/></g><path d="m465.445 256.016c0-114.638-92.099-207.744-206.342-209.405-219.27 44.64-195.095 378.728-28.387 417.326 124.592 14.993 234.729-81.926 234.729-207.921z" fill="#edebfd"/><g><path d="m259.103 46.61c-118.133-1.717-212.548 93.72-212.548 209.406 0 107.117 80.41 195.436 184.161 207.921-52.881-124.928-39.836-300.198 28.387-417.327z" fill="#d1d1ef"/></g><circle cx="372.358" cy="325.83" fill="#ff8c8a" r="31.029"/><circle cx="351.327" cy="193.958" fill="#00da77" r="46.543"/><circle cx="294.786" cy="403.402" fill="#ffca47" r="15.514"/><path d="m237.569 370.419c9.474-3.93 22.517-2.937 29.664-10.084s6.154-20.189 10.084-29.664c3.796-9.154 13.849-17.593 13.849-28.112s-10.053-18.959-13.849-28.112c-3.93-9.474-2.937-22.517-10.084-29.664s-20.189-6.154-29.664-10.084c-11.442-4.745-20.532-18.118-35.126-12.427-69.869 55.12-44.012 134.588 4.437 161.792.846.129 1.704.204 2.577.204 10.519 0 18.958-10.053 28.112-13.849z" fill="#00da77"/><g><path d="m202.443 222.271c-7.455 2.907-14.067 9.511-21.099 12.427-9.474 3.93-22.517 2.937-29.664 10.084s-6.154 20.189-10.084 29.664c-3.796 9.154-13.849 17.593-13.849 28.112s10.053 18.959 13.849 28.112c3.93 9.474 2.937 22.517 10.084 29.664s20.189 6.154 29.664 10.084c8.394 3.481 16.189 12.218 25.535 13.645-9.722-50.576-11.436-105.9-4.436-161.792z" fill="#00c344"/></g><circle cx="284.723" cy="106.766" fill="#ffca47" r="15.514"/><circle cx="147.399" cy="170.686" fill="#fd5f5c" r="23.272"/><path d="m473.202 256.016c0-117.189-93.292-212.982-209.507-217.051-14.159.711-21.399 11.485-8.972 15.38 111.876-.696 202.964 90.096 202.964 201.671 0 122.244-108.535 217.041-230.336 199.643-20.471-1.059-14.015 12.215 6.978 16.48 128.242 12.762 238.873-88.255 238.873-216.123z" fill="#d1d1ef"/><g><path d="m54.312 256.016c0-110.784 89.786-200.98 200.41-201.671 2.901-5.271 5.896-10.394 8.972-15.38-2.556-.089-5.118-.151-7.695-.151-119.765 0-217.202 97.436-217.202 217.202 0 112.452 85.902 205.214 195.531 216.123-2.438-5.353-4.764-10.85-6.978-16.48-97.689-13.954-173.038-98.158-173.038-199.643z" fill="#bfbfe4"/></g><g><path d="m199.427 277.016 7.757-7.757c3.03-3.03 3.03-7.941 0-10.971-2.145-2.144-5.231-2.762-7.927-1.87-9.079 9.557-14.011 17.992-.916 21.496.382-.264.747-.56 1.086-.898z" fill="#fade65"/><path d="m188.457 266.044c-3.03 3.03-3.03 7.941 0 10.971 2.676 2.675 6.833 3.005 9.885.897.163-7.136.466-14.303.916-21.496-1.112.368-2.159.986-3.043 1.87z" fill="#ffca47"/></g><g><path d="m208.275 336.838c-3.03-3.03-3.03-7.941 0-10.971l7.757-7.757c3.029-3.028 7.941-3.028 10.97 0 3.03 3.03 3.03 7.941 0 10.971l-7.757 7.757c-3.03 3.029-7.94 3.028-10.97 0z" fill="#fade65"/></g><g><path d="m242.757 300.287-7.757-7.757c-3.03-3.03-3.03-7.941 0-10.971 3.029-3.028 7.941-3.028 10.97 0l7.757 7.757c3.03 3.03 3.03 7.941 0 10.971-3.03 3.029-7.94 3.028-10.97 0z" fill="#fade65"/></g><g><path d="m178.502 317.999-7.757-7.757c-3.03-3.03-3.03-7.941 0-10.971 3.029-3.028 7.941-3.028 10.97 0l7.757 7.757c3.03 3.03 3.03 7.941 0 10.971s-7.941 3.029-10.97 0z" fill="#ffca47"/></g></g></g></g></svg>