<?xml version="1.0" encoding="iso-8859-1"?>
<!-- Uploaded to: SVG Repo, www.svgrepo.com, Generator: SVG Repo Mixer Tools -->
<svg version="1.1" id="Layer_1" xmlns="http://www.w3.org/2000/svg" xmlns:xlink="http://www.w3.org/1999/xlink" 
	 viewBox="0 0 512 512" xml:space="preserve">
<rect x="58.019" y="196.04" style="fill:#FE9901;" width="395.961" height="295.49"/>
<rect x="430.362" y="205.551" style="fill:#EA8500;" width="23.615" height="278.148"/>
<path style="fill:#ED2601;" d="M253.559,13.542L17.848,198.095c-3.122,2.444-1.393,7.455,2.571,7.455H491.84
	c3.965,0,5.694-5.012,2.571-7.455L258.702,13.542C257.192,12.36,255.069,12.36,253.559,13.542z"/>
<path style="fill:#C91C00;" d="M239.881,27.778l227.05,177.771h24.911c3.965,0,5.694-5.012,2.571-7.455L258.702,13.542
	c-1.51-1.183-3.632-1.183-5.143,0l-16.31,12.77l2.25,1.765L239.881,27.778z"/>
<polygon style="fill:#FFFFFF;" points="311.165,109.374 273.372,109.374 273.372,71.581 238.889,71.581 238.889,109.374 
	201.096,109.374 201.096,143.857 238.889,143.857 238.889,181.65 273.372,181.65 273.372,143.857 311.165,143.857 "/>
<rect x="94.975" y="285.312" style="fill:#ED2601;" width="108.448" height="198.387"/>
<rect x="179.784" y="285.312" style="fill:#C91C00;" width="23.642" height="198.387"/>
<rect x="234.185" y="285.312" style="fill:#37CC8F;" width="182.829" height="117.76"/>
<rect x="393.406" y="285.312" style="fill:#2AA86F;" width="23.615" height="117.76"/>
<path style="fill:#C91C00;" d="M504.179,499.345H7.821c-4.319,0-7.821-3.502-7.821-7.821c0-4.319,3.502-7.821,7.821-7.821h496.358
	c4.319,0,7.821,3.502,7.821,7.821C512,495.843,508.498,499.345,504.179,499.345z"/>
<path style="fill:#E57501;" d="M177.154,404.67c-4.319,0-7.821-3.502-7.821-7.821V372.17c0-4.319,3.502-7.821,7.821-7.821
	s7.821,3.502,7.821,7.821v24.679C184.975,401.168,181.473,404.67,177.154,404.67z"/>
</svg>