<?xml version="1.0" encoding="iso-8859-1"?>
<!-- Uploaded to: SVG Repo, www.svgrepo.com, Generator: SVG Repo Mixer Tools -->
<svg height="800px" width="800px" version="1.1" id="Layer_1" xmlns="http://www.w3.org/2000/svg" xmlns:xlink="http://www.w3.org/1999/xlink" 
	 viewBox="0 0 512 512" xml:space="preserve">
<path style="fill:#FE9901;" d="M459.443,187.819L407.665,37.359V6.689c0-3.578-3.414-6.168-6.86-5.204l-26.893,7.52
	c-2.67,0.746-5.494,0.747-8.165,0.003l-30.822-8.591c-1.994-0.556-4.103-0.556-6.098,0L297.998,9.01
	c-2.667,0.743-5.486,0.743-8.153,0l-30.828-8.594c-1.994-0.556-4.103-0.556-6.098,0L222.09,9.01c-2.667,0.743-5.486,0.743-8.153,0
	l-30.828-8.594c-1.994-0.556-4.103-0.556-6.098,0l-30.819,8.591c-2.672,0.745-5.498,0.743-8.17-0.005L111.19,1.488
	c-3.447-0.965-6.862,1.626-6.862,5.204v30.666h0.005L50.736,193.107c-0.696,2.022-1.051,4.146-1.051,6.284v293.296
	c0,10.666,8.647,19.312,19.312,19.312h284.018l97.178-38.995c7.322-2.939,12.12-10.034,12.12-17.924c0,0,0-181.306,0-250.1
	C462.315,199.141,461.344,193.342,459.443,187.819z"/>
<path style="fill:#ED2601;" d="M104.334,37.359L50.736,193.107c-0.695,2.022-1.051,4.146-1.051,6.284v293.296
	c0,10.666,8.647,19.312,19.312,19.312h284.018V217.838c0-14.352,2.384-28.604,7.053-42.174l47.595-138.304
	C407.665,37.359,104.334,37.359,104.334,37.359z"/>
<path style="fill:#EA8500;" d="M459.443,187.819L407.665,37.359l-12.528,36.402l39.935,122.755c1.901,5.842,2.87,11.976,2.87,18.156
	c0,69.258,0,246.319,0,263.248l12.25-4.915c7.322-2.939,12.12-10.034,12.12-17.924c0,0,0-181.306,0-250.1
	C462.315,199.141,461.344,193.342,459.443,187.819z"/>
<g>
	<path style="fill:#FDEA96;" d="M208.852,349.702c-0.047-0.047-0.227-0.227-0.274-0.274c-20.893-20.893-85.457,2.069-78.289,21.785
		c3.13,8.61,9.623,14.379,15.945,18.146c4.653,2.773,8.933,6.125,12.737,9.952c3.827,3.804,7.179,8.083,9.952,12.737
		c3.767,6.322,9.535,12.815,18.146,15.945C206.783,435.159,229.744,370.596,208.852,349.702z"/>
	<path style="fill:#FDEA96;" d="M196.554,276.134c-5.019,13.24-4.373,43.912,8.868,48.931c13.24,5.019,34.058-17.513,39.078-30.754
		c5.019-13.24-1.644-28.041-14.885-33.062C216.375,256.23,201.573,262.894,196.554,276.134z"/>
	<path style="fill:#FDEA96;" d="M127.164,295.422c2.4,11.885,16.859,33.82,28.743,31.419c11.885-2.4,16.697-28.227,14.296-40.112
		c-2.4-11.885-13.981-19.575-25.867-17.173C132.452,271.957,124.763,283.537,127.164,295.422z"/>
	<path style="fill:#FDEA96;" d="M282.145,361.726c-13.24,5.019-43.912,4.373-48.931-8.868c-5.019-13.24,17.513-34.058,30.754-39.078
		c13.24-5.019,28.041,1.644,33.062,14.885C302.049,341.904,295.385,356.706,282.145,361.726z"/>
	<path style="fill:#FDEA96;" d="M262.856,431.115c-11.885-2.4-33.82-16.859-31.419-28.743c2.4-11.885,28.227-16.697,40.112-14.296
		c11.885,2.4,19.575,13.981,17.173,25.867C286.322,425.827,274.741,433.515,262.856,431.115z"/>
</g>
</svg>