<?xml version="1.0" encoding="iso-8859-1"?>
<!-- Uploaded to: SVG Repo, www.svgrepo.com, Generator: SVG Repo Mixer Tools -->
<svg height="800px" width="800px" version="1.1" id="Layer_1" xmlns="http://www.w3.org/2000/svg" xmlns:xlink="http://www.w3.org/1999/xlink" 
	 viewBox="0 0 512 512" xml:space="preserve">
<path style="fill:#72563A;" d="M415.178,194.608c-0.006,0-0.013,0.001-0.019,0.001h-9.49v12.811h9.49v-0.001
	c0.006,0,0.013,0.001,0.019,0.001c46.324,0,84.01,37.687,84.01,84.01v29.176c0,46.324-37.687,84.01-84.01,84.01H121.522
	c-5.455-12.874-26.59-20.797-41.792-20.797c-19.572,0-34.903,11.949-34.903,27.202s15.331,27.202,34.903,27.202
	c15.201,0,36.337-7.923,41.792-20.797h293.656c53.387,0,96.822-43.435,96.822-96.822V291.43
	C512,238.043,468.566,194.608,415.178,194.608z M79.73,425.412c-11.975,0-22.092-6.591-22.092-14.391
	c0-7.801,10.117-14.391,22.092-14.391c14.348,0,30.318,8.578,30.318,14.391S94.078,425.412,79.73,425.412z"/>
<path style="fill:#FE9901;" d="M415.101,169.076c-2.463,50.524-94.426,91.141-207.521,91.141S2.522,219.599,0.059,169.076H0v64.386
	c0,51.485,92.937,93.221,207.58,93.221s207.58-41.736,207.58-93.221v-64.386L415.101,169.076L415.101,169.076z"/>
<path style="fill:#FE8901;" d="M207.58,141.811c87.911,0,163.055,24.543,193.321,59.203c9.203-10.539,14.259-22.013,14.259-34.018
	c0-51.485-92.937-93.221-207.58-93.221S0,115.512,0,166.996C0,179,5.057,190.474,14.259,201.014
	C44.525,166.354,119.668,141.811,207.58,141.811z"/>
<path style="fill:#E57501;" d="M415.101,169.076v0.002c-0.036,0.749-0.096,1.497-0.172,2.242c-0.026,0.248-0.062,0.493-0.092,0.741
	c-0.059,0.496-0.121,0.993-0.196,1.487c-0.046,0.296-0.101,0.59-0.154,0.886c-0.078,0.444-0.158,0.888-0.251,1.331
	c-0.065,0.314-0.138,0.626-0.209,0.938c-0.097,0.422-0.199,0.842-0.309,1.262c-0.084,0.322-0.173,0.645-0.265,0.966
	c-0.116,0.408-0.239,0.815-0.366,1.22c-0.103,0.327-0.207,0.652-0.317,0.978c-0.136,0.399-0.28,0.799-0.427,1.196
	c-0.121,0.327-0.239,0.653-0.366,0.978c-0.156,0.396-0.323,0.791-0.49,1.186c-0.137,0.322-0.268,0.647-0.412,0.968
	c-0.18,0.405-0.377,0.806-0.569,1.209c-0.147,0.309-0.286,0.617-0.441,0.925c-0.337,0.67-0.691,1.34-1.06,2.005
	c-0.204,0.368-0.425,0.733-0.638,1.1c-0.189,0.323-0.374,0.649-0.57,0.972c-0.235,0.385-0.484,0.768-0.729,1.151
	c-0.191,0.298-0.38,0.597-0.578,0.895c-0.263,0.394-0.535,0.787-0.808,1.179c-0.196,0.281-0.392,0.562-0.594,0.842
	c-0.289,0.401-0.586,0.801-0.888,1.2c-0.199,0.263-0.399,0.525-0.603,0.788c-0.32,0.412-0.646,0.824-0.979,1.233
	c-0.193,0.237-0.39,0.473-0.586,0.71c-0.359,0.43-0.721,0.859-1.092,1.288c-0.171,0.196-0.348,0.392-0.522,0.588
	c-0.411,0.462-0.825,0.925-1.252,1.384c-0.1,0.108-0.206,0.216-0.307,0.323c-2.209,2.348-4.624,4.646-7.238,6.892
	c-0.03,0.026-0.059,0.051-0.089,0.077c-0.616,0.527-1.246,1.052-1.884,1.573c-0.096,0.079-0.191,0.158-0.287,0.236
	c-0.621,0.505-1.256,1.007-1.897,1.506c-0.112,0.088-0.224,0.174-0.336,0.262c-0.649,0.501-1.308,0.999-1.977,1.495
	c-0.099,0.074-0.199,0.146-0.299,0.22c-0.698,0.514-1.405,1.024-2.125,1.53c-0.046,0.032-0.093,0.064-0.139,0.097
	c-36.872,25.904-101.466,43.082-175.006,43.082c-9.282,0-18.403-0.3-27.361-0.831c-11.067,7.565-18.294,19.937-18.294,33.894
	c0,13.113,6.383,24.823,16.334,32.467c9.581,0.611,19.366,0.934,29.322,0.934c108.693,0,197.86-37.518,206.824-85.289
	c0.489-2.896,0.756-5.571,0.756-7.931v-64.385h-0.059V169.076z"/>
<path style="fill:#D36705;" d="M415.101,169.076v0.002c-0.036,0.749-0.096,1.497-0.172,2.242c-0.026,0.248-0.062,0.493-0.092,0.741
	c-0.059,0.496-0.121,0.993-0.196,1.487c-0.046,0.296-0.101,0.59-0.154,0.886c-0.078,0.444-0.158,0.888-0.251,1.331
	c-0.065,0.314-0.138,0.626-0.209,0.938c-0.097,0.422-0.199,0.842-0.309,1.262c-0.084,0.322-0.173,0.645-0.265,0.966
	c-0.116,0.408-0.239,0.815-0.366,1.22c-0.103,0.327-0.207,0.652-0.317,0.978c-0.136,0.399-0.28,0.799-0.427,1.196
	c-0.121,0.327-0.239,0.653-0.366,0.978c-0.156,0.396-0.323,0.791-0.49,1.186c-0.137,0.322-0.268,0.647-0.412,0.968
	c-0.18,0.405-0.377,0.806-0.569,1.209c-0.147,0.309-0.286,0.617-0.441,0.925c-0.337,0.67-0.691,1.34-1.06,2.005
	c-0.204,0.368-0.425,0.733-0.638,1.1c-0.189,0.323-0.374,0.649-0.57,0.972c-0.235,0.385-0.484,0.768-0.729,1.151
	c-0.191,0.298-0.38,0.597-0.578,0.895c-0.263,0.394-0.535,0.787-0.808,1.179c-0.196,0.281-0.392,0.562-0.594,0.842
	c-0.289,0.401-0.586,0.801-0.888,1.2c-0.199,0.263-0.399,0.525-0.603,0.788c-0.32,0.412-0.646,0.824-0.979,1.233
	c-0.193,0.237-0.39,0.473-0.586,0.71c-0.359,0.43-0.721,0.859-1.092,1.288c-0.171,0.196-0.348,0.392-0.522,0.588
	c-0.411,0.462-0.825,0.925-1.252,1.384c-0.1,0.108-0.206,0.216-0.307,0.323c-2.209,2.348-4.624,4.646-7.238,6.892
	c-0.03,0.026-0.059,0.051-0.089,0.077c-0.179,0.154-0.367,0.305-0.549,0.458v22.787c0,2.361-0.266,5.035-0.756,7.931
	c-8.624,45.955-91.473,82.416-194.523,85.122c3.932,0.101,7.887,0.168,11.876,0.168c108.693,0,197.86-37.518,206.824-85.289
	c0.489-2.896,0.756-5.571,0.756-7.931v-64.385h-0.059V169.076z"/>
<g>
	<path style="fill:#E6E6E6;" d="M231.212,301.561h-8.157c-4.422,0-8.007-3.585-8.007-8.007s3.585-8.007,8.007-8.007h8.157
		c4.422,0,8.007,3.585,8.007,8.007S235.634,301.561,231.212,301.561z"/>
	<path style="fill:#E6E6E6;" d="M267.612,298.772c-3.846,0-7.239-2.779-7.89-6.697c-0.724-4.362,2.226-8.487,6.588-9.211
		l8.048-1.336c4.357-0.721,8.486,2.225,9.211,6.588c0.724,4.362-2.226,8.487-6.588,9.211l-8.048,1.336
		C268.489,298.737,268.048,298.772,267.612,298.772z"/>
	<path style="fill:#E6E6E6;" d="M311.771,289.154c-3.562,0-6.813-2.395-7.746-6.003c-1.108-4.281,1.465-8.65,5.746-9.758
		l7.897-2.043c4.276-1.11,8.65,1.465,9.758,5.746c1.108,4.281-1.465,8.65-5.746,9.758l-7.897,2.043
		C313.111,289.07,312.435,289.154,311.771,289.154z"/>
</g>
</svg>