<?xml version="1.0" encoding="iso-8859-1"?>
<!-- Uploaded to: SVG Repo, www.svgrepo.com, Generator: SVG Repo Mixer Tools -->
<svg version="1.1" id="Layer_1" xmlns="http://www.w3.org/2000/svg" xmlns:xlink="http://www.w3.org/1999/xlink" 
	 viewBox="0 0 512 512" xml:space="preserve">
<g>
	<path style="fill:#EA8500;" d="M322.39,121.019c-5.222,0-9.455-4.233-9.455-9.455V79.316c0-8.157-6.636-14.794-14.794-14.794
		h-81.794c-8.157,0-14.794,6.636-14.794,14.794v32.248c0,5.222-4.233,9.455-9.455,9.455s-9.455-4.233-9.455-9.455V79.316
		c0-18.584,15.119-33.703,33.703-33.703h81.794c18.584,0,33.703,15.119,33.703,33.703v32.248
		C331.845,116.785,327.612,121.019,322.39,121.019z"/>
	<path style="fill:#EA8500;" d="M504.121,296.856H7.879c-4.351,0-7.879-3.528-7.879-7.879c0-4.351,3.528-7.879,7.879-7.879h496.242
		c4.351,0,7.879,3.528,7.879,7.879C512,293.328,508.472,296.856,504.121,296.856z"/>
</g>
<path style="fill:#FEA921;" d="M448.857,129.827c-2.359-10.589-13.345-18.263-26.146-18.263H91.777
	c-12.801,0-23.786,7.673-26.146,18.263L30.168,288.975l35.462,159.15c2.36,10.589,13.345,18.263,26.146,18.263H422.71
	c12.801,0,23.786-7.673,26.146-18.263l35.462-159.15L448.857,129.827z"/>
<path style="fill:#EA8500;" d="M448.857,129.827c-2.359-10.589-13.345-18.263-26.146-18.263h-23.791
	c12.801,0,23.786,7.673,26.146,18.263l35.462,159.15h23.791L448.857,129.827z"/>
<path style="fill:#FE9901;" d="M484.319,288.975H30.168l35.462,159.15c2.36,10.589,13.345,18.263,26.146,18.263H422.71
	c12.801,0,23.786-7.673,26.146-18.263L484.319,288.975z"/>
<path style="fill:#ED8803;" d="M460.529,288.975l-35.462,159.15c-2.36,10.589-13.345,18.263-26.146,18.263h23.791
	c12.801,0,23.786-7.673,26.146-18.263l35.462-159.15H460.529z"/>
<g>
	<rect x="111.126" y="269.18" style="fill:#C7AC91;" width="57.513" height="39.598"/>
	<rect x="345.849" y="269.18" style="fill:#C7AC91;" width="57.513" height="39.598"/>
</g>
<g>
	<rect x="111.126" y="269.18" style="fill:#DECCBC;" width="57.513" height="19.707"/>
	<rect x="345.849" y="269.18" style="fill:#DECCBC;" width="57.513" height="19.707"/>
</g>
<g>
	<path style="fill:#EA8500;" d="M129.914,247.573c-0.438,0-0.882-0.037-1.329-0.112c-4.29-0.729-7.177-4.797-6.448-9.087
		l15.753-92.732c0.729-4.289,4.8-7.176,9.087-6.448c4.29,0.729,7.177,4.797,6.448,9.087l-15.753,92.732
		C137.02,244.855,133.686,247.573,129.914,247.573z"/>
	<path style="fill:#EA8500;" d="M193.583,247.572c-0.224,0-0.449-0.009-0.676-0.028c-4.336-0.369-7.552-4.181-7.184-8.518
		l7.877-92.732c0.369-4.336,4.183-7.54,8.518-7.184c4.336,0.369,7.552,4.181,7.184,8.518l-7.877,92.732
		C201.077,244.467,197.633,247.572,193.583,247.572z"/>
	<path style="fill:#EA8500;" d="M257.244,247.572c-4.351,0-7.879-3.528-7.879-7.879V146.96c0-4.351,3.528-7.879,7.879-7.879
		c4.351,0,7.879,3.528,7.879,7.879v92.732C265.123,244.044,261.595,247.572,257.244,247.572z"/>
	<path style="fill:#EA8500;" d="M320.905,247.572c-4.05,0-7.492-3.104-7.842-7.213l-7.877-92.732
		c-0.369-4.336,2.848-8.149,7.184-8.518c4.345-0.365,8.149,2.849,8.518,7.184l7.877,92.732c0.369,4.336-2.848,8.149-7.184,8.518
		C321.354,247.562,321.128,247.572,320.905,247.572z"/>
	<path style="fill:#EA8500;" d="M384.574,247.573c-3.773,0-7.106-2.717-7.758-6.561l-15.753-92.732
		c-0.729-4.289,2.158-8.358,6.448-9.087c4.29-0.73,8.358,2.159,9.087,6.448l15.753,92.732c0.729,4.289-2.158,8.358-6.448,9.087
		C385.456,247.536,385.012,247.573,384.574,247.573z"/>
</g>
</svg>