<?xml version="1.0" encoding="iso-8859-1"?>
<!-- Uploaded to: SVG Repo, www.svgrepo.com, Generator: SVG Repo Mixer Tools -->
<svg height="800px" width="800px" version="1.1" id="Layer_1" xmlns="http://www.w3.org/2000/svg" xmlns:xlink="http://www.w3.org/1999/xlink" 
	 viewBox="0 0 512 512" xml:space="preserve">
<g>
	<path style="fill:#E2CE79;" d="M504.017,474.52H154.714c-4.41,0-7.983-3.574-7.983-7.983c0-4.409,3.573-7.983,7.983-7.983h349.302
		c4.41,0,7.983,3.574,7.983,7.983C512,470.945,508.427,474.52,504.017,474.52z"/>
	<path style="fill:#E2CE79;" d="M83.75,474.52H7.983c-4.41,0-7.983-3.574-7.983-7.983c0-4.409,3.573-7.983,7.983-7.983H83.75
		c4.41,0,7.983,3.574,7.983,7.983C91.733,470.945,88.159,474.52,83.75,474.52z"/>
</g>
<path style="fill:#F2F2F2;" d="M125.743,450.87l86.233-86.233l-27.866-27.946l-64.389,64.388c-0.798,0.798-1.248,1.882-1.248,3.01
	v43.769C118.475,451.652,123.061,453.552,125.743,450.87z"/>
<path style="fill:#CCCCCC;" d="M189.238,352.781l-70.762,70.762v24.315c0,3.794,4.587,5.693,7.268,3.01l80.792-80.792
	L189.238,352.781z"/>
<path style="fill:#37CC8F;" d="M239.357,270.027l-63.426,63.426c-1.663,1.663-1.663,4.359,0,6.022l33.3,33.3
	c1.663,1.663,4.359,1.663,6.022,0l63.459-63.459L239.357,270.027z"/>
<path style="fill:#ED2601;" d="M235.341,271.147l42.219,42.219c1.663,1.663,4.359,1.663,6.022,0L501.236,95.711
	c13.322-13.322,13.322-34.919,0-48.24l0,0c-13.322-13.322-34.919-13.322-48.24,0L235.341,265.126
	C233.678,266.788,233.678,269.485,235.341,271.147z"/>
<path style="fill:#C91C00;" d="M501.343,47.579c-2.999-3.025-6.424-5.366-10.08-7.032c5.729,12.578,3.424,27.918-6.924,38.266
	L263.673,299.479l13.888,13.888c1.663,1.663,4.359,1.663,6.022,0l217.18-217.18C514.118,82.829,514.642,60.994,501.343,47.579z"/>
<g>
	<polygon style="fill:#2AA86F;" points="217.736,291.649 217.736,370.293 229.445,358.584 229.445,279.94 	"/>
	<polygon style="fill:#2AA86F;" points="190.948,354.49 202.657,366.199 202.657,306.729 190.948,318.438 	"/>
	<polygon style="fill:#2AA86F;" points="244.525,280.331 244.525,343.504 256.234,331.795 256.234,292.04 	"/>
</g>
</svg>