<svg id='Ecology_Science_Carbon_48' width='48' height='48' viewBox='0 0 48 48' xmlns='http://www.w3.org/2000/svg' xmlns:xlink='http://www.w3.org/1999/xlink'>
  <rect width='48' height='48' stroke='none' fill='#000000' opacity='0'/>
  <g transform="matrix(3.14 0 0 3.14 24 24)">
    <g style="">
      <g transform="matrix(1 0 0 1 -0.08 0)">
        <path style="stroke: none; stroke-width: 0.7; fill: rgb(236,253,248); opacity: 1;" transform="translate(-6.92, -7)" d="M 6.92114 13.25 C 10.3729 13.25 13.1711 10.4518 13.1711 7 C 13.1711 3.54822 10.3729 0.75 6.92114 0.75 C 3.46936 0.75 0.671143 3.54822 0.671143 7 C 0.671143 10.4518 3.46936 13.25 6.92114 13.25 Z" stroke-linecap="round"/>
      </g>
      <g transform="matrix(1 0 0 1 -3.66 -0.33)">
        <path style="stroke: rgb(5,150,105); stroke-width: 0.7; fill: none; opacity: 1;" transform="translate(-3.34, -6.67)" d="M 4.59009 5.38863 C 4.45858 5.01657 4.10375 4.75 3.68665 4.75 L 3.04803 4.75 C 2.51897 4.75 2.09009 5.17888 2.09009 5.70794 L 2.09009 7.62382 C 2.09009 8.15288 2.51897 8.58176 3.04803 8.58176 L 3.68665 8.58176 C 4.10375 8.58176 4.45858 8.3152 4.59008 7.94314" stroke-linecap="round"/>
      </g>
      <g transform="matrix(1 0 0 1 0.25 -0.38)">
        <path style="stroke: rgb(5,150,105); stroke-width: 0.7; fill: none; opacity: 1;" transform="translate(-7.25, -6.63)" d="M 6.00391 5.75 L 6.00391 7.5 C 6.00391 8.05228 6.45162 8.5 7.00391 8.5 L 7.50391 8.5 C 8.05619 8.5 8.50391 8.05228 8.50391 7.5 L 8.50391 5.75 C 8.50391 5.19772 8.05619 4.75 7.50391 4.75 L 7.00391 4.75 C 6.45162 4.75 6.00391 5.19772 6.00391 5.75 Z" stroke-linecap="round"/>
      </g>
      <g transform="matrix(1 0 0 1 3.92 1.91)">
        <path style="stroke: rgb(5,150,105); stroke-width: 0.7; fill: none; opacity: 1;" transform="translate(-10.92, -8.91)" d="M 11.918 10.4065 L 9.91797 10.4065 L 9.91797 9.98034 C 9.91797 9.68236 10.0944 9.41265 10.3674 9.29322 L 11.4802 8.80633 C 11.7461 8.69 11.918 8.42728 11.918 8.13704 C 11.918 7.73357 11.5909 7.40649 11.1874 7.40649 L 10.668 7.40649 C 10.3414 7.40649 10.0636 7.6152 9.96065 7.90649" stroke-linecap="round"/>
      </g>
      <g transform="matrix(1 0 0 1 -1.22 4.62)">
        <path style="stroke: rgb(5,150,105); stroke-width: 0.7; fill: none; opacity: 1;" transform="translate(-5.78, -11.62)" d="M 1.43604 9.99687 C 2.49728 11.9354 4.55613 13.25 6.92202 13.25 C 8.09188 13.25 9.18666 12.9286 10.1229 12.3693" stroke-linecap="round"/>
      </g>
      <g transform="matrix(1 0 0 1 0.54 -3.62)">
        <path style="stroke: rgb(5,150,105); stroke-width: 0.7; fill: none; opacity: 1;" transform="translate(-7.54, -3.38)" d="M 1.97461 3.18074 C 3.11766 1.70214 4.90878 0.75 6.92229 0.75 C 10.0406 0.75 12.6255 3.03369 13.0959 6.01985" stroke-linecap="round"/>
      </g>
    </g>
  </g>
</svg>
