<svg id='Ecology_Science_Oxygen_48' width='48' height='48' viewBox='0 0 48 48' xmlns='http://www.w3.org/2000/svg' xmlns:xlink='http://www.w3.org/1999/xlink'>
  <rect width='48' height='48' stroke='none' fill='#000000' opacity='0'/>
  <g transform="matrix(3.14 0 0 3.14 24 24)">
    <g style="">
      <g transform="matrix(1 0 0 1 0 0)">
        <path style="stroke: none; stroke-width: 0.7; fill: rgb(230,230,230); opacity: 1;" transform="translate(-7, -7)" d="M 7 13.25 C 10.4518 13.25 13.25 10.4518 13.25 7 C 13.25 3.54822 10.4518 0.75 7 0.75 C 3.54822 0.75 0.75 3.54822 0.75 7 C 0.75 10.4518 3.54822 13.25 7 13.25 Z" stroke-linecap="round"/>
      </g>
      <g transform="matrix(1 0 0 1 0 0)">
        <path style="stroke: rgb(180,180,180); stroke-width: 0.7; fill: none; opacity: 1;" transform="translate(-7, -7)" d="M 7 13.25 C 10.4518 13.25 13.25 10.4518 13.25 7 C 13.25 3.54822 10.4518 0.75 7 0.75 C 3.54822 0.75 0.75 3.54822 0.75 7 C 0.75 10.4518 3.54822 13.25 7 13.25 Z" stroke-linecap="round"/>
      </g>
      <g transform="matrix(1 0 0 1 -1.71 -0.96)">
        <path style="stroke: rgb(180,180,180); stroke-width: 0.7; fill: none; opacity: 1;" transform="translate(-5.29, -6.04)" d="M 4.04004 5.17 L 4.04004 6.92 C 4.04004 7.47228 4.48775 7.92 5.04004 7.92 L 5.54004 7.92 C 6.09232 7.92 6.54004 7.47228 6.54004 6.92 L 6.54004 5.17 C 6.54004 4.61771 6.09232 4.17 5.54004 4.17 L 5.04004 4.17 C 4.48775 4.17 4.04004 4.61771 4.04004 5.17 Z" stroke-linecap="round"/>
      </g>
      <g transform="matrix(1 0 0 1 1.95 1.33)">
        <path style="stroke: rgb(180,180,180); stroke-width: 0.7; fill: none; opacity: 1;" transform="translate(-8.95, -8.33)" d="M 9.9541 9.82649 L 7.9541 9.82649 L 7.9541 9.40033 C 7.9541 9.10236 8.1305 8.83265 8.40349 8.71322 L 9.51637 8.22633 C 9.78228 8.10999 9.9541 7.84728 9.9541 7.55704 C 9.9541 7.15357 9.62703 6.82649 9.22356 6.82649 L 8.7041 6.82649 C 8.37755 6.82649 8.09974 7.03519 7.99678 7.32649" stroke-linecap="round"/>
      </g>
    </g>
  </g>
</svg>
